<svg width="24" height="24" viewBox="0 0 24 24" fill="none" xmlns="http://www.w3.org/2000/svg">
<path opacity="0.35" d="M5 4H19C20.657 4 22 5.343 22 7V17C22 18.657 20.657 20 19 20H5C3.343 20 2 18.657 2 17V7C2 5.343 3.343 4 5 4Z" fill="white"/>
<path d="M19 20H17C17 20.552 17.448 21 18 21C18.552 21 19 20.552 19 20Z" fill="white"/>
<path d="M7 20H5C5 20.552 5.448 21 6 21C6.552 21 7 20.552 7 20Z" fill="white"/>
<path d="M5.5 15C6.32843 15 7 14.3284 7 13.5C7 12.6716 6.32843 12 5.5 12C4.67157 12 4 12.6716 4 13.5C4 14.3284 4.67157 15 5.5 15Z" fill="white"/>
<path d="M17.7208 8.693L18.7068 7.707C19.0978 7.316 19.0978 6.684 18.7068 6.293C18.3158 5.902 17.6838 5.902 17.2928 6.293L16.1048 7.481C15.4628 7.18 14.7538 7 13.9998 7C13.2458 7 12.5368 7.18 11.8948 7.481L10.7068 6.293C10.3158 5.902 9.68376 5.902 9.29276 6.293C8.90176 6.684 8.90176 7.316 9.29276 7.707L10.2788 8.693C9.49276 9.577 8.99976 10.727 8.99976 12C8.99976 13.273 9.49276 14.423 10.2788 15.307L9.29276 16.293C8.90176 16.684 8.90176 17.316 9.29276 17.707C9.48776 17.902 9.74376 18 9.99976 18C10.2558 18 10.5118 17.902 10.7068 17.707L11.8948 16.519C12.5368 16.82 13.2458 17 13.9998 17C14.7538 17 15.4628 16.82 16.1048 16.519L17.2928 17.707C17.4878 17.902 17.7438 18 17.9998 18C18.2558 18 18.5118 17.902 18.7068 17.707C19.0978 17.316 19.0978 16.684 18.7068 16.293L17.7208 15.307C18.5068 14.423 18.9998 13.273 18.9998 12C18.9998 10.727 18.5068 9.577 17.7208 8.693ZM11.9998 12C11.9998 10.897 12.8968 10 13.9998 10C15.1028 10 15.9998 10.897 15.9998 12C15.9998 13.103 15.1028 14 13.9998 14C12.8968 14 11.9998 13.103 11.9998 12Z" fill="white"/>
</svg>
