<svg width="13" height="18" viewBox="0 0 13 18" fill="none" xmlns="http://www.w3.org/2000/svg">
<g filter="url(#filter0_i_76_1594)">
<path d="M0.999992 10.2547L0.999991 11.8855C0.999991 12.0644 1.14497 12.2093 1.3238 12.2093L10.4433 12.2094L11.4936 10.4185C11.6202 10.2027 11.4645 9.9309 11.2142 9.9309L1.3238 9.9309C1.14497 9.9309 0.999992 10.0759 0.999992 10.2547Z" fill="#0D8BFF"/>
<path d="M7.10234 17.8331L7.82543 12.2087L10.4365 12.2087L7.10234 17.8331Z" fill="#0D8BFF"/>
<path d="M11.7797 7.74532L11.7797 6.11449C11.7797 5.93566 11.6347 5.79068 11.4559 5.79068L2.33637 5.79068L1.2861 7.58151C1.1595 7.79738 1.31517 8.06913 1.56542 8.06913L11.4559 8.06913C11.6347 8.06913 11.7797 7.92416 11.7797 7.74532Z" fill="white"/>
<path d="M5.67732 0.166818L4.95423 5.79117L2.34314 5.79117L5.67732 0.166818Z" fill="white"/>
</g>
<defs>
<filter id="filter0_i_76_1594" x="1" y="0.166809" width="10.7797" height="18.5919" filterUnits="userSpaceOnUse" color-interpolation-filters="sRGB">
<feFlood flood-opacity="0" result="BackgroundImageFix"/>
<feBlend mode="normal" in="SourceGraphic" in2="BackgroundImageFix" result="shape"/>
<feColorMatrix in="SourceAlpha" type="matrix" values="0 0 0 0 0 0 0 0 0 0 0 0 0 0 0 0 0 0 127 0" result="hardAlpha"/>
<feOffset dy="0.92562"/>
<feGaussianBlur stdDeviation="0.46281"/>
<feComposite in2="hardAlpha" operator="arithmetic" k2="-1" k3="1"/>
<feColorMatrix type="matrix" values="0 0 0 0 0 0 0 0 0 0 0 0 0 0 0 0 0 0 0.15 0"/>
<feBlend mode="normal" in2="shape" result="effect1_innerShadow_76_1594"/>
</filter>
</defs>
</svg>
