<svg width="13" height="18" viewBox="0 0 13 18" fill="none" xmlns="http://www.w3.org/2000/svg">
<g filter="url(#filter0_i_76_1636)">
<path d="M0.999992 10.2547L0.999991 11.8855C0.999991 12.0644 1.14497 12.2093 1.3238 12.2093L10.4433 12.2094L11.4936 10.4185C11.6202 10.2027 11.4645 9.9309 11.2142 9.9309L1.3238 9.9309C1.14497 9.9309 0.999992 10.0759 0.999992 10.2547Z" fill="#0D8BFF"/>
<path d="M7.10234 17.8331L7.82543 12.2088L10.4365 12.2088L7.10234 17.8331Z" fill="#0D8BFF"/>
<path d="M11.7797 7.74535L11.7797 6.11452C11.7797 5.93569 11.6347 5.79071 11.4559 5.79071L2.33637 5.79071L1.2861 7.58154C1.1595 7.79741 1.31517 8.06916 1.56542 8.06916L11.4559 8.06916C11.6347 8.06916 11.7797 7.92419 11.7797 7.74535Z" fill="white"/>
<path d="M5.67732 0.16688L4.95423 5.79123L2.34314 5.79123L5.67732 0.16688Z" fill="white"/>
</g>
<defs>
<filter id="filter0_i_76_1636" x="1" y="0.16687" width="10.7797" height="18.5919" filterUnits="userSpaceOnUse" color-interpolation-filters="sRGB">
<feFlood flood-opacity="0" result="BackgroundImageFix"/>
<feBlend mode="normal" in="SourceGraphic" in2="BackgroundImageFix" result="shape"/>
<feColorMatrix in="SourceAlpha" type="matrix" values="0 0 0 0 0 0 0 0 0 0 0 0 0 0 0 0 0 0 127 0" result="hardAlpha"/>
<feOffset dy="0.92562"/>
<feGaussianBlur stdDeviation="0.46281"/>
<feComposite in2="hardAlpha" operator="arithmetic" k2="-1" k3="1"/>
<feColorMatrix type="matrix" values="0 0 0 0 0 0 0 0 0 0 0 0 0 0 0 0 0 0 0.15 0"/>
<feBlend mode="normal" in2="shape" result="effect1_innerShadow_76_1636"/>
</filter>
</defs>
</svg>
