<svg width="12" height="12" viewBox="0 0 12 12" fill="none" xmlns="http://www.w3.org/2000/svg">
<path fill-rule="evenodd" clip-rule="evenodd" d="M11.2895 0.969335C11.6748 1.22133 11.7828 1.73733 11.5308 2.12267L5.86413 10.7893C5.7981 10.8903 5.71094 10.9758 5.60866 11.0397C5.50638 11.1037 5.39142 11.1448 5.27174 11.16C5.15205 11.1752 5.03049 11.1642 4.91545 11.1279C4.80042 11.0915 4.69465 11.0306 4.60546 10.9493L0.938792 7.616C0.775241 7.4673 0.67746 7.25973 0.666958 7.03893C0.656456 6.81814 0.734093 6.60222 0.882791 6.43867C1.03149 6.27512 1.23907 6.17734 1.45986 6.16683C1.68065 6.15633 1.89657 6.23397 2.06013 6.38267L5.00413 9.05867L10.1361 1.21067C10.2571 1.02575 10.4465 0.896452 10.6628 0.851196C10.8791 0.805939 11.1045 0.848434 11.2895 0.969335Z" fill="white"/>
</svg>
