<svg width="12" height="9" viewBox="0 0 12 9" fill="none" xmlns="http://www.w3.org/2000/svg">
<path fill-rule="evenodd" clip-rule="evenodd" d="M10.5 0C10.086 0 9.711 0.158667 9.4395 0.415083L7.9395 1.83175L4.5 5.08017L2.5605 3.24842C2.289 2.992 1.914 2.83333 1.5 2.83333C0.672 2.83333 0 3.468 0 4.25C0 4.641 0.168 4.99517 0.4395 5.25158L3.4395 8.08492C3.711 8.34133 4.086 8.5 4.5 8.5C4.914 8.5 5.289 8.34133 5.5605 8.08492L10.0605 3.83492L11.5605 2.41825C11.832 2.16183 12 1.80767 12 1.41667C12 0.633958 11.328 0 10.5 0Z" fill="white"/>
</svg>
