<svg width="24" height="24" viewBox="0 0 24 24" fill="none" xmlns="http://www.w3.org/2000/svg">
<path opacity="0.35" d="M13.4998 18.865V13.422L20.8058 8.765L19.1938 6.235L11.9998 10.822L6.91585 7.58L12.7348 4.307L11.2648 1.693L3.26485 6.193L3.99985 7.5L3.19385 8.765L10.4998 13.422V18.865L4.80585 15.235L3.19385 17.765L11.1938 22.865L11.9998 21.6L12.8058 22.865L20.8058 17.765L19.1938 15.235L13.4998 18.865Z" fill="#E3E4AB"/>
<path d="M12 5C13.1046 5 14 4.10457 14 3C14 1.89543 13.1046 1 12 1C10.8954 1 10 1.89543 10 3C10 4.10457 10.8954 5 12 5Z" fill="#E3E4AB"/>
<path d="M20 9.5C21.1046 9.5 22 8.60457 22 7.5C22 6.39543 21.1046 5.5 20 5.5C18.8954 5.5 18 6.39543 18 7.5C18 8.60457 18.8954 9.5 20 9.5Z" fill="#E3E4AB"/>
<path d="M4 9.5C5.10457 9.5 6 8.60457 6 7.5C6 6.39543 5.10457 5.5 4 5.5C2.89543 5.5 2 6.39543 2 7.5C2 8.60457 2.89543 9.5 4 9.5Z" fill="#E3E4AB"/>
<path d="M12 23C13.1046 23 14 22.1046 14 21C14 19.8954 13.1046 19 12 19C10.8954 19 10 19.8954 10 21C10 22.1046 10.8954 23 12 23Z" fill="#E3E4AB"/>
<path d="M4 18.5C5.10457 18.5 6 17.6046 6 16.5C6 15.3954 5.10457 14.5 4 14.5C2.89543 14.5 2 15.3954 2 16.5C2 17.6046 2.89543 18.5 4 18.5Z" fill="#E3E4AB"/>
<path d="M20 18.5C21.1046 18.5 22 17.6046 22 16.5C22 15.3954 21.1046 14.5 20 14.5C18.8954 14.5 18 15.3954 18 16.5C18 17.6046 18.8954 18.5 20 18.5Z" fill="#E3E4AB"/>
<path d="M12 14C13.1046 14 14 13.1046 14 12C14 10.8954 13.1046 10 12 10C10.8954 10 10 10.8954 10 12C10 13.1046 10.8954 14 12 14Z" fill="#E3E4AB"/>
</svg>
