<svg width="70" height="70" viewBox="0 0 70 70" fill="none" xmlns="http://www.w3.org/2000/svg">
<path d="M35 2.625C35 1.17525 36.177 -0.0102446 37.6226 0.0983732C43.9913 0.576872 50.1261 2.79106 55.3495 6.52371C61.2867 10.7665 65.7492 16.759 68.113 23.6629C70.4767 30.5668 70.6234 38.0369 68.5326 45.0284C66.4417 52.0198 62.2178 58.1828 56.4517 62.6554C50.6857 67.128 43.6658 69.6865 36.3741 69.973C29.0823 70.2595 21.8834 68.2597 15.7842 64.2533C9.685 60.2468 4.9906 54.4342 2.35763 47.6284C0.0412468 41.6409 -0.577712 35.1482 0.54265 28.8606C0.796969 27.4333 2.23792 26.5881 3.64212 26.9487C5.04632 27.3092 5.88014 28.7391 5.64474 30.1696C4.78524 35.3927 5.33269 40.7679 7.25399 45.7341C9.49201 51.5191 13.4822 56.4598 18.6666 59.8653C23.8509 63.2707 29.97 64.9706 36.168 64.7271C42.366 64.4835 48.3328 62.3088 53.234 58.5071C58.1351 54.7054 61.7254 49.4668 63.5027 43.5241C65.2799 37.5814 65.1552 31.2318 63.146 25.3635C61.1369 19.4951 57.3437 14.4015 52.297 10.7951C47.9646 7.69915 42.8944 5.83215 37.6217 5.36572C36.1776 5.23797 35 4.07475 35 2.625Z" fill="#91BF0F"/>
</svg>
