<svg width="70" height="70" viewBox="0 0 70 70" fill="none" xmlns="http://www.w3.org/2000/svg">
<path d="M35 2.625C35 1.17525 36.177 -0.0102444 37.6227 0.0983723C44.1766 0.590784 50.4791 2.92106 55.7942 6.84685C61.8152 11.294 66.2518 17.5543 68.4528 24.7086C70.6537 31.8629 70.5031 39.5344 68.0229 46.5968C65.5428 53.6592 60.8638 59.7405 54.6729 63.9478C48.482 68.1551 41.1054 70.2669 33.6259 69.973C26.1464 69.6791 18.9582 66.9951 13.1165 62.3151C7.2748 57.635 3.08738 51.2053 1.169 43.9701C-0.524494 37.5831 -0.371011 30.8653 1.58382 24.5903C2.01502 23.2062 3.55055 22.5483 4.89849 23.082C6.24643 23.6157 6.89446 25.1388 6.48162 26.5285C4.92937 31.7538 4.83801 37.3232 6.24365 42.6246C7.87427 48.7745 11.4336 54.2397 16.399 58.2178C21.3645 62.1959 27.4745 64.4773 33.832 64.7271C40.1896 64.9769 46.4597 63.1819 51.722 59.6056C56.9842 56.0294 60.9614 50.8604 63.0695 44.8573C65.1776 38.8543 65.3057 32.3335 63.4348 26.2523C61.564 20.1711 57.7929 14.8499 52.6751 11.0698C48.2635 7.81134 43.0515 5.84603 37.6217 5.36572C36.1776 5.23797 35 4.07475 35 2.625Z" fill="#298A06"/>
</svg>
