<svg width="90" height="90" viewBox="0 0 90 90" fill="none" xmlns="http://www.w3.org/2000/svg">
<path d="M45 3.375C45 1.51104 46.5132 -0.0131716 48.372 0.12648C56.5603 0.741692 64.4479 3.58851 71.1636 8.38762C78.7971 13.8426 84.5347 21.5472 87.5738 30.4237C90.6129 39.3002 90.8016 48.9046 88.1133 57.8936C85.425 66.8826 79.9943 74.8065 72.5808 80.557C65.1673 86.3075 56.1418 89.597 46.7667 89.9653C37.3916 90.3337 28.1358 87.7625 20.294 82.6113C12.4521 77.4602 6.41649 69.9868 3.03124 61.2365C0.0530314 53.5383 -0.742772 45.1905 0.697693 37.1064C1.02467 35.2714 2.87733 34.1847 4.68273 34.6483C6.48813 35.1118 7.56018 36.9503 7.25752 38.7895C6.15245 45.5049 6.85631 52.4158 9.32656 58.801C12.204 66.2388 17.3343 72.5912 23.9999 76.9696C30.6654 81.3481 38.5328 83.5336 46.5017 83.2205C54.4705 82.9074 62.1422 80.1114 68.4437 75.2234C74.7452 70.3355 79.3613 63.6002 81.6463 55.9596C83.9313 48.3189 83.771 40.1552 81.1878 32.6102C78.6045 25.0651 73.7276 18.5162 67.2391 13.8795C61.6688 9.8989 55.15 7.49847 48.3708 6.89878C46.5141 6.73454 45 5.23896 45 3.375Z" fill="#91BF0F"/>
</svg>
