<svg width="70" height="70" viewBox="0 0 70 70" fill="none" xmlns="http://www.w3.org/2000/svg">
<path d="M35 2.625C35 1.17525 36.1771 -0.0102468 37.6227 0.0983562C45.1057 0.660496 52.2364 3.61666 57.939 8.56514C64.3047 14.089 68.4633 21.7243 69.6508 30.0685C70.8384 38.4126 68.9751 46.905 64.4033 53.9855C59.8315 61.0659 52.8582 66.2589 44.7647 68.6103C36.6711 70.9617 28.0009 70.3136 20.3469 66.785C12.6929 63.2565 6.5692 57.0845 3.10088 49.403C-0.36744 41.7215 -0.947436 33.0465 1.46745 24.9716C3.63081 17.7379 8.06747 11.4211 14.0843 6.93689C15.2468 6.07056 16.8758 6.44081 17.6526 7.66488C18.4294 8.88894 18.0585 10.5021 16.9076 11.3837C11.9529 15.1793 8.29834 20.4538 6.49733 26.4759C4.44468 33.3395 4.93768 40.7133 7.88575 47.2425C10.8338 53.7718 16.039 59.018 22.5449 62.0173C29.0508 65.0165 36.4205 65.5674 43.3 63.5687C50.1795 61.5701 56.1067 57.156 59.9928 51.1376C63.8788 45.1192 65.4626 37.9007 64.4532 30.8082C63.4438 23.7157 59.909 17.2256 54.4982 12.5304C49.7507 8.41074 43.8388 5.91558 37.6217 5.36569C36.1776 5.23796 35 4.07475 35 2.625Z" fill="#298A06"/>
</svg>
