<svg width="70" height="70" viewBox="0 0 70 70" fill="none" xmlns="http://www.w3.org/2000/svg">
<path d="M35 2.625C35 1.17525 36.177 -0.0102443 37.6227 0.0983716C44.2693 0.597744 50.6555 2.9872 56.0147 7.01104C62.0757 11.5618 66.4957 17.957 68.6103 25.2353C70.7248 32.5136 70.4196 40.2817 67.7405 47.3716C65.0615 54.4616 60.1533 60.4903 53.7539 64.5515C47.3546 68.6126 39.8098 70.4868 32.2539 69.8921C24.698 69.2974 17.5394 66.2661 11.8541 61.2539C6.1688 56.2416 2.26417 49.5193 0.7272 42.0975C-0.631819 35.5351 -0.0747698 28.7393 2.30338 22.5127C2.82064 21.1583 4.39446 20.5981 5.70623 21.2154C7.018 21.8327 7.56911 23.3935 7.06982 24.7545C5.16537 29.9461 4.73973 35.5841 5.86812 41.0329C7.17455 47.3414 10.4935 53.0554 15.326 57.3158C20.1585 61.5762 26.2433 64.1528 32.6658 64.6583C39.0883 65.1637 45.5014 63.5707 50.9408 60.1188C56.3803 56.6668 60.5522 51.5423 62.8295 45.5159C65.1067 39.4894 65.3661 32.8866 63.5687 26.7C61.7714 20.5135 58.0144 15.0775 52.8625 11.2094C48.4127 7.86839 43.1301 5.85297 37.6217 5.36571C36.1776 5.23797 35 4.07475 35 2.625Z" fill="#3DBF0F"/>
</svg>
