<svg width="70" height="70" viewBox="0 0 70 70" fill="none" xmlns="http://www.w3.org/2000/svg">
<path d="M35 2.625C35 1.17525 36.177 -0.0102541 37.6227 0.0983258C45.8525 0.716439 53.6321 4.22847 59.5536 10.0577C66.1009 16.5029 69.8514 25.264 69.9957 34.4502C70.14 43.6365 66.6665 52.5111 60.3249 59.1588C53.9833 65.8065 45.2822 69.6942 36.0994 69.9827C26.9165 70.2713 17.9884 66.9377 11.242 60.7013C4.49548 54.4649 0.471633 45.8259 0.0388536 36.6487C-0.393926 27.4715 2.79907 18.4922 8.92872 11.6486C14.4725 5.4591 22.0163 1.46551 30.191 0.331871C31.6271 0.132731 32.8761 1.242 32.9672 2.68888C33.0582 4.13577 31.9559 5.37064 30.5226 5.58878C23.7243 6.62347 17.4634 9.98875 12.8394 15.1513C7.62921 20.9684 4.91516 28.6008 5.28303 36.4014C5.65089 44.202 9.07116 51.5452 14.8057 56.8461C20.5402 62.147 28.1291 64.9806 35.9345 64.7353C43.7399 64.49 51.1358 61.1855 56.5262 55.535C61.9165 49.8844 64.869 42.341 64.7463 34.5327C64.6237 26.7244 61.4357 19.2774 55.8706 13.799C50.9316 8.93698 44.4717 5.97147 37.6218 5.36568C36.1777 5.23796 35 4.07475 35 2.625Z" fill="#298A06"/>
</svg>
