<svg width="70" height="70" viewBox="0 0 70 70" fill="none" xmlns="http://www.w3.org/2000/svg">
<path d="M35 2.625C35 1.17525 36.1771 -0.0102474 37.6227 0.0983533C45.1989 0.667481 52.4114 3.69043 58.1459 8.74611C64.539 14.3824 68.6558 22.1577 69.724 30.6133C70.7922 39.069 68.7384 47.6238 63.9478 54.6729C59.1573 61.722 51.9592 66.7809 43.7041 68.9004C35.4491 71.02 26.7042 70.0545 19.1103 66.1852C11.5164 62.3159 5.59528 55.8087 2.45782 47.8843C-0.679648 39.96 -0.817837 31.1631 2.06918 23.1442C4.65881 15.9512 9.52287 9.82751 15.8877 5.67896C17.1022 4.88733 18.7048 5.35914 19.4032 6.62956C20.1017 7.89999 19.6301 9.48664 18.4262 10.2943C13.1771 13.8154 9.16524 18.9328 7.0088 24.9225C4.55484 31.7387 4.6723 39.216 7.33915 45.9517C10.006 52.6874 15.0389 58.2185 21.4938 61.5074C27.9486 64.7963 35.3817 65.617 42.3985 63.8153C49.4153 62.0137 55.5337 57.7137 59.6056 51.722C63.6776 45.7303 65.4234 38.4586 64.5154 31.2713C63.6074 24.084 60.1082 17.475 54.674 12.6842C49.8988 8.47423 43.9178 5.92256 37.6217 5.36569C36.1776 5.23796 35 4.07475 35 2.625Z" fill="#298A06"/>
</svg>
