<svg width="16" height="16" viewBox="0 0 16 16" fill="none" xmlns="http://www.w3.org/2000/svg">
<g clip-path="url(#clip0_76_2280)">
<path d="M6 7.5C8.76142 7.5 11 6.49264 11 5.25C11 4.00736 8.76142 3 6 3C3.23858 3 1 4.00736 1 5.25C1 6.49264 3.23858 7.5 6 7.5Z" stroke="white" stroke-linecap="round" stroke-linejoin="round"/>
<path d="M1 5.25V7.75C1 8.9925 3.23875 10 6 10C8.76125 10 11 8.9925 11 7.75V5.25" stroke="white" stroke-linecap="round" stroke-linejoin="round"/>
<path d="M4 7.3125V9.8125" stroke="white" stroke-linecap="round" stroke-linejoin="round"/>
<path d="M11 6.04498C13.2825 6.25373 15 7.16123 15 8.24998C15 9.49248 12.7612 10.5 9.99996 10.5C8.77496 10.5 7.65246 10.3019 6.78308 9.97248" stroke="white" stroke-linecap="round" stroke-linejoin="round"/>
<path d="M5 9.955V10.75C5 11.9925 7.23875 13 10 13C12.7613 13 15 11.9925 15 10.75V8.25" stroke="white" stroke-linecap="round" stroke-linejoin="round"/>
<path d="M12 10.3125V12.8125" stroke="white" stroke-linecap="round" stroke-linejoin="round"/>
<path d="M8 7.3125V12.8125" stroke="white" stroke-linecap="round" stroke-linejoin="round"/>
</g>
<defs>
<clipPath id="clip0_76_2280">
<rect width="16" height="16" fill="white"/>
</clipPath>
</defs>
</svg>
