<svg width="420" height="60" viewBox="0 0 420 60" fill="none" xmlns="http://www.w3.org/2000/svg">
<g clip-path="url(#clip0_41_475)">
<path d="M419.618 16.6382L420 16.4671V48C420 54.6274 414.627 60 408 60H12C5.37259 60 0 54.6274 0 48V31.9474H0.381836L0.763641 32.0329L1.14545 32.2039L1.52728 32.375L1.7182 32.1184L1.90909 31.8618L2.10001 31.5197L2.29092 31.1776V30.8355L3.05457 30.6645L3.81818 30.4934L4.00909 30.2368L4.58182 30.1513H4.96365H5.34546L5.72729 30.2368L6.1091 30.3224L6.49091 30.4934L6.87274 30.3224L7.25455 30.1513L7.63638 29.8947L8.20911 29.9803L8.78183 30.1513L9.54547 30.3224L10.5 30.1513L11.0727 29.9803L11.8364 30.1513L12.0273 30.5789L12.4091 31.0066L12.7909 31.4342V31.9474L13.1727 32.2895L13.7455 32.6316L14.3182 32.9737H15.0818H16.0364L16.9909 33.1447L17.7545 32.9737H18.5182H19.2818L20.0455 32.8026L20.4273 32.6316L21 32.2895H21.3818H22.1454H23.1L24.2455 32.2039L24.8182 32.2895L25.2 32.375L25.5818 32.5461L25.9637 32.7171H26.3455H26.9182L27.4909 32.8026L27.8727 32.8882H28.4455L29.2091 32.8026L29.7818 32.7171L30.1636 32.5461L30.5455 32.4605H30.9273L31.5 32.2895L32.0727 32.2039L32.4546 32.0329L32.8364 31.9474L33.2182 32.0329L33.4091 32.2039L33.7909 32.375L34.1727 32.5461L34.3636 32.2895L34.5546 32.1184L34.9364 32.0329L35.3182 32.1184L35.5091 32.375L35.8909 32.6316L36.2727 32.4605H36.8455L37.4182 32.375L37.9909 32.5461L38.3727 32.7171H38.9455L39.7091 32.8882H40.2818L40.8546 32.9737H41.4273L41.8091 33.1447L42 33.3158L42.1909 33.5724L42.5727 34L42.9546 33.5724V33.3158L43.1454 32.9737L43.3364 32.7171V32.375V32.0329L43.7182 31.6908L44.1 31.6053H44.6727L45.2455 31.5197L45.8182 31.3487L46.3909 31.2632H46.9637L47.5364 31.3487L48.1091 31.1776L48.4909 30.9211H49.0636L49.2545 31.1776L49.4455 31.4342L49.6364 31.6908L50.0182 31.9474L50.2091 32.2039L50.5909 32.375L51.3546 32.5461L51.7364 32.4605L52.1182 32.2895L52.5 32.1184L52.8818 31.9474H53.4546H54.0273L54.2182 31.6053L54.4091 31.3487L54.6 31.0066L54.7909 30.75L54.9818 30.4934L55.1727 30.2368L55.5546 29.9803L55.9364 29.8947L56.1273 30.0658L56.5091 30.3224L56.7 30.5789L57.0818 30.4934L57.4637 30.3224L57.6545 30.4934L58.0364 30.6645L58.4182 30.8355L58.8 30.6645L58.9909 30.4934L59.3727 30.4079L59.9455 30.4934L60.3273 30.5789L60.5182 30.4079L60.9 30.3224L61.2818 30.4079L61.6636 30.5789L62.0455 30.6645L62.2364 30.2368V29.8947L62.4273 29.5526L62.6182 29.2105L62.8091 28.8684L63 28.5263L63.1909 28.1842L63.5727 27.8421L64.1454 27.5L64.5273 27.3289L64.9091 27.1579H65.4818L66.0546 27.3289L66.6273 27.4145H67.0091H67.5818L67.9637 27.3289L68.3455 27.1579L68.9182 26.9013L69.4909 27.1579L70.0636 27.3289H70.4455L71.0182 27.4145L71.4 27.5855L71.5909 27.8421L71.9727 28.1842L72.1636 28.4408L72.3546 28.6974L72.7364 28.8684H73.3091L73.8818 28.7829L74.2636 28.8684L74.6454 29.0395L75.0273 29.2961L75.2182 29.125L75.6 28.8684V28.4408L75.9818 28.1842L76.1727 28.4408L76.3636 28.6974L76.7455 28.9539L77.1273 29.2105L77.7 29.2961H78.2727L78.6545 29.125L79.0364 28.8684L79.4182 28.5263H79.8H80.3727L80.9455 28.6974H81.3273L81.7091 28.4408H82.2818L82.8546 28.6118L83.2364 28.4408V28.1842L83.4273 27.9276L83.6182 27.7566V27.5L84 27.3289L84.3818 27.0724L84.7636 26.9013L85.1454 26.6447L85.3364 26.4737L85.7182 26.3026L85.9091 26.0461L86.2909 25.9605L86.4818 26.1316L86.6727 26.3026L86.8636 26.4737L87.2455 26.6447L87.6273 26.4737L87.8182 26.3026L88.0091 26.0461L88.2 25.875L88.5818 25.6184L88.9637 25.5329H89.3455H89.9182L90.4909 25.3618L91.0636 25.1908L91.6364 25.1053H92.2091L92.5909 25.3618L92.7818 25.7039L92.9727 26.0461L93.1636 26.3882L93.3546 26.6447L93.9273 26.5592L94.3091 26.3882L94.8818 26.1316L95.2636 25.9605L95.8364 25.875H96.2182H96.9818L97.3636 25.6184L97.7455 25.3618L98.1273 25.5329L98.5091 25.6184L98.8909 25.7895H99.4637H100.036H100.418L100.991 25.9605L101.564 26.2171L101.945 26.3882L102.136 26.6447L102.327 26.9013L102.709 27.3289V27.0724L102.9 26.7303L103.091 26.4737L103.282 26.1316L103.473 25.875L103.664 25.6184L104.045 25.7895L104.618 25.9605L105 25.7895L105.191 25.5329L105.573 25.2763L105.955 25.1053L106.336 24.9342L106.718 25.0197L107.1 25.1908L107.291 25.3618L107.673 25.4474L108.055 25.6184L108.436 25.5329L108.818 25.3618H109.391L109.773 25.4474L110.155 25.5329L110.727 25.6184L111.109 25.4474L111.491 25.2763L111.682 25.0197L112.064 24.8487L112.255 24.5921L112.827 24.5066L113.209 24.5921L113.591 24.6776L113.973 24.5921L114.355 24.5066L114.736 24.4211H115.118L115.309 24.6776L115.5 25.0197L115.691 25.2763L115.882 25.6184H116.264H116.836L117.027 25.7895V25.9605L117.218 26.1316V26.3882L117.409 26.7303V26.9868L117.6 27.2434L117.791 27.4145V27.5855L118.173 27.5L118.364 27.3289H118.936H119.318H120.082H120.655H121.227L121.991 27.2434L122.182 27.0724L122.373 26.7303L122.564 26.4737V26.2171L122.755 25.7895L122.945 25.4474V25.1908V24.8487L123.136 24.5066L123.709 24.3355L124.282 24.4211L124.855 24.5066L125.236 24.25L125.618 23.9079L126.191 23.8224L126.764 23.7368L127.527 23.8224L127.909 23.9079L128.291 24.0789L128.864 24.25H129.436H130.009L130.2 24.1645L130.391 23.9079L130.582 23.6513L130.773 23.3947V23.1382L131.155 22.9671L131.536 22.7961H131.918L132.3 22.8816L132.682 22.9671L133.255 23.0526H133.636L134.209 22.9671H134.591L135.164 22.7105L135.545 22.625L135.927 22.5395L136.309 22.4539L136.691 22.3684L137.073 22.2829H137.455L137.836 22.3684L138.218 22.2829L138.6 22.1974L138.791 22.1118H139.173L139.364 22.1974L139.745 22.2829L139.936 22.4539L140.318 22.3684L140.7 22.1974L140.891 22.0263L141.273 21.9408L141.464 22.0263L141.655 22.1974L141.845 22.3684L142.227 22.4539L142.418 22.3684L142.609 22.1974L142.991 22.0263H143.373L143.564 22.1118L144.136 22.2829L144.518 22.3684H144.9L145.282 22.1974L145.473 22.0263L145.664 21.8553L146.045 21.5987L146.236 21.3421L146.427 21L146.618 20.7434L147 20.5724L147.382 20.4013L147.764 20.4868L147.955 20.6579L148.145 20.8289L148.527 20.9145L148.909 20.8289L149.1 20.6579L149.482 20.4013L149.673 20.2303L149.864 19.9737L150.055 19.8026L150.245 19.6316L150.436 19.375L150.627 19.1184L150.818 18.8618V18.5197L151.009 18.2632V18.0921L151.2 17.9211L151.278 17.75L151.582 17.5789L151.964 17.4079L152.345 17.3224L152.727 17.2368L152.918 17.4079L153.109 17.6645L153.3 17.9211L153.491 18.1776L153.682 18.3487L153.873 18.5197L154.064 18.6908L154.445 18.7763L154.827 18.8618H155.209H155.782H156.545L157.118 18.7763H157.5L158.073 18.8618L158.264 19.0329V19.2039L158.455 19.4605L158.836 19.7171L159.027 19.8026L159.6 19.9737L159.982 19.8882L160.173 19.6316L160.555 19.4605L160.745 19.2039L160.936 19.2895H161.509L161.891 19.2039L162.273 18.9474L162.464 18.7763L162.845 18.5197L163.036 18.2632L163.418 18.0921L163.609 17.9211L163.8 17.75L163.991 17.4079L164.373 17.4934L164.564 17.6645L164.755 17.8355L165.136 17.9211H165.447L165.9 17.8355L166.282 17.9211L166.664 18.0066L167.045 18.1776L167.427 18.4342L167.618 18.5197H168L168.263 18.2632L168.764 18.1776L169.145 18.2632L169.527 18.3487H170.1L170.482 18.1776L170.864 17.9211L171.245 17.75L171.627 17.9211H172.009L172.2 17.75L172.391 17.4934V17.3224L172.582 17.0658L172.773 16.8947L172.964 16.6382L173.155 16.3816L173.536 16.125L173.918 15.8684L174.3 15.9539L174.873 16.125L175.445 16.2961L175.636 16.125L176.018 16.0395L176.4 15.9539L176.782 16.125L177.164 16.2961L177.355 16.4671L177.545 16.7237L177.736 16.9803L177.927 17.2368L178.118 17.4079L178.5 17.5789L179.073 17.6645L179.264 17.4934L179.645 17.3224L179.836 17.2368L180.218 17.0658L180.409 17.1513H180.791L181.173 17.3224H181.47L181.745 17.4079L182.127 17.4934L182.509 17.4079L182.891 17.3224L183.464 17.2368L183.845 17.4079H184.227L184.418 17.3224L184.609 17.0658L184.8 16.8092L185.182 16.5526L185.627 16.2105L185.945 16.3816L186.136 16.4671L186.431 16.7237L186.709 16.8947H187.091L187.282 16.7237L187.473 16.5526L187.855 16.3816L188.045 16.4671L188.427 16.5526H188.809L189.191 16.4671L189.573 16.3816L189.955 16.4671L190.336 16.5526L190.718 16.4671L190.909 16.2105L191.291 15.9539L191.482 16.125L191.772 16.3816L191.864 16.6382L192.436 16.7237L192.818 16.5526L193.391 16.4671L193.964 16.5526L194.345 16.6382H194.727L194.918 16.3816L195.109 16.125L195.491 15.8684L195.682 15.6974L195.873 15.4408L196.255 15.1842L196.636 15.2697L197.018 15.3553L197.4 15.5263L197.782 15.6118H198.355L198.927 15.4408L199.5 15.2697L200.455 15.1842L200.836 15.0132L201.027 14.7566L201.218 14.5V14.3289L201.409 13.9868L201.791 13.7303L202.364 13.6447L202.745 13.5592L202.936 13.3026L203.318 13.0461L203.509 12.7895H204.082L204.464 12.6184L204.845 12.4474L205.418 12.2763L205.609 12.1053L206.373 11.9342L206.755 11.8487L206.945 11.7632H207.518L207.9 11.8487H208.473L208.855 11.7632L209.236 11.5921L209.618 11.4211L210 11.3355H210.5H210.764L211.527 11.1645L211.909 11.0789H212.482H213.055H213.245H214.009H214.391H214.773H215.727H216.109L216.682 11.25L217.064 11.3355L217.445 11.5066L217.827 11.5921L218.4 11.4211L219.164 11.3355H219.545H220.118H220.691H221.073L221.455 11.25L221.836 11.1645L222.218 10.9934L222.6 10.8224H222.982L223.173 10.9079H223.555H223.936L224.509 10.8224H225.273V10.9079L225.464 11.0789L225.655 11.25L225.845 11.4211L226.036 11.5921V11.7632L226.418 11.9342L226.8 12.1053L226.991 12.2763L227.564 12.4474H228.136L228.518 12.1908L228.709 12.0197L229.282 11.8487L229.855 11.7632H230.809L231.382 11.8487H231.955L232.527 11.7632L232.718 11.5921L233.291 11.5066L233.673 11.5921L233.864 11.6776H234.436H234.818L235.2 11.7632L235.582 11.8487L235.773 11.9342H235.964L236.345 11.7632L236.727 11.5921H236.918L237.109 11.7632L237.491 11.8487L237.873 11.9342H238.255L238.636 12.0197H239.018L239.4 11.9342L239.973 11.8487L240.164 11.7632L240.355 11.5066L240.545 11.25L240.736 10.9934L241.118 10.6513H241.5L241.882 10.8224H242.455L242.836 10.9079L243.218 10.9934H243.791H244.173L244.555 10.9079H244.936L245.318 10.7368L245.509 10.6513L245.891 10.4803L246.082 10.3947L246.273 10.2237L246.655 10.1382L247.036 9.9671H247.418L247.8 10.1382L247.991 10.3092L248.182 10.3947L248.373 10.6513L248.564 10.8224L248.755 10.9934L249.136 11.0789H249.327H249.709L249.9 10.9934H250.282H250.664H251.045L251.618 11.0789L251.809 11.1645L252.191 11.25L252.382 11.4211H252.764L253.145 11.3355H253.336L253.527 11.25L253.718 11.1645L253.909 10.9934H254.291L254.482 11.0789L254.673 11.25L255.055 11.4211L255.436 11.5066L255.627 11.6776L256.009 11.7632L256.582 11.8487L256.964 11.7632L257.155 11.5921V11.25C257.218 11.193 257.345 11.0618 257.345 10.9934V10.6513L257.727 10.4803V10.7368L258.109 11.0789V11.4211V11.6776L258.3 11.9342L258.491 12.1053V12.2763V12.5329L258.682 12.7039V12.9605L258.873 13.2171V13.4737L259.064 13.7303V13.9013V14.2434L259.255 14.5V14.7566L259.445 14.9276L259.636 15.1842L260.209 15.3553L260.782 15.5263L260.973 15.6974L261.545 15.8684H261.927L262.309 15.6118L262.5 15.3553L262.691 15.1842L262.882 14.8421L263.455 14.6711L263.836 14.7566L264.218 14.9276L264.6 15.0987L265.173 15.0132L265.555 14.9276H265.936H266.509L266.891 15.0132L267.273 15.0987L267.655 14.9276V14.7566L268.036 14.5855L268.418 14.4145L268.8 14.1579L269.182 14.0724L269.755 14.1579L269.945 14.0724L270.136 13.8158L270.327 13.6447L270.518 13.3882L270.709 13.2171L270.9 12.9605L271.091 12.7895L271.282 12.6184L271.473 12.4474L271.664 12.1908L271.855 11.8487L272.236 11.9342L272.618 12.0197L272.809 11.9342L273 11.7632L273.191 11.5921L273.764 11.5066L274.145 11.4211L274.718 11.3355L275.1 11.25L275.291 11.1645L275.864 11.0789L276.245 11.1645L276.627 11.25L277.2 11.3355L277.391 11.5066L277.773 11.5921L278.155 11.5066L278.536 11.4211L278.918 11.25L279.109 11.1645L279.491 11.0789H279.873L280.255 11.1645H280.636L281.018 11.0789H281.4L281.591 11.1645L281.973 11.25H282.355H282.736L283.118 11.1645L283.5 10.9934L283.882 11.0789L284.073 11.25L284.264 11.3355L284.836 11.5066L285.12 11.4211H285.6L286.173 11.5066L286.745 11.5921L287.127 11.7632L287.7 11.8487H288.082H288.655L289.036 11.7632L289.505 11.5066L289.8 11.4211L290.182 11.25L290.373 11.0789L290.755 10.8224H291.136L291.709 10.9934L292.282 11.0789L292.664 11.25H293.045L293.427 11.4211H294.191L294.764 11.5066L295.336 11.5921L295.909 11.5066L296.482 11.4211L296.673 11.25L297.245 11.1645H297.627H298.2H298.582H299.345L299.727 11.0789L299.918 10.8224L300.3 10.5658H300.682L301.064 10.8224L301.255 11.0789L301.636 11.3355L302.018 11.5066L302.4 11.4211H302.973L303.355 11.5921L303.545 11.7632V12.0197L303.736 12.1908L303.927 12.4474L304.309 12.3618L304.882 12.4474L305.455 12.6184L305.836 12.7895L305.932 13.0461L306.027 13.3026L306.218 13.5592V13.7303L306.6 13.9868L306.791 14.0724L306.982 13.9013L307.364 13.7303L307.555 13.9013L307.745 14.0724V14.2434L307.936 14.5V14.6711L308.127 14.8421V15.0132L308.318 15.1842L308.7 15.2697L309.082 15.3553L309.464 15.5263L309.845 15.6118H310.227L310.418 15.5263L310.609 15.2697L310.991 15.0987L311.287 14.9276L311.564 14.6711L311.945 14.5L312.136 14.3289L312.518 14.1579L312.709 13.9868L313.091 13.9013L313.282 13.5592L313.664 13.4737V13.6447L313.855 13.8158L314.045 13.9868L314.236 14.1579L314.618 14.2434L314.809 14.1579L315 13.9013L315.382 13.7303L315.764 13.6447L316.145 13.5592H316.527L317.1 13.6447H317.673L318.245 13.5592L318.627 13.3882L319.009 13.3026H319.391H319.773L320.345 13.2171L320.727 13.0461L320.918 12.875L321.109 12.6184L321.3 12.3618H321.682L322.064 12.5329L322.445 12.7895L322.827 12.9605L323.209 13.1316L323.4 13.3882V13.6447L323.591 13.9013L323.782 14.0724L323.973 14.3289L324.164 14.5855L324.355 14.6711L324.927 14.5855L325.309 14.5L325.691 14.3289L326.264 14.1579H326.455H326.836L327.409 14.0724L327.791 13.9013L328.173 13.8158L328.555 13.9013L328.745 14.0724L329.127 14.3289L329.318 14.5855L329.509 14.9276L329.7 15.1842L329.891 15.3553L330.082 15.6118V15.8684V16.0395L330.464 16.2105L330.845 16.3816L331.227 16.5526L331.609 16.7237L331.991 16.8947H332.373H332.945L333.327 17.0658L333.709 17.3224L334.091 17.4934L334.664 17.5789L335.045 17.3224L335.427 17.1513L335.618 16.8947L336 16.7237L336.573 16.6382L336.955 16.3816L337.145 16.0395L337.336 15.6974L337.527 15.3553L337.718 15.0132L337.909 14.6711L338.1 14.8421L338.291 15.0132L338.482 15.2697L339.055 15.3553L339.436 15.1842L339.818 14.9276L340.2 14.7566L340.582 14.6711L340.964 14.7566L341.155 14.9276L341.536 15.0132L341.918 14.7566L342.109 14.5L342.3 14.0724L342.682 13.9868L343.064 14.1579L343.535 13.9868L344.018 13.8158H344.4L344.782 13.9868L345.164 14.1579L345.545 14.4145L346.118 14.5855L346.691 14.7566L347.264 14.9276L347.836 15.0132L348.409 14.9276L348.6 14.7566L348.791 14.5L348.982 14.2434L349.364 13.9868L349.555 13.6447L349.745 13.2171L349.936 12.875L350.127 12.5329L350.318 12.1908L350.7 12.0197L351.082 12.1908L351.273 12.3618L351.464 12.5329L351.655 12.7895L351.845 13.0461L352.227 13.3026H352.991L353.373 13.5592L354.136 13.4737L354.518 13.2171L355.282 13.0461L355.664 12.7895L356.236 12.9605L356.618 13.0461L357.191 13.2171L357.382 13.0461L357.573 12.7895V12.5329L357.764 12.1908V11.8487L357.955 11.5921L358.145 11.25L358.718 11.0789L359.1 10.9079L359.291 10.5658L359.482 10.2237L359.673 9.88158L360.055 9.625L360.627 9.28289L361.009 8.94079L361.582 8.68421L361.964 8.42763L362.345 8.08553L362.727 8L363.109 8.25658L363.491 8.42763L363.682 8.68421L364.064 9.02631L364.445 9.28289L365.018 9.53947L365.782 9.625L366.545 9.79605L367.118 9.71053L367.691 9.45395L368.264 9.19737L369.027 9.02631L369.6 8.85526L369.982 8.59869L370.364 8.42763L370.745 8.17105L371.127 8H371.7H372.273L372.464 8.25658L372.845 8.51316L373.227 8.3421H373.8L374.182 8.51316L374.564 8.76974L374.945 8.94079L375.518 9.11184L376.006 9.28289L376.473 9.45395L376.933 9.71053L377.427 9.79605L378 9.71053L378.573 9.53947L379.145 9.45395L379.527 9.28289H379.909H380.291L380.673 9.45395L381.055 9.625L381.436 9.45395L381.818 9.19737L382.2 9.45395L382.582 9.625L382.964 9.79605L383.536 9.88158L383.918 9.71053L384.109 9.45395L384.491 9.19737L384.682 9.45395L384.967 9.625L385.445 9.79605L385.636 10.0526L386.018 9.79605L386.4 9.625L386.782 9.71053L387.164 9.9671L387.545 10.1382V10.4803L387.927 10.8224L388.118 11.0789L388.309 11.4211L388.5 11.7632L388.882 12.0197L389.073 12.2763L389.264 12.5329L389.455 12.7895L389.645 13.1316L389.836 13.3882L390.027 13.6447L390.218 13.9013L390.409 14.1579L390.6 14.3289V14.5855L390.982 14.8421L391.173 15.0132L391.555 15.1842L392.127 15.2697L392.509 15.4408H392.891H393.273L393.655 15.2697L394.036 15.0987L394.418 15.2697L394.8 15.3553L395.182 15.4408H395.755L395.945 15.2697L396.327 15.1842L396.709 15.2697L397.091 15.4408L397.473 15.6118L397.855 15.6974L398.236 15.7829L398.427 15.9539L398.618 16.125L399 16.2961L399.191 16.4671L399.382 16.6382L399.764 16.8092L400.145 16.7237L400.336 16.3816L400.527 16.2105L400.718 15.8684L400.909 15.6118L401.291 15.4408L401.673 15.2697L402.055 15.0987L402.436 14.9276H403.009L403.391 15.0987L403.582 15.3553L403.773 15.6118L403.964 15.8684V16.125V16.3816L404.155 16.6382L404.345 16.8092L404.727 16.9803L405.109 17.1513L405.491 17.2368H405.873L406.255 17.4079L406.445 17.5789L406.827 17.6645H407.209L407.591 17.4934L407.782 17.3224L408.164 17.1513L408.545 16.9803L408.927 17.0658L409.309 17.2368L409.691 17.3224L410.073 17.2368H410.455L410.645 17.3224L410.836 17.4934L411.027 17.6645L411.218 17.8355V18.0921L411.6 18.1776L411.982 18.0066H412.364L412.555 18.0921L412.745 18.2632L413.127 18.3487H413.509L413.7 18.1776L413.891 18.0066H414.273L414.655 17.8355L415.036 17.6645L415.418 17.5789L415.8 17.4079L416.182 17.2368L416.564 17.1513H416.945L417.327 17.3224L417.709 17.1513L418.091 16.9803L418.473 16.8092L418.855 16.6382H419.236H419.618Z" fill="url(#paint0_linear_41_475)"/>
<path d="M420 16.4671L419.618 16.6382H419.236H418.855L418.473 16.8092L418.091 16.9803L417.709 17.1513L417.327 17.3224L416.945 17.1513H416.564L416.182 17.2368L415.8 17.4079L415.418 17.5789L415.036 17.6645L414.655 17.8355L414.273 18.0066H413.891L413.7 18.1776L413.509 18.3487H413.127L412.745 18.2632L412.555 18.0921L412.364 18.0066H411.982L411.6 18.1776L411.218 18.0921V17.8355L411.027 17.6645L410.836 17.4934L410.645 17.3224L410.455 17.2368H410.073L409.691 17.3224L409.309 17.2368L408.927 17.0658L408.545 16.9803L408.164 17.1513L407.782 17.3224L407.591 17.4934L407.209 17.6645H406.827L406.445 17.5789L406.255 17.4079L405.873 17.2368H405.491L405.109 17.1513L404.727 16.9803L404.345 16.8092L404.155 16.6382L403.964 16.3816V16.125V15.8684L403.773 15.6118L403.582 15.3553L403.391 15.0987L403.009 14.9276H402.436L402.055 15.0987L401.673 15.2697L401.291 15.4408L400.909 15.6118L400.718 15.8684L400.527 16.2105L400.336 16.3816L400.145 16.7237L399.764 16.8092L399.382 16.6382L399.191 16.4671L399 16.2961L398.618 16.125L398.427 15.9539L398.236 15.7829L397.855 15.6974L397.473 15.6118L397.091 15.4408L396.709 15.2697L396.327 15.1842L395.945 15.2697L395.755 15.4408H395.182L394.8 15.3553L394.418 15.2697L394.036 15.0987L393.655 15.2697L393.273 15.4408H392.891H392.509L392.127 15.2697L391.555 15.1842L391.173 15.0132L390.982 14.8421L390.6 14.5855V14.3289L390.409 14.1579L390.218 13.9013L390.027 13.6447L389.836 13.3882L389.645 13.1316L389.455 12.7895L389.264 12.5329L389.073 12.2763L388.882 12.0197L388.5 11.7632L388.309 11.4211L388.118 11.0789L387.927 10.8224L387.545 10.4803V10.1382L387.164 9.9671L386.782 9.71053L386.4 9.625L386.018 9.79605L385.636 10.0526L385.445 9.79605L384.967 9.625L384.682 9.45395L384.491 9.19737L384.109 9.45395L383.918 9.71053L383.536 9.88158L382.964 9.79605L382.582 9.625L382.2 9.45395L381.818 9.19737L381.436 9.45395L381.055 9.625L380.673 9.45395L380.291 9.28289H379.909H379.527L379.145 9.45395L378.573 9.53947L378 9.71053L377.427 9.79605L376.933 9.71053L376.473 9.45395L376.006 9.28289L375.518 9.11184L374.945 8.94079L374.564 8.76974L374.182 8.51316L373.8 8.3421H373.227L372.845 8.51316L372.464 8.25658L372.273 8H371.7H371.127L370.745 8.17105L370.364 8.42763L369.982 8.59868L369.6 8.85526L369.027 9.02632L368.264 9.19737L367.691 9.45395L367.118 9.71053L366.545 9.79605L365.782 9.625L365.018 9.53947L364.445 9.28289L364.064 9.02632L363.682 8.68421L363.491 8.42763L363.109 8.25658L362.727 8L362.345 8.08553L361.964 8.42763L361.582 8.68421L361.009 8.94079L360.627 9.28289L360.055 9.625L359.673 9.88158L359.482 10.2237L359.291 10.5658L359.1 10.9079L358.718 11.0789L358.145 11.25L357.955 11.5921L357.764 11.8487V12.1908L357.573 12.5329V12.7895L357.382 13.0461L357.191 13.2171L356.618 13.0461L356.236 12.9605L355.664 12.7895L355.282 13.0461L354.518 13.2171L354.136 13.4737L353.373 13.5592L352.991 13.3026H352.227L351.845 13.0461L351.655 12.7895L351.464 12.5329L351.273 12.3618L351.082 12.1908L350.7 12.0197L350.318 12.1908L350.127 12.5329L349.936 12.875L349.745 13.2171L349.555 13.6447L349.364 13.9868L348.982 14.2434L348.791 14.5L348.6 14.7566L348.409 14.9276L347.836 15.0132L347.264 14.9276L346.691 14.7566L346.118 14.5855L345.545 14.4145L345.164 14.1579L344.782 13.9868L344.4 13.8158H344.018L343.535 13.9868L343.064 14.1579L342.682 13.9868L342.3 14.0724L342.109 14.5L341.918 14.7566L341.536 15.0132L341.155 14.9276L340.964 14.7566L340.582 14.6711L340.2 14.7566L339.818 14.9276L339.436 15.1842L339.055 15.3553L338.482 15.2697L338.291 15.0132L338.1 14.8421L337.909 14.6711L337.718 15.0132L337.527 15.3553L337.336 15.6974L337.145 16.0395L336.955 16.3816L336.573 16.6382L336 16.7237L335.618 16.8947L335.427 17.1513L335.045 17.3224L334.664 17.5789L334.091 17.4934L333.709 17.3224L333.327 17.0658L332.945 16.8947H332.373H331.991L331.609 16.7237L331.227 16.5526L330.845 16.3816L330.464 16.2105L330.082 16.0395V15.8684V15.6118L329.891 15.3553L329.7 15.1842L329.509 14.9276L329.318 14.5855L329.127 14.3289L328.745 14.0724L328.555 13.9013L328.173 13.8158L327.791 13.9013L327.409 14.0724L326.836 14.1579H326.455H326.264L325.691 14.3289L325.309 14.5L324.927 14.5855L324.355 14.6711L324.164 14.5855L323.973 14.3289L323.782 14.0724L323.591 13.9013L323.4 13.6447V13.3882L323.209 13.1316L322.827 12.9605L322.445 12.7895L322.064 12.5329L321.682 12.3618H321.3L321.109 12.6184L320.918 12.875L320.727 13.0461L320.345 13.2171L319.773 13.3026H319.391H319.009L318.627 13.3882L318.245 13.5592L317.673 13.6447H317.1L316.527 13.5592H316.145L315.764 13.6447L315.382 13.7303L315 13.9013L314.809 14.1579L314.618 14.2434L314.236 14.1579L314.045 13.9868L313.855 13.8158L313.664 13.6447V13.4737L313.282 13.5592L313.091 13.9013L312.709 13.9868L312.518 14.1579L312.136 14.3289L311.945 14.5L311.564 14.6711L311.287 14.9276L310.991 15.0987L310.609 15.2697L310.418 15.5263L310.227 15.6118H309.845L309.464 15.5263L309.082 15.3553L308.7 15.2697L308.318 15.1842L308.127 15.0132V14.8421L307.936 14.6711V14.5L307.745 14.2434V14.0724L307.555 13.9013L307.364 13.7303L306.982 13.9013L306.791 14.0724L306.6 13.9868L306.218 13.7303V13.5592L306.027 13.3026L305.932 13.0461L305.836 12.7895L305.455 12.6184L304.882 12.4474L304.309 12.3618L303.927 12.4474L303.736 12.1908L303.545 12.0197V11.7632L303.355 11.5921L302.973 11.4211H302.4L302.018 11.5066L301.636 11.3355L301.255 11.0789L301.064 10.8224L300.682 10.5658H300.3L299.918 10.8224L299.727 11.0789L299.345 11.1645H298.582H298.2H297.627H297.245L296.673 11.25L296.482 11.4211L295.909 11.5066L295.336 11.5921L294.764 11.5066L294.191 11.4211H293.427L293.045 11.25H292.664L292.282 11.0789L291.709 10.9934L291.136 10.8224H290.755L290.373 11.0789L290.182 11.25L289.8 11.4211L289.505 11.5066L289.036 11.7632L288.655 11.8487H288.082H287.7L287.127 11.7632L286.745 11.5921L286.173 11.5066L285.6 11.4211H285.12L284.836 11.5066L284.264 11.3355L284.073 11.25L283.882 11.0789L283.5 10.9934L283.118 11.1645L282.736 11.25H282.355H281.973L281.591 11.1645L281.4 11.0789H281.018L280.636 11.1645H280.255L279.873 11.0789H279.491L279.109 11.1645L278.918 11.25L278.536 11.4211L278.155 11.5066L277.773 11.5921L277.391 11.5066L277.2 11.3355L276.627 11.25L276.245 11.1645L275.864 11.0789L275.291 11.1645L275.1 11.25L274.718 11.3355L274.145 11.4211L273.764 11.5066L273.191 11.5921L273 11.7632L272.809 11.9342L272.618 12.0197L272.236 11.9342L271.855 11.8487L271.664 12.1908L271.473 12.4474L271.282 12.6184L271.091 12.7895L270.9 12.9605L270.709 13.2171L270.518 13.3882L270.327 13.6447L270.136 13.8158L269.945 14.0724L269.755 14.1579L269.182 14.0724L268.8 14.1579L268.418 14.4145L268.036 14.5855L267.655 14.7566V14.9276L267.273 15.0987L266.891 15.0132L266.509 14.9276H265.936H265.555L265.173 15.0132L264.6 15.0987L264.218 14.9276L263.836 14.7566L263.455 14.6711L262.882 14.8421L262.691 15.1842L262.5 15.3553L262.309 15.6118L261.927 15.8684H261.545L260.973 15.6974L260.782 15.5263L260.209 15.3553L259.636 15.1842L259.445 14.9276L259.255 14.7566V14.5L259.064 14.2434V13.9013V13.7303L258.873 13.4737V13.2171L258.682 12.9605V12.7039L258.491 12.5329V12.2763V12.1053L258.3 11.9342L258.109 11.6776V11.4211V11.0789L257.727 10.7368V10.4803L257.345 10.6513C257.345 10.7368 257.345 10.925 257.345 10.9934C257.345 11.0618 257.218 11.193 257.155 11.25V11.5921L256.964 11.7632L256.582 11.8487L256.009 11.7632L255.627 11.6776L255.436 11.5066L255.055 11.4211L254.673 11.25L254.482 11.0789L254.291 10.9934H253.909L253.718 11.1645L253.527 11.25L253.336 11.3355H253.145L252.764 11.4211H252.382L252.191 11.25L251.809 11.1645L251.618 11.0789L251.045 10.9934H250.664H250.282H249.9L249.709 11.0789H249.327H249.136L248.755 10.9934L248.564 10.8224L248.373 10.6513L248.182 10.3947L247.991 10.3092L247.8 10.1382L247.418 9.9671H247.036L246.655 10.1382L246.273 10.2237L246.082 10.3947L245.891 10.4803L245.509 10.6513L245.318 10.7368L244.936 10.9079H244.555L244.173 10.9934H243.791H243.218L242.836 10.9079L242.455 10.8224H241.882L241.5 10.6513H241.118L240.736 10.9934L240.545 11.25L240.355 11.5066L240.164 11.7632L239.973 11.8487L239.4 11.9342L239.018 12.0197H238.636L238.255 11.9342H237.873L237.491 11.8487L237.109 11.7632L236.918 11.5921H236.727L236.345 11.7632L235.964 11.9342H235.773L235.582 11.8487L235.2 11.7632L234.818 11.6776C234.755 11.6776 234.589 11.6776 234.436 11.6776C234.284 11.6776 233.991 11.6776 233.864 11.6776L233.673 11.5921L233.291 11.5066L232.718 11.5921L232.527 11.7632L231.955 11.8487H231.382L230.809 11.7632H229.855L229.282 11.8487L228.709 12.0197L228.518 12.1908L228.136 12.4474H227.564L226.991 12.2763L226.8 12.1053L226.418 11.9342L226.036 11.7632V11.5921L225.845 11.4211L225.655 11.25L225.464 11.0789L225.273 10.9079V10.8224H224.509L223.936 10.9079H223.555H223.173L222.982 10.8224H222.6L222.218 10.9934L221.836 11.1645L221.455 11.25L221.073 11.3355H220.691H220.118H219.545H219.164L218.4 11.4211L217.827 11.5921L217.445 11.5066L217.064 11.3355L216.682 11.25L216.109 11.0789H215.727H214.773H214.391H214.009H213.245H213.055H212.482H211.909L211.527 11.1645L210.764 11.3355H210.5H210L209.618 11.4211L209.236 11.5921L208.855 11.7632L208.473 11.8487H207.9L207.518 11.7632H206.945L206.755 11.8487L206.373 11.9342L205.609 12.1053L205.418 12.2763L204.845 12.4474L204.464 12.6184L204.082 12.7895H203.509L203.318 13.0461L202.936 13.3026L202.745 13.5592L202.364 13.6447L201.791 13.7303L201.409 13.9868L201.218 14.3289V14.5L201.027 14.7566L200.836 15.0132L200.455 15.1842L199.5 15.2697L198.927 15.4408L198.355 15.6118H197.782L197.4 15.5263L197.018 15.3553L196.636 15.2697L196.255 15.1842L195.873 15.4408L195.682 15.6974L195.491 15.8684L195.109 16.125L194.918 16.3816L194.727 16.6382H194.345L193.964 16.5526L193.391 16.4671L192.818 16.5526L192.436 16.7237L191.864 16.6382L191.772 16.3816L191.482 16.125L191.291 15.9539L190.909 16.2105L190.718 16.4671L190.336 16.5526L189.955 16.4671L189.573 16.3816L189.191 16.4671L188.809 16.5526H188.427L188.045 16.4671L187.855 16.3816L187.473 16.5526L187.282 16.7237L187.091 16.8947H186.709L186.431 16.7237L186.136 16.4671L185.945 16.3816L185.627 16.2105L185.182 16.5526L184.8 16.8092L184.609 17.0658L184.418 17.3224L184.227 17.4079H183.845L183.464 17.2368L182.891 17.3224L182.509 17.4079L182.127 17.4934L181.745 17.4079L181.47 17.3224H181.173L180.791 17.1513H180.409L180.218 17.0658L179.836 17.2368L179.645 17.3224L179.264 17.4934L179.073 17.6645L178.5 17.5789L178.118 17.4079L177.927 17.2368L177.736 16.9803L177.545 16.7237L177.355 16.4671L177.164 16.2961L176.782 16.125L176.4 15.9539L176.018 16.0395L175.636 16.125L175.445 16.2961L174.873 16.125L174.3 15.9539L173.918 15.8684L173.536 16.125L173.155 16.3816L172.964 16.6382L172.773 16.8947L172.582 17.0658L172.391 17.3224V17.4934L172.2 17.75L172.009 17.9211H171.627L171.245 17.75L170.864 17.9211L170.482 18.1776L170.1 18.3487H169.527L169.145 18.2632L168.764 18.1776L168.263 18.2632L168 18.5197H167.618L167.427 18.4342L167.045 18.1776L166.664 18.0066L166.282 17.9211L165.9 17.8355L165.447 17.9211H165.136L164.755 17.8355L164.564 17.6645L164.373 17.4934L163.991 17.4079L163.8 17.75L163.609 17.9211L163.418 18.0921L163.036 18.2632L162.845 18.5197L162.464 18.7763L162.273 18.9474L161.891 19.2039L161.509 19.2895H160.936L160.745 19.2039L160.555 19.4605L160.173 19.6316L159.982 19.8882L159.6 19.9737L159.027 19.8026L158.836 19.7171L158.455 19.4605L158.264 19.2039V19.0329L158.073 18.8618L157.5 18.7763H157.118L156.545 18.8618H155.782H155.209H154.827L154.445 18.7763L154.064 18.6908L153.873 18.5197L153.682 18.3487L153.491 18.1776L153.3 17.9211L153.109 17.6645L152.918 17.4079L152.727 17.2368L152.345 17.3224L151.964 17.4079L151.582 17.5789L151.278 17.75L151.2 17.9211L151.009 18.0921V18.2632L150.818 18.5197V18.8618L150.627 19.1184L150.436 19.375L150.245 19.6316L150.055 19.8026L149.864 19.9737L149.673 20.2303L149.482 20.4013L149.1 20.6579L148.909 20.8289L148.527 20.9145L148.145 20.8289L147.955 20.6579L147.764 20.4868L147.382 20.4013L147 20.5724L146.618 20.7434L146.427 21L146.236 21.3421L146.045 21.5987L145.664 21.8553L145.473 22.0263L145.282 22.1974L144.9 22.3684H144.518L144.136 22.2829L143.564 22.1118L143.373 22.0263H142.991L142.609 22.1974L142.418 22.3684L142.227 22.4539L141.845 22.3684L141.655 22.1974L141.464 22.0263L141.273 21.9408L140.891 22.0263L140.7 22.1974L140.318 22.3684L139.936 22.4539L139.745 22.2829L139.364 22.1974L139.173 22.1118H138.791L138.6 22.1974L138.218 22.2829L137.836 22.3684L137.455 22.2829H137.073L136.691 22.3684L136.309 22.4539L135.927 22.5395L135.545 22.625L135.164 22.7105L134.591 22.9671H134.209L133.636 23.0526H133.255L132.682 22.9671L132.3 22.8816L131.918 22.7961H131.536L131.155 22.9671L130.773 23.1382V23.3947L130.582 23.6513L130.391 23.9079L130.2 24.1645L130.009 24.25H129.436H128.864L128.291 24.0789L127.909 23.9079L127.527 23.8224L126.764 23.7368L126.191 23.8224L125.618 23.9079L125.236 24.25L124.855 24.5066L124.282 24.4211L123.709 24.3355L123.136 24.5066L122.945 24.8487V25.1908V25.4474L122.755 25.7895L122.564 26.2171V26.4737L122.373 26.7303L122.182 27.0724L121.991 27.2434L121.227 27.3289H120.655H120.082H119.318H118.936H118.364L118.173 27.5L117.791 27.5855V27.4145L117.6 27.2434L117.409 26.9868V26.7303L117.218 26.3882V26.1316L117.027 25.9605V25.7895L116.836 25.6184H116.264H115.882L115.691 25.2763L115.5 25.0197L115.309 24.6776L115.118 24.4211H114.736L114.355 24.5066L113.973 24.5921L113.591 24.6776L113.209 24.5921L112.827 24.5066L112.255 24.5921L112.064 24.8487L111.682 25.0197L111.491 25.2763L111.109 25.4474L110.727 25.6184L110.155 25.5329L109.773 25.4474L109.391 25.3618H108.818L108.436 25.5329L108.055 25.6184L107.673 25.4474L107.291 25.3618L107.1 25.1908L106.718 25.0197L106.336 24.9342L105.955 25.1053L105.573 25.2763L105.191 25.5329L105 25.7895L104.618 25.9605L104.045 25.7895L103.664 25.6184L103.473 25.875L103.282 26.1316L103.091 26.4737L102.9 26.7303L102.709 27.0724V27.3289L102.327 26.9013L102.136 26.6447L101.945 26.3882L101.564 26.2171L100.991 25.9605L100.418 25.7895H100.036H99.4636H98.8909L98.5091 25.6184L98.1273 25.5329L97.7455 25.3618L97.3636 25.6184L96.9818 25.875H96.2182H95.8364L95.2636 25.9605L94.8818 26.1316L94.3091 26.3882L93.9273 26.5592L93.3546 26.6447L93.1636 26.3882L92.9727 26.0461L92.7818 25.7039L92.5909 25.3618L92.2091 25.1053H91.6364L91.0636 25.1908L90.4909 25.3618L89.9182 25.5329H89.3455H88.9636L88.5818 25.6184L88.2 25.875L88.0091 26.0461L87.8182 26.3026L87.6273 26.4737L87.2455 26.6447L86.8636 26.4737L86.6727 26.3026L86.4818 26.1316L86.2909 25.9605L85.9091 26.0461L85.7182 26.3026L85.3364 26.4737L85.1455 26.6447L84.7636 26.9013L84.3818 27.0724L84 27.3289L83.6182 27.5V27.7566L83.4273 27.9276L83.2364 28.1842V28.4408L82.8546 28.6118L82.2818 28.4408H81.7091L81.3273 28.6974H80.9455L80.3727 28.5263H79.8H79.4182L79.0364 28.8684L78.6546 29.125L78.2727 29.2961H77.7L77.1273 29.2105L76.7455 28.9539L76.3636 28.6974L76.1727 28.4408L75.9818 28.1842L75.6 28.4408V28.8684L75.2182 29.125L75.0273 29.2961L74.6455 29.0395L74.2636 28.8684L73.8818 28.7829L73.3091 28.8684H72.7364L72.3546 28.6974L72.1636 28.4408L71.9727 28.1842L71.5909 27.8421L71.4 27.5855L71.0182 27.4145L70.4455 27.3289H70.0636L69.4909 27.1579L68.9182 26.9013L68.3455 27.1579L67.9636 27.3289L67.5818 27.4145H67.0091H66.6273L66.0546 27.3289L65.4818 27.1579H64.9091L64.5273 27.3289L64.1455 27.5L63.5727 27.8421L63.1909 28.1842L63 28.5263L62.8091 28.8684L62.6182 29.2105L62.4273 29.5526L62.2364 29.8947V30.2368L62.0455 30.6645L61.6636 30.5789L61.2818 30.4079L60.9 30.3224L60.5182 30.4079L60.3273 30.5789L59.9455 30.4934L59.3727 30.4079L58.9909 30.4934L58.8 30.6645L58.4182 30.8355L58.0364 30.6645L57.6546 30.4934L57.4636 30.3224L57.0818 30.4934L56.7 30.5789L56.5091 30.3224L56.1273 30.0658L55.9364 29.8947L55.5546 29.9803L55.1727 30.2368L54.9818 30.4934L54.7909 30.75L54.6 31.0066L54.4091 31.3487L54.2182 31.6053L54.0273 31.9474H53.4546H52.8818L52.5 32.1184L52.1182 32.2895L51.7364 32.4605L51.3546 32.5461L50.5909 32.375L50.2091 32.2039L50.0182 31.9474L49.6364 31.6908L49.4455 31.4342L49.2546 31.1776L49.0636 30.9211H48.4909L48.1091 31.1776L47.5364 31.3487L46.9636 31.2632H46.3909L45.8182 31.3487L45.2455 31.5197L44.6727 31.6053H44.1L43.7182 31.6908L43.3364 32.0329V32.375V32.7171L43.1455 32.9737L42.9546 33.3158V33.5724L42.5727 34L42.1909 33.5724L42 33.3158L41.8091 33.1447L41.4273 32.9737H40.8546L40.2818 32.8882H39.7091L38.9455 32.7171H38.3727L37.9909 32.5461L37.4182 32.375L36.8455 32.4605H36.2727L35.8909 32.6316L35.5091 32.375L35.3182 32.1184L34.9364 32.0329L34.5546 32.1184L34.3636 32.2895L34.1727 32.5461L33.7909 32.375L33.4091 32.2039L33.2182 32.0329L32.8364 31.9474L32.4546 32.0329L32.0727 32.2039L31.5 32.2895L30.9273 32.4605H30.5455L30.1636 32.5461L29.7818 32.7171L29.2091 32.8026L28.4455 32.8882H27.8727L27.4909 32.8026L26.9182 32.7171H26.3455H25.9636L25.5818 32.5461L25.2 32.375L24.8182 32.2895L24.2455 32.2039L23.1 32.2895H22.1455H21.3818H21L20.4273 32.6316L20.0455 32.8026L19.2818 32.9737H18.5182H17.7546L16.9909 33.1447L16.0364 32.9737H15.0818H14.3182L13.7455 32.6316L13.1727 32.2895L12.7909 31.9474V31.4342L12.4091 31.0066L12.0273 30.5789L11.8364 30.1513L11.0727 29.9803L10.5 30.1513L9.54546 30.3224L8.78183 30.1513L8.2091 29.9803L7.63637 29.8947L7.25455 30.1513L6.87273 30.3224L6.49092 30.4934L6.1091 30.3224L5.72728 30.2368L5.34546 30.1513H4.96364H4.58183L4.0091 30.2368L3.81819 30.4934L3.05455 30.6645L2.29092 30.8355V31.1776L2.10001 31.5197L1.9091 31.8618L1.71819 32.1184L1.52728 32.375L1.14546 32.2039L0.763644 32.0329L0.381825 31.9474H7.15256e-06" stroke="#906CF8" stroke-linecap="round"/>
</g>
<defs>
<linearGradient id="paint0_linear_41_475" x1="210" y1="60" x2="210" y2="8" gradientUnits="userSpaceOnUse">
<stop stop-color="#292636" stop-opacity="0"/>
<stop offset="1" stop-color="#292636"/>
</linearGradient>
<clipPath id="clip0_41_475">
<rect width="420" height="60" fill="white"/>
</clipPath>
</defs>
</svg>
