<svg width="383" height="34" viewBox="0 0 383 34" fill="none" xmlns="http://www.w3.org/2000/svg">
<g clip-path="url(#clip0_102_2816)">
<path d="M0.348182 19.7753L0 19.9209V34H383V6.74684H382.652L382.304 6.67405L381.955 6.52848L381.607 6.38291L381.433 6.60127L381.259 6.81962L381.085 7.11076L380.911 7.4019V7.69304L380.215 7.83861L379.518 7.98418L379.344 8.20253L378.822 8.27532H378.474H378.125L377.777 8.20253L377.429 8.12975L377.081 7.98418L376.733 8.12975L376.385 8.27532L376.036 8.49367L375.514 8.42089L374.992 8.27532L374.295 8.12975L373.425 8.27532L372.903 8.42089L372.206 8.27532L372.032 7.91139L371.684 7.54747L371.336 7.18354V6.74684L370.988 6.4557L370.465 6.16456L369.943 5.87342H369.247H368.376L367.506 5.72785L366.81 5.87342H366.113H365.417L364.72 6.01899L364.372 6.16456L363.85 6.4557H363.502H362.805H361.935L360.89 6.52848L360.368 6.4557L360.02 6.38291L359.672 6.23734L359.324 6.09177H358.975H358.453L357.931 6.01899L357.583 5.9462H357.06L356.364 6.01899L355.842 6.09177L355.494 6.23734L355.145 6.31013H354.797L354.275 6.4557L353.753 6.52848L353.405 6.67405L353.056 6.74684L352.708 6.67405L352.534 6.52848L352.186 6.38291L351.838 6.23734L351.664 6.4557L351.49 6.60127L351.141 6.67405L350.793 6.60127L350.619 6.38291L350.271 6.16456L349.923 6.31013H349.4L348.878 6.38291L348.356 6.23734L348.008 6.09177H347.485L346.789 5.9462H346.267L345.745 5.87342H345.222L344.874 5.72785L344.7 5.58228L344.526 5.36392L344.178 5L343.83 5.36392V5.58228L343.655 5.87342L343.481 6.09177V6.38291V6.67405L343.133 6.96519L342.785 7.03797H342.263L341.74 7.11076L341.218 7.25633L340.696 7.32911H340.174L339.651 7.25633L339.129 7.4019L338.781 7.62025H338.259L338.085 7.4019L337.91 7.18354L337.736 6.96519L337.388 6.74684L337.214 6.52848L336.866 6.38291L336.17 6.23734L335.821 6.31013L335.473 6.4557L335.125 6.60127L334.777 6.74684H334.255H333.732L333.558 7.03797L333.384 7.25633L333.21 7.54747L333.036 7.76582L332.862 7.98418L332.688 8.20253L332.34 8.42089L331.991 8.49367L331.817 8.3481L331.469 8.12975L331.295 7.91139L330.947 7.98418L330.599 8.12975L330.425 7.98418L330.076 7.83861L329.728 7.69304L329.38 7.83861L329.206 7.98418L328.858 8.05696L328.335 7.98418L327.987 7.91139L327.813 8.05696L327.465 8.12975L327.117 8.05696L326.769 7.91139L326.42 7.83861L326.246 8.20253V8.49367L326.072 8.78481L325.898 9.07595L325.724 9.36709L325.55 9.65823L325.376 9.94937L325.028 10.2405L324.505 10.5316L324.157 10.6772L323.809 10.8228H323.287L322.765 10.6772L322.242 10.6044H321.894H321.372L321.024 10.6772L320.675 10.8228L320.153 11.0411L319.631 10.8228L319.109 10.6772H318.76L318.238 10.6044L317.89 10.4589L317.716 10.2405L317.368 9.94937L317.194 9.73101L317.02 9.51266L316.671 9.36709H316.149L315.627 9.43987L315.279 9.36709L314.93 9.22152L314.582 9.00316L314.408 9.14873L314.06 9.36709V9.73101L313.712 9.94937L313.538 9.73101L313.364 9.51266L313.015 9.2943L312.667 9.07595L312.145 9.00316H311.623L311.275 9.14873L310.926 9.36709L310.578 9.65823H310.23H309.708L309.185 9.51266H308.837L308.489 9.73101H307.967L307.445 9.58544L307.096 9.73101V9.94937L306.922 10.1677L306.748 10.3133V10.5316L306.4 10.6772L306.052 10.8956L305.704 11.0411L305.355 11.2595L305.181 11.4051L304.833 11.5506L304.659 11.769L304.311 11.8418L304.137 11.6962L303.963 11.5506L303.789 11.4051L303.44 11.2595L303.092 11.4051L302.918 11.5506L302.744 11.769L302.57 11.9146L302.222 12.1329L301.874 12.2057H301.525H301.003L300.481 12.3513L299.959 12.4968L299.436 12.5696H298.914L298.566 12.3513L298.392 12.0601L298.218 11.769L298.044 11.4778L297.87 11.2595L297.347 11.3323L296.999 11.4778L296.477 11.6962L296.129 11.8418L295.606 11.9146H295.258H294.562L294.214 12.1329L293.865 12.3513L293.517 12.2057L293.169 12.1329L292.821 11.9873H292.299H291.776H291.428L290.906 11.8418L290.384 11.6234L290.035 11.4778L289.861 11.2595L289.687 11.0411L289.339 10.6772V10.8956L289.165 11.1867L288.991 11.4051L288.817 11.6962L288.643 11.9146L288.469 12.1329L288.12 11.9873L287.598 11.8418L287.25 11.9873L287.076 12.2057L286.728 12.4241L286.38 12.5696L286.031 12.7152L285.683 12.6424L285.335 12.4968L285.161 12.3513L284.813 12.2785L284.465 12.1329L284.116 12.2057L283.768 12.3513H283.246L282.898 12.2785L282.55 12.2057L282.027 12.1329L281.679 12.2785L281.331 12.4241L281.157 12.6424L280.809 12.788L280.635 13.0063L280.112 13.0791L279.764 13.0063L279.416 12.9335L279.068 13.0063L278.72 13.0791L278.371 13.1519H278.023L277.849 12.9335L277.675 12.6424L277.501 12.4241L277.327 12.1329H276.979H276.456L276.282 11.9873V11.8418L276.108 11.6962V11.4778L275.934 11.1867V10.9684L275.76 10.75L275.586 10.6044V10.4589L275.238 10.5316L275.064 10.6772H274.541H274.193H273.497H272.975H272.452L271.756 10.75L271.582 10.8956L271.408 11.1867L271.234 11.4051V11.6234L271.06 11.9873L270.885 12.2785V12.4968V12.788L270.711 13.0791L270.189 13.2247L269.667 13.1519L269.145 13.0791L268.796 13.2975L268.448 13.5886L267.926 13.6614L267.404 13.7342L266.707 13.6614L266.359 13.5886L266.011 13.443L265.489 13.2975H264.966H264.444L264.27 13.3703L264.096 13.5886L263.922 13.807L263.748 14.0253V14.2437L263.4 14.3892L263.051 14.5348H262.703L262.355 14.462L262.007 14.3892L261.485 14.3165H261.136L260.614 14.3892H260.266L259.744 14.6076L259.395 14.6804L259.047 14.7532L258.699 14.8259L258.351 14.8987L258.003 14.9715H257.655L257.306 14.8987L256.958 14.9715L256.61 15.0443L256.436 15.1171H256.088L255.914 15.0443L255.565 14.9715L255.391 14.8259L255.043 14.8987L254.695 15.0443L254.521 15.1899L254.173 15.2627L253.999 15.1899L253.825 15.0443L253.65 14.8987L253.302 14.8259L253.128 14.8987L252.954 15.0443L252.606 15.1899H252.258L252.084 15.1171L251.561 14.9715L251.213 14.8987H250.865L250.517 15.0443L250.343 15.1899L250.169 15.3354L249.82 15.5538L249.646 15.7722L249.472 16.0633L249.298 16.2816L248.95 16.4272L248.602 16.5728L248.254 16.5L248.08 16.3544L247.905 16.2089L247.557 16.1361L247.209 16.2089L247.035 16.3544L246.687 16.5728L246.513 16.7184L246.339 16.9367L246.165 17.0823L245.99 17.2278L245.816 17.4462L245.642 17.6646L245.468 17.8829V18.1741L245.294 18.3924V18.538L245.12 18.6835L245.048 18.8291L244.772 18.9747L244.424 19.1203L244.075 19.193L243.727 19.2658L243.553 19.1203L243.379 18.9019L243.205 18.6835L243.031 18.4652L242.857 18.3196L242.683 18.1741L242.509 18.0285L242.16 17.9557L241.812 17.8829H241.464H240.942H240.245L239.723 17.9557H239.375L238.853 17.8829L238.679 17.7373V17.5918L238.505 17.3734L238.156 17.1551L237.982 17.0823L237.46 16.9367L237.112 17.0095L236.938 17.2278L236.59 17.3734L236.415 17.5918L236.241 17.519H235.719L235.371 17.5918L235.023 17.8101L234.849 17.9557L234.5 18.1741L234.326 18.3924L233.978 18.538L233.804 18.6835L233.63 18.8291L233.456 19.1203L233.108 19.0475L232.934 18.9019L232.76 18.7563L232.411 18.6835H232.128L231.715 18.7563L231.367 18.6835L231.019 18.6108L230.67 18.4652L230.322 18.2468L230.148 18.1741H229.8L229.56 18.3924L229.104 18.4652L228.755 18.3924L228.407 18.3196H227.885L227.537 18.4652L227.189 18.6835L226.84 18.8291L226.492 18.6835H226.144L225.97 18.8291L225.796 19.0475V19.193L225.622 19.4114L225.448 19.557L225.274 19.7753L225.1 19.9937L224.751 20.212L224.403 20.4304L224.055 20.3576L223.533 20.212L223.01 20.0665L222.836 20.212L222.488 20.2848L222.14 20.3576L221.792 20.212L221.444 20.0665L221.27 19.9209L221.095 19.7025L220.921 19.4842L220.747 19.2658L220.573 19.1203L220.225 18.9747L219.703 18.9019L219.529 19.0475L219.18 19.193L219.006 19.2658L218.658 19.4114L218.484 19.3386H218.136L217.788 19.193H217.516L217.265 19.1203L216.917 19.0475L216.569 19.1203L216.221 19.193L215.699 19.2658L215.35 19.1203H215.002L214.828 19.193L214.654 19.4114L214.48 19.6297L214.132 19.8481L213.726 20.1392L213.435 19.9937L213.261 19.9209L212.992 19.7025L212.739 19.557H212.391L212.217 19.7025L212.043 19.8481L211.695 19.9937L211.52 19.9209L211.172 19.8481H210.824L210.476 19.9209L210.128 19.9937L209.78 19.9209L209.431 19.8481L209.083 19.9209L208.909 20.1392L208.561 20.3576L208.387 20.212L208.122 19.9937L208.039 19.7753L207.516 19.7025L207.168 19.8481L206.646 19.9209L206.124 19.8481L205.775 19.7753H205.427L205.253 19.9937L205.079 20.212L204.731 20.4304L204.557 20.5759L204.383 20.7943L204.035 21.0127L203.686 20.9399L203.338 20.8671L202.99 20.7215L202.642 20.6487H202.12L201.597 20.7943L201.075 20.9399L200.205 21.0127L199.856 21.1582L199.682 21.3766L199.508 21.5949V21.7405L199.334 22.0316L198.986 22.25L198.464 22.3228L198.115 22.3956L197.941 22.6139L197.593 22.8323L197.419 23.0506H196.897L196.549 23.1962L196.2 23.3418L195.678 23.4873L195.504 23.6329L194.808 23.7785L194.46 23.8513L194.285 23.9241H193.763L193.415 23.8513H192.893L192.545 23.9241L192.196 24.0696L191.848 24.2152L191.5 24.288H191.044H190.804L190.107 24.4335L189.759 24.5063H189.237H188.715H188.54H187.844H187.496H187.148H186.277H185.929L185.407 24.3608L185.059 24.288L184.71 24.1424L184.362 24.0696L183.84 24.2152L183.144 24.288H182.795H182.273H181.751H181.403L181.055 24.3608L180.706 24.4335L180.358 24.5791L180.01 24.7247H179.662L179.488 24.6519H179.14H178.791L178.269 24.7247H177.573V24.6519L177.399 24.5063L177.225 24.3608L177.05 24.2152L176.876 24.0696V23.9241L176.528 23.7785L176.18 23.6329L176.006 23.4873L175.484 23.3418H174.961L174.613 23.5601L174.439 23.7057L173.917 23.8513L173.395 23.9241H172.524L172.002 23.8513H171.48L170.957 23.9241L170.783 24.0696L170.261 24.1424L169.913 24.0696L169.739 23.9968H169.216H168.868L168.52 23.9241L168.172 23.8513L167.998 23.7785H167.824L167.475 23.9241L167.127 24.0696H166.953L166.779 23.9241L166.431 23.8513L166.083 23.7785H165.735L165.386 23.7057H165.038L164.69 23.7785L164.168 23.8513L163.994 23.9241L163.82 24.1424L163.645 24.3608L163.471 24.5791L163.123 24.8703H162.775L162.427 24.7247H161.905L161.556 24.6519L161.208 24.5791H160.686H160.338L159.99 24.6519H159.641L159.293 24.7975L159.119 24.8703L158.771 25.0158L158.597 25.0886L158.423 25.2342L158.075 25.307L157.726 25.4525H157.378L157.03 25.307L156.856 25.1614L156.682 25.0886L156.508 24.8703L156.334 24.7247L156.16 24.5791L155.811 24.5063H155.637H155.289L155.115 24.5791H154.767H154.419H154.07L153.548 24.5063L153.374 24.4335L153.026 24.3608L152.852 24.2152H152.504L152.155 24.288H151.981L151.807 24.3608L151.633 24.4335L151.459 24.5791H151.111L150.937 24.5063L150.763 24.3608L150.415 24.2152L150.066 24.1424L149.892 23.9968L149.544 23.9241L149.022 23.8513L148.674 23.9241L148.5 24.0696V24.3608C148.442 24.4093 148.325 24.5209 148.325 24.5791V24.8703L147.977 25.0158V24.7975L147.629 24.5063V24.2152V23.9968L147.455 23.7785L147.281 23.6329V23.4873V23.269L147.107 23.1234V22.9051L146.933 22.6867V22.4684L146.759 22.25V22.1044V21.8133L146.585 21.5949V21.3766L146.41 21.231L146.236 21.0127L145.714 20.8671L145.192 20.7215L145.018 20.5759L144.495 20.4304H144.147L143.799 20.6487L143.625 20.8671L143.451 21.0127L143.277 21.3038L142.755 21.4494L142.406 21.3766L142.058 21.231L141.71 21.0854L141.188 21.1582L140.84 21.231H140.491H139.969L139.621 21.1582L139.273 21.0854L138.925 21.231V21.3766L138.576 21.5222L138.228 21.6677L137.88 21.8861L137.532 21.9589L137.01 21.8861L136.835 21.9589L136.661 22.1772L136.487 22.3228L136.313 22.5411L136.139 22.6867L135.965 22.9051L135.791 23.0506L135.617 23.1962L135.443 23.3418L135.269 23.5601L135.095 23.8513L134.746 23.7785L134.398 23.7057L134.224 23.7785L134.05 23.9241L133.876 24.0696L133.354 24.1424L133.005 24.2152L132.483 24.288L132.135 24.3608L131.961 24.4335L131.439 24.5063L131.09 24.4335L130.742 24.3608L130.22 24.288L130.046 24.1424L129.698 24.0696L129.35 24.1424L129.001 24.2152L128.653 24.3608L128.479 24.4335L128.131 24.5063H127.783L127.435 24.4335H127.086L126.738 24.5063H126.39L126.216 24.4335L125.868 24.3608H125.52H125.171L124.823 24.4335L124.475 24.5791L124.127 24.5063L123.953 24.3608L123.779 24.288L123.256 24.1424L122.998 24.2152H122.56L122.038 24.1424L121.515 24.0696L121.167 23.9241L120.645 23.8513H120.297H119.775L119.426 23.9241L118.999 24.1424L118.73 24.2152L118.382 24.3608L118.208 24.5063L117.86 24.7247H117.511L116.989 24.5791L116.467 24.5063L116.119 24.3608H115.77L115.422 24.2152H114.726L114.204 24.1424L113.681 24.0696L113.159 24.1424L112.637 24.2152L112.463 24.3608L111.94 24.4335H111.592H111.07H110.722H110.025L109.677 24.5063L109.503 24.7247L109.155 24.943H108.807L108.459 24.7247L108.285 24.5063L107.936 24.288L107.588 24.1424L107.24 24.2152H106.718L106.37 24.0696L106.195 23.9241V23.7057L106.021 23.5601L105.847 23.3418L105.499 23.4146L104.977 23.3418L104.455 23.1962L104.106 23.0506L104.019 22.8323L103.932 22.6139L103.758 22.3956V22.25L103.41 22.0316L103.236 21.9589L103.062 22.1044L102.714 22.25L102.54 22.1044L102.365 21.9589V21.8133L102.191 21.5949V21.4494L102.017 21.3038V21.1582L101.843 21.0127L101.495 20.9399L101.147 20.8671L100.799 20.7215L100.45 20.6487H100.102L99.9282 20.7215L99.7541 20.9399L99.4059 21.0854L99.1359 21.231L98.8836 21.4494L98.5355 21.5949L98.3614 21.7405L98.0132 21.8861L97.8391 22.0316L97.4909 22.1044L97.3168 22.3956L96.9686 22.4684V22.3228L96.7945 22.1772L96.6205 22.0316L96.4464 21.8861L96.0982 21.8133L95.9241 21.8861L95.75 22.1044L95.4018 22.25L95.0536 22.3228L94.7055 22.3956H94.3573L93.835 22.3228H93.3127L92.7905 22.3956L92.4423 22.5411L92.0941 22.6139H91.7459H91.3977L90.8755 22.6867L90.5273 22.8323L90.3532 22.9778L90.1791 23.1962L90.005 23.4146H89.6568L89.3086 23.269L88.9605 23.0506L88.6123 22.9051L88.2641 22.7595L88.09 22.5411V22.3228L87.9159 22.1044L87.7418 21.9589L87.5677 21.7405L87.3936 21.5222L87.2195 21.4494L86.6973 21.5222L86.3491 21.5949L86.0009 21.7405L85.4786 21.8861H85.3045H84.9564L84.4341 21.9589L84.0859 22.1044L83.7377 22.1772L83.3895 22.1044L83.2155 21.9589L82.8673 21.7405L82.6932 21.5222L82.5191 21.231L82.345 21.0127L82.1709 20.8671L81.9968 20.6487V20.4304V20.2848L81.6486 20.1392L81.3005 19.9937L80.9523 19.8481L80.6041 19.7025L80.2559 19.557H79.9077H79.3855L79.0373 19.4114L78.6891 19.193L78.3409 19.0475L77.8186 18.9747L77.4705 19.193L77.1223 19.3386L76.9482 19.557L76.6 19.7025L76.0777 19.7753L75.7295 19.9937L75.5555 20.2848L75.3814 20.5759L75.2073 20.8671L75.0332 21.1582L74.8591 21.4494L74.685 21.3038L74.5109 21.1582L74.3368 20.9399L73.8145 20.8671L73.4664 21.0127L73.1182 21.231L72.77 21.3766L72.4218 21.4494L72.0736 21.3766L71.8995 21.231L71.5514 21.1582L71.2032 21.3766L71.0291 21.5949L70.855 21.9589L70.5068 22.0316L70.1586 21.8861L69.7288 22.0316L69.2882 22.1772H68.94L68.5918 22.0316L68.2436 21.8861L67.8955 21.6677L67.3732 21.5222L66.8509 21.3766L66.3286 21.231L65.8064 21.1582L65.2841 21.231L65.11 21.3766L64.9359 21.5949L64.7618 21.8133L64.4136 22.0316L64.2395 22.3228L64.0655 22.6867L63.8914 22.9778L63.7173 23.269L63.5432 23.5601L63.195 23.7057L62.8468 23.5601L62.6727 23.4146L62.4986 23.269L62.3245 23.0506L62.1505 22.8323L61.8023 22.6139H61.1059L60.7577 22.3956L60.0614 22.4684L59.7132 22.6867L59.0168 22.8323L58.6686 23.0506L58.1464 22.9051L57.7982 22.8323L57.2759 22.6867L57.1018 22.8323L56.9277 23.0506V23.269L56.7536 23.5601V23.8513L56.5795 24.0696L56.4055 24.3608L55.8832 24.5063L55.535 24.6519L55.3609 24.943L55.1868 25.2342L55.0127 25.5253L54.6645 25.7437L54.1423 26.0348L53.7941 26.326L53.2718 26.5443L52.9236 26.7627L52.5755 27.0538L52.2273 27.1266L51.8791 26.9082L51.5309 26.7627L51.3568 26.5443L51.0086 26.2532L50.6605 26.0348L50.1382 25.8165L49.4418 25.7437L48.7455 25.5981L48.2232 25.6709L47.7009 25.8892L47.1786 26.1076L46.4823 26.2532L45.96 26.3987L45.6118 26.6171L45.2636 26.7627L44.9155 26.981L44.5673 27.1266H44.045H43.5227L43.3486 26.9082L43.0005 26.6899L42.6523 26.8354H42.13L41.7818 26.6899L41.4336 26.4715L41.0855 26.326L40.5632 26.1804L40.1184 26.0348L39.6927 25.8892L39.273 25.6709L38.8223 25.5981L38.3 25.6709L37.7777 25.8165L37.2555 25.8892L36.9073 26.0348H36.5591H36.2109L35.8627 25.8892L35.5145 25.7437L35.1664 25.8892L34.8182 26.1076L34.47 25.8892L34.1218 25.7437L33.7736 25.5981L33.2514 25.5253L32.9032 25.6709L32.7291 25.8892L32.3809 26.1076L32.2068 25.8892L31.9463 25.7437L31.5105 25.5981L31.3364 25.3797L30.9882 25.5981L30.64 25.7437L30.2918 25.6709L29.9436 25.4525L29.5955 25.307V25.0158L29.2473 24.7247L29.0732 24.5063L28.8991 24.2152L28.725 23.9241L28.3768 23.7057L28.2027 23.4873L28.0286 23.269L27.8545 23.0506L27.6805 22.7595L27.5064 22.5411L27.3323 22.3228L27.1582 22.1044L26.9841 21.8861L26.81 21.7405V21.5222L26.4618 21.3038L26.2877 21.1582L25.9395 21.0127L25.4173 20.9399L25.0691 20.7943H24.7209H24.3727L24.0245 20.9399L23.6764 21.0854L23.3282 20.9399L22.98 20.8671L22.6318 20.7943H22.1095L21.9355 20.9399L21.5873 21.0127L21.2391 20.9399L20.8909 20.7943L20.5427 20.6487L20.1945 20.5759L19.8464 20.5032L19.6723 20.3576L19.4982 20.212L19.15 20.0665L18.9759 19.9209L18.8018 19.7753L18.4536 19.6297L18.1055 19.7025L17.9314 19.9937L17.7573 20.1392L17.5832 20.4304L17.4091 20.6487L17.0609 20.7943L16.7127 20.9399L16.3645 21.0854L16.0164 21.231H15.4941L15.1459 21.0854L14.9718 20.8671L14.7977 20.6487L14.6236 20.4304V20.212V19.9937L14.4495 19.7753L14.2755 19.6297L13.9273 19.4842L13.5791 19.3386L13.2309 19.2658H12.8827L12.5345 19.1203L12.3605 18.9747L12.0123 18.9019H11.6641L11.3159 19.0475L11.1418 19.193L10.7936 19.3386L10.4455 19.4842L10.0973 19.4114L9.74909 19.2658L9.40091 19.193L9.05273 19.2658H8.70455L8.53045 19.193L8.35636 19.0475L8.18227 18.9019L8.00818 18.7563V18.538L7.66 18.4652L7.31182 18.6108H6.96364L6.78955 18.538L6.61545 18.3924L6.26727 18.3196H5.91909L5.745 18.4652L5.57091 18.6108H5.22273L4.87455 18.7563L4.52636 18.9019L4.17818 18.9747L3.83 19.1203L3.48182 19.2658L3.13364 19.3386H2.78545L2.43727 19.193L2.08909 19.3386L1.74091 19.4842L1.39273 19.6297L1.04455 19.7753H0.696364H0.348182Z" fill="url(#paint0_linear_102_2816)"/>
<path d="M0 19.8355L0.348182 19.6908H0.696364H1.04455L1.39273 19.5461L1.74091 19.4013L2.08909 19.2566L2.43727 19.1118L2.78545 19.2566H3.13364L3.48182 19.1842L3.83 19.0395L4.17818 18.8947L4.52636 18.8224L4.87455 18.6776L5.22273 18.5329H5.57091L5.745 18.3882L5.91909 18.2434H6.26727L6.61545 18.3158L6.78955 18.4605L6.96364 18.5329H7.31182L7.66 18.3882L8.00818 18.4605V18.6776L8.18227 18.8224L8.35636 18.9671L8.53045 19.1118L8.70455 19.1842H9.05273L9.40091 19.1118L9.74909 19.1842L10.0973 19.3289L10.4455 19.4013L10.7936 19.2566L11.1418 19.1118L11.3159 18.9671L11.6641 18.8224H12.0123L12.3605 18.8947L12.5345 19.0395L12.8827 19.1842H13.2309L13.5791 19.2566L13.9273 19.4013L14.2755 19.5461L14.4495 19.6908L14.6236 19.9079V20.125V20.3421L14.7977 20.5592L14.9718 20.7763L15.1459 20.9934L15.4941 21.1382H16.0164L16.3645 20.9934L16.7127 20.8487L17.0609 20.7039L17.4091 20.5592L17.5832 20.3421L17.7573 20.0526L17.9314 19.9079L18.1055 19.6184L18.4536 19.5461L18.8018 19.6908L18.9759 19.8355L19.15 19.9803L19.4982 20.125L19.6723 20.2697L19.8464 20.4145L20.1945 20.4868L20.5427 20.5592L20.8909 20.7039L21.2391 20.8487L21.5873 20.9211L21.9355 20.8487L22.1095 20.7039H22.6318L22.98 20.7763L23.3282 20.8487L23.6764 20.9934L24.0245 20.8487L24.3727 20.7039H24.7209H25.0691L25.4173 20.8487L25.9395 20.9211L26.2877 21.0658L26.4618 21.2105L26.81 21.4276V21.6447L26.9841 21.7895L27.1582 22.0066L27.3323 22.2237L27.5064 22.4408L27.6805 22.6579L27.8545 22.9474L28.0286 23.1645L28.2027 23.3816L28.3768 23.5987L28.725 23.8158L28.8991 24.1053L29.0732 24.3947L29.2473 24.6118L29.5955 24.9013V25.1908L29.9436 25.3355L30.2918 25.5526L30.64 25.625L30.9882 25.4803L31.3364 25.2632L31.5105 25.4803L31.9463 25.625L32.2068 25.7697L32.3809 25.9868L32.7291 25.7697L32.9032 25.5526L33.2514 25.4079L33.7736 25.4803L34.1218 25.625L34.47 25.7697L34.8182 25.9868L35.1664 25.7697L35.5145 25.625L35.8627 25.7697L36.2109 25.9145H36.5591H36.9073L37.2555 25.7697L37.7777 25.6974L38.3 25.5526L38.8223 25.4803L39.273 25.5526L39.6927 25.7697L40.1184 25.9145L40.5632 26.0592L41.0855 26.2039L41.4336 26.3487L41.7818 26.5658L42.13 26.7105H42.6523L43.0005 26.5658L43.3486 26.7829L43.5227 27H44.045H44.5673L44.9155 26.8553L45.2636 26.6382L45.6118 26.4934L45.96 26.2763L46.4823 26.1316L47.1786 25.9868L47.7009 25.7697L48.2232 25.5526L48.7455 25.4803L49.4418 25.625L50.1382 25.6974L50.6605 25.9145L51.0086 26.1316L51.3568 26.4211L51.5309 26.6382L51.8791 26.7829L52.2273 27L52.5755 26.9276L52.9236 26.6382L53.2718 26.4211L53.7941 26.2039L54.1423 25.9145L54.6645 25.625L55.0127 25.4079L55.1868 25.1184L55.3609 24.8289L55.535 24.5395L55.8832 24.3947L56.4055 24.25L56.5795 23.9605L56.7536 23.7434V23.4539L56.9277 23.1645V22.9474L57.1018 22.7303L57.2759 22.5855L57.7982 22.7303L58.1464 22.8026L58.6686 22.9474L59.0168 22.7303L59.7132 22.5855L60.0614 22.3684L60.7577 22.2961L61.1059 22.5132H61.8023L62.1505 22.7303L62.3245 22.9474L62.4986 23.1645L62.6727 23.3092L62.8468 23.4539L63.195 23.5987L63.5432 23.4539L63.7173 23.1645L63.8914 22.875L64.0655 22.5855L64.2395 22.2237L64.4136 21.9342L64.7618 21.7171L64.9359 21.5L65.11 21.2829L65.2841 21.1382L65.8064 21.0658L66.3286 21.1382L66.8509 21.2829L67.3732 21.4276L67.8955 21.5724L68.2436 21.7895L68.5918 21.9342L68.94 22.0789H69.2882L69.7288 21.9342L70.1586 21.7895L70.5068 21.9342L70.855 21.8618L71.0291 21.5L71.2032 21.2829L71.5514 21.0658L71.8995 21.1382L72.0736 21.2829L72.4218 21.3553L72.77 21.2829L73.1182 21.1382L73.4664 20.9211L73.8145 20.7763L74.3368 20.8487L74.5109 21.0658L74.685 21.2105L74.8591 21.3553L75.0332 21.0658L75.2073 20.7763L75.3814 20.4868L75.5555 20.1974L75.7295 19.9079L76.0777 19.6908L76.6 19.6184L76.9482 19.4737L77.1223 19.2566L77.4705 19.1118L77.8186 18.8947L78.3409 18.9671L78.6891 19.1118L79.0373 19.3289L79.3855 19.4737H79.9077H80.2559L80.6041 19.6184L80.9523 19.7632L81.3005 19.9079L81.6486 20.0526L81.9968 20.1974V20.3421V20.5592L82.1709 20.7763L82.345 20.9211L82.5191 21.1382L82.6932 21.4276L82.8673 21.6447L83.2155 21.8618L83.3895 22.0066L83.7377 22.0789L84.0859 22.0066L84.4341 21.8618L84.9564 21.7895H85.3045H85.4786L86.0009 21.6447L86.3491 21.5L86.6973 21.4276L87.2195 21.3553L87.3936 21.4276L87.5677 21.6447L87.7418 21.8618L87.9159 22.0066L88.09 22.2237V22.4408L88.2641 22.6579L88.6123 22.8026L88.9605 22.9474L89.3086 23.1645L89.6568 23.3092H90.005L90.1791 23.0921L90.3532 22.875L90.5273 22.7303L90.8755 22.5855L91.3977 22.5132H91.7459H92.0941L92.4423 22.4408L92.7905 22.2961L93.3127 22.2237H93.835L94.3573 22.2961H94.7055L95.0536 22.2237L95.4018 22.1513L95.75 22.0066L95.9241 21.7895L96.0982 21.7171L96.4464 21.7895L96.6205 21.9342L96.7945 22.0789L96.9686 22.2237V22.3684L97.3168 22.2961L97.4909 22.0066L97.8391 21.9342L98.0132 21.7895L98.3614 21.6447L98.5355 21.5L98.8836 21.3553L99.1358 21.1382L99.4059 20.9934L99.7541 20.8487L99.9282 20.6316L100.102 20.5592H100.45L100.799 20.6316L101.147 20.7763L101.495 20.8487L101.843 20.9211L102.017 21.0658V21.2105L102.191 21.3553V21.5L102.365 21.7171V21.8618L102.54 22.0066L102.714 22.1513L103.062 22.0066L103.236 21.8618L103.41 21.9342L103.758 22.1513V22.2961L103.932 22.5132L104.019 22.7303L104.106 22.9474L104.455 23.0921L104.977 23.2368L105.499 23.3092L105.847 23.2368L106.021 23.4539L106.195 23.5987V23.8158L106.37 23.9605L106.718 24.1053H107.24L107.588 24.0329L107.936 24.1776L108.285 24.3947L108.459 24.6118L108.807 24.8289H109.155L109.503 24.6118L109.677 24.3947L110.025 24.3224H110.722H111.07H111.592H111.94L112.463 24.25L112.637 24.1053L113.159 24.0329L113.681 23.9605L114.204 24.0329L114.726 24.1053H115.422L115.77 24.25H116.119L116.467 24.3947L116.989 24.4671L117.511 24.6118H117.86L118.208 24.3947L118.382 24.25L118.73 24.1053L118.999 24.0329L119.426 23.8158L119.775 23.7434H120.297H120.645L121.167 23.8158L121.515 23.9605L122.038 24.0329L122.56 24.1053H122.998L123.256 24.0329L123.779 24.1776L123.953 24.25L124.127 24.3947L124.475 24.4671L124.823 24.3224L125.171 24.25H125.52H125.868L126.216 24.3224L126.39 24.3947H126.738L127.086 24.3224H127.435L127.783 24.3947H128.131L128.479 24.3224L128.653 24.25L129.001 24.1053L129.35 24.0329L129.698 23.9605L130.046 24.0329L130.22 24.1776L130.742 24.25L131.09 24.3224L131.439 24.3947L131.961 24.3224L132.135 24.25L132.483 24.1776L133.005 24.1053L133.354 24.0329L133.876 23.9605L134.05 23.8158L134.224 23.6711L134.398 23.5987L134.746 23.6711L135.095 23.7434L135.269 23.4539L135.443 23.2368L135.617 23.0921L135.791 22.9474L135.965 22.8026L136.139 22.5855L136.313 22.4408L136.487 22.2237L136.661 22.0789L136.835 21.8618L137.01 21.7895L137.532 21.8618L137.88 21.7895L138.228 21.5724L138.576 21.4276L138.925 21.2829V21.1382L139.273 20.9934L139.621 21.0658L139.969 21.1382H140.491H140.84L141.188 21.0658L141.71 20.9934L142.058 21.1382L142.406 21.2829L142.755 21.3553L143.277 21.2105L143.451 20.9211L143.625 20.7763L143.799 20.5592L144.147 20.3421H144.495L145.018 20.4868L145.192 20.6316L145.714 20.7763L146.236 20.9211L146.41 21.1382L146.585 21.2829V21.5L146.759 21.7171V22.0066V22.1513L146.933 22.3684V22.5855L147.107 22.8026V23.0197L147.281 23.1645V23.3816V23.5263L147.455 23.6711L147.629 23.8882V24.1053V24.3947L147.977 24.6842V24.9013L148.325 24.7566C148.325 24.6842 148.325 24.525 148.325 24.4671C148.325 24.4092 148.442 24.2982 148.5 24.25V23.9605L148.674 23.8158L149.022 23.7434L149.544 23.8158L149.892 23.8882L150.066 24.0329L150.415 24.1053L150.763 24.25L150.937 24.3947L151.111 24.4671H151.459L151.633 24.3224L151.807 24.25L151.981 24.1776H152.155L152.504 24.1053H152.852L153.026 24.25L153.374 24.3224L153.548 24.3947L154.07 24.4671H154.419H154.767H155.115L155.289 24.3947H155.637H155.811L156.16 24.4671L156.334 24.6118L156.508 24.7566L156.682 24.9737L156.856 25.0461L157.03 25.1908L157.378 25.3355H157.726L158.075 25.1908L158.423 25.1184L158.597 24.9737L158.771 24.9013L159.119 24.7566L159.293 24.6842L159.641 24.5395H159.99L160.338 24.4671H160.686H161.208L161.556 24.5395L161.905 24.6118H162.427L162.775 24.7566H163.123L163.471 24.4671L163.645 24.25L163.82 24.0329L163.994 23.8158L164.168 23.7434L164.69 23.6711L165.038 23.5987H165.386L165.735 23.6711H166.083L166.431 23.7434L166.779 23.8158L166.953 23.9605H167.127L167.475 23.8158L167.824 23.6711H167.998L168.172 23.7434L168.52 23.8158L168.868 23.8882C168.926 23.8882 169.077 23.8882 169.216 23.8882C169.356 23.8882 169.623 23.8882 169.739 23.8882L169.913 23.9605L170.261 24.0329L170.783 23.9605L170.957 23.8158L171.48 23.7434H172.002L172.524 23.8158H173.395L173.917 23.7434L174.439 23.5987L174.613 23.4539L174.961 23.2368H175.484L176.006 23.3816L176.18 23.5263L176.528 23.6711L176.876 23.8158V23.9605L177.05 24.1053L177.225 24.25L177.399 24.3947L177.573 24.5395V24.6118H178.269L178.791 24.5395H179.14H179.488L179.662 24.6118H180.01L180.358 24.4671L180.706 24.3224L181.055 24.25L181.403 24.1776H181.751H182.273H182.795H183.144L183.84 24.1053L184.362 23.9605L184.71 24.0329L185.059 24.1776L185.407 24.25L185.929 24.3947H186.277H187.148H187.496H187.844H188.54H188.715H189.237H189.759L190.107 24.3224L190.804 24.1776H191.044H191.5L191.848 24.1053L192.196 23.9605L192.545 23.8158L192.893 23.7434H193.415L193.763 23.8158H194.285L194.46 23.7434L194.808 23.6711L195.504 23.5263L195.678 23.3816L196.2 23.2368L196.549 23.0921L196.897 22.9474H197.419L197.593 22.7303L197.941 22.5132L198.115 22.2961L198.464 22.2237L198.986 22.1513L199.334 21.9342L199.508 21.6447V21.5L199.682 21.2829L199.856 21.0658L200.205 20.9211L201.075 20.8487L201.597 20.7039L202.12 20.5592H202.642L202.99 20.6316L203.338 20.7763L203.686 20.8487L204.035 20.9211L204.383 20.7039L204.557 20.4868L204.731 20.3421L205.079 20.125L205.253 19.9079L205.427 19.6908H205.775L206.124 19.7632L206.646 19.8355L207.168 19.7632L207.516 19.6184L208.039 19.6908L208.122 19.9079L208.387 20.125L208.561 20.2697L208.909 20.0526L209.083 19.8355L209.431 19.7632L209.78 19.8355L210.128 19.9079L210.476 19.8355L210.824 19.7632H211.172L211.52 19.8355L211.695 19.9079L212.043 19.7632L212.217 19.6184L212.391 19.4737H212.739L212.992 19.6184L213.261 19.8355L213.435 19.9079L213.726 20.0526L214.132 19.7632L214.48 19.5461L214.654 19.3289L214.828 19.1118L215.002 19.0395H215.35L215.699 19.1842L216.221 19.1118L216.569 19.0395L216.917 18.9671L217.265 19.0395L217.516 19.1118H217.788L218.136 19.2566H218.484L218.658 19.3289L219.006 19.1842L219.18 19.1118L219.529 18.9671L219.703 18.8224L220.225 18.8947L220.573 19.0395L220.747 19.1842L220.921 19.4013L221.095 19.6184L221.27 19.8355L221.444 19.9803L221.792 20.125L222.14 20.2697L222.488 20.1974L222.836 20.125L223.01 19.9803L223.533 20.125L224.055 20.2697L224.403 20.3421L224.751 20.125L225.1 19.9079L225.274 19.6908L225.448 19.4737L225.622 19.3289L225.796 19.1118V18.9671L225.97 18.75L226.144 18.6053H226.492L226.84 18.75L227.189 18.6053L227.537 18.3882L227.885 18.2434H228.407L228.755 18.3158L229.104 18.3882L229.56 18.3158L229.8 18.0987H230.148L230.322 18.1711L230.67 18.3882L231.019 18.5329L231.367 18.6053L231.715 18.6776L232.128 18.6053H232.411L232.76 18.6776L232.934 18.8224L233.108 18.9671L233.456 19.0395L233.63 18.75L233.804 18.6053L233.978 18.4605L234.326 18.3158L234.5 18.0987L234.849 17.8816L235.023 17.7368L235.371 17.5197L235.719 17.4474H236.241L236.415 17.5197L236.59 17.3026L236.938 17.1579L237.112 16.9408L237.46 16.8684L237.982 17.0132L238.156 17.0855L238.505 17.3026L238.679 17.5197V17.6645L238.853 17.8092L239.375 17.8816H239.723L240.245 17.8092H240.942H241.464H241.812L242.16 17.8816L242.509 17.9539L242.683 18.0987L242.857 18.2434L243.031 18.3882L243.205 18.6053L243.379 18.8224L243.553 19.0395L243.727 19.1842L244.075 19.1118L244.424 19.0395L244.772 18.8947L245.048 18.75L245.12 18.6053L245.294 18.4605V18.3158L245.468 18.0987V17.8092L245.642 17.5921L245.816 17.375L245.99 17.1579L246.165 17.0132L246.339 16.8684L246.513 16.6513L246.687 16.5066L247.035 16.2895L247.209 16.1447L247.557 16.0724L247.905 16.1447L248.08 16.2895L248.254 16.4342L248.602 16.5066L248.95 16.3618L249.298 16.2171L249.472 16L249.646 15.7105L249.82 15.4934L250.169 15.2763L250.343 15.1316L250.517 14.9868L250.865 14.8421H251.213L251.561 14.9145L252.084 15.0592L252.258 15.1316H252.606L252.954 14.9868L253.128 14.8421L253.302 14.7697L253.65 14.8421L253.825 14.9868L253.999 15.1316L254.173 15.2039L254.521 15.1316L254.695 14.9868L255.043 14.8421L255.391 14.7697L255.565 14.9145L255.914 14.9868L256.088 15.0592H256.436L256.61 14.9868L256.958 14.9145L257.306 14.8421L257.655 14.9145H258.003L258.351 14.8421L258.699 14.7697L259.047 14.6974L259.395 14.625L259.744 14.5526L260.266 14.3355H260.614L261.136 14.2632H261.485L262.007 14.3355L262.355 14.4079L262.703 14.4803H263.051L263.4 14.3355L263.748 14.1908V13.9737L263.922 13.7566L264.096 13.5395L264.27 13.3224L264.444 13.25H264.966H265.489L266.011 13.3947L266.359 13.5395L266.707 13.6118L267.404 13.6842L267.926 13.6118L268.448 13.5395L268.796 13.25L269.145 13.0329L269.667 13.1053L270.189 13.1776L270.711 13.0329L270.885 12.7434V12.4539V12.2368L271.06 11.9474L271.234 11.5855V11.3684L271.408 11.1513L271.582 10.8618L271.756 10.7171L272.452 10.6447H272.975H273.497H274.193H274.541H275.064L275.238 10.5L275.586 10.4276V10.5724L275.76 10.7171L275.934 10.9342V11.1513L276.108 11.4408V11.6579L276.282 11.8026V11.9474L276.456 12.0921H276.979H277.327L277.501 12.3816L277.675 12.5987L277.849 12.8882L278.023 13.1053H278.371L278.72 13.0329L279.068 12.9605L279.416 12.8882L279.764 12.9605L280.112 13.0329L280.635 12.9605L280.809 12.7434L281.157 12.5987L281.331 12.3816L281.679 12.2368L282.027 12.0921L282.55 12.1645L282.898 12.2368L283.246 12.3092H283.768L284.116 12.1645L284.465 12.0921L284.813 12.2368L285.161 12.3092L285.335 12.4539L285.683 12.5987L286.031 12.6711L286.38 12.5263L286.728 12.3816L287.076 12.1645L287.25 11.9474L287.598 11.8026L288.12 11.9474L288.469 12.0921L288.643 11.875L288.817 11.6579L288.991 11.3684L289.165 11.1513L289.339 10.8618V10.6447L289.687 11.0066L289.861 11.2237L290.035 11.4408L290.384 11.5855L290.906 11.8026L291.428 11.9474H291.776H292.299H292.821L293.169 12.0921L293.517 12.1645L293.865 12.3092L294.214 12.0921L294.562 11.875H295.258H295.606L296.129 11.8026L296.477 11.6579L296.999 11.4408L297.347 11.2961L297.87 11.2237L298.044 11.4408L298.218 11.7303L298.392 12.0197L298.566 12.3092L298.914 12.5263H299.436L299.959 12.4539L300.481 12.3092L301.003 12.1645H301.525H301.874L302.222 12.0921L302.57 11.875L302.744 11.7303L302.918 11.5132L303.092 11.3684L303.44 11.2237L303.789 11.3684L303.963 11.5132L304.137 11.6579L304.311 11.8026L304.659 11.7303L304.833 11.5132L305.181 11.3684L305.355 11.2237L305.704 11.0066L306.052 10.8618L306.4 10.6447L306.748 10.5V10.2829L306.922 10.1382L307.096 9.92105V9.70395L307.445 9.55921L307.967 9.70395H308.489L308.837 9.48684H309.185L309.708 9.63158H310.23H310.578L310.926 9.34211L311.275 9.125L311.623 8.98026H312.145L312.667 9.05263L313.015 9.26974L313.364 9.48684L313.538 9.70395L313.712 9.92105L314.06 9.70395V9.34211L314.408 9.125L314.582 8.98026L314.93 9.19737L315.279 9.34211L315.627 9.41447L316.149 9.34211H316.671L317.02 9.48684L317.194 9.70395L317.368 9.92105L317.716 10.2105L317.89 10.4276L318.238 10.5724L318.76 10.6447H319.109L319.631 10.7895L320.153 11.0066L320.675 10.7895L321.024 10.6447L321.372 10.5724H321.894H322.242L322.765 10.6447L323.287 10.7895H323.809L324.157 10.6447L324.505 10.5L325.028 10.2105L325.376 9.92105L325.55 9.63158L325.724 9.34211L325.898 9.05263L326.072 8.76316L326.246 8.47368V8.18421L326.42 7.82237L326.769 7.89474L327.117 8.03947L327.465 8.11184L327.813 8.03947L327.987 7.89474L328.335 7.96711L328.858 8.03947L329.206 7.96711L329.38 7.82237L329.728 7.67763L330.076 7.82237L330.425 7.96711L330.599 8.11184L330.947 7.96711L331.295 7.89474L331.469 8.11184L331.817 8.32895L331.991 8.47368L332.34 8.40132L332.688 8.18421L332.862 7.96711L333.036 7.75L333.21 7.53289L333.384 7.24342L333.558 7.02632L333.732 6.73684H334.255H334.777L335.125 6.59211L335.473 6.44737L335.821 6.30263L336.17 6.23026L336.866 6.375L337.214 6.51974L337.388 6.73684L337.736 6.95395L337.91 7.17105L338.085 7.38816L338.259 7.60526H338.781L339.129 7.38816L339.651 7.24342L340.174 7.31579H340.696L341.218 7.24342L341.74 7.09868L342.263 7.02632H342.785L343.133 6.95395L343.481 6.66447V6.375V6.08553L343.655 5.86842L343.83 5.57895V5.36184L344.178 5L344.526 5.36184L344.7 5.57895L344.874 5.72368L345.222 5.86842H345.745L346.267 5.94079H346.789L347.485 6.08553H348.008L348.356 6.23026L348.878 6.375L349.4 6.30263H349.923L350.271 6.15789L350.619 6.375L350.793 6.59211L351.141 6.66447L351.49 6.59211L351.664 6.44737L351.838 6.23026L352.186 6.375L352.534 6.51974L352.708 6.66447L353.056 6.73684L353.405 6.66447L353.753 6.51974L354.275 6.44737L354.797 6.30263H355.145L355.494 6.23026L355.842 6.08553L356.364 6.01316L357.06 5.94079H357.583L357.931 6.01316L358.453 6.08553H358.975H359.324L359.672 6.23026L360.02 6.375L360.368 6.44737L360.89 6.51974L361.935 6.44737H362.805H363.502H363.85L364.372 6.15789L364.72 6.01316L365.417 5.86842H366.113H366.81L367.506 5.72368L368.376 5.86842H369.247H369.943L370.465 6.15789L370.988 6.44737L371.336 6.73684V7.17105L371.684 7.53289L372.032 7.89474L372.206 8.25658L372.903 8.40132L373.425 8.25658L374.295 8.11184L374.992 8.25658L375.514 8.40132L376.036 8.47368L376.385 8.25658L376.733 8.11184L377.081 7.96711L377.429 8.11184L377.777 8.18421L378.125 8.25658H378.474H378.822L379.344 8.18421L379.518 7.96711L380.215 7.82237L380.911 7.67763V7.38816L381.085 7.09868L381.259 6.80921L381.433 6.59211L381.607 6.375L381.955 6.51974L382.304 6.66447L382.652 6.73684H383" stroke="#8EE8E2" stroke-linecap="round"/>
</g>
<defs>
<linearGradient id="paint0_linear_102_2816" x1="191.5" y1="5" x2="191.5" y2="34" gradientUnits="userSpaceOnUse">
<stop stop-color="#8EE8E2" stop-opacity="0.1"/>
<stop offset="1" stop-color="#8EE8E2" stop-opacity="0"/>
</linearGradient>
<clipPath id="clip0_102_2816">
<rect width="383" height="34" fill="white"/>
</clipPath>
</defs>
</svg>
