<svg width="383" height="34" viewBox="0 0 383 34" fill="none" xmlns="http://www.w3.org/2000/svg">
<g clip-path="url(#clip0_76_1491)">
<path d="M382.652 31.1392L383 31.1899V34H0V26.6076H0.348175L0.69635 26.5823L1.04456 26.5316L1.39273 26.481L1.5668 26.557L1.74091 26.6329L1.91498 26.7342L2.08908 26.8354V26.9367L2.78543 26.9873L3.48181 27.038L3.65588 27.1139L4.17816 27.1392H4.52634H4.87451L5.22272 27.1139L5.57092 27.0886L5.9191 27.038L6.26727 27.0886L6.61545 27.1392L6.96362 27.2152L7.4859 27.1899L8.00818 27.1392L8.70453 27.0886L9.57498 27.1392L10.0973 27.1899L10.7936 27.1392L10.9677 27.0127L11.3159 26.8861L11.6641 26.7595V26.6076L12.0122 26.5063L12.5345 26.4051L13.0568 26.3038H13.7532H14.6236L15.4941 26.2532L16.1904 26.3038H16.8868H17.5832L18.2795 26.3544L18.6277 26.4051L19.15 26.5063H19.4982H20.1945H21.065L22.1095 26.5316L22.6318 26.5063L22.98 26.481L23.3282 26.4304L23.6764 26.3797H24.0245H24.5468L25.0691 26.3544L25.4172 26.3291H25.9395L26.6359 26.3544L27.1582 26.3797L27.5064 26.4304L27.8546 26.4557H28.2027L28.725 26.5063L29.2473 26.5316L29.5955 26.5823L29.9436 26.6076L30.2918 26.5823L30.4659 26.5316L30.8141 26.481L31.1623 26.4304L31.3363 26.5063L31.5104 26.557L31.8586 26.5823L32.2068 26.557L32.3809 26.481L32.7291 26.4051L33.0772 26.4557H33.5995L34.1218 26.481L34.6441 26.4304L34.9923 26.3797H35.5145L36.2109 26.3291H36.7332L37.2554 26.3038H37.7777L38.1259 26.2532L38.3 26.2025L38.4741 26.1266L38.8223 26L39.1704 26.1266V26.2025L39.3445 26.3038L39.5186 26.3797V26.481V26.5823L39.8668 26.6835L40.215 26.7089H40.7373L41.2596 26.7342L41.7818 26.7848L42.3041 26.8101H42.8264L43.3486 26.7848L43.8709 26.8354L44.2191 26.9114H44.7413L44.9154 26.8354L45.0895 26.7595L45.2636 26.6835L45.6118 26.6076L45.7859 26.5316L46.1341 26.481L46.8304 26.4304L47.1786 26.4557L47.5268 26.5063L47.875 26.557L48.2232 26.6076H48.7455H49.2677L49.4418 26.7089L49.6159 26.7848L49.79 26.8861L49.9641 26.962L50.1382 27.038L50.3123 27.1139L50.6604 27.1899L51.0086 27.2152L51.1827 27.1646L51.5309 27.0886L51.705 27.0127L52.0532 27.038L52.4013 27.0886L52.5754 27.038L52.9236 26.9873L53.2718 26.9367L53.62 26.9873L53.7941 27.038L54.1423 27.0633L54.6646 27.038L55.0127 27.0127L55.1868 27.0633L55.535 27.0886L55.8832 27.0633L56.2314 27.0127L56.5795 26.9873L56.7536 27.1139V27.2152L56.9277 27.3165L57.1018 27.4177L57.2759 27.519L57.45 27.6203L57.6241 27.7215L57.9723 27.8228L58.4945 27.9241L58.8427 27.9747L59.1909 28.0253H59.7132L60.2355 27.9747L60.7577 27.9494H61.1059H61.6282L61.9763 27.9747L62.3246 28.0253L62.8468 28.1013L63.3691 28.0253L63.8914 27.9747H64.2395L64.7618 27.9494L65.11 27.8987L65.2841 27.8228L65.6323 27.7215L65.8063 27.6456L65.9804 27.5696L66.3286 27.519H66.8509L67.3732 27.5443L67.7214 27.519L68.0695 27.4684L68.4177 27.3924L68.5918 27.443L68.94 27.519V27.6456L69.2882 27.7215L69.4622 27.6456L69.6364 27.5696L69.9845 27.4937L70.3327 27.4177L70.855 27.3924H71.3773L71.7254 27.443L72.0736 27.519L72.4218 27.6203H72.77H73.2923L73.8145 27.5696H74.1627L74.5109 27.6456H75.0332L75.5555 27.5949L75.9036 27.6456V27.7215L76.0777 27.7975L76.2518 27.8481V27.9241L76.6 27.9747L76.9482 28.0506L77.2964 28.1013L77.6445 28.1772L77.8186 28.2278L78.1668 28.2785L78.3409 28.3544L78.6891 28.3797L78.8632 28.3291L79.0373 28.2785L79.2114 28.2278L79.5595 28.1772L79.9077 28.2278L80.0818 28.2785L80.2559 28.3544L80.43 28.4051L80.7782 28.481L81.1264 28.5063H81.4745H81.9968L82.5191 28.557L83.0414 28.6076L83.5636 28.6329H84.0859L84.4341 28.557L84.6082 28.4557L84.7823 28.3544L84.9564 28.2532L85.1305 28.1772L85.6527 28.2025L86.0009 28.2532L86.5232 28.3291L86.8713 28.3797L87.3936 28.4051H87.7418H88.4382L88.7863 28.481L89.1346 28.557L89.4827 28.5063L89.8309 28.481L90.1791 28.4304H90.7014H91.2236H91.5718L92.0941 28.3797L92.6164 28.3038L92.9645 28.2532L93.1386 28.1772L93.3127 28.1013L93.6609 27.9747V28.0506L93.835 28.1519L94.0091 28.2278L94.1832 28.3291L94.3573 28.4051L94.5314 28.481L94.8795 28.4304L95.4018 28.3797L95.75 28.4304L95.9241 28.5063L96.2723 28.5823L96.6205 28.6329L96.9686 28.6835L97.3168 28.6582L97.665 28.6076L97.8391 28.557L98.1873 28.5316L98.5355 28.481L98.8836 28.5063L99.2318 28.557H99.7541L100.102 28.5316L100.45 28.5063L100.973 28.481L101.321 28.5316L101.669 28.5823L101.843 28.6582L102.191 28.7089L102.365 28.7848L102.888 28.8101L103.236 28.7848L103.584 28.7595L103.932 28.7848L104.28 28.8101L104.629 28.8354H104.977L105.151 28.7595L105.325 28.6582L105.499 28.5823L105.673 28.481H106.021H106.544L106.718 28.4304V28.3797L106.892 28.3291V28.2532L107.066 28.1519V28.0759L107.24 28L107.414 27.9494V27.8987L107.762 27.9241L107.936 27.9747H108.459H108.807H109.503H110.025H110.548L111.244 28L111.418 28.0506L111.592 28.1519L111.766 28.2278V28.3038L111.94 28.4304L112.115 28.5316V28.6076V28.7089L112.289 28.8101L112.811 28.8608L113.333 28.8354L113.855 28.8101L114.204 28.8861L114.552 28.9873L115.074 29.0127L115.596 29.038L116.293 29.0127L116.641 28.9873L116.989 28.9367L117.511 28.8861H118.034H118.556L118.73 28.9114L118.904 28.9873L119.078 29.0633L119.252 29.1392V29.2152L119.6 29.2658L119.949 29.3165H120.297L120.645 29.2911L120.993 29.2658L121.515 29.2405H121.864L122.386 29.2658H122.734L123.256 29.3418L123.605 29.3671L123.953 29.3924L124.301 29.4177L124.649 29.443L124.997 29.4684H125.345L125.694 29.443L126.042 29.4684L126.39 29.4937L126.564 29.519H126.912L127.086 29.4937L127.435 29.4684L127.609 29.4177L127.957 29.443L128.305 29.4937L128.479 29.5443L128.827 29.5696L129.001 29.5443L129.175 29.4937L129.35 29.443L129.698 29.4177L129.872 29.443L130.046 29.4937L130.394 29.5443H130.742L130.916 29.519L131.439 29.4684L131.787 29.443H132.135L132.483 29.4937L132.657 29.5443L132.831 29.5949L133.18 29.6709L133.354 29.7468L133.528 29.8481L133.702 29.9241L134.05 29.9747L134.398 30.0253L134.746 30L134.92 29.9494L135.095 29.8987L135.443 29.8734L135.791 29.8987L135.965 29.9494L136.313 30.0253L136.487 30.0759L136.661 30.1519L136.835 30.2025L137.01 30.2532L137.184 30.3291L137.358 30.4051L137.532 30.481V30.5823L137.706 30.6582V30.7089L137.88 30.7595L137.952 30.8101L138.228 30.8608L138.576 30.9114L138.925 30.9367L139.273 30.962L139.447 30.9114L139.621 30.8354L139.795 30.7595L139.969 30.6835L140.143 30.6329L140.317 30.5823L140.491 30.5316L140.84 30.5063L141.188 30.481H141.536H142.058H142.755L143.277 30.5063H143.625L144.147 30.481L144.321 30.4304V30.3797L144.495 30.3038L144.844 30.2278L145.018 30.2025L145.54 30.1519L145.888 30.1772L146.062 30.2532L146.41 30.3038L146.585 30.3797L146.759 30.3544H147.281L147.629 30.3797L147.977 30.4557L148.151 30.5063L148.5 30.5823L148.674 30.6582L149.022 30.7089L149.196 30.7595L149.37 30.8101L149.544 30.9114L149.892 30.8861L150.066 30.8354L150.24 30.7848L150.589 30.7595H150.872L151.285 30.7848L151.633 30.7595L151.981 30.7342L152.33 30.6835L152.678 30.6076L152.852 30.5823H153.2L153.44 30.6582L153.896 30.6835L154.245 30.6582L154.593 30.6329H155.115L155.463 30.6835L155.811 30.7595L156.16 30.8101L156.508 30.7595H156.856L157.03 30.8101L157.204 30.8861V30.9367L157.378 31.0127L157.552 31.0633L157.726 31.1392L157.9 31.2152L158.249 31.2911L158.597 31.3671L158.945 31.3418L159.467 31.2911L159.99 31.2405L160.164 31.2911L160.512 31.3165L160.86 31.3418L161.208 31.2911L161.556 31.2405L161.73 31.1899L161.905 31.1139L162.079 31.038L162.253 30.962L162.427 30.9114L162.775 30.8608L163.297 30.8354L163.471 30.8861L163.82 30.9367L163.994 30.962L164.342 31.0127L164.516 30.9873H164.864L165.212 30.9367H165.484L165.735 30.9114L166.083 30.8861L166.431 30.9114L166.779 30.9367L167.301 30.962L167.65 30.9114H167.998L168.172 30.9367L168.346 31.0127L168.52 31.0886L168.868 31.1646L169.274 31.2658L169.565 31.2152L169.739 31.1899L170.008 31.1139L170.261 31.0633H170.609L170.783 31.1139L170.957 31.1646L171.305 31.2152L171.48 31.1899L171.828 31.1646H172.176L172.524 31.1899L172.872 31.2152L173.22 31.1899L173.569 31.1646L173.917 31.1899L174.091 31.2658L174.439 31.3418L174.613 31.2911L174.878 31.2152L174.961 31.1392L175.484 31.1139L175.832 31.1646L176.354 31.1899L176.876 31.1646L177.225 31.1392H177.573L177.747 31.2152L177.921 31.2911L178.269 31.3671L178.443 31.4177L178.617 31.4937L178.965 31.5696L179.314 31.5443L179.662 31.519L180.01 31.4684L180.358 31.443H180.88L181.403 31.4937L181.925 31.5443L182.795 31.5696L183.144 31.6203L183.318 31.6962L183.492 31.7722V31.8228L183.666 31.9241L184.014 32L184.536 32.0253L184.885 32.0506L185.059 32.1266L185.407 32.2025L185.581 32.2785H186.103L186.451 32.3291L186.8 32.3797L187.322 32.4304L187.496 32.481L188.192 32.5316L188.54 32.557L188.715 32.5823H189.237L189.585 32.557H190.107L190.455 32.5823L190.804 32.6329L191.152 32.6835L191.5 32.7089H191.956H192.196L192.893 32.7595L193.241 32.7848H193.763H194.285H194.46H195.156H195.504H195.852H196.723H197.071L197.593 32.7342L197.941 32.7089L198.29 32.6582L198.638 32.6329L199.16 32.6835L199.856 32.7089H200.205H200.727H201.249H201.597L201.945 32.7342L202.294 32.7595L202.642 32.8101L202.99 32.8608H203.338L203.512 32.8354H203.86H204.209L204.731 32.8608H205.427V32.8354L205.601 32.7848L205.775 32.7342L205.95 32.6835L206.124 32.6329V32.5823L206.472 32.5316L206.82 32.481L206.994 32.4304L207.516 32.3797H208.039L208.387 32.4557L208.561 32.5063L209.083 32.557L209.605 32.5823H210.476L210.998 32.557H211.52L212.043 32.5823L212.217 32.6329L212.739 32.6582L213.087 32.6329L213.261 32.6076H213.784H214.132L214.48 32.5823L214.828 32.557L215.002 32.5316H215.176L215.525 32.5823L215.873 32.6329H216.047L216.221 32.5823L216.569 32.557L216.917 32.5316H217.265L217.614 32.5063H217.962L218.31 32.5316L218.832 32.557L219.006 32.5823L219.18 32.6582L219.355 32.7342L219.529 32.8101L219.877 32.9114H220.225L220.573 32.8608H221.095L221.444 32.8354L221.792 32.8101H222.314H222.662L223.01 32.8354H223.359L223.707 32.8861L223.881 32.9114L224.229 32.962L224.403 32.9873L224.577 33.038L224.925 33.0633L225.274 33.1139H225.622L225.97 33.0633L226.144 33.0127L226.318 32.9873L226.492 32.9114L226.666 32.8608L226.84 32.8101L227.189 32.7848H227.363H227.711L227.885 32.8101H228.233H228.581H228.93L229.452 32.7848L229.626 32.7595L229.974 32.7342L230.148 32.6835H230.496L230.845 32.7089H231.019L231.193 32.7342L231.367 32.7595L231.541 32.8101H231.889L232.063 32.7848L232.237 32.7342L232.585 32.6835L232.934 32.6582L233.108 32.6076L233.456 32.5823L233.978 32.557L234.326 32.5823L234.5 32.6329V32.7342C234.558 32.7511 234.675 32.7899 234.675 32.8101V32.9114L235.023 32.962V32.8861L235.371 32.7848V32.6835V32.6076L235.545 32.5316L235.719 32.481V32.4304V32.3544L235.893 32.3038V32.2278L236.067 32.1519V32.0759L236.241 32V31.9494V31.8481L236.415 31.7722V31.6962L236.59 31.6456L236.764 31.5696L237.286 31.519L237.808 31.4684L237.982 31.4177L238.505 31.3671H238.853L239.201 31.443L239.375 31.519L239.549 31.5696L239.723 31.6709L240.245 31.7215L240.594 31.6962L240.942 31.6456L241.29 31.5949L241.812 31.6203L242.16 31.6456H242.509H243.031L243.379 31.6203L243.727 31.5949L244.075 31.6456V31.6962L244.424 31.7468L244.772 31.7975L245.12 31.8734L245.468 31.8987L245.99 31.8734L246.165 31.8987L246.339 31.9747L246.513 32.0253L246.687 32.1013L246.861 32.1519L247.035 32.2278L247.209 32.2785L247.383 32.3291L247.557 32.3797L247.731 32.4557L247.905 32.557L248.254 32.5316L248.602 32.5063L248.776 32.5316L248.95 32.5823L249.124 32.6329L249.646 32.6582L249.995 32.6835L250.517 32.7089L250.865 32.7342L251.039 32.7595L251.561 32.7848L251.91 32.7595L252.258 32.7342L252.78 32.7089L252.954 32.6582L253.302 32.6329L253.65 32.6582L253.999 32.6835L254.347 32.7342L254.521 32.7595L254.869 32.7848H255.217L255.565 32.7595H255.914L256.262 32.7848H256.61L256.784 32.7595L257.132 32.7342H257.48H257.829L258.177 32.7595L258.525 32.8101L258.873 32.7848L259.047 32.7342L259.221 32.7089L259.744 32.6582L260.002 32.6835H260.44L260.962 32.6582L261.485 32.6329L261.833 32.5823L262.355 32.557H262.703H263.225L263.574 32.5823L264.001 32.6582L264.27 32.6835L264.618 32.7342L264.792 32.7848L265.14 32.8608H265.489L266.011 32.8101L266.533 32.7848L266.881 32.7342H267.23L267.578 32.6835H268.274L268.796 32.6582L269.319 32.6329L269.841 32.6582L270.363 32.6835L270.537 32.7342L271.06 32.7595H271.408H271.93H272.278H272.975L273.323 32.7848L273.497 32.8608L273.845 32.9367H274.193L274.541 32.8608L274.715 32.7848L275.064 32.7089L275.412 32.6582L275.76 32.6835H276.282L276.63 32.6329L276.805 32.5823V32.5063L276.979 32.4557L277.153 32.3797L277.501 32.4051L278.023 32.3797L278.545 32.3291L278.894 32.2785L278.981 32.2025L279.068 32.1266L279.242 32.0506V32L279.59 31.9241L279.764 31.8987L279.938 31.9494L280.286 32L280.46 31.9494L280.635 31.8987V31.8481L280.809 31.7722V31.7215L280.983 31.6709V31.6203L281.157 31.5696L281.505 31.5443L281.853 31.519L282.201 31.4684L282.55 31.443H282.898L283.072 31.4684L283.246 31.5443L283.594 31.5949L283.864 31.6456L284.116 31.7215L284.465 31.7722L284.639 31.8228L284.987 31.8734L285.161 31.9241L285.509 31.9494L285.683 32.0506L286.031 32.0759V32.0253L286.205 31.9747L286.38 31.9241L286.554 31.8734L286.902 31.8481L287.076 31.8734L287.25 31.9494L287.598 32L287.946 32.0253L288.295 32.0506H288.643L289.165 32.0253H289.687L290.21 32.0506L290.558 32.1013L290.906 32.1266H291.254H291.602L292.125 32.1519L292.473 32.2025L292.647 32.2532L292.821 32.3291L292.995 32.4051H293.343L293.691 32.3544L294.04 32.2785L294.388 32.2278L294.736 32.1772L294.91 32.1013V32.0253L295.084 31.9494L295.258 31.8987L295.432 31.8228L295.606 31.7468L295.78 31.7215L296.303 31.7468L296.651 31.7722L296.999 31.8228L297.521 31.8734H297.695H298.044L298.566 31.8987L298.914 31.9494L299.262 31.9747L299.61 31.9494L299.785 31.8987L300.133 31.8228L300.307 31.7468L300.481 31.6456L300.655 31.5696L300.829 31.519L301.003 31.443V31.3671V31.3165L301.351 31.2658L301.7 31.2152L302.048 31.1646L302.396 31.1139L302.744 31.0633H303.092H303.615L303.963 31.0127L304.311 30.9367L304.659 30.8861L305.181 30.8608L305.53 30.9367L305.878 30.9873L306.052 31.0633L306.4 31.1139L306.922 31.1392L307.27 31.2152L307.445 31.3165L307.619 31.4177L307.793 31.519L307.967 31.6203L308.141 31.7215L308.315 31.6709L308.489 31.6203L308.663 31.5443L309.185 31.519L309.534 31.5696L309.882 31.6456L310.23 31.6962L310.578 31.7215L310.926 31.6962L311.1 31.6456L311.449 31.6203L311.797 31.6962L311.971 31.7722L312.145 31.8987L312.493 31.9241L312.841 31.8734L313.271 31.9241L313.712 31.9747H314.06L314.408 31.9241L314.756 31.8734L315.105 31.7975L315.627 31.7468L316.149 31.6962L316.671 31.6456L317.194 31.6203L317.716 31.6456L317.89 31.6962L318.064 31.7722L318.238 31.8481L318.586 31.9241L318.76 32.0253L318.935 32.1519L319.109 32.2532L319.283 32.3544L319.457 32.4557L319.805 32.5063L320.153 32.4557L320.327 32.4051L320.501 32.3544L320.675 32.2785L320.85 32.2025L321.198 32.1266H321.894L322.242 32.0506L322.939 32.0759L323.287 32.1519L323.983 32.2025L324.331 32.2785L324.854 32.2278L325.202 32.2025L325.724 32.1519L325.898 32.2025L326.072 32.2785V32.3544L326.246 32.4557V32.557L326.42 32.6329L326.595 32.7342L327.117 32.7848L327.465 32.8354L327.639 32.9367L327.813 33.038L327.987 33.1392L328.335 33.2152L328.858 33.3165L329.206 33.4177L329.728 33.4937L330.076 33.5696L330.425 33.6709L330.773 33.6962L331.121 33.6203L331.469 33.5696L331.643 33.4937L331.991 33.3924L332.34 33.3165L332.862 33.2405L333.558 33.2152L334.255 33.1646L334.777 33.1899L335.299 33.2658L335.821 33.3418L336.518 33.3924L337.04 33.443L337.388 33.519L337.736 33.5696L338.085 33.6456L338.433 33.6962H338.955H339.477L339.651 33.6203L340 33.5443L340.348 33.5949H340.87L341.218 33.5443L341.566 33.4684L341.915 33.4177L342.437 33.3671L342.882 33.3165L343.307 33.2658L343.727 33.1899L344.178 33.1646L344.7 33.1899L345.222 33.2405L345.745 33.2658L346.093 33.3165H346.441H346.789L347.137 33.2658L347.485 33.2152L347.834 33.2658L348.182 33.3418L348.53 33.2658L348.878 33.2152L349.226 33.1646L349.749 33.1392L350.097 33.1899L350.271 33.2658L350.619 33.3418L350.793 33.2658L351.054 33.2152L351.49 33.1646L351.664 33.0886L352.012 33.1646L352.36 33.2152L352.708 33.1899L353.056 33.1139L353.405 33.0633V32.962L353.753 32.8608L353.927 32.7848L354.101 32.6835L354.275 32.5823L354.623 32.5063L354.797 32.4304L354.971 32.3544L355.145 32.2785L355.32 32.1772L355.494 32.1013L355.668 32.0253L355.842 31.9494L356.016 31.8734L356.19 31.8228V31.7468L356.538 31.6709L356.712 31.6203L357.06 31.5696L357.583 31.5443L357.931 31.4937H358.279H358.627L358.975 31.5443L359.324 31.5949L359.672 31.5443L360.02 31.519L360.368 31.4937H360.89L361.065 31.5443L361.413 31.5696L361.761 31.5443L362.109 31.4937L362.457 31.443L362.805 31.4177L363.154 31.3924L363.328 31.3418L363.502 31.2911L363.85 31.2405L364.024 31.1899L364.198 31.1392L364.546 31.0886L364.895 31.1139L365.069 31.2152L365.243 31.2658L365.417 31.3671L365.591 31.443L365.939 31.4937L366.287 31.5443L366.635 31.5949L366.984 31.6456H367.506L367.854 31.5949L368.028 31.519L368.202 31.443L368.376 31.3671V31.2911V31.2152L368.55 31.1392L368.725 31.0886L369.073 31.038L369.421 30.9873L369.769 30.962H370.117L370.465 30.9114L370.64 30.8608L370.988 30.8354H371.336L371.684 30.8861L371.858 30.9367L372.206 30.9873L372.555 31.038L372.903 31.0127L373.251 30.962L373.599 30.9367L373.947 30.962H374.295L374.47 30.9367L374.644 30.8861L374.818 30.8354L374.992 30.7848V30.7089L375.34 30.6835L375.688 30.7342H376.036L376.21 30.7089L376.385 30.6582L376.733 30.6329H377.081L377.255 30.6835L377.429 30.7342H377.777L378.125 30.7848L378.474 30.8354L378.822 30.8608L379.17 30.9114L379.518 30.962L379.866 30.9873H380.215L380.563 30.9367L380.911 30.9873L381.259 31.038L381.607 31.0886L381.955 31.1392H382.304H382.652Z" fill="url(#paint0_linear_76_1491)"/>
<path d="M383 31.1602L382.652 31.1098H382.304H381.955L381.607 31.0595L381.259 31.0092L380.911 30.9588L380.563 30.9085L380.215 30.9588H379.866L379.518 30.9336L379.17 30.8833L378.822 30.833L378.474 30.8078L378.125 30.7574L377.777 30.7071H377.429L377.255 30.6568L377.081 30.6064H376.733L376.385 30.6316L376.21 30.6819L376.036 30.7071H375.688L375.34 30.6568L374.992 30.6819V30.7574L374.818 30.8078L374.644 30.8581L374.47 30.9085L374.295 30.9336H373.947L373.599 30.9085L373.251 30.9336L372.903 30.984L372.555 31.0092L372.206 30.9588L371.858 30.9085L371.684 30.8581L371.336 30.8078H370.988L370.64 30.833L370.465 30.8833L370.117 30.9336H369.769L369.421 30.9588L369.073 31.0092L368.725 31.0595L368.55 31.1098L368.376 31.1854V31.2609V31.3364L368.202 31.4119L368.028 31.4874L367.854 31.5629L367.506 31.6133H366.984L366.635 31.5629L366.287 31.5126L365.939 31.4622L365.591 31.4119L365.417 31.3364L365.243 31.2357L365.069 31.1854L364.895 31.0847L364.546 31.0595L364.198 31.1098L364.024 31.1602L363.85 31.2105L363.502 31.2609L363.328 31.3112L363.154 31.3616L362.805 31.3867L362.457 31.4119L362.109 31.4622L361.761 31.5126L361.413 31.5378L361.065 31.5126L360.89 31.4622H360.368L360.02 31.4874L359.672 31.5126L359.324 31.5629L358.975 31.5126L358.627 31.4622H358.279H357.931L357.583 31.5126L357.06 31.5378L356.712 31.5881L356.538 31.6384L356.19 31.714V31.7895L356.016 31.8398L355.842 31.9153L355.668 31.9908L355.494 32.0664L355.32 32.1419L355.145 32.2426L354.971 32.3181L354.797 32.3936L354.623 32.4691L354.275 32.5446L354.101 32.6453L353.927 32.746L353.753 32.8215L353.405 32.9222V33.0229L353.056 33.0732L352.708 33.1487L352.36 33.1739L352.012 33.1236L351.664 33.0481L351.49 33.1236L351.054 33.1739L350.793 33.2243L350.619 33.2998L350.271 33.2243L350.097 33.1487L349.749 33.0984L349.226 33.1236L348.878 33.1739L348.53 33.2243L348.182 33.2998L347.834 33.2243L347.485 33.1739L347.137 33.2243L346.789 33.2746H346.441H346.093L345.745 33.2243L345.222 33.1991L344.7 33.1487L344.178 33.1236L343.727 33.1487L343.307 33.2243L342.882 33.2746L342.437 33.3249L341.915 33.3753L341.566 33.4256L341.218 33.5011L340.87 33.5515H340.348L340 33.5011L339.651 33.5767L339.477 33.6522H338.955H338.433L338.085 33.6018L337.736 33.5263L337.388 33.476L337.04 33.4005L336.518 33.3501L335.821 33.2998L335.299 33.2243L334.777 33.1487L334.255 33.1236L333.558 33.1739L332.862 33.1991L332.34 33.2746L331.991 33.3501L331.643 33.4508L331.469 33.5263L331.121 33.5767L330.773 33.6522L330.425 33.627L330.076 33.5263L329.728 33.4508L329.206 33.3753L328.858 33.2746L328.335 33.1739L327.987 33.0984L327.813 32.9977L327.639 32.897L327.465 32.7963L327.117 32.746L326.595 32.6957L326.42 32.595L326.246 32.5195V32.4188L326.072 32.3181V32.2426L325.898 32.167L325.724 32.1167L325.202 32.167L324.854 32.1922L324.331 32.2426L323.983 32.167L323.287 32.1167L322.939 32.0412L322.242 32.016L321.894 32.0915H321.198L320.85 32.167L320.675 32.2426L320.501 32.3181L320.327 32.3684L320.153 32.4188L319.805 32.4691L319.457 32.4188L319.283 32.3181L319.109 32.2174L318.935 32.1167L318.76 31.9908L318.586 31.8902L318.238 31.8146L318.064 31.7391L317.89 31.6636L317.716 31.6133L317.194 31.5881L316.671 31.6133L316.149 31.6636L315.627 31.714L315.105 31.7643L314.756 31.8398L314.408 31.8902L314.06 31.9405H313.712L313.271 31.8902L312.841 31.8398L312.493 31.8902L312.145 31.865L311.971 31.7391L311.797 31.6636L311.449 31.5881L311.1 31.6133L310.926 31.6636L310.578 31.6888L310.23 31.6636L309.882 31.6133L309.534 31.5378L309.185 31.4874L308.663 31.5126L308.489 31.5881L308.315 31.6384L308.141 31.6888L307.967 31.5881L307.793 31.4874L307.619 31.3867L307.445 31.286L307.27 31.1854L306.922 31.1098L306.4 31.0847L306.052 31.0343L305.878 30.9588L305.53 30.9085L305.181 30.833L304.659 30.8581L304.311 30.9085L303.963 30.984L303.615 31.0343H303.092H302.744L302.396 31.0847L302.048 31.135L301.7 31.1854L301.351 31.2357L301.003 31.286V31.3364V31.4119L300.829 31.4874L300.655 31.5378L300.481 31.6133L300.307 31.714L300.133 31.7895L299.785 31.865L299.61 31.9153L299.262 31.9405L298.914 31.9153L298.566 31.865L298.044 31.8398H297.695H297.521L296.999 31.7895L296.651 31.7391L296.303 31.714L295.78 31.6888L295.606 31.714L295.432 31.7895L295.258 31.865L295.084 31.9153L294.91 31.9908V32.0664L294.736 32.1419L294.388 32.1922L294.04 32.2426L293.691 32.3181L293.343 32.3684H292.995L292.821 32.2929L292.647 32.2174L292.473 32.167L292.125 32.1167L291.602 32.0915H291.254H290.906L290.558 32.0664L290.21 32.016L289.687 31.9908H289.165L288.643 32.016H288.295L287.946 31.9908L287.598 31.9657L287.25 31.9153L287.076 31.8398L286.902 31.8146L286.554 31.8398L286.38 31.8902L286.205 31.9405L286.031 31.9908V32.0412L285.683 32.016L285.509 31.9153L285.161 31.8902L284.987 31.8398L284.639 31.7895L284.465 31.7391L284.116 31.6888L283.864 31.6133L283.594 31.5629L283.246 31.5126L283.072 31.4371L282.898 31.4119H282.55L282.201 31.4371L281.853 31.4874L281.505 31.5126L281.157 31.5378L280.983 31.5881V31.6384L280.809 31.6888V31.7391L280.635 31.8146V31.865L280.46 31.9153L280.286 31.9657L279.938 31.9153L279.764 31.865L279.59 31.8902L279.242 31.9657V32.016L279.068 32.0915L278.981 32.167L278.894 32.2426L278.545 32.2929L278.023 32.3432L277.501 32.3684L277.153 32.3432L276.979 32.4188L276.805 32.4691V32.5446L276.63 32.595L276.282 32.6453H275.76L275.412 32.6201L275.064 32.6705L274.715 32.746L274.541 32.8215L274.193 32.897H273.845L273.497 32.8215L273.323 32.746L272.975 32.7208H272.278H271.93H271.408H271.06L270.537 32.6957L270.363 32.6453L269.841 32.6201L269.319 32.595L268.796 32.6201L268.274 32.6453H267.578L267.23 32.6957H266.881L266.533 32.746L266.011 32.7712L265.489 32.8215H265.14L264.792 32.746L264.618 32.6957L264.27 32.6453L264.001 32.6201L263.574 32.5446L263.225 32.5195H262.703H262.355L261.833 32.5446L261.485 32.595L260.962 32.6201L260.44 32.6453H260.002L259.744 32.6201L259.221 32.6705L259.047 32.6957L258.873 32.746L258.525 32.7712L258.177 32.7208L257.829 32.6957H257.48H257.132L256.784 32.7208L256.61 32.746H256.262L255.914 32.7208H255.565L255.217 32.746H254.869L254.521 32.7208L254.347 32.6957L253.999 32.6453L253.65 32.6201L253.302 32.595L252.954 32.6201L252.78 32.6705L252.258 32.6957L251.91 32.7208L251.561 32.746L251.039 32.7208L250.865 32.6957L250.517 32.6705L249.995 32.6453L249.646 32.6201L249.124 32.595L248.95 32.5446L248.776 32.4943L248.602 32.4691L248.254 32.4943L247.905 32.5195L247.731 32.4188L247.557 32.3432L247.383 32.2929L247.209 32.2426L247.035 32.1922L246.861 32.1167L246.687 32.0664L246.513 31.9908L246.339 31.9405L246.165 31.865L245.99 31.8398L245.468 31.865L245.12 31.8398L244.772 31.7643L244.424 31.714L244.075 31.6636V31.6133L243.727 31.5629L243.379 31.5881L243.031 31.6133H242.509H242.16L241.812 31.5881L241.29 31.5629L240.942 31.6133L240.594 31.6636L240.245 31.6888L239.723 31.6384L239.549 31.5378L239.375 31.4874L239.201 31.4119L238.853 31.3364H238.505L237.982 31.3867L237.808 31.4371L237.286 31.4874L236.764 31.5378L236.59 31.6133L236.415 31.6636V31.7391L236.241 31.8146V31.9153V31.9657L236.067 32.0412V32.1167L235.893 32.1922V32.2677L235.719 32.3181V32.3936V32.4439L235.545 32.4943L235.371 32.5698V32.6453V32.746L235.023 32.8467V32.9222L234.675 32.8719C234.675 32.8467 234.675 32.7913 234.675 32.7712C234.675 32.751 234.558 32.7124 234.5 32.6957V32.595L234.326 32.5446L233.978 32.5195L233.456 32.5446L233.108 32.5698L232.934 32.6201L232.585 32.6453L232.237 32.6957L232.063 32.746L231.889 32.7712H231.541L231.367 32.7208L231.193 32.6957L231.019 32.6705H230.845L230.496 32.6453H230.148L229.974 32.6957L229.626 32.7208L229.452 32.746L228.93 32.7712H228.581H228.233H227.885L227.711 32.746H227.363H227.189L226.84 32.7712L226.666 32.8215L226.492 32.8719L226.318 32.9474L226.144 32.9725L225.97 33.0229L225.622 33.0732H225.274L224.925 33.0229L224.577 32.9977L224.403 32.9474L224.229 32.9222L223.881 32.8719L223.707 32.8467L223.359 32.7963H223.01L222.662 32.7712H222.314H221.792L221.444 32.7963L221.095 32.8215H220.573L220.225 32.8719H219.877L219.529 32.7712L219.355 32.6957L219.18 32.6201L219.006 32.5446L218.832 32.5195L218.31 32.4943L217.962 32.4691H217.614L217.265 32.4943H216.917L216.569 32.5195L216.221 32.5446L216.047 32.595H215.873L215.525 32.5446L215.176 32.4943H215.002L214.828 32.5195L214.48 32.5446L214.132 32.5698C214.074 32.5698 213.923 32.5698 213.784 32.5698C213.644 32.5698 213.377 32.5698 213.261 32.5698L213.087 32.595L212.739 32.6201L212.217 32.595L212.043 32.5446L211.52 32.5195H210.998L210.476 32.5446H209.605L209.083 32.5195L208.561 32.4691L208.387 32.4188L208.039 32.3432H207.516L206.994 32.3936L206.82 32.4439L206.472 32.4943L206.124 32.5446V32.595L205.95 32.6453L205.775 32.6957L205.601 32.746L205.427 32.7963V32.8215H204.731L204.209 32.7963H203.86H203.512L203.338 32.8215H202.99L202.642 32.7712L202.294 32.7208L201.945 32.6957L201.597 32.6705H201.249H200.727H200.205H199.856L199.16 32.6453L198.638 32.595L198.29 32.6201L197.941 32.6705L197.593 32.6957L197.071 32.746H196.723H195.852H195.504H195.156H194.46H194.285H193.763H193.241L192.893 32.7208L192.196 32.6705H191.956H191.5L191.152 32.6453L190.804 32.595L190.455 32.5446L190.107 32.5195H189.585L189.237 32.5446H188.715L188.54 32.5195L188.192 32.4943L187.496 32.4439L187.322 32.3936L186.8 32.3432L186.451 32.2929L186.103 32.2426H185.581L185.407 32.167L185.059 32.0915L184.885 32.016L184.536 31.9908L184.014 31.9657L183.666 31.8902L183.492 31.7895V31.7391L183.318 31.6636L183.144 31.5881L182.795 31.5378L181.925 31.5126L181.403 31.4622L180.88 31.4119H180.358L180.01 31.4371L179.662 31.4874L179.314 31.5126L178.965 31.5378L178.617 31.4622L178.443 31.3867L178.269 31.3364L177.921 31.2609L177.747 31.1854L177.573 31.1098H177.225L176.876 31.135L176.354 31.1602L175.832 31.135L175.484 31.0847L174.961 31.1098L174.878 31.1854L174.613 31.2609L174.439 31.3112L174.091 31.2357L173.917 31.1602L173.569 31.135L173.22 31.1602L172.872 31.1854L172.524 31.1602L172.176 31.135H171.828L171.48 31.1602L171.305 31.1854L170.957 31.135L170.783 31.0847L170.609 31.0343H170.261L170.008 31.0847L169.739 31.1602L169.565 31.1854L169.274 31.2357L168.868 31.135L168.52 31.0595L168.346 30.984L168.172 30.9085L167.998 30.8833H167.65L167.301 30.9336L166.779 30.9085L166.431 30.8833L166.083 30.8581L165.735 30.8833L165.484 30.9085H165.212L164.864 30.9588H164.516L164.342 30.984L163.994 30.9336L163.82 30.9085L163.471 30.8581L163.297 30.8078L162.775 30.833L162.427 30.8833L162.253 30.9336L162.079 31.0092L161.905 31.0847L161.73 31.1602L161.556 31.2105L161.208 31.2609L160.86 31.3112L160.512 31.286L160.164 31.2609L159.99 31.2105L159.467 31.2609L158.945 31.3112L158.597 31.3364L158.249 31.2609L157.9 31.1854L157.726 31.1098L157.552 31.0343L157.378 30.984L157.204 30.9085V30.8581L157.03 30.7826L156.856 30.7323H156.508L156.16 30.7826L155.811 30.7323L155.463 30.6568L155.115 30.6064H154.593L154.245 30.6316L153.896 30.6568L153.44 30.6316L153.2 30.5561H152.852L152.678 30.5812L152.33 30.6568L151.981 30.7071L151.633 30.7323L151.285 30.7574L150.872 30.7323H150.589L150.24 30.7574L150.066 30.8078L149.892 30.8581L149.544 30.8833L149.37 30.7826L149.196 30.7323L149.022 30.6819L148.674 30.6316L148.5 30.5561L148.151 30.4805L147.977 30.4302L147.629 30.3547L147.281 30.3295H146.759L146.585 30.3547L146.41 30.2792L146.062 30.2288L145.888 30.1533L145.54 30.1281L145.018 30.1785L144.844 30.2037L144.495 30.2792L144.321 30.3547V30.405L144.147 30.4554L143.625 30.4805H143.277L142.755 30.4554H142.058H141.536H141.188L140.84 30.4805L140.491 30.5057L140.317 30.5561L140.143 30.6064L139.969 30.6568L139.795 30.7323L139.621 30.8078L139.447 30.8833L139.273 30.9336L138.925 30.9085L138.576 30.8833L138.228 30.833L137.952 30.7826L137.88 30.7323L137.706 30.6819V30.6316L137.532 30.5561V30.4554L137.358 30.3799L137.184 30.3043L137.01 30.2288L136.835 30.1785L136.661 30.1281L136.487 30.0526L136.313 30.0023L135.965 29.9268L135.791 29.8764L135.443 29.8513L135.095 29.8764L134.92 29.9268L134.746 29.9771L134.398 30.0023L134.05 29.9519L133.702 29.9016L133.528 29.8261L133.354 29.7254L133.18 29.6499L132.831 29.5744L132.657 29.524L132.483 29.4737L132.135 29.4233H131.787L131.439 29.4485L130.916 29.4989L130.742 29.524H130.394L130.046 29.4737L129.872 29.4233L129.698 29.3982L129.35 29.4233L129.175 29.4737L129.001 29.524L128.827 29.5492L128.479 29.524L128.305 29.4737L127.957 29.4233L127.609 29.3982L127.435 29.4485L127.086 29.4737L126.912 29.4989H126.564L126.39 29.4737L126.042 29.4485L125.694 29.4233L125.345 29.4485H124.997L124.649 29.4233L124.301 29.3982L123.953 29.373L123.605 29.3478L123.256 29.3227L122.734 29.2471H122.386L121.864 29.222H121.515L120.993 29.2471L120.645 29.2723L120.297 29.2975H119.949L119.6 29.2471L119.252 29.1968V29.1213L119.078 29.0458L118.904 28.9703L118.73 28.8947L118.556 28.8696H118.034H117.511L116.989 28.9199L116.641 28.9703L116.293 28.9954L115.596 29.0206L115.074 28.9954L114.552 28.9703L114.204 28.8696L113.855 28.7941L113.333 28.8192L112.811 28.8444L112.289 28.7941L112.115 28.6934V28.5927V28.5172L111.94 28.4165L111.766 28.2906V28.2151L111.592 28.1396L111.418 28.0389L111.244 27.9886L110.548 27.9634H110.025H109.503H108.807H108.459H107.936L107.762 27.913L107.414 27.8879V27.9382L107.24 27.9886L107.066 28.0641V28.1396L106.892 28.2403V28.3158L106.718 28.3661V28.4165L106.544 28.4668H106.021H105.673L105.499 28.5675L105.325 28.643L105.151 28.7437L104.977 28.8192H104.629L104.28 28.7941L103.932 28.7689L103.584 28.7437L103.236 28.7689L102.888 28.7941L102.365 28.7689L102.191 28.6934L101.843 28.643L101.669 28.5675L101.321 28.5172L100.973 28.4668L100.45 28.492L100.102 28.5172L99.7541 28.5423H99.2318L98.8836 28.492L98.5355 28.4668L98.1873 28.5172L97.8391 28.5423L97.665 28.5927L97.3168 28.643L96.9686 28.6682L96.6205 28.6178L96.2723 28.5675L95.9241 28.492L95.75 28.4165L95.4018 28.3661L94.8795 28.4165L94.5314 28.4668L94.3573 28.3913L94.1832 28.3158L94.0091 28.2151L93.835 28.1396L93.6609 28.0389V27.9634L93.3127 28.0892L93.1386 28.1648L92.9645 28.2403L92.6164 28.2906L92.0941 28.3661L91.5718 28.4165H91.2236H90.7014H90.1791L89.8309 28.4668L89.4827 28.492L89.1345 28.5423L88.7864 28.4668L88.4382 28.3913H87.7418H87.3936L86.8714 28.3661L86.5232 28.3158L86.0009 28.2403L85.6527 28.1899L85.1305 28.1648L84.9564 28.2403L84.7823 28.341L84.6082 28.4416L84.4341 28.5423L84.0859 28.6178H83.5636L83.0414 28.5927L82.5191 28.5423L81.9968 28.492H81.4745H81.1264L80.7782 28.4668L80.43 28.3913L80.2559 28.341L80.0818 28.2654L79.9077 28.2151L79.5595 28.1648L79.2114 28.2151L79.0373 28.2654L78.8632 28.3158L78.6891 28.3661L78.3409 28.341L78.1668 28.2654L77.8186 28.2151L77.6445 28.1648L77.2964 28.0892L76.9482 28.0389L76.6 27.9634L76.2518 27.913V27.8375L76.0777 27.7872L75.9036 27.7117V27.6362L75.5555 27.5858L75.0332 27.6362H74.5109L74.1627 27.5606H73.8145L73.2923 27.611H72.77H72.4218L72.0736 27.5103L71.7255 27.4348L71.3773 27.3844H70.855L70.3327 27.4096L69.9845 27.4851L69.6364 27.5606L69.4623 27.6362L69.2882 27.7117L68.94 27.6362V27.5103L68.5918 27.4348L68.4177 27.3844L68.0695 27.46L67.7214 27.5103L67.3732 27.5355L66.8509 27.5103H66.3286L65.9805 27.5606L65.8064 27.6362L65.6323 27.7117L65.2841 27.8124L65.11 27.8879L64.7618 27.9382L64.2395 27.9634H63.8914L63.3691 28.0137L62.8468 28.0892L62.3245 28.0137L61.9764 27.9634L61.6282 27.9382H61.1059H60.7577L60.2355 27.9634L59.7132 28.0137H59.1909L58.8427 27.9634L58.4945 27.913L57.9723 27.8124L57.6241 27.7117L57.45 27.611L57.2759 27.5103L57.1018 27.4096L56.9277 27.3089L56.7536 27.2082V27.1076L56.5795 26.9817L56.2314 27.0069L55.8832 27.0572L55.535 27.0824L55.1868 27.0572L55.0127 27.0069L54.6645 27.032L54.1423 27.0572L53.7941 27.032L53.62 26.9817L53.2718 26.9314L52.9236 26.9817L52.5755 27.032L52.4014 27.0824L52.0532 27.032L51.705 27.0069L51.5309 27.0824L51.1827 27.1579L51.0086 27.2082L50.6605 27.1831L50.3123 27.1076L50.1382 27.032L49.9641 26.9565L49.79 26.881L49.6159 26.7803L49.4418 26.7048L49.2677 26.6041H48.7455H48.2232L47.875 26.5538L47.5268 26.5034L47.1786 26.4531L46.8305 26.4279L46.1341 26.4783L45.7859 26.5286L45.6118 26.6041L45.2636 26.6796L45.0895 26.7551L44.9155 26.8307L44.7414 26.9062H44.2191L43.8709 26.8307L43.3486 26.7803L42.8264 26.8055H42.3041L41.7818 26.7803L41.2595 26.73L40.7373 26.7048H40.215L39.8668 26.6796L39.5186 26.5789V26.4783V26.3776L39.3445 26.3021L39.1705 26.2014V26.1259L38.8223 26L38.4741 26.1259L38.3 26.2014L38.1259 26.2517L37.7777 26.3021H37.2555L36.7332 26.3272H36.2109L35.5145 26.3776H34.9923L34.6441 26.4279L34.1218 26.4783L33.5995 26.4531H33.0773L32.7291 26.4027L32.3809 26.4783L32.2068 26.5538L31.8586 26.5789L31.5105 26.5538L31.3364 26.5034L31.1623 26.4279L30.8141 26.4783L30.4659 26.5286L30.2918 26.5789L29.9436 26.6041L29.5955 26.5789L29.2473 26.5286L28.725 26.5034L28.2027 26.4531H27.8545L27.5064 26.4279L27.1582 26.3776L26.6359 26.3524L25.9395 26.3272H25.4173L25.0691 26.3524L24.5468 26.3776H24.0245H23.6764L23.3282 26.4279L22.98 26.4783L22.6318 26.5034L22.1095 26.5286L21.065 26.5034H20.1945H19.4982H19.15L18.6277 26.4027L18.2795 26.3524L17.5832 26.3021H16.8868H16.1905L15.4941 26.2517L14.6236 26.3021H13.7532H13.0568L12.5345 26.4027L12.0123 26.5034L11.6641 26.6041V26.7551L11.3159 26.881L10.9677 27.0069L10.7936 27.1327L10.0973 27.1831L9.575 27.1327L8.70455 27.0824L8.00819 27.1327L7.48591 27.1831L6.96364 27.2082L6.61546 27.1327L6.26728 27.0824L5.9191 27.032L5.57091 27.0824L5.22273 27.1076L4.87455 27.1327H4.52637H4.17819L3.65591 27.1076L3.48182 27.032L2.78546 26.9817L2.0891 26.9314V26.8307L1.915 26.73L1.74091 26.6293L1.56682 26.5538L1.39273 26.4783L1.04455 26.5286L0.696368 26.5789L0.348186 26.6041H4.64916e-06" stroke="#3399F6" stroke-linecap="round"/>
</g>
<defs>
<linearGradient id="paint0_linear_76_1491" x1="191.5" y1="30" x2="191.5" y2="34" gradientUnits="userSpaceOnUse">
<stop stop-color="#3399F6" stop-opacity="0.1"/>
<stop offset="1" stop-color="#3399F6" stop-opacity="0"/>
</linearGradient>
<clipPath id="clip0_76_1491">
<rect width="383" height="34" fill="white"/>
</clipPath>
</defs>
</svg>
