<svg width="383" height="34" viewBox="0 0 383 34" fill="none" xmlns="http://www.w3.org/2000/svg">
<g clip-path="url(#clip0_76_1495)">
<path d="M0.348182 23.6297L0 23.8133V34H383V7.20253H382.652L382.304 7.11076L381.955 6.92722L381.607 6.74367L381.433 7.01899L381.259 7.2943L381.085 7.66139L380.911 8.02848V8.39557L380.215 8.57911L379.518 8.76266L379.344 9.03797L378.822 9.12975H378.474H378.125L377.777 9.03797L377.429 8.9462L377.081 8.76266L376.733 8.9462L376.385 9.12975L376.036 9.40506L375.514 9.31329L374.992 9.12975L374.295 8.9462L373.425 9.12975L372.903 9.31329L372.206 9.12975L372.032 8.67089L371.684 8.21203L371.336 7.75316V7.20253L370.988 6.83544L370.465 6.46835L369.943 6.10127H369.247H368.376L367.506 5.91772L366.81 6.10127H366.113H365.417L364.72 6.28481L364.372 6.46835L363.85 6.83544H363.502H362.805H361.935L360.89 6.92722L360.368 6.83544L360.02 6.74367L359.672 6.56013L359.324 6.37658H358.975H358.453L357.931 6.28481L357.583 6.19304H357.06L356.364 6.28481L355.842 6.37658L355.494 6.56013L355.145 6.6519H354.797L354.275 6.83544L353.753 6.92722L353.405 7.11076L353.056 7.20253L352.708 7.11076L352.534 6.92722L352.186 6.74367L351.838 6.56013L351.664 6.83544L351.49 7.01899L351.141 7.11076L350.793 7.01899L350.619 6.74367L350.271 6.46835L349.923 6.6519H349.4L348.878 6.74367L348.356 6.56013L348.008 6.37658H347.485L346.789 6.19304H346.267L345.745 6.10127H345.222L344.874 5.91772L344.7 5.73418L344.526 5.45886L344.178 5L343.83 5.45886V5.73418L343.655 6.10127L343.481 6.37658V6.74367V7.11076L343.133 7.47785L342.785 7.56962H342.263L341.74 7.66139L341.218 7.84494L340.696 7.93671H340.174L339.651 7.84494L339.129 8.02848L338.781 8.3038H338.259L338.085 8.02848L337.91 7.75316L337.736 7.47785L337.388 7.20253L337.214 6.92722L336.866 6.74367L336.17 6.56013L335.821 6.6519L335.473 6.83544L335.125 7.01899L334.777 7.20253H334.255H333.732L333.558 7.56962L333.384 7.84494L333.21 8.21203L333.036 8.48734L332.862 8.76266L332.688 9.03797L332.34 9.31329L331.991 9.40506L331.817 9.22152L331.469 8.9462L331.295 8.67089L330.947 8.76266L330.599 8.9462L330.425 8.76266L330.076 8.57911L329.728 8.39557L329.38 8.57911L329.206 8.76266L328.858 8.85443L328.335 8.76266L327.987 8.67089L327.813 8.85443L327.465 8.9462L327.117 8.85443L326.769 8.67089L326.42 8.57911L326.246 9.03797V9.40506L326.072 9.77215L325.898 10.1392L325.724 10.5063L325.55 10.8734L325.376 11.2405L325.028 11.6076L324.505 11.9747L324.157 12.1582L323.809 12.3418H323.287L322.765 12.1582L322.242 12.0665H321.894H321.372L321.024 12.1582L320.675 12.3418L320.153 12.6171L319.631 12.3418L319.109 12.1582H318.76L318.238 12.0665L317.89 11.8829L317.716 11.6076L317.368 11.2405L317.194 10.9652L317.02 10.6899L316.671 10.5063H316.149L315.627 10.5981L315.279 10.5063L314.93 10.3228L314.582 10.0475L314.408 10.231L314.06 10.5063V10.9652L313.712 11.2405L313.538 10.9652L313.364 10.6899L313.015 10.4146L312.667 10.1392L312.145 10.0475H311.623L311.275 10.231L310.926 10.5063L310.578 10.8734H310.23H309.708L309.185 10.6899H308.837L308.489 10.9652H307.967L307.445 10.7816L307.096 10.9652V11.2405L306.922 11.5158L306.748 11.6994V11.9747L306.4 12.1582L306.052 12.4335L305.704 12.6171L305.355 12.8924L305.181 13.0759L304.833 13.2595L304.659 13.5348L304.311 13.6266L304.137 13.443L303.963 13.2595L303.789 13.0759L303.44 12.8924L303.092 13.0759L302.918 13.2595L302.744 13.5348L302.57 13.7184L302.222 13.9937L301.874 14.0854H301.525H301.003L300.481 14.269L299.959 14.4525L299.436 14.5443H298.914L298.566 14.269L298.392 13.9019L298.218 13.5348L298.044 13.1677L297.87 12.8924L297.347 12.9842L296.999 13.1677L296.477 13.443L296.129 13.6266L295.606 13.7184H295.258H294.562L294.214 13.9937L293.865 14.269L293.517 14.0854L293.169 13.9937L292.821 13.8101H292.299H291.776H291.428L290.906 13.6266L290.384 13.3513L290.035 13.1677L289.861 12.8924L289.687 12.6171L289.339 12.1582V12.4335L289.165 12.8006L288.991 13.0759L288.817 13.443L288.643 13.7184L288.469 13.9937L288.12 13.8101L287.598 13.6266L287.25 13.8101L287.076 14.0854L286.728 14.3608L286.38 14.5443L286.031 14.7278L285.683 14.6361L285.335 14.4525L285.161 14.269L284.813 14.1772L284.465 13.9937L284.116 14.0854L283.768 14.269H283.246L282.898 14.1772L282.55 14.0854L282.027 13.9937L281.679 14.1772L281.331 14.3608L281.157 14.6361L280.809 14.8196L280.635 15.0949L280.112 15.1867L279.764 15.0949L279.416 15.0032L279.068 15.0949L278.72 15.1867L278.371 15.2785H278.023L277.849 15.0032L277.675 14.6361L277.501 14.3608L277.327 13.9937H276.979H276.456L276.282 13.8101V13.6266L276.108 13.443V13.1677L275.934 12.8006V12.5253L275.76 12.25L275.586 12.0665V11.8829L275.238 11.9747L275.064 12.1582H274.541H274.193H273.497H272.975H272.452L271.756 12.25L271.582 12.4335L271.408 12.8006L271.234 13.0759V13.3513L271.06 13.8101L270.885 14.1772V14.4525V14.8196L270.711 15.1867L270.189 15.3703L269.667 15.2785L269.145 15.1867L268.796 15.462L268.448 15.8291L267.926 15.9209L267.404 16.0127L266.707 15.9209L266.359 15.8291L266.011 15.6456L265.489 15.462H264.966H264.444L264.27 15.5538L264.096 15.8291L263.922 16.1044L263.748 16.3797V16.6551L263.4 16.8386L263.051 17.0222H262.703L262.355 16.9304L262.007 16.8386L261.485 16.7468H261.136L260.614 16.8386H260.266L259.744 17.1139L259.395 17.2057L259.047 17.2975L258.699 17.3892L258.351 17.481L258.003 17.5728H257.655L257.306 17.481L256.958 17.5728L256.61 17.6646L256.436 17.7563H256.088L255.914 17.6646L255.565 17.5728L255.391 17.3892L255.043 17.481L254.695 17.6646L254.521 17.8481L254.173 17.9399L253.999 17.8481L253.825 17.6646L253.65 17.481L253.302 17.3892L253.128 17.481L252.954 17.6646L252.606 17.8481H252.258L252.084 17.7563L251.561 17.5728L251.213 17.481H250.865L250.517 17.6646L250.343 17.8481L250.169 18.0316L249.82 18.307L249.646 18.5823L249.472 18.9494L249.298 19.2247L248.95 19.4082L248.602 19.5918L248.254 19.5L248.08 19.3165L247.905 19.1329L247.557 19.0411L247.209 19.1329L247.035 19.3165L246.687 19.5918L246.513 19.7753L246.339 20.0506L246.165 20.2342L245.99 20.4177L245.816 20.693L245.642 20.9684L245.468 21.2437V21.6108L245.294 21.8861V22.0696L245.12 22.2532L245.048 22.4367L244.772 22.6203L244.424 22.8038L244.075 22.8956L243.727 22.9873L243.553 22.8038L243.379 22.5285L243.205 22.2532L243.031 21.9778L242.857 21.7943L242.683 21.6108L242.509 21.4272L242.16 21.3354L241.812 21.2437H241.464H240.942H240.245L239.723 21.3354H239.375L238.853 21.2437L238.679 21.0601V20.8766L238.505 20.6013L238.156 20.3259L237.982 20.2342L237.46 20.0506L237.112 20.1424L236.938 20.4177L236.59 20.6013L236.415 20.8766L236.241 20.7848H235.719L235.371 20.8766L235.023 21.1519L234.849 21.3354L234.5 21.6108L234.326 21.8861L233.978 22.0696L233.804 22.2532L233.63 22.4367L233.456 22.8038L233.108 22.712L232.934 22.5285L232.76 22.3449L232.411 22.2532H232.128L231.715 22.3449L231.367 22.2532L231.019 22.1614L230.67 21.9778L230.322 21.7025L230.148 21.6108H229.8L229.56 21.8861L229.104 21.9778L228.755 21.8861L228.407 21.7943H227.885L227.537 21.9778L227.189 22.2532L226.84 22.4367L226.492 22.2532H226.144L225.97 22.4367L225.796 22.712V22.8956L225.622 23.1709L225.448 23.3544L225.274 23.6297L225.1 23.9051L224.751 24.1804L224.403 24.4557L224.055 24.3639L223.533 24.1804L223.01 23.9968L222.836 24.1804L222.488 24.2722L222.14 24.3639L221.792 24.1804L221.444 23.9968L221.27 23.8133L221.095 23.538L220.921 23.2627L220.747 22.9873L220.573 22.8038L220.225 22.6203L219.703 22.5285L219.529 22.712L219.18 22.8956L219.006 22.9873L218.658 23.1709L218.484 23.0791H218.136L217.788 22.8956H217.516L217.265 22.8038L216.917 22.712L216.569 22.8038L216.221 22.8956L215.699 22.9873L215.35 22.8038H215.002L214.828 22.8956L214.654 23.1709L214.48 23.4462L214.132 23.7215L213.726 24.0886L213.435 23.9051L213.261 23.8133L212.992 23.538L212.739 23.3544H212.391L212.217 23.538L212.043 23.7215L211.695 23.9051L211.52 23.8133L211.172 23.7215H210.824L210.476 23.8133L210.128 23.9051L209.78 23.8133L209.431 23.7215L209.083 23.8133L208.909 24.0886L208.561 24.3639L208.387 24.1804L208.122 23.9051L208.039 23.6297L207.516 23.538L207.168 23.7215L206.646 23.8133L206.124 23.7215L205.775 23.6297H205.427L205.253 23.9051L205.079 24.1804L204.731 24.4557L204.557 24.6392L204.383 24.9146L204.035 25.1899L203.686 25.0981L203.338 25.0063L202.99 24.8228L202.642 24.731H202.12L201.597 24.9146L201.075 25.0981L200.205 25.1899L199.856 25.3734L199.682 25.6487L199.508 25.9241V26.1076L199.334 26.4747L198.986 26.75L198.464 26.8418L198.115 26.9335L197.941 27.2089L197.593 27.4842L197.419 27.7595H196.897L196.549 27.943L196.2 28.1266L195.678 28.3101L195.504 28.4937L194.808 28.6772L194.46 28.769L194.285 28.8608H193.763L193.415 28.769H192.893L192.545 28.8608L192.196 29.0443L191.848 29.2278L191.5 29.3196H191.044H190.804L190.107 29.5032L189.759 29.5949H189.237H188.715H188.54H187.844H187.496H187.148H186.277H185.929L185.407 29.4114L185.059 29.3196L184.71 29.1361L184.362 29.0443L183.84 29.2278L183.144 29.3196H182.795H182.273H181.751H181.403L181.055 29.4114L180.706 29.5032L180.358 29.6867L180.01 29.8703H179.662L179.488 29.7785H179.14H178.791L178.269 29.8703H177.573V29.7785L177.399 29.5949L177.225 29.4114L177.05 29.2278L176.876 29.0443V28.8608L176.528 28.6772L176.18 28.4937L176.006 28.3101L175.484 28.1266H174.961L174.613 28.4019L174.439 28.5854L173.917 28.769L173.395 28.8608H172.524L172.002 28.769H171.48L170.957 28.8608L170.783 29.0443L170.261 29.1361L169.913 29.0443L169.739 28.9525H169.216H168.868L168.52 28.8608L168.172 28.769L167.998 28.6772H167.824L167.475 28.8608L167.127 29.0443H166.953L166.779 28.8608L166.431 28.769L166.083 28.6772H165.735L165.386 28.5854H165.038L164.69 28.6772L164.168 28.769L163.994 28.8608L163.82 29.1361L163.645 29.4114L163.471 29.6867L163.123 30.0538H162.775L162.427 29.8703H161.905L161.556 29.7785L161.208 29.6867H160.686H160.338L159.99 29.7785H159.641L159.293 29.962L159.119 30.0538L158.771 30.2373L158.597 30.3291L158.423 30.5127L158.075 30.6044L157.726 30.788H157.378L157.03 30.6044L156.856 30.4209L156.682 30.3291L156.508 30.0538L156.334 29.8703L156.16 29.6867L155.811 29.5949H155.637H155.289L155.115 29.6867H154.767H154.419H154.07L153.548 29.5949L153.374 29.5032L153.026 29.4114L152.852 29.2278H152.504L152.155 29.3196H151.981L151.807 29.4114L151.633 29.5032L151.459 29.6867H151.111L150.937 29.5949L150.763 29.4114L150.415 29.2278L150.066 29.1361L149.892 28.9525L149.544 28.8608L149.022 28.769L148.674 28.8608L148.5 29.0443V29.4114C148.442 29.4726 148.325 29.6133 148.325 29.6867V30.0538L147.977 30.2373V29.962L147.629 29.5949V29.2278V28.9525L147.455 28.6772L147.281 28.4937V28.3101V28.0348L147.107 27.8513V27.576L146.933 27.3006V27.0253L146.759 26.75V26.5665V26.1994L146.585 25.9241V25.6487L146.41 25.4652L146.236 25.1899L145.714 25.0063L145.192 24.8228L145.018 24.6392L144.495 24.4557H144.147L143.799 24.731L143.625 25.0063L143.451 25.1899L143.277 25.557L142.755 25.7405L142.406 25.6487L142.058 25.4652L141.71 25.2816L141.188 25.3734L140.84 25.4652H140.491H139.969L139.621 25.3734L139.273 25.2816L138.925 25.4652V25.6487L138.576 25.8323L138.228 26.0158L137.88 26.2911L137.532 26.3829L137.01 26.2911L136.835 26.3829L136.661 26.6582L136.487 26.8418L136.313 27.1171L136.139 27.3006L135.965 27.576L135.791 27.7595L135.617 27.943L135.443 28.1266L135.269 28.4019L135.095 28.769L134.746 28.6772L134.398 28.5854L134.224 28.6772L134.05 28.8608L133.876 29.0443L133.354 29.1361L133.005 29.2278L132.483 29.3196L132.135 29.4114L131.961 29.5032L131.439 29.5949L131.09 29.5032L130.742 29.4114L130.22 29.3196L130.046 29.1361L129.698 29.0443L129.35 29.1361L129.001 29.2278L128.653 29.4114L128.479 29.5032L128.131 29.5949H127.783L127.435 29.5032H127.086L126.738 29.5949H126.39L126.216 29.5032L125.868 29.4114H125.52H125.171L124.823 29.5032L124.475 29.6867L124.127 29.5949L123.953 29.4114L123.779 29.3196L123.256 29.1361L122.998 29.2278H122.56L122.038 29.1361L121.515 29.0443L121.167 28.8608L120.645 28.769H120.297H119.775L119.426 28.8608L118.999 29.1361L118.73 29.2278L118.382 29.4114L118.208 29.5949L117.86 29.8703H117.511L116.989 29.6867L116.467 29.5949L116.119 29.4114H115.77L115.422 29.2278H114.726L114.204 29.1361L113.681 29.0443L113.159 29.1361L112.637 29.2278L112.463 29.4114L111.94 29.5032H111.592H111.07H110.722H110.025L109.677 29.5949L109.503 29.8703L109.155 30.1456H108.807L108.459 29.8703L108.285 29.5949L107.936 29.3196L107.588 29.1361L107.24 29.2278H106.718L106.37 29.0443L106.195 28.8608V28.5854L106.021 28.4019L105.847 28.1266L105.499 28.2184L104.977 28.1266L104.455 27.943L104.106 27.7595L104.019 27.4842L103.932 27.2089L103.758 26.9335V26.75L103.41 26.4747L103.236 26.3829L103.062 26.5665L102.714 26.75L102.54 26.5665L102.365 26.3829V26.1994L102.191 25.9241V25.7405L102.017 25.557V25.3734L101.843 25.1899L101.495 25.0981L101.147 25.0063L100.799 24.8228L100.45 24.731H100.102L99.9282 24.8228L99.7541 25.0981L99.4059 25.2816L99.1359 25.4652L98.8836 25.7405L98.5355 25.9241L98.3614 26.1076L98.0132 26.2911L97.8391 26.4747L97.4909 26.5665L97.3168 26.9335L96.9686 27.0253V26.8418L96.7945 26.6582L96.6205 26.4747L96.4464 26.2911L96.0982 26.1994L95.9241 26.2911L95.75 26.5665L95.4018 26.75L95.0536 26.8418L94.7055 26.9335H94.3573L93.835 26.8418H93.3127L92.7905 26.9335L92.4423 27.1171L92.0941 27.2089H91.7459H91.3977L90.8755 27.3006L90.5273 27.4842L90.3532 27.6677L90.1791 27.943L90.005 28.2184H89.6568L89.3086 28.0348L88.9605 27.7595L88.6123 27.576L88.2641 27.3924L88.09 27.1171V26.8418L87.9159 26.5665L87.7418 26.3829L87.5677 26.1076L87.3936 25.8323L87.2195 25.7405L86.6973 25.8323L86.3491 25.9241L86.0009 26.1076L85.4786 26.2911H85.3045H84.9564L84.4341 26.3829L84.0859 26.5665L83.7377 26.6582L83.3895 26.5665L83.2155 26.3829L82.8673 26.1076L82.6932 25.8323L82.5191 25.4652L82.345 25.1899L82.1709 25.0063L81.9968 24.731V24.4557V24.2722L81.6486 24.0886L81.3005 23.9051L80.9523 23.7215L80.6041 23.538L80.2559 23.3544H79.9077H79.3855L79.0373 23.1709L78.6891 22.8956L78.3409 22.712L77.8186 22.6203L77.4705 22.8956L77.1223 23.0791L76.9482 23.3544L76.6 23.538L76.0777 23.6297L75.7295 23.9051L75.5555 24.2722L75.3814 24.6392L75.2073 25.0063L75.0332 25.3734L74.8591 25.7405L74.685 25.557L74.5109 25.3734L74.3368 25.0981L73.8145 25.0063L73.4664 25.1899L73.1182 25.4652L72.77 25.6487L72.4218 25.7405L72.0736 25.6487L71.8995 25.4652L71.5514 25.3734L71.2032 25.6487L71.0291 25.9241L70.855 26.3829L70.5068 26.4747L70.1586 26.2911L69.7288 26.4747L69.2882 26.6582H68.94L68.5918 26.4747L68.2436 26.2911L67.8955 26.0158L67.3732 25.8323L66.8509 25.6487L66.3286 25.4652L65.8064 25.3734L65.2841 25.4652L65.11 25.6487L64.9359 25.9241L64.7618 26.1994L64.4136 26.4747L64.2395 26.8418L64.0655 27.3006L63.8914 27.6677L63.7173 28.0348L63.5432 28.4019L63.195 28.5854L62.8468 28.4019L62.6727 28.2184L62.4986 28.0348L62.3245 27.7595L62.1505 27.4842L61.8023 27.2089H61.1059L60.7577 26.9335L60.0614 27.0253L59.7132 27.3006L59.0168 27.4842L58.6686 27.7595L58.1464 27.576L57.7982 27.4842L57.2759 27.3006L57.1018 27.4842L56.9277 27.7595V28.0348L56.7536 28.4019V28.769L56.5795 29.0443L56.4055 29.4114L55.8832 29.5949L55.535 29.7785L55.3609 30.1456L55.1868 30.5127L55.0127 30.8797L54.6645 31.1551L54.1423 31.5222L53.7941 31.8892L53.2718 32.1646L52.9236 32.4399L52.5755 32.807L52.2273 32.8987L51.8791 32.6234L51.5309 32.4399L51.3568 32.1646L51.0086 31.7975L50.6605 31.5222L50.1382 31.2468L49.4418 31.1551L48.7455 30.9715L48.2232 31.0633L47.7009 31.3386L47.1786 31.6139L46.4823 31.7975L45.96 31.981L45.6118 32.2563L45.2636 32.4399L44.9155 32.7152L44.5673 32.8987H44.045H43.5227L43.3486 32.6234L43.0005 32.3481L42.6523 32.5316H42.13L41.7818 32.3481L41.4336 32.0728L41.0855 31.8892L40.5632 31.7057L40.1184 31.5222L39.6927 31.3386L39.273 31.0633L38.8223 30.9715L38.3 31.0633L37.7777 31.2468L37.2555 31.3386L36.9073 31.5222H36.5591H36.2109L35.8627 31.3386L35.5145 31.1551L35.1664 31.3386L34.8182 31.6139L34.47 31.3386L34.1218 31.1551L33.7736 30.9715L33.2514 30.8797L32.9032 31.0633L32.7291 31.3386L32.3809 31.6139L32.2068 31.3386L31.9463 31.1551L31.5105 30.9715L31.3364 30.6962L30.9882 30.9715L30.64 31.1551L30.2918 31.0633L29.9436 30.788L29.5955 30.6044V30.2373L29.2473 29.8703L29.0732 29.5949L28.8991 29.2278L28.725 28.8608L28.3768 28.5854L28.2027 28.3101L28.0286 28.0348L27.8545 27.7595L27.6805 27.3924L27.5064 27.1171L27.3323 26.8418L27.1582 26.5665L26.9841 26.2911L26.81 26.1076V25.8323L26.4618 25.557L26.2877 25.3734L25.9395 25.1899L25.4173 25.0981L25.0691 24.9146H24.7209H24.3727L24.0245 25.0981L23.6764 25.2816L23.3282 25.0981L22.98 25.0063L22.6318 24.9146H22.1095L21.9355 25.0981L21.5873 25.1899L21.2391 25.0981L20.8909 24.9146L20.5427 24.731L20.1945 24.6392L19.8464 24.5475L19.6723 24.3639L19.4982 24.1804L19.15 23.9968L18.9759 23.8133L18.8018 23.6297L18.4536 23.4462L18.1055 23.538L17.9314 23.9051L17.7573 24.0886L17.5832 24.4557L17.4091 24.731L17.0609 24.9146L16.7127 25.0981L16.3645 25.2816L16.0164 25.4652H15.4941L15.1459 25.2816L14.9718 25.0063L14.7977 24.731L14.6236 24.4557V24.1804V23.9051L14.4495 23.6297L14.2755 23.4462L13.9273 23.2627L13.5791 23.0791L13.2309 22.9873H12.8827L12.5345 22.8038L12.3605 22.6203L12.0123 22.5285H11.6641L11.3159 22.712L11.1418 22.8956L10.7936 23.0791L10.4455 23.2627L10.0973 23.1709L9.74909 22.9873L9.40091 22.8956L9.05273 22.9873H8.70455L8.53045 22.8956L8.35636 22.712L8.18227 22.5285L8.00818 22.3449V22.0696L7.66 21.9778L7.31182 22.1614H6.96364L6.78955 22.0696L6.61545 21.8861L6.26727 21.7943H5.91909L5.745 21.9778L5.57091 22.1614H5.22273L4.87455 22.3449L4.52636 22.5285L4.17818 22.6203L3.83 22.8038L3.48182 22.9873L3.13364 23.0791H2.78545L2.43727 22.8956L2.08909 23.0791L1.74091 23.2627L1.39273 23.4462L1.04455 23.6297H0.696364H0.348182Z" fill="url(#paint0_linear_76_1495)"/>
<path d="M0 23.7057L0.348182 23.5232H0.696364H1.04455L1.39273 23.3407L1.74091 23.1582L2.08909 22.9757L2.43727 22.7932L2.78545 22.9757H3.13364L3.48182 22.8844L3.83 22.7019L4.17818 22.5195L4.52636 22.4282L4.87455 22.2457L5.22273 22.0632H5.57091L5.745 21.8807L5.91909 21.6982H6.26727L6.61545 21.7895L6.78955 21.972L6.96364 22.0632H7.31182L7.66 21.8807L8.00818 21.972V22.2457L8.18227 22.4282L8.35636 22.6107L8.53045 22.7932L8.70455 22.8844H9.05273L9.40091 22.7932L9.74909 22.8844L10.0973 23.0669L10.4455 23.1582L10.7936 22.9757L11.1418 22.7932L11.3159 22.6107L11.6641 22.4282H12.0123L12.3605 22.5195L12.5345 22.7019L12.8827 22.8844H13.2309L13.5791 22.9757L13.9273 23.1582L14.2755 23.3407L14.4495 23.5232L14.6236 23.7969V24.0707V24.3444L14.7977 24.6181L14.9718 24.8919L15.1459 25.1656L15.4941 25.3481H16.0164L16.3645 25.1656L16.7127 24.9831L17.0609 24.8006L17.4091 24.6181L17.5832 24.3444L17.7573 23.9794L17.9314 23.7969L18.1055 23.4319L18.4536 23.3407L18.8018 23.5232L18.9759 23.7057L19.15 23.8882L19.4982 24.0707L19.6723 24.2531L19.8464 24.4356L20.1945 24.5269L20.5427 24.6181L20.8909 24.8006L21.2391 24.9831L21.5873 25.0744L21.9355 24.9831L22.1095 24.8006H22.6318L22.98 24.8919L23.3282 24.9831L23.6764 25.1656L24.0245 24.9831L24.3727 24.8006H24.7209H25.0691L25.4173 24.9831L25.9395 25.0744L26.2877 25.2569L26.4618 25.4394L26.81 25.7131V25.9868L26.9841 26.1693L27.1582 26.4431L27.3323 26.7168L27.5064 26.9906L27.6805 27.2643L27.8545 27.6293L28.0286 27.903L28.2027 28.1768L28.3768 28.4505L28.725 28.7243L28.8991 29.0892L29.0732 29.4542L29.2473 29.728L29.5955 30.093V30.458L29.9436 30.6404L30.2918 30.9142L30.64 31.0054L30.9882 30.8229L31.3364 30.5492L31.5105 30.8229L31.9463 31.0054L32.2068 31.1879L32.3809 31.4617L32.7291 31.1879L32.9032 30.9142L33.2514 30.7317L33.7736 30.8229L34.1218 31.0054L34.47 31.1879L34.8182 31.4617L35.1664 31.1879L35.5145 31.0054L35.8627 31.1879L36.2109 31.3704H36.5591H36.9073L37.2555 31.1879L37.7777 31.0967L38.3 30.9142L38.8223 30.8229L39.273 30.9142L39.6927 31.1879L40.1184 31.3704L40.5632 31.5529L41.0855 31.7354L41.4336 31.9179L41.7818 32.1916L42.13 32.3741H42.6523L43.0005 32.1916L43.3486 32.4654L43.5227 32.7391H44.045H44.5673L44.9155 32.5566L45.2636 32.2829L45.6118 32.1004L45.96 31.8267L46.4823 31.6442L47.1786 31.4617L47.7009 31.1879L48.2232 30.9142L48.7455 30.8229L49.4418 31.0054L50.1382 31.0967L50.6605 31.3704L51.0086 31.6442L51.3568 32.0092L51.5309 32.2829L51.8791 32.4654L52.2273 32.7391L52.5755 32.6479L52.9236 32.2829L53.2718 32.0092L53.7941 31.7354L54.1423 31.3704L54.6645 31.0054L55.0127 30.7317L55.1868 30.3667L55.3609 30.0017L55.535 29.6367L55.8832 29.4542L56.4055 29.2717L56.5795 28.9068L56.7536 28.633V28.268L56.9277 27.903V27.6293L57.1018 27.3555L57.2759 27.1731L57.7982 27.3555L58.1464 27.4468L58.6686 27.6293L59.0168 27.3555L59.7132 27.1731L60.0614 26.8993L60.7577 26.8081L61.1059 27.0818H61.8023L62.1505 27.3555L62.3245 27.6293L62.4986 27.903L62.6727 28.0855L62.8468 28.268L63.195 28.4505L63.5432 28.268L63.7173 27.903L63.8914 27.538L64.0655 27.1731L64.2395 26.7168L64.4136 26.3518L64.7618 26.0781L64.9359 25.8043L65.11 25.5306L65.2841 25.3481L65.8064 25.2569L66.3286 25.3481L66.8509 25.5306L67.3732 25.7131L67.8955 25.8956L68.2436 26.1693L68.5918 26.3518L68.94 26.5343H69.2882L69.7288 26.3518L70.1586 26.1693L70.5068 26.3518L70.855 26.2606L71.0291 25.8043L71.2032 25.5306L71.5514 25.2569L71.8995 25.3481L72.0736 25.5306L72.4218 25.6219L72.77 25.5306L73.1182 25.3481L73.4664 25.0744L73.8145 24.8919L74.3368 24.9831L74.5109 25.2569L74.685 25.4394L74.8591 25.6219L75.0332 25.2569L75.2073 24.8919L75.3814 24.5269L75.5555 24.1619L75.7295 23.7969L76.0777 23.5232L76.6 23.4319L76.9482 23.2494L77.1223 22.9757L77.4705 22.7932L77.8186 22.5195L78.3409 22.6107L78.6891 22.7932L79.0373 23.0669L79.3855 23.2494H79.9077H80.2559L80.6041 23.4319L80.9523 23.6144L81.3005 23.7969L81.6486 23.9794L81.9968 24.1619V24.3444V24.6181L82.1709 24.8919L82.345 25.0744L82.5191 25.3481L82.6932 25.7131L82.8673 25.9868L83.2155 26.2606L83.3895 26.4431L83.7377 26.5343L84.0859 26.4431L84.4341 26.2606L84.9564 26.1693H85.3045H85.4786L86.0009 25.9868L86.3491 25.8043L86.6973 25.7131L87.2195 25.6219L87.3936 25.7131L87.5677 25.9868L87.7418 26.2606L87.9159 26.4431L88.09 26.7168V26.9906L88.2641 27.2643L88.6123 27.4468L88.9605 27.6293L89.3086 27.903L89.6568 28.0855H90.005L90.1791 27.8118L90.3532 27.538L90.5273 27.3555L90.8755 27.1731L91.3977 27.0818H91.7459H92.0941L92.4423 26.9906L92.7905 26.8081L93.3127 26.7168H93.835L94.3573 26.8081H94.7055L95.0536 26.7168L95.4018 26.6256L95.75 26.4431L95.9241 26.1693L96.0982 26.0781L96.4464 26.1693L96.6205 26.3518L96.7945 26.5343L96.9686 26.7168V26.8993L97.3168 26.8081L97.4909 26.4431L97.8391 26.3518L98.0132 26.1693L98.3614 25.9868L98.5355 25.8043L98.8836 25.6219L99.1358 25.3481L99.4059 25.1656L99.7541 24.9831L99.9282 24.7094L100.102 24.6181H100.45L100.799 24.7094L101.147 24.8919L101.495 24.9831L101.843 25.0744L102.017 25.2569V25.4394L102.191 25.6219V25.8043L102.365 26.0781V26.2606L102.54 26.4431L102.714 26.6256L103.062 26.4431L103.236 26.2606L103.41 26.3518L103.758 26.6256V26.8081L103.932 27.0818L104.019 27.3555L104.106 27.6293L104.455 27.8118L104.977 27.9943L105.499 28.0855L105.847 27.9943L106.021 28.268L106.195 28.4505V28.7243L106.37 28.9068L106.718 29.0892H107.24L107.588 28.998L107.936 29.1805L108.285 29.4542L108.459 29.728L108.807 30.0017H109.155L109.503 29.728L109.677 29.4542L110.025 29.363H110.722H111.07H111.592H111.94L112.463 29.2717L112.637 29.0892L113.159 28.998L113.681 28.9068L114.204 28.998L114.726 29.0892H115.422L115.77 29.2717H116.119L116.467 29.4542L116.989 29.5455L117.511 29.728H117.86L118.208 29.4542L118.382 29.2717L118.73 29.0892L118.999 28.998L119.426 28.7243L119.775 28.633H120.297H120.645L121.167 28.7243L121.515 28.9068L122.038 28.998L122.56 29.0892H122.998L123.256 28.998L123.779 29.1805L123.953 29.2717L124.127 29.4542L124.475 29.5455L124.823 29.363L125.171 29.2717H125.52H125.868L126.216 29.363L126.39 29.4542H126.738L127.086 29.363H127.435L127.783 29.4542H128.131L128.479 29.363L128.653 29.2717L129.001 29.0892L129.35 28.998L129.698 28.9068L130.046 28.998L130.22 29.1805L130.742 29.2717L131.09 29.363L131.439 29.4542L131.961 29.363L132.135 29.2717L132.483 29.1805L133.005 29.0892L133.354 28.998L133.876 28.9068L134.05 28.7243L134.224 28.5418L134.398 28.4505L134.746 28.5418L135.095 28.633L135.269 28.268L135.443 27.9943L135.617 27.8118L135.791 27.6293L135.965 27.4468L136.139 27.1731L136.313 26.9906L136.487 26.7168L136.661 26.5343L136.835 26.2606L137.01 26.1693L137.532 26.2606L137.88 26.1693L138.228 25.8956L138.576 25.7131L138.925 25.5306V25.3481L139.273 25.1656L139.621 25.2569L139.969 25.3481H140.491H140.84L141.188 25.2569L141.71 25.1656L142.058 25.3481L142.406 25.5306L142.755 25.6219L143.277 25.4394L143.451 25.0744L143.625 24.8919L143.799 24.6181L144.147 24.3444H144.495L145.018 24.5269L145.192 24.7094L145.714 24.8919L146.236 25.0744L146.41 25.3481L146.585 25.5306V25.8043L146.759 26.0781V26.4431V26.6256L146.933 26.8993V27.1731L147.107 27.4468V27.7205L147.281 27.903V28.1768V28.3593L147.455 28.5418L147.629 28.8155V29.0892V29.4542L147.977 29.8192V30.093L148.325 29.9105C148.325 29.8192 148.325 29.6185 148.325 29.5455C148.325 29.4725 148.442 29.3326 148.5 29.2717V28.9068L148.674 28.7243L149.022 28.633L149.544 28.7243L149.892 28.8155L150.066 28.998L150.415 29.0892L150.763 29.2717L150.937 29.4542L151.111 29.5455H151.459L151.633 29.363L151.807 29.2717L151.981 29.1805H152.155L152.504 29.0892H152.852L153.026 29.2717L153.374 29.363L153.548 29.4542L154.07 29.5455H154.419H154.767H155.115L155.289 29.4542H155.637H155.811L156.16 29.5455L156.334 29.728L156.508 29.9105L156.682 30.1842L156.856 30.2755L157.03 30.458L157.378 30.6404H157.726L158.075 30.458L158.423 30.3667L158.597 30.1842L158.771 30.093L159.119 29.9105L159.293 29.8192L159.641 29.6367H159.99L160.338 29.5455H160.686H161.208L161.556 29.6367L161.905 29.728H162.427L162.775 29.9105H163.123L163.471 29.5455L163.645 29.2717L163.82 28.998L163.994 28.7243L164.168 28.633L164.69 28.5418L165.038 28.4505H165.386L165.735 28.5418H166.083L166.431 28.633L166.779 28.7243L166.953 28.9068H167.127L167.475 28.7243L167.824 28.5418H167.998L168.172 28.633L168.52 28.7243L168.868 28.8155C168.926 28.8155 169.077 28.8155 169.216 28.8155C169.356 28.8155 169.623 28.8155 169.739 28.8155L169.913 28.9068L170.261 28.998L170.783 28.9068L170.957 28.7243L171.48 28.633H172.002L172.524 28.7243H173.395L173.917 28.633L174.439 28.4505L174.613 28.268L174.961 27.9943H175.484L176.006 28.1768L176.18 28.3593L176.528 28.5418L176.876 28.7243V28.9068L177.05 29.0892L177.225 29.2717L177.399 29.4542L177.573 29.6367V29.728H178.269L178.791 29.6367H179.14H179.488L179.662 29.728H180.01L180.358 29.5455L180.706 29.363L181.055 29.2717L181.403 29.1805H181.751H182.273H182.795H183.144L183.84 29.0892L184.362 28.9068L184.71 28.998L185.059 29.1805L185.407 29.2717L185.929 29.4542H186.277H187.148H187.496H187.844H188.54H188.715H189.237H189.759L190.107 29.363L190.804 29.1805H191.044H191.5L191.848 29.0892L192.196 28.9068L192.545 28.7243L192.893 28.633H193.415L193.763 28.7243H194.285L194.46 28.633L194.808 28.5418L195.504 28.3593L195.678 28.1768L196.2 27.9943L196.549 27.8118L196.897 27.6293H197.419L197.593 27.3555L197.941 27.0818L198.115 26.8081L198.464 26.7168L198.986 26.6256L199.334 26.3518L199.508 25.9868V25.8043L199.682 25.5306L199.856 25.2569L200.205 25.0744L201.075 24.9831L201.597 24.8006L202.12 24.6181H202.642L202.99 24.7094L203.338 24.8919L203.686 24.9831L204.035 25.0744L204.383 24.8006L204.557 24.5269L204.731 24.3444L205.079 24.0707L205.253 23.7969L205.427 23.5232H205.775L206.124 23.6144L206.646 23.7057L207.168 23.6144L207.516 23.4319L208.039 23.5232L208.122 23.7969L208.387 24.0707L208.561 24.2531L208.909 23.9794L209.083 23.7057L209.431 23.6144L209.78 23.7057L210.128 23.7969L210.476 23.7057L210.824 23.6144H211.172L211.52 23.7057L211.695 23.7969L212.043 23.6144L212.217 23.4319L212.391 23.2494H212.739L212.992 23.4319L213.261 23.7057L213.435 23.7969L213.726 23.9794L214.132 23.6144L214.48 23.3407L214.654 23.0669L214.828 22.7932L215.002 22.7019H215.35L215.699 22.8844L216.221 22.7932L216.569 22.7019L216.917 22.6107L217.265 22.7019L217.516 22.7932H217.788L218.136 22.9757H218.484L218.658 23.0669L219.006 22.8844L219.18 22.7932L219.529 22.6107L219.703 22.4282L220.225 22.5195L220.573 22.7019L220.747 22.8844L220.921 23.1582L221.095 23.4319L221.27 23.7057L221.444 23.8882L221.792 24.0707L222.14 24.2531L222.488 24.1619L222.836 24.0707L223.01 23.8882L223.533 24.0707L224.055 24.2531L224.403 24.3444L224.751 24.0707L225.1 23.7969L225.274 23.5232L225.448 23.2494L225.622 23.0669L225.796 22.7932V22.6107L225.97 22.337L226.144 22.1545H226.492L226.84 22.337L227.189 22.1545L227.537 21.8807L227.885 21.6982H228.407L228.755 21.7895L229.104 21.8807L229.56 21.7895L229.8 21.5157H230.148L230.322 21.607L230.67 21.8807L231.019 22.0632L231.367 22.1545L231.715 22.2457L232.128 22.1545H232.411L232.76 22.2457L232.934 22.4282L233.108 22.6107L233.456 22.7019L233.63 22.337L233.804 22.1545L233.978 21.972L234.326 21.7895L234.5 21.5157L234.849 21.242L235.023 21.0595L235.371 20.7858L235.719 20.6945H236.241L236.415 20.7858L236.59 20.512L236.938 20.3295L237.112 20.0558L237.46 19.9645L237.982 20.147L238.156 20.2383L238.505 20.512L238.679 20.7858V20.9682L238.853 21.1507L239.375 21.242H239.723L240.245 21.1507H240.942H241.464H241.812L242.16 21.242L242.509 21.3332L242.683 21.5157L242.857 21.6982L243.031 21.8807L243.205 22.1545L243.379 22.4282L243.553 22.7019L243.727 22.8844L244.075 22.7932L244.424 22.7019L244.772 22.5195L245.048 22.337L245.12 22.1545L245.294 21.972V21.7895L245.468 21.5157V21.1507L245.642 20.877L245.816 20.6033L245.99 20.3295L246.165 20.147L246.339 19.9645L246.513 19.6908L246.687 19.5083L247.035 19.2346L247.209 19.0521L247.557 18.9608L247.905 19.0521L248.08 19.2346L248.254 19.417L248.602 19.5083L248.95 19.3258L249.298 19.1433L249.472 18.8696L249.646 18.5046L249.82 18.2308L250.169 17.9571L250.343 17.7746L250.517 17.5921L250.865 17.4096H251.213L251.561 17.5009L252.084 17.6834L252.258 17.7746H252.606L252.954 17.5921L253.128 17.4096L253.302 17.3184L253.65 17.4096L253.825 17.5921L253.999 17.7746L254.173 17.8658L254.521 17.7746L254.695 17.5921L255.043 17.4096L255.391 17.3184L255.565 17.5009L255.914 17.5921L256.088 17.6834H256.436L256.61 17.5921L256.958 17.5009L257.306 17.4096L257.655 17.5009H258.003L258.351 17.4096L258.699 17.3184L259.047 17.2271L259.395 17.1359L259.744 17.0446L260.266 16.7709H260.614L261.136 16.6796H261.485L262.007 16.7709L262.355 16.8621L262.703 16.9534H263.051L263.4 16.7709L263.748 16.5884V16.3146L263.922 16.0409L264.096 15.7672L264.27 15.4934L264.444 15.4022H264.966H265.489L266.011 15.5847L266.359 15.7672L266.707 15.8584L267.404 15.9497L267.926 15.8584L268.448 15.7672L268.796 15.4022L269.145 15.1284L269.667 15.2197L270.189 15.3109L270.711 15.1284L270.885 14.7634V14.3985V14.1247L271.06 13.7597L271.234 13.3035V13.0297L271.408 12.756L271.582 12.391L271.756 12.2085L272.452 12.1173H272.975H273.497H274.193H274.541H275.064L275.238 11.9348L275.586 11.8435V12.026L275.76 12.2085L275.934 12.4823V12.756L276.108 13.121V13.3947L276.282 13.5772V13.7597L276.456 13.9422H276.979H277.327L277.501 14.3072L277.675 14.5809L277.849 14.9459L278.023 15.2197H278.371L278.72 15.1284L279.068 15.0372L279.416 14.9459L279.764 15.0372L280.112 15.1284L280.635 15.0372L280.809 14.7634L281.157 14.5809L281.331 14.3072L281.679 14.1247L282.027 13.9422L282.55 14.0335L282.898 14.1247L283.246 14.216H283.768L284.116 14.0335L284.465 13.9422L284.813 14.1247L285.161 14.216L285.335 14.3985L285.683 14.5809L286.031 14.6722L286.38 14.4897L286.728 14.3072L287.076 14.0335L287.25 13.7597L287.598 13.5772L288.12 13.7597L288.469 13.9422L288.643 13.6685L288.817 13.3947L288.991 13.0297L289.165 12.756L289.339 12.391V12.1173L289.687 12.5735L289.861 12.8473L290.035 13.121L290.384 13.3035L290.906 13.5772L291.428 13.7597H291.776H292.299H292.821L293.169 13.9422L293.517 14.0335L293.865 14.216L294.214 13.9422L294.562 13.6685H295.258H295.606L296.129 13.5772L296.477 13.3947L296.999 13.121L297.347 12.9385L297.87 12.8473L298.044 13.121L298.218 13.486L298.392 13.851L298.566 14.216L298.914 14.4897H299.436L299.959 14.3985L300.481 14.216L301.003 14.0335H301.525H301.874L302.222 13.9422L302.57 13.6685L302.744 13.486L302.918 13.2122L303.092 13.0297L303.44 12.8473L303.789 13.0297L303.963 13.2122L304.137 13.3947L304.311 13.5772L304.659 13.486L304.833 13.2122L305.181 13.0297L305.355 12.8473L305.704 12.5735L306.052 12.391L306.4 12.1173L306.748 11.9348V11.661L306.922 11.4785L307.096 11.2048V10.9311L307.445 10.7486L307.967 10.9311H308.489L308.837 10.6573H309.185L309.708 10.8398H310.23H310.578L310.926 10.4748L311.275 10.2011L311.623 10.0186H312.145L312.667 10.1098L313.015 10.3836L313.364 10.6573L313.538 10.9311L313.712 11.2048L314.06 10.9311V10.4748L314.408 10.2011L314.582 10.0186L314.93 10.2923L315.279 10.4748L315.627 10.5661L316.149 10.4748H316.671L317.02 10.6573L317.194 10.9311L317.368 11.2048L317.716 11.5698L317.89 11.8435L318.238 12.026L318.76 12.1173H319.109L319.631 12.2998L320.153 12.5735L320.675 12.2998L321.024 12.1173L321.372 12.026H321.894H322.242L322.765 12.1173L323.287 12.2998H323.809L324.157 12.1173L324.505 11.9348L325.028 11.5698L325.376 11.2048L325.55 10.8398L325.724 10.4748L325.898 10.1098L326.072 9.74485L326.246 9.37986V9.01487L326.42 8.55864L326.769 8.64989L327.117 8.83238L327.465 8.92363L327.813 8.83238L327.987 8.64989L328.335 8.74113L328.858 8.83238L329.206 8.74113L329.38 8.55864L329.728 8.37614L330.076 8.55864L330.425 8.74113L330.599 8.92363L330.947 8.74113L331.295 8.64989L331.469 8.92363L331.817 9.19737L331.991 9.37986L332.34 9.28862L332.688 9.01487L332.862 8.74113L333.036 8.46739L333.21 8.19365L333.384 7.82866L333.558 7.55492L333.732 7.18993H334.255H334.777L335.125 7.00744L335.473 6.82494L335.821 6.64245L336.17 6.5512L336.866 6.7337L337.214 6.91619L337.388 7.18993L337.736 7.46367L337.91 7.73741L338.085 8.01116L338.259 8.2849H338.781L339.129 8.01116L339.651 7.82866L340.174 7.91991H340.696L341.218 7.82866L341.74 7.64617L342.263 7.55492H342.785L343.133 7.46367L343.481 7.09868V6.7337V6.36871L343.655 6.09497L343.83 5.72998V5.45624L344.178 5L344.526 5.45624L344.7 5.72998L344.874 5.91247L345.222 6.09497H345.745L346.267 6.18621H346.789L347.485 6.36871H348.008L348.356 6.5512L348.878 6.7337L349.4 6.64245H349.923L350.271 6.45995L350.619 6.7337L350.793 7.00744L351.141 7.09868L351.49 7.00744L351.664 6.82494L351.838 6.5512L352.186 6.7337L352.534 6.91619L352.708 7.09868L353.056 7.18993L353.405 7.09868L353.753 6.91619L354.275 6.82494L354.797 6.64245H355.145L355.494 6.5512L355.842 6.36871L356.364 6.27746L357.06 6.18621H357.583L357.931 6.27746L358.453 6.36871H358.975H359.324L359.672 6.5512L360.02 6.7337L360.368 6.82494L360.89 6.91619L361.935 6.82494H362.805H363.502H363.85L364.372 6.45995L364.72 6.27746L365.417 6.09497H366.113H366.81L367.506 5.91247L368.376 6.09497H369.247H369.943L370.465 6.45995L370.988 6.82494L371.336 7.18993V7.73741L371.684 8.19365L372.032 8.64989L372.206 9.10612L372.903 9.28862L373.425 9.10612L374.295 8.92363L374.992 9.10612L375.514 9.28862L376.036 9.37986L376.385 9.10612L376.733 8.92363L377.081 8.74113L377.429 8.92363L377.777 9.01487L378.125 9.10612H378.474H378.822L379.344 9.01487L379.518 8.74113L380.215 8.55864L380.911 8.37614V8.01116L381.085 7.64617L381.259 7.28118L381.433 7.00744L381.607 6.7337L381.955 6.91619L382.304 7.09868L382.652 7.18993H383" stroke="#E3E4AB" stroke-linecap="round"/>
</g>
<defs>
<linearGradient id="paint0_linear_76_1495" x1="191.5" y1="5" x2="191.5" y2="34" gradientUnits="userSpaceOnUse">
<stop stop-color="#E3E4AB" stop-opacity="0.1"/>
<stop offset="1" stop-color="#E3E4AB" stop-opacity="0"/>
</linearGradient>
<clipPath id="clip0_76_1495">
<rect width="383" height="34" fill="white"/>
</clipPath>
</defs>
</svg>
