<svg width="74" height="30" viewBox="0 0 74 30" fill="none" xmlns="http://www.w3.org/2000/svg">
<g clip-path="url(#clip0_41_127)">
<path d="M33.5078 30C31.2539 30 29.3311 29.5069 27.7393 28.5209C26.1616 27.5348 24.9501 26.2177 24.1049 24.5695C23.2738 22.9214 22.8582 21.1042 22.8582 19.118C22.8582 17.1317 23.2738 15.3075 24.1049 13.6453C24.9501 11.983 26.1616 10.6589 27.7393 9.67279C29.3311 8.67263 31.2539 8.17255 33.5078 8.17255C35.7476 8.17255 37.6634 8.67263 39.2552 9.67279C40.847 10.6589 42.0585 11.983 42.8896 13.6453C43.7348 15.3075 44.1574 17.1317 44.1574 19.118C44.1574 21.1042 43.7348 22.9214 42.8896 24.5695C42.0585 26.2177 40.847 27.5348 39.2552 28.5209C37.6634 29.5069 35.7476 30 33.5078 30ZM33.5078 26.0275C35.3673 26.0275 36.7971 25.4006 37.7972 24.1469C38.8115 22.8791 39.3186 21.2028 39.3186 19.118C39.3186 17.0049 38.8115 15.3145 37.7972 14.0467C36.7971 12.7789 35.3673 12.145 33.5078 12.145C31.6483 12.145 30.2115 12.7789 29.1973 14.0467C28.183 15.3145 27.6759 17.0049 27.6759 19.118C27.6759 21.2028 28.183 22.8791 29.1973 24.1469C30.2115 25.4006 31.6483 26.0275 33.5078 26.0275Z" fill="white"/>
<path d="M48.1199 29.5774C47.5676 29.5774 47.1199 29.1297 47.1199 28.5774V9.59515C47.1199 9.04286 47.5676 8.59515 48.1199 8.59515H50.471C50.9899 8.59515 51.4225 8.99195 51.4673 9.50886L51.6206 11.2787C52.3531 10.4194 53.2053 9.68687 54.1773 9.08114C55.1493 8.47541 56.1988 8.17255 57.3257 8.17255C57.3602 8.17255 57.3944 8.17291 57.4284 8.17364C57.9211 8.18424 58.2479 8.64045 58.2089 9.13173L57.9606 12.263C57.9271 12.6859 57.517 12.9703 57.0933 12.948C56.8256 12.9198 56.551 12.9057 56.2692 12.9057C55.3113 12.9057 54.4309 13.124 53.628 13.5607C52.825 13.9974 52.2615 14.5045 51.9375 15.0821V28.5774C51.9375 29.1297 51.4898 29.5774 50.9375 29.5774H48.1199Z" fill="white"/>
<path d="M69.6627 29.9996C68.3385 29.9996 67.2679 29.739 66.4509 29.2178C65.6339 28.6966 65.0352 28.0345 64.6549 27.2316C64.2745 26.4145 64.0843 25.5623 64.0843 24.6748V13.4194C64.0843 12.8671 63.6366 12.4194 63.0843 12.4194H61.9891C61.3934 12.4194 60.9298 11.9017 60.9952 11.3095L61.1968 9.48497C61.2528 8.97828 61.681 8.5948 62.1908 8.5948H63.0843C63.6366 8.5948 64.0843 8.14709 64.0843 7.5948V4.6793C64.0843 4.16673 64.4719 3.73716 64.9817 3.68457L67.6938 3.40486C68.2835 3.34403 68.7964 3.80672 68.7964 4.39958V7.5948C68.7964 8.14709 69.2441 8.5948 69.7964 8.5948H72.7408C73.2931 8.5948 73.7408 9.04252 73.7408 9.5948V11.4194C73.7408 11.9716 73.2931 12.4194 72.7408 12.4194H69.7964C69.2441 12.4194 68.7964 12.8671 68.7964 13.4194V22.4562C68.7964 23.6254 68.8668 24.4706 69.0077 24.9918C69.1485 25.4989 69.4725 25.8229 69.9796 25.9638C70.4868 26.0905 71.3038 26.1539 72.4307 26.1539H72.5887C73.1821 26.1539 73.6449 26.6676 73.5833 27.2578L73.3906 29.1035C73.3375 29.6128 72.9081 29.9996 72.396 29.9996H69.6627Z" fill="white"/>
<path d="M22.3012 28.572V26.1667C22.3012 25.6144 21.8535 25.1667 21.3012 25.1667H2.58555L0.883993 28.0658C0.492733 28.7325 0.973448 29.572 1.74643 29.572H21.3012C21.8535 29.572 22.3012 29.1243 22.3012 28.572Z" fill="white"/>
<path d="M1.67857 1L1.67857 3.40533C1.67857 3.95762 2.12629 4.40533 2.67857 4.40533L19.937 4.40533L21.6374 1.50589C22.0284 0.839251 21.5476 3.2528e-06 20.7748 3.66208e-06L2.67857 3.03373e-06C2.12629 3.46228e-06 1.67857 0.447718 1.67857 1Z" fill="#3399F6"/>
<path d="M9.03017 14.1962L7.63454 25.1666H2.58606L9.03017 14.1962Z" fill="url(#paint0_linear_41_127)"/>
<path d="M13.4751 15.2787L14.8732 4.40412L19.9217 4.40413L13.4751 15.2787Z" fill="url(#paint1_linear_41_127)"/>
</g>
<defs>
<linearGradient id="paint0_linear_41_127" x1="5.80811" y1="14.1962" x2="5.80811" y2="25.1666" gradientUnits="userSpaceOnUse">
<stop stop-color="white"/>
<stop offset="1" stop-color="#ACACAC"/>
</linearGradient>
<linearGradient id="paint1_linear_41_127" x1="16.6984" y1="15.2787" x2="16.6984" y2="4.40412" gradientUnits="userSpaceOnUse">
<stop stop-color="#43A4FC"/>
<stop offset="1" stop-color="#0062BB"/>
</linearGradient>
<clipPath id="clip0_41_127">
<rect width="74" height="30" fill="white"/>
</clipPath>
</defs>
</svg>
