<svg width="420" height="60" viewBox="0 0 420 60" fill="none" xmlns="http://www.w3.org/2000/svg">
<g clip-path="url(#clip0_102_2307)">
<path d="M0.381818 43.7129L0 43.8086V48C0 54.6274 5.37258 60 12 60H408C414.627 60 420 54.6274 420 48V35.1483H419.618L419.236 35.1005L418.855 35.0048L418.473 34.9091L418.282 35.0526L418.091 35.1962L417.9 35.3876L417.709 35.5789V35.7703L416.945 35.866L416.182 35.9617L415.991 36.1053L415.418 36.1531H415.036H414.655L414.273 36.1053L413.891 36.0574L413.509 35.9617L413.127 36.0574L412.745 36.1531L412.364 36.2967L411.791 36.2488L411.218 36.1531L410.455 36.0574L409.5 36.1531L408.927 36.2488L408.164 36.1531L407.973 35.9139L407.591 35.6746L407.209 35.4354V35.1483L406.827 34.9569L406.255 34.7656L405.682 34.5742H404.918H403.964L403.009 34.4785L402.245 34.5742H401.482H400.718L399.955 34.6699L399.573 34.7656L399 34.9569H398.618H397.855H396.9L395.755 35.0048L395.182 34.9569L394.8 34.9091L394.418 34.8134L394.036 34.7177H393.655H393.082L392.509 34.6699L392.127 34.622H391.555L390.791 34.6699L390.218 34.7177L389.836 34.8134L389.455 34.8612H389.073L388.5 34.9569L387.927 35.0048L387.546 35.1005L387.164 35.1483L386.782 35.1005L386.591 35.0048L386.209 34.9091L385.827 34.8134L385.636 34.9569L385.445 35.0526L385.064 35.1005L384.682 35.0526L384.491 34.9091L384.109 34.7656L383.727 34.8612H383.155L382.582 34.9091L382.009 34.8134L381.627 34.7177H381.055L380.291 34.622H379.718L379.145 34.5742H378.573L378.191 34.4785L378 34.3828L377.809 34.2392L377.427 34L377.045 34.2392V34.3828L376.855 34.5742L376.664 34.7177V34.9091V35.1005L376.282 35.2919L375.9 35.3397H375.327L374.755 35.3876L374.182 35.4833L373.609 35.5311H373.036L372.464 35.4833L371.891 35.5789L371.509 35.7225H370.936L370.745 35.5789L370.555 35.4354L370.364 35.2919L369.982 35.1483L369.791 35.0048L369.409 34.9091L368.645 34.8134L368.264 34.8612L367.882 34.9569L367.5 35.0526L367.118 35.1483H366.545H365.973L365.782 35.3397L365.591 35.4833L365.4 35.6746L365.209 35.8182L365.018 35.9617L364.827 36.1053L364.445 36.2488L364.064 36.2967L363.873 36.201L363.491 36.0574L363.3 35.9139L362.918 35.9617L362.536 36.0574L362.345 35.9617L361.964 35.866L361.582 35.7703L361.2 35.866L361.009 35.9617L360.627 36.0096L360.055 35.9617L359.673 35.9139L359.482 36.0096L359.1 36.0574L358.718 36.0096L358.336 35.9139L357.955 35.866L357.764 36.1053V36.2967L357.573 36.488L357.382 36.6794L357.191 36.8708L357 37.0622L356.809 37.2536L356.427 37.445L355.855 37.6364L355.473 37.7321L355.091 37.8278H354.518L353.945 37.7321L353.373 37.6842H352.991H352.418L352.036 37.7321L351.655 37.8278L351.082 37.9713L350.509 37.8278L349.936 37.7321H349.555L348.982 37.6842L348.6 37.5885L348.409 37.445L348.027 37.2536L347.836 37.11L347.645 36.9665L347.264 36.8708H346.691L346.118 36.9187L345.736 36.8708L345.355 36.7751L344.973 36.6316L344.782 36.7273L344.4 36.8708V37.11L344.018 37.2536L343.827 37.11L343.636 36.9665L343.255 36.823L342.873 36.6794L342.3 36.6316H341.727L341.345 36.7273L340.964 36.8708L340.582 37.0622H340.2H339.627L339.055 36.9665H338.673L338.291 37.11H337.718L337.145 37.0144L336.764 37.11V37.2536L336.573 37.3971L336.382 37.4928V37.6364L336 37.7321L335.618 37.8756L335.236 37.9713L334.855 38.1148L334.664 38.2105L334.282 38.3062L334.091 38.4498L333.709 38.4976L333.518 38.4019L333.327 38.3062L333.136 38.2105L332.755 38.1148L332.373 38.2105L332.182 38.3062L331.991 38.4498L331.8 38.5455L331.418 38.689L331.036 38.7368H330.655H330.082L329.509 38.8325L328.936 38.9282L328.364 38.9761H327.791L327.409 38.8325L327.218 38.6411L327.027 38.4498L326.836 38.2584L326.645 38.1148L326.073 38.1627L325.691 38.2584L325.118 38.4019L324.736 38.4976L324.164 38.5455H323.782H323.018L322.636 38.689L322.255 38.8325L321.873 38.7368L321.491 38.689L321.109 38.5933H320.536H319.964H319.582L319.009 38.4976L318.436 38.3541L318.055 38.2584L317.864 38.1148L317.673 37.9713L317.291 37.7321V37.8756L317.1 38.067L316.909 38.2105L316.718 38.4019L316.527 38.5455L316.336 38.689L315.955 38.5933L315.382 38.4976L315 38.5933L314.809 38.7368L314.427 38.8804L314.045 38.9761L313.664 39.0718L313.282 39.0239L312.9 38.9282L312.709 38.8325L312.327 38.7847L311.945 38.689L311.564 38.7368L311.182 38.8325H310.609L310.227 38.7847L309.845 38.7368L309.273 38.689L308.891 38.7847L308.509 38.8804L308.318 39.0239L307.936 39.1196L307.745 39.2632L307.173 39.311L306.791 39.2632L306.409 39.2153L306.027 39.2632L305.645 39.311L305.264 39.3589H304.882L304.691 39.2153L304.5 39.0239L304.309 38.8804L304.118 38.689H303.736H303.164L302.973 38.5933V38.4976L302.782 38.4019V38.2584L302.591 38.067V37.9234L302.4 37.7799L302.209 37.6842V37.5885L301.827 37.6364L301.636 37.7321H301.064H300.682H299.918H299.345H298.773L298.009 37.7799L297.818 37.8756L297.627 38.067L297.436 38.2105V38.3541L297.245 38.5933L297.055 38.7847V38.9282V39.1196L296.864 39.311L296.291 39.4067L295.718 39.3589L295.145 39.311L294.764 39.4545L294.382 39.6459L293.809 39.6938L293.236 39.7416L292.473 39.6938L292.091 39.6459L291.709 39.5502L291.136 39.4545H290.564H289.991L289.8 39.5024L289.609 39.6459L289.418 39.7895L289.227 39.933V40.0766L288.845 40.1722L288.464 40.2679H288.082L287.7 40.2201L287.318 40.1722L286.745 40.1244H286.364L285.791 40.1722H285.409L284.836 40.3158L284.455 40.3636L284.073 40.4115L283.691 40.4593L283.309 40.5072L282.927 40.555H282.545L282.164 40.5072L281.782 40.555L281.4 40.6029L281.209 40.6507H280.827L280.636 40.6029L280.255 40.555L280.064 40.4593L279.682 40.5072L279.3 40.6029L279.109 40.6986L278.727 40.7464L278.536 40.6986L278.345 40.6029L278.155 40.5072L277.773 40.4593L277.582 40.5072L277.391 40.6029L277.009 40.6986H276.627L276.436 40.6507L275.864 40.555L275.482 40.5072H275.1L274.718 40.6029L274.527 40.6986L274.336 40.7943L273.955 40.9378L273.764 41.0813L273.573 41.2727L273.382 41.4163L273 41.512L272.618 41.6077L272.236 41.5598L272.045 41.4641L271.855 41.3684L271.473 41.3206L271.091 41.3684L270.9 41.4641L270.518 41.6077L270.327 41.7033L270.136 41.8469L269.945 41.9426L269.755 42.0383L269.564 42.1818L269.373 42.3254L269.182 42.4689V42.6603L268.991 42.8038V42.8995L268.8 42.9952L268.722 43.0909L268.418 43.1866L268.036 43.2823L267.655 43.3301L267.273 43.378L267.082 43.2823L266.891 43.1388L266.7 42.9952L266.509 42.8517L266.318 42.756L266.127 42.6603L265.936 42.5646L265.555 42.5167L265.173 42.4689H264.791H264.218H263.455L262.882 42.5167H262.5L261.927 42.4689L261.736 42.3732V42.2775L261.545 42.134L261.164 41.9904L260.973 41.9426L260.4 41.8469L260.018 41.8947L259.827 42.0383L259.445 42.134L259.255 42.2775L259.064 42.2297H258.491L258.109 42.2775L257.727 42.4211L257.536 42.5167L257.155 42.6603L256.964 42.8038L256.582 42.8995L256.391 42.9952L256.2 43.0909L256.009 43.2823L255.627 43.2344L255.436 43.1388L255.245 43.0431L254.864 42.9952H254.553L254.1 43.0431L253.718 42.9952L253.336 42.9474L252.955 42.8517L252.573 42.7081L252.382 42.6603H252L251.737 42.8038L251.236 42.8517L250.855 42.8038L250.473 42.756H249.9L249.518 42.8517L249.136 42.9952L248.755 43.0909L248.373 42.9952H247.991L247.8 43.0909L247.609 43.2344V43.3301L247.418 43.4737L247.227 43.5694L247.036 43.7129L246.845 43.8565L246.464 44L246.082 44.1435L245.7 44.0957L245.127 44L244.555 43.9043L244.364 44L243.982 44.0478L243.6 44.0957L243.218 44L242.836 43.9043L242.645 43.8086L242.455 43.6651L242.264 43.5215L242.073 43.378L241.882 43.2823L241.5 43.1866L240.927 43.1388L240.736 43.2344L240.355 43.3301L240.164 43.378L239.782 43.4737L239.591 43.4258H239.209L238.827 43.3301H238.53L238.255 43.2823L237.873 43.2344L237.491 43.2823L237.109 43.3301L236.536 43.378L236.155 43.2823H235.773L235.582 43.3301L235.391 43.4737L235.2 43.6172L234.818 43.7608L234.373 43.9522L234.055 43.8565L233.864 43.8086L233.569 43.6651L233.291 43.5694H232.909L232.718 43.6651L232.527 43.7608L232.145 43.8565L231.955 43.8086L231.573 43.7608H231.191L230.809 43.8086L230.427 43.8565L230.045 43.8086L229.664 43.7608L229.282 43.8086L229.091 43.9522L228.709 44.0957L228.518 44L228.228 43.8565L228.136 43.7129L227.564 43.6651L227.182 43.7608L226.609 43.8086L226.036 43.7608L225.655 43.7129H225.273L225.082 43.8565L224.891 44L224.509 44.1435L224.318 44.2392L224.127 44.3828L223.745 44.5263L223.364 44.4785L222.982 44.4306L222.6 44.3349L222.218 44.2871H221.645L221.073 44.3828L220.5 44.4785L219.545 44.5263L219.164 44.622L218.973 44.7656L218.782 44.9091V45.0048L218.591 45.1962L218.209 45.3397L217.636 45.3876L217.255 45.4354L217.064 45.5789L216.682 45.7225L216.491 45.866H215.918L215.536 45.9617L215.155 46.0574L214.582 46.1531L214.391 46.2488L213.627 46.3445L213.245 46.3923L213.055 46.4402H212.482L212.1 46.3923H211.527L211.145 46.4402L210.764 46.5359L210.382 46.6316L210 46.6794H209.5H209.236L208.473 46.7751L208.091 46.823H207.518H206.945H206.755H205.991H205.609H205.227H204.273H203.891L203.318 46.7273L202.936 46.6794L202.555 46.5837L202.173 46.5359L201.6 46.6316L200.836 46.6794H200.455H199.882H199.309H198.927L198.545 46.7273L198.164 46.7751L197.782 46.8708L197.4 46.9665H197.018L196.827 46.9187H196.445H196.064L195.491 46.9665H194.727V46.9187L194.536 46.823L194.345 46.7273L194.155 46.6316L193.964 46.5359V46.4402L193.582 46.3445L193.2 46.2488L193.009 46.1531L192.436 46.0574H191.864L191.482 46.201L191.291 46.2967L190.718 46.3923L190.145 46.4402H189.191L188.618 46.3923H188.045L187.473 46.4402L187.282 46.5359L186.709 46.5837L186.327 46.5359L186.136 46.488H185.564H185.182L184.8 46.4402L184.418 46.3923L184.227 46.3445H184.036L183.655 46.4402L183.273 46.5359H183.082L182.891 46.4402L182.509 46.3923L182.127 46.3445H181.745L181.364 46.2967H180.982L180.6 46.3445L180.027 46.3923L179.836 46.4402L179.645 46.5837L179.455 46.7273L179.264 46.8708L178.882 47.0622H178.5L178.118 46.9665H177.545L177.164 46.9187L176.782 46.8708H176.209H175.827L175.445 46.9187H175.064L174.682 47.0144L174.491 47.0622L174.109 47.1579L173.918 47.2057L173.727 47.3014L173.345 47.3493L172.964 47.445H172.582L172.2 47.3493L172.009 47.2536L171.818 47.2057L171.627 47.0622L171.436 46.9665L171.245 46.8708L170.864 46.823H170.673H170.291L170.1 46.8708H169.718H169.336H168.955L168.382 46.823L168.191 46.7751L167.809 46.7273L167.618 46.6316H167.236L166.855 46.6794H166.664L166.473 46.7273L166.282 46.7751L166.091 46.8708H165.709L165.518 46.823L165.327 46.7273L164.945 46.6316L164.564 46.5837L164.373 46.488L163.991 46.4402L163.418 46.3923L163.036 46.4402L162.845 46.5359V46.7273C162.782 46.7592 162.655 46.8325 162.655 46.8708V47.0622L162.273 47.1579V47.0144L161.891 46.823V46.6316V46.488L161.7 46.3445L161.509 46.2488V46.1531V46.0096L161.318 45.9139V45.7703L161.127 45.6268V45.4833L160.936 45.3397V45.244V45.0526L160.745 44.9091V44.7656L160.555 44.6699L160.364 44.5263L159.791 44.4306L159.218 44.3349L159.027 44.2392L158.455 44.1435H158.073L157.691 44.2871L157.5 44.4306L157.309 44.5263L157.118 44.7177L156.545 44.8134L156.164 44.7656L155.782 44.6699L155.4 44.5742L154.827 44.622L154.445 44.6699H154.064H153.491L153.109 44.622L152.727 44.5742L152.345 44.6699V44.7656L151.964 44.8612L151.582 44.9569L151.2 45.1005L150.818 45.1483L150.245 45.1005L150.055 45.1483L149.864 45.2919L149.673 45.3876L149.482 45.5311L149.291 45.6268L149.1 45.7703L148.909 45.866L148.718 45.9617L148.527 46.0574L148.336 46.201L148.145 46.3923L147.764 46.3445L147.382 46.2967L147.191 46.3445L147 46.4402L146.809 46.5359L146.236 46.5837L145.855 46.6316L145.282 46.6794L144.9 46.7273L144.709 46.7751L144.136 46.823L143.755 46.7751L143.373 46.7273L142.8 46.6794L142.609 46.5837L142.227 46.5359L141.845 46.5837L141.464 46.6316L141.082 46.7273L140.891 46.7751L140.509 46.823H140.127L139.745 46.7751H139.364L138.982 46.823H138.6L138.409 46.7751L138.027 46.7273H137.645H137.264L136.882 46.7751L136.5 46.8708L136.118 46.823L135.927 46.7273L135.736 46.6794L135.164 46.5837L134.88 46.6316H134.4L133.827 46.5837L133.255 46.5359L132.873 46.4402L132.3 46.3923H131.918H131.345L130.964 46.4402L130.495 46.5837L130.2 46.6316L129.818 46.7273L129.627 46.823L129.245 46.9665H128.864L128.291 46.8708L127.718 46.823L127.336 46.7273H126.955L126.573 46.6316H125.809L125.236 46.5837L124.664 46.5359L124.091 46.5837L123.518 46.6316L123.327 46.7273L122.755 46.7751H122.373H121.8H121.418H120.655L120.273 46.823L120.082 46.9665L119.7 47.11H119.318L118.936 46.9665L118.745 46.823L118.364 46.6794L117.982 46.5837L117.6 46.6316H117.027L116.645 46.5359L116.455 46.4402V46.2967L116.264 46.201L116.073 46.0574L115.691 46.1053L115.118 46.0574L114.545 45.9617L114.164 45.866L114.068 45.7225L113.973 45.5789L113.782 45.4354V45.3397L113.4 45.1962L113.209 45.1483L113.018 45.244L112.636 45.3397L112.445 45.244L112.255 45.1483V45.0526L112.064 44.9091V44.8134L111.873 44.7177V44.622L111.682 44.5263L111.3 44.4785L110.918 44.4306L110.536 44.3349L110.155 44.2871H109.773L109.582 44.3349L109.391 44.4785L109.009 44.5742L108.713 44.6699L108.436 44.8134L108.055 44.9091L107.864 45.0048L107.482 45.1005L107.291 45.1962L106.909 45.244L106.718 45.4354L106.336 45.4833V45.3876L106.145 45.2919L105.955 45.1962L105.764 45.1005L105.382 45.0526L105.191 45.1005L105 45.244L104.618 45.3397L104.236 45.3876L103.855 45.4354H103.473L102.9 45.3876H102.327L101.755 45.4354L101.373 45.5311L100.991 45.5789H100.609H100.227L99.6545 45.6268L99.2727 45.7225L99.0818 45.8182L98.8909 45.9617L98.7 46.1053H98.3182L97.9364 46.0096L97.5546 45.866L97.1727 45.7703L96.7909 45.6746L96.6 45.5311V45.3876L96.4091 45.244L96.2182 45.1483L96.0273 45.0048L95.8364 44.8612L95.6455 44.8134L95.0727 44.8612L94.6909 44.9091L94.3091 45.0048L93.7364 45.1005H93.5455H93.1636L92.5909 45.1483L92.2091 45.244L91.8273 45.2919L91.4455 45.244L91.2546 45.1483L90.8727 45.0048L90.6818 44.8612L90.4909 44.6699L90.3 44.5263L90.1091 44.4306L89.9182 44.2871V44.1435V44.0478L89.5364 43.9522L89.1545 43.8565L88.7727 43.7608L88.3909 43.6651L88.0091 43.5694H87.6273H87.0546L86.6727 43.4737L86.2909 43.3301L85.9091 43.2344L85.3364 43.1866L84.9546 43.3301L84.5727 43.4258L84.3818 43.5694L84 43.6651L83.4273 43.7129L83.0455 43.8565L82.8546 44.0478L82.6636 44.2392L82.4727 44.4306L82.2818 44.622L82.0909 44.8134L81.9 44.7177L81.7091 44.622L81.5182 44.4785L80.9455 44.4306L80.5636 44.5263L80.1818 44.6699L79.8 44.7656L79.4182 44.8134L79.0364 44.7656L78.8455 44.6699L78.4636 44.622L78.0818 44.7656L77.8909 44.9091L77.7 45.1483L77.3182 45.1962L76.9364 45.1005L76.465 45.1962L75.9818 45.2919H75.6L75.2182 45.1962L74.8364 45.1005L74.4545 44.9569L73.8818 44.8612L73.3091 44.7656L72.7364 44.6699L72.1636 44.622L71.5909 44.6699L71.4 44.7656L71.2091 44.9091L71.0182 45.0526L70.6364 45.1962L70.4455 45.3876L70.2545 45.6268L70.0636 45.8182L69.8727 46.0096L69.6818 46.201L69.3 46.2967L68.9182 46.201L68.7273 46.1053L68.5364 46.0096L68.3455 45.866L68.1545 45.7225L67.7727 45.5789H67.0091L66.6273 45.4354L65.8636 45.4833L65.4818 45.6268L64.7182 45.7225L64.3364 45.866L63.7636 45.7703L63.3818 45.7225L62.8091 45.6268L62.6182 45.7225L62.4273 45.866V46.0096L62.2364 46.201V46.3923L62.0455 46.5359L61.8545 46.7273L61.2818 46.823L60.9 46.9187L60.7091 47.11L60.5182 47.3014L60.3273 47.4928L59.9455 47.6364L59.3727 47.8278L58.9909 48.0191L58.4182 48.1627L58.0364 48.3062L57.6545 48.4976L57.2727 48.5455L56.8909 48.4019L56.5091 48.3062L56.3182 48.1627L55.9364 47.9713L55.5546 47.8278L54.9818 47.6842L54.2182 47.6364L53.4545 47.5407L52.8818 47.5885L52.3091 47.7321L51.7364 47.8756L50.9727 47.9713L50.4 48.067L50.0182 48.2105L49.6364 48.3062L49.2545 48.4498L48.8727 48.5455H48.3H47.7273L47.5364 48.4019L47.1545 48.2584L46.7727 48.3541H46.2L45.8182 48.2584L45.4364 48.1148L45.0545 48.0191L44.4818 47.9234L43.9941 47.8278L43.5273 47.7321L43.067 47.5885L42.5727 47.5407L42 47.5885L41.4273 47.6842L40.8545 47.7321L40.4727 47.8278H40.0909H39.7091L39.3273 47.7321L38.9455 47.6364L38.5636 47.7321L38.1818 47.8756L37.8 47.7321L37.4182 47.6364L37.0364 47.5407L36.4636 47.4928L36.0818 47.5885L35.8909 47.7321L35.5091 47.8756L35.3182 47.7321L35.0325 47.6364L34.5545 47.5407L34.3636 47.3971L33.9818 47.5407L33.6 47.6364L33.2182 47.5885L32.8364 47.445L32.4546 47.3493V47.1579L32.0727 46.9665L31.8818 46.823L31.6909 46.6316L31.5 46.4402L31.1182 46.2967L30.9273 46.1531L30.7364 46.0096L30.5455 45.866L30.3545 45.6746L30.1636 45.5311L29.9727 45.3876L29.7818 45.244L29.5909 45.1005L29.4 45.0048V44.8612L29.0182 44.7177L28.8273 44.622L28.4455 44.5263L27.8727 44.4785L27.4909 44.3828H27.1091H26.7273L26.3455 44.4785L25.9636 44.5742L25.5818 44.4785L25.2 44.4306L24.8182 44.3828H24.2455L24.0545 44.4785L23.6727 44.5263L23.2909 44.4785L22.9091 44.3828L22.5273 44.2871L22.1455 44.2392L21.7636 44.1914L21.5727 44.0957L21.3818 44L21 43.9043L20.8091 43.8086L20.6182 43.7129L20.2364 43.6172L19.8545 43.6651L19.6636 43.8565L19.4727 43.9522L19.2818 44.1435L19.0909 44.2871L18.7091 44.3828L18.3273 44.4785L17.9455 44.5742L17.5636 44.6699H16.9909L16.6091 44.5742L16.4182 44.4306L16.2273 44.2871L16.0364 44.1435V44V43.8565L15.8455 43.7129L15.6545 43.6172L15.2727 43.5215L14.8909 43.4258L14.5091 43.378H14.1273L13.7455 43.2823L13.5545 43.1866L13.1727 43.1388H12.7909L12.4091 43.2344L12.2182 43.3301L11.8364 43.4258L11.4545 43.5215L11.0727 43.4737L10.6909 43.378L10.3091 43.3301L9.92727 43.378H9.54545L9.35455 43.3301L9.16364 43.2344L8.97273 43.1388L8.78182 43.0431V42.8995L8.4 42.8517L8.01818 42.9474H7.63636L7.44545 42.8995L7.25455 42.8038L6.87273 42.756H6.49091L6.3 42.8517L6.10909 42.9474H5.72727L5.34546 43.0431L4.96364 43.1388L4.58182 43.1866L4.2 43.2823L3.81818 43.378L3.43636 43.4258H3.05455L2.67273 43.3301L2.29091 43.4258L1.90909 43.5215L1.52727 43.6172L1.14545 43.7129H0.763636H0.381818Z" fill="url(#paint0_linear_102_2307)"/>
<path d="M0 44.1151L0.381818 44.0164H0.763636H1.14545L1.52727 43.9178L1.90909 43.8191L2.29091 43.7204L2.67273 43.6217L3.05455 43.7204H3.43636L3.81818 43.6711L4.2 43.5724L4.58182 43.4737L4.96364 43.4243L5.34545 43.3257L5.72727 43.227H6.10909L6.3 43.1283L6.49091 43.0296H6.87273L7.25455 43.0789L7.44545 43.1776L7.63636 43.227H8.01818L8.4 43.1283L8.78182 43.1776V43.3257L8.97273 43.4243L9.16364 43.523L9.35455 43.6217L9.54545 43.6711H9.92727L10.3091 43.6217L10.6909 43.6711L11.0727 43.7697L11.4545 43.8191L11.8364 43.7204L12.2182 43.6217L12.4091 43.523L12.7909 43.4243H13.1727L13.5545 43.4737L13.7455 43.5724L14.1273 43.6711H14.5091L14.8909 43.7204L15.2727 43.8191L15.6545 43.9178L15.8455 44.0164L16.0364 44.1645V44.3125V44.4605L16.2273 44.6086L16.4182 44.7566L16.6091 44.9046L16.9909 45.0033H17.5636L17.9455 44.9046L18.3273 44.8059L18.7091 44.7072L19.0909 44.6086L19.2818 44.4605L19.4727 44.2632L19.6636 44.1645L19.8545 43.9671L20.2364 43.9178L20.6182 44.0164L20.8091 44.1151L21 44.2138L21.3818 44.3125L21.5727 44.4112L21.7636 44.5099L22.1455 44.5592L22.5273 44.6086L22.9091 44.7072L23.2909 44.8059L23.6727 44.8553L24.0545 44.8059L24.2455 44.7072H24.8182L25.2 44.7566L25.5818 44.8059L25.9636 44.9046L26.3455 44.8059L26.7273 44.7072H27.1091H27.4909L27.8727 44.8059L28.4455 44.8553L28.8273 44.9539L29.0182 45.0526L29.4 45.2007V45.3487L29.5909 45.4474L29.7818 45.5954L29.9727 45.7434L30.1636 45.8914L30.3545 46.0395L30.5455 46.2368L30.7364 46.3849L30.9273 46.5329L31.1182 46.6809L31.5 46.8289L31.6909 47.0263L31.8818 47.2237L32.0727 47.3717L32.4545 47.5691V47.7664L32.8364 47.8651L33.2182 48.0132L33.6 48.0625L33.9818 47.9638L34.3636 47.8158L34.5545 47.9638L35.0325 48.0625L35.3182 48.1612L35.5091 48.3092L35.8909 48.1612L36.0818 48.0132L36.4636 47.9145L37.0364 47.9638L37.4182 48.0625L37.8 48.1612L38.1818 48.3092L38.5636 48.1612L38.9455 48.0625L39.3273 48.1612L39.7091 48.2599H40.0909H40.4727L40.8545 48.1612L41.4273 48.1118L42 48.0132L42.5727 47.9638L43.067 48.0132L43.5273 48.1612L43.9941 48.2599L44.4818 48.3586L45.0545 48.4572L45.4364 48.5559L45.8182 48.7039L46.2 48.8026H46.7727L47.1545 48.7039L47.5364 48.852L47.7273 49H48.3H48.8727L49.2545 48.9013L49.6364 48.7533L50.0182 48.6546L50.4 48.5066L50.9727 48.4079L51.7364 48.3092L52.3091 48.1612L52.8818 48.0132L53.4545 47.9638L54.2182 48.0625L54.9818 48.1118L55.5545 48.2599L55.9364 48.4079L56.3182 48.6053L56.5091 48.7533L56.8909 48.852L57.2727 49L57.6545 48.9507L58.0364 48.7533L58.4182 48.6053L58.9909 48.4572L59.3727 48.2599L59.9455 48.0625L60.3273 47.9145L60.5182 47.7171L60.7091 47.5197L60.9 47.3224L61.2818 47.2237L61.8545 47.125L62.0455 46.9276L62.2364 46.7796V46.5822L62.4273 46.3849V46.2368L62.6182 46.0888L62.8091 45.9901L63.3818 46.0888L63.7636 46.1382L64.3364 46.2368L64.7182 46.0888L65.4818 45.9901L65.8636 45.8421L66.6273 45.7928L67.0091 45.9408H67.7727L68.1545 46.0888L68.3455 46.2368L68.5364 46.3849L68.7273 46.4836L68.9182 46.5822L69.3 46.6809L69.6818 46.5822L69.8727 46.3849L70.0636 46.1875L70.2545 45.9901L70.4455 45.7434L70.6364 45.5461L71.0182 45.398L71.2091 45.25L71.4 45.102L71.5909 45.0033L72.1636 44.9539L72.7364 45.0033L73.3091 45.102L73.8818 45.2007L74.4545 45.2993L74.8364 45.4474L75.2182 45.5461L75.6 45.6447H75.9818L76.465 45.5461L76.9364 45.4474L77.3182 45.5461L77.7 45.4967L77.8909 45.25L78.0818 45.102L78.4636 44.9539L78.8455 45.0033L79.0364 45.102L79.4182 45.1513L79.8 45.102L80.1818 45.0033L80.5636 44.8553L80.9455 44.7566L81.5182 44.8059L81.7091 44.9539L81.9 45.0526L82.0909 45.1513L82.2818 44.9539L82.4727 44.7566L82.6636 44.5592L82.8545 44.3618L83.0455 44.1645L83.4273 44.0164L84 43.9671L84.3818 43.8684L84.5727 43.7204L84.9545 43.6217L85.3364 43.4737L85.9091 43.523L86.2909 43.6217L86.6727 43.7697L87.0545 43.8684H87.6273H88.0091L88.3909 43.9671L88.7727 44.0658L89.1545 44.1645L89.5364 44.2632L89.9182 44.3618V44.4605V44.6086L90.1091 44.7566L90.3 44.8553L90.4909 45.0033L90.6818 45.2007L90.8727 45.3487L91.2545 45.4967L91.4455 45.5954L91.8273 45.6447L92.2091 45.5954L92.5909 45.4967L93.1636 45.4474H93.5455H93.7364L94.3091 45.3487L94.6909 45.25L95.0727 45.2007L95.6455 45.1513L95.8364 45.2007L96.0273 45.3487L96.2182 45.4967L96.4091 45.5954L96.6 45.7434V45.8914L96.7909 46.0395L97.1727 46.1382L97.5545 46.2368L97.9364 46.3849L98.3182 46.4836H98.7L98.8909 46.3355L99.0818 46.1875L99.2727 46.0888L99.6545 45.9901L100.227 45.9408H100.609H100.991L101.373 45.8914L101.755 45.7928L102.327 45.7434H102.9L103.473 45.7928H103.855L104.236 45.7434L104.618 45.6941L105 45.5954L105.191 45.4474L105.382 45.398L105.764 45.4474L105.955 45.5461L106.145 45.6447L106.336 45.7434V45.8421L106.718 45.7928L106.909 45.5954L107.291 45.5461L107.482 45.4474L107.864 45.3487L108.055 45.25L108.436 45.1513L108.713 45.0033L109.009 44.9046L109.391 44.8059L109.582 44.6579L109.773 44.6086H110.155L110.536 44.6579L110.918 44.7566L111.3 44.8059L111.682 44.8553L111.873 44.9539V45.0526L112.064 45.1513V45.25L112.255 45.398V45.4967L112.445 45.5954L112.636 45.6941L113.018 45.5954L113.209 45.4967L113.4 45.5461L113.782 45.6941V45.7928L113.973 45.9408L114.068 46.0888L114.164 46.2368L114.545 46.3355L115.118 46.4342L115.691 46.4836L116.073 46.4342L116.264 46.5822L116.455 46.6809V46.8289L116.645 46.9276L117.027 47.0263H117.6L117.982 46.977L118.364 47.0757L118.745 47.2237L118.936 47.3717L119.318 47.5197H119.7L120.082 47.3717L120.273 47.2237L120.655 47.1743H121.418H121.8H122.373H122.755L123.327 47.125L123.518 47.0263L124.091 46.977L124.664 46.9276L125.236 46.977L125.809 47.0263H126.573L126.955 47.125H127.336L127.718 47.2237L128.291 47.273L128.864 47.3717H129.245L129.627 47.2237L129.818 47.125L130.2 47.0263L130.495 46.977L130.964 46.8289L131.345 46.7796H131.918H132.3L132.873 46.8289L133.255 46.9276L133.827 46.977L134.4 47.0263H134.88L135.164 46.977L135.736 47.0757L135.927 47.125L136.118 47.2237L136.5 47.273L136.882 47.1743L137.264 47.125H137.645H138.027L138.409 47.1743L138.6 47.2237H138.982L139.364 47.1743H139.745L140.127 47.2237H140.509L140.891 47.1743L141.082 47.125L141.464 47.0263L141.845 46.977L142.227 46.9276L142.609 46.977L142.8 47.0757L143.373 47.125L143.755 47.1743L144.136 47.2237L144.709 47.1743L144.9 47.125L145.282 47.0757L145.855 47.0263L146.236 46.977L146.809 46.9276L147 46.8289L147.191 46.7303L147.382 46.6809L147.764 46.7303L148.145 46.7796L148.336 46.5822L148.527 46.4342L148.718 46.3355L148.909 46.2368L149.1 46.1382L149.291 45.9901L149.482 45.8914L149.673 45.7434L149.864 45.6447L150.055 45.4967L150.245 45.4474L150.818 45.4967L151.2 45.4474L151.582 45.2993L151.964 45.2007L152.345 45.102V45.0033L152.727 44.9046L153.109 44.9539L153.491 45.0033H154.064H154.445L154.827 44.9539L155.4 44.9046L155.782 45.0033L156.164 45.102L156.545 45.1513L157.118 45.0526L157.309 44.8553L157.5 44.7566L157.691 44.6086L158.073 44.4605H158.455L159.027 44.5592L159.218 44.6579L159.791 44.7566L160.364 44.8553L160.555 45.0033L160.745 45.102V45.25L160.936 45.398V45.5954V45.6941L161.127 45.8421V45.9901L161.318 46.1382V46.2862L161.509 46.3849V46.5329V46.6316L161.7 46.7303L161.891 46.8783V47.0263V47.2237L162.273 47.4211V47.5691L162.655 47.4704C162.655 47.4211 162.655 47.3125 162.655 47.273C162.655 47.2336 162.782 47.1579 162.845 47.125V46.9276L163.036 46.8289L163.418 46.7796L163.991 46.8289L164.373 46.8783L164.564 46.977L164.945 47.0263L165.327 47.125L165.518 47.2237L165.709 47.273H166.091L166.282 47.1743L166.473 47.125L166.664 47.0757H166.855L167.236 47.0263H167.618L167.809 47.125L168.191 47.1743L168.382 47.2237L168.955 47.273H169.336H169.718H170.1L170.291 47.2237H170.673H170.864L171.245 47.273L171.436 47.3717L171.627 47.4704L171.818 47.6184L172.009 47.6678L172.2 47.7664L172.582 47.8651H172.964L173.345 47.7664L173.727 47.7171L173.918 47.6184L174.109 47.5691L174.491 47.4704L174.682 47.4211L175.064 47.3224H175.445L175.827 47.273H176.209H176.782L177.164 47.3224L177.545 47.3717H178.118L178.5 47.4704H178.882L179.264 47.273L179.455 47.125L179.645 46.977L179.836 46.8289L180.027 46.7796L180.6 46.7303L180.982 46.6809H181.364L181.745 46.7303H182.127L182.509 46.7796L182.891 46.8289L183.082 46.9276H183.273L183.655 46.8289L184.036 46.7303H184.227L184.418 46.7796L184.8 46.8289L185.182 46.8783C185.245 46.8783 185.411 46.8783 185.564 46.8783C185.716 46.8783 186.009 46.8783 186.136 46.8783L186.327 46.9276L186.709 46.977L187.282 46.9276L187.473 46.8289L188.045 46.7796H188.618L189.191 46.8289H190.145L190.718 46.7796L191.291 46.6809L191.482 46.5822L191.864 46.4342H192.436L193.009 46.5329L193.2 46.6316L193.582 46.7303L193.964 46.8289V46.9276L194.155 47.0263L194.345 47.125L194.536 47.2237L194.727 47.3224V47.3717H195.491L196.064 47.3224H196.445H196.827L197.018 47.3717H197.4L197.782 47.273L198.164 47.1743L198.545 47.125L198.927 47.0757H199.309H199.882H200.455H200.836L201.6 47.0263L202.173 46.9276L202.555 46.977L202.936 47.0757L203.318 47.125L203.891 47.2237H204.273H205.227H205.609H205.991H206.755H206.945H207.518H208.091L208.473 47.1743L209.236 47.0757H209.5H210L210.382 47.0263L210.764 46.9276L211.145 46.8289L211.527 46.7796H212.1L212.482 46.8289H213.055L213.245 46.7796L213.627 46.7303L214.391 46.6316L214.582 46.5329L215.155 46.4342L215.536 46.3355L215.918 46.2368H216.491L216.682 46.0888L217.064 45.9408L217.255 45.7928L217.636 45.7434L218.209 45.6941L218.591 45.5461L218.782 45.3487V45.25L218.973 45.102L219.164 44.9539L219.545 44.8553L220.5 44.8059L221.073 44.7072L221.645 44.6086H222.218L222.6 44.6579L222.982 44.7566L223.364 44.8059L223.745 44.8553L224.127 44.7072L224.318 44.5592L224.509 44.4605L224.891 44.3125L225.082 44.1645L225.273 44.0164H225.655L226.036 44.0658L226.609 44.1151L227.182 44.0658L227.564 43.9671L228.136 44.0164L228.228 44.1645L228.518 44.3125L228.709 44.4112L229.091 44.2632L229.282 44.1151L229.664 44.0658L230.045 44.1151L230.427 44.1645L230.809 44.1151L231.191 44.0658H231.573L231.955 44.1151L232.145 44.1645L232.527 44.0658L232.718 43.9671L232.909 43.8684H233.291L233.569 43.9671L233.864 44.1151L234.055 44.1645L234.373 44.2632L234.818 44.0658L235.2 43.9178L235.391 43.7697L235.582 43.6217L235.773 43.5724H236.155L236.536 43.6711L237.109 43.6217L237.491 43.5724L237.873 43.523L238.255 43.5724L238.53 43.6217H238.827L239.209 43.7204H239.591L239.782 43.7697L240.164 43.6711L240.355 43.6217L240.736 43.523L240.927 43.4243L241.5 43.4737L241.882 43.5724L242.073 43.6711L242.264 43.8191L242.455 43.9671L242.645 44.1151L242.836 44.2138L243.218 44.3125L243.6 44.4112L243.982 44.3618L244.364 44.3125L244.555 44.2138L245.127 44.3125L245.7 44.4112L246.082 44.4605L246.464 44.3125L246.845 44.1645L247.036 44.0164L247.227 43.8684L247.418 43.7697L247.609 43.6217V43.523L247.8 43.375L247.991 43.2763H248.373L248.755 43.375L249.136 43.2763L249.518 43.1283L249.9 43.0296H250.473L250.855 43.0789L251.236 43.1283L251.737 43.0789L252 42.9309H252.382L252.573 42.9803L252.955 43.1283L253.336 43.227L253.718 43.2763L254.1 43.3257L254.553 43.2763H254.864L255.245 43.3257L255.436 43.4243L255.627 43.523L256.009 43.5724L256.2 43.375L256.391 43.2763L256.582 43.1776L256.964 43.0789L257.155 42.9309L257.536 42.7829L257.727 42.6842L258.109 42.5362L258.491 42.4868H259.064L259.255 42.5362L259.445 42.3882L259.827 42.2895L260.018 42.1414L260.4 42.0921L260.973 42.1908L261.164 42.2401L261.545 42.3882L261.736 42.5362V42.6349L261.927 42.7336L262.5 42.7829H262.882L263.455 42.7336H264.218H264.791H265.173L265.555 42.7829L265.936 42.8322L266.127 42.9309L266.318 43.0296L266.509 43.1283L266.7 43.2763L266.891 43.4243L267.082 43.5724L267.273 43.6711L267.655 43.6217L268.036 43.5724L268.418 43.4737L268.722 43.375L268.8 43.2763L268.991 43.1776V43.0789L269.182 42.9309V42.7336L269.373 42.5855L269.564 42.4375L269.755 42.2895L269.945 42.1908L270.136 42.0921L270.327 41.9441L270.518 41.8454L270.9 41.6974L271.091 41.5987L271.473 41.5493L271.855 41.5987L272.045 41.6974L272.236 41.7961L272.618 41.8454L273 41.7467L273.382 41.648L273.573 41.5L273.764 41.3026L273.955 41.1546L274.336 41.0066L274.527 40.9079L274.718 40.8092L275.1 40.7105H275.482L275.864 40.7599L276.436 40.8586L276.627 40.9079H277.009L277.391 40.8092L277.582 40.7105L277.773 40.6612L278.155 40.7105L278.345 40.8092L278.536 40.9079L278.727 40.9572L279.109 40.9079L279.3 40.8092L279.682 40.7105L280.064 40.6612L280.255 40.7599L280.636 40.8092L280.827 40.8586H281.209L281.4 40.8092L281.782 40.7599L282.164 40.7105L282.545 40.7599H282.927L283.309 40.7105L283.691 40.6612L284.073 40.6118L284.455 40.5625L284.836 40.5132L285.409 40.3651H285.791L286.364 40.3158H286.745L287.318 40.3651L287.7 40.4145L288.082 40.4638H288.464L288.845 40.3651L289.227 40.2664V40.1184L289.418 39.9704L289.609 39.8224L289.8 39.6743L289.991 39.625H290.564H291.136L291.709 39.7237L292.091 39.8224L292.473 39.8717L293.236 39.9211L293.809 39.8717L294.382 39.8224L294.764 39.625L295.145 39.477L295.718 39.5263L296.291 39.5757L296.864 39.477L297.055 39.2796V39.0822V38.9342L297.245 38.7368L297.436 38.4901V38.3421L297.627 38.1941L297.818 37.9967L298.009 37.898L298.773 37.8487H299.345H299.918H300.682H301.064H301.636L301.827 37.75L302.209 37.7007V37.7993L302.4 37.898L302.591 38.0461V38.1941L302.782 38.3914V38.5395L302.973 38.6382V38.7368L303.164 38.8355H303.736H304.118L304.309 39.0329L304.5 39.1809L304.691 39.3783L304.882 39.5263H305.264L305.645 39.477L306.027 39.4276L306.409 39.3783L306.791 39.4276L307.173 39.477L307.745 39.4276L307.936 39.2796L308.318 39.1809L308.509 39.0329L308.891 38.9342L309.273 38.8355L309.845 38.8849L310.227 38.9342L310.609 38.9836H311.182L311.564 38.8849L311.945 38.8355L312.327 38.9342L312.709 38.9836L312.9 39.0822L313.282 39.1809L313.664 39.2303L314.045 39.1316L314.427 39.0329L314.809 38.8849L315 38.7368L315.382 38.6382L315.955 38.7368L316.336 38.8355L316.527 38.6875L316.718 38.5395L316.909 38.3421L317.1 38.1941L317.291 37.9967V37.8487L317.673 38.0954L317.864 38.2434L318.055 38.3914L318.436 38.4901L319.009 38.6382L319.582 38.7368H319.964H320.536H321.109L321.491 38.8355L321.873 38.8849L322.255 38.9836L322.636 38.8355L323.018 38.6875H323.782H324.164L324.736 38.6382L325.118 38.5395L325.691 38.3914L326.073 38.2928L326.645 38.2434L326.836 38.3914L327.027 38.5888L327.218 38.7862L327.409 38.9836L327.791 39.1316H328.364L328.936 39.0822L329.509 38.9836L330.082 38.8849H330.655H331.036L331.418 38.8355L331.8 38.6875L331.991 38.5888L332.182 38.4408L332.373 38.3421L332.755 38.2434L333.136 38.3421L333.327 38.4408L333.518 38.5395L333.709 38.6382L334.091 38.5888L334.282 38.4408L334.664 38.3421L334.855 38.2434L335.236 38.0954L335.618 37.9967L336 37.8487L336.382 37.75V37.602L336.573 37.5033L336.764 37.3553V37.2072L337.145 37.1086L337.718 37.2072H338.291L338.673 37.0592H339.055L339.627 37.1579H340.2H340.582L340.964 36.9605L341.345 36.8125L341.727 36.7138H342.3L342.873 36.7632L343.255 36.9112L343.636 37.0592L343.827 37.2072L344.018 37.3553L344.4 37.2072V36.9605L344.782 36.8125L344.973 36.7138L345.355 36.8618L345.736 36.9605L346.118 37.0099L346.691 36.9605H347.264L347.645 37.0592L347.836 37.2072L348.027 37.3553L348.409 37.5526L348.6 37.7007L348.982 37.7993L349.555 37.8487H349.936L350.509 37.9474L351.082 38.0954L351.655 37.9474L352.036 37.8487L352.418 37.7993H352.991H353.373L353.945 37.8487L354.518 37.9474H355.091L355.473 37.8487L355.855 37.75L356.427 37.5526L356.809 37.3553L357 37.1579L357.191 36.9605L357.382 36.7632L357.573 36.5658L357.764 36.3684V36.1711L357.955 35.9243L358.336 35.9737L358.718 36.0724L359.1 36.1217L359.482 36.0724L359.673 35.9737L360.055 36.023L360.627 36.0724L361.009 36.023L361.2 35.9243L361.582 35.8257L361.964 35.9243L362.345 36.023L362.536 36.1217L362.918 36.023L363.3 35.9737L363.491 36.1217L363.873 36.2697L364.064 36.3684L364.445 36.3191L364.827 36.1711L365.018 36.023L365.209 35.875L365.4 35.727L365.591 35.5296L365.782 35.3816L365.973 35.1842H366.545H367.118L367.5 35.0855L367.882 34.9868L368.264 34.8882L368.645 34.8388L369.409 34.9375L369.791 35.0362L369.982 35.1842L370.364 35.3322L370.555 35.4803L370.745 35.6283L370.936 35.7763H371.509L371.891 35.6283L372.464 35.5296L373.036 35.5789H373.609L374.182 35.5296L374.755 35.4309L375.327 35.3816H375.9L376.282 35.3322L376.664 35.1349V34.9375V34.7401L376.855 34.5921L377.045 34.3947V34.2467L377.427 34L377.809 34.2467L378 34.3947L378.191 34.4934L378.573 34.5921H379.145L379.718 34.6414H380.291L381.055 34.7401H381.627L382.009 34.8388L382.582 34.9375L383.155 34.8882H383.727L384.109 34.7895L384.491 34.9375L384.682 35.0855L385.064 35.1349L385.445 35.0855L385.636 34.9868L385.827 34.8388L386.209 34.9375L386.591 35.0362L386.782 35.1349L387.164 35.1842L387.545 35.1349L387.927 35.0362L388.5 34.9868L389.073 34.8882H389.455L389.836 34.8388L390.218 34.7401L390.791 34.6908L391.555 34.6414H392.127L392.509 34.6908L393.082 34.7401H393.655H394.036L394.418 34.8388L394.8 34.9375L395.182 34.9868L395.755 35.0362L396.9 34.9868H397.855H398.618H399L399.573 34.7895L399.955 34.6908L400.718 34.5921H401.482H402.245L403.009 34.4934L403.964 34.5921H404.918H405.682L406.255 34.7895L406.827 34.9868L407.209 35.1842V35.4803L407.591 35.727L407.973 35.9737L408.164 36.2204L408.927 36.3191L409.5 36.2204L410.455 36.1217L411.218 36.2204L411.791 36.3191L412.364 36.3684L412.745 36.2204L413.127 36.1217L413.509 36.023L413.891 36.1217L414.273 36.1711L414.655 36.2204H415.036H415.418L415.991 36.1711L416.182 36.023L416.945 35.9243L417.709 35.8257V35.6283L417.9 35.4309L418.091 35.2336L418.282 35.0855L418.473 34.9375L418.855 35.0362L419.236 35.1349L419.618 35.1842H420" stroke="#E3E4AB" stroke-linecap="round"/>
</g>
<defs>
<linearGradient id="paint0_linear_102_2307" x1="210" y1="2.5" x2="210" y2="60" gradientUnits="userSpaceOnUse">
<stop stop-color="#36361D"/>
<stop offset="1" stop-color="#36361D" stop-opacity="0"/>
</linearGradient>
<clipPath id="clip0_102_2307">
<rect width="420" height="60" fill="white"/>
</clipPath>
</defs>
</svg>
