<svg width="420" height="60" viewBox="0 0 420 60" fill="none" xmlns="http://www.w3.org/2000/svg">
<g clip-path="url(#clip0_102_2221)">
<path d="M2.38 53.7129L2 53.8086C2 57.228 4.77195 60 8.19136 60H408C414.627 60 420 54.6274 420 48V45.1483H419.62L419.24 45.1005L418.86 45.0048L418.48 44.9091L418.29 45.0526L418.1 45.1962L417.91 45.3876L417.72 45.5789V45.7703L416.96 45.866L416.2 45.9617L416.01 46.1053L415.44 46.1531H415.06H414.68L414.3 46.1053L413.92 46.0574L413.54 45.9617L413.16 46.0574L412.78 46.1531L412.4 46.2967L411.83 46.2488L411.26 46.1531L410.5 46.0574L409.55 46.1531L408.98 46.2488L408.22 46.1531L408.03 45.9139L407.65 45.6746L407.27 45.4354V45.1483L406.89 44.9569L406.32 44.7656L405.75 44.5742H404.99H404.04L403.09 44.4785L402.33 44.5742H401.57H400.81L400.05 44.6699L399.67 44.7656L399.1 44.9569H398.72H397.96H397.01L395.87 45.0048L395.3 44.9569L394.92 44.9091L394.54 44.8134L394.16 44.7177H393.78H393.21L392.64 44.6699L392.26 44.622H391.69L390.93 44.6699L390.36 44.7177L389.98 44.8134L389.6 44.8612H389.22L388.65 44.9569L388.08 45.0048L387.7 45.1005L387.32 45.1483L386.94 45.1005L386.75 45.0048L386.37 44.9091L385.99 44.8134L385.8 44.9569L385.61 45.0526L385.23 45.1005L384.85 45.0526L384.66 44.9091L384.28 44.7656L383.9 44.8612H383.33L382.76 44.9091L382.19 44.8134L381.81 44.7177H381.24L380.48 44.622H379.91L379.34 44.5742H378.77L378.39 44.4785L378.2 44.3828L378.01 44.2392L377.63 44L377.25 44.2392V44.3828L377.06 44.5742L376.87 44.7177V44.9091V45.1005L376.49 45.2919L376.11 45.3397H375.54L374.97 45.3876L374.4 45.4833L373.83 45.5311H373.26L372.69 45.4833L372.12 45.5789L371.74 45.7225H371.17L370.98 45.5789L370.79 45.4354L370.6 45.2919L370.22 45.1483L370.03 45.0048L369.65 44.9091L368.89 44.8134L368.51 44.8612L368.13 44.9569L367.75 45.0526L367.37 45.1483H366.8H366.23L366.04 45.3397L365.85 45.4833L365.66 45.6746L365.47 45.8182L365.28 45.9617L365.09 46.1053L364.71 46.2488L364.33 46.2967L364.14 46.201L363.76 46.0574L363.57 45.9139L363.19 45.9617L362.81 46.0574L362.62 45.9617L362.24 45.866L361.86 45.7703L361.48 45.866L361.29 45.9617L360.91 46.0096L360.34 45.9617L359.96 45.9139L359.77 46.0096L359.39 46.0574L359.01 46.0096L358.63 45.9139L358.25 45.866L358.06 46.1053V46.2967L357.87 46.488L357.68 46.6794L357.49 46.8708L357.3 47.0622L357.11 47.2536L356.73 47.445L356.16 47.6364L355.78 47.7321L355.4 47.8278H354.83L354.26 47.7321L353.69 47.6842H353.31H352.74L352.36 47.7321L351.98 47.8278L351.41 47.9713L350.84 47.8278L350.27 47.7321H349.89L349.32 47.6842L348.94 47.5885L348.75 47.445L348.37 47.2536L348.18 47.11L347.99 46.9665L347.61 46.8708H347.04L346.47 46.9187L346.09 46.8708L345.71 46.7751L345.33 46.6316L345.14 46.7273L344.76 46.8708V47.11L344.38 47.2536L344.19 47.11L344 46.9665L343.62 46.823L343.24 46.6794L342.67 46.6316H342.1L341.72 46.7273L341.34 46.8708L340.96 47.0622H340.58H340.01L339.44 46.9665H339.06L338.68 47.11H338.11L337.54 47.0144L337.16 47.11V47.2536L336.97 47.3971L336.78 47.4928V47.6364L336.4 47.7321L336.02 47.8756L335.64 47.9713L335.26 48.1148L335.07 48.2105L334.69 48.3062L334.5 48.4498L334.12 48.4976L333.93 48.4019L333.74 48.3062L333.55 48.2105L333.17 48.1148L332.79 48.2105L332.6 48.3062L332.41 48.4498L332.22 48.5455L331.84 48.689L331.46 48.7368H331.08H330.51L329.94 48.8325L329.37 48.9282L328.8 48.9761H328.23L327.85 48.8325L327.66 48.6411L327.47 48.4498L327.28 48.2584L327.09 48.1148L326.52 48.1627L326.14 48.2584L325.57 48.4019L325.19 48.4976L324.62 48.5455H324.24H323.48L323.1 48.689L322.72 48.8325L322.34 48.7368L321.96 48.689L321.58 48.5933H321.01H320.44H320.06L319.49 48.4976L318.92 48.3541L318.54 48.2584L318.35 48.1148L318.16 47.9713L317.78 47.7321V47.8756L317.59 48.067L317.4 48.2105L317.21 48.4019L317.02 48.5455L316.83 48.689L316.45 48.5933L315.88 48.4976L315.5 48.5933L315.31 48.7368L314.93 48.8804L314.55 48.9761L314.17 49.0718L313.79 49.0239L313.41 48.9282L313.22 48.8325L312.84 48.7847L312.46 48.689L312.08 48.7368L311.7 48.8325H311.13L310.75 48.7847L310.37 48.7368L309.8 48.689L309.42 48.7847L309.04 48.8804L308.85 49.0239L308.47 49.1196L308.28 49.2632L307.71 49.311L307.33 49.2632L306.95 49.2153L306.57 49.2632L306.19 49.311L305.81 49.3589H305.43L305.24 49.2153L305.05 49.0239L304.86 48.8804L304.67 48.689H304.29H303.72L303.53 48.5933V48.4976L303.34 48.4019V48.2584L303.15 48.067V47.9234L302.96 47.7799L302.77 47.6842V47.5885L302.39 47.6364L302.2 47.7321H301.63H301.25H300.49H299.92H299.35L298.59 47.7799L298.4 47.8756L298.21 48.067L298.02 48.2105V48.3541L297.83 48.5933L297.64 48.7847V48.9282V49.1196L297.45 49.311L296.88 49.4067L296.31 49.3589L295.74 49.311L295.36 49.4545L294.98 49.6459L294.41 49.6938L293.84 49.7416L293.08 49.6938L292.7 49.6459L292.32 49.5502L291.75 49.4545H291.18H290.61L290.42 49.5024L290.23 49.6459L290.04 49.7895L289.85 49.933V50.0766L289.47 50.1722L289.09 50.2679H288.71L288.33 50.2201L287.95 50.1722L287.38 50.1244H287L286.43 50.1722H286.05L285.48 50.3158L285.1 50.3636L284.72 50.4115L284.34 50.4593L283.96 50.5072L283.58 50.555H283.2L282.82 50.5072L282.44 50.555L282.06 50.6029L281.87 50.6507H281.49L281.3 50.6029L280.92 50.555L280.73 50.4593L280.35 50.5072L279.97 50.6029L279.78 50.6986L279.4 50.7464L279.21 50.6986L279.02 50.6029L278.83 50.5072L278.45 50.4593L278.26 50.5072L278.07 50.6029L277.69 50.6986H277.31L277.12 50.6507L276.55 50.555L276.17 50.5072H275.79L275.41 50.6029L275.22 50.6986L275.03 50.7943L274.65 50.9378L274.46 51.0813L274.27 51.2727L274.08 51.4163L273.7 51.512L273.32 51.6077L272.94 51.5598L272.75 51.4641L272.56 51.3684L272.18 51.3206L271.8 51.3684L271.61 51.4641L271.23 51.6077L271.04 51.7033L270.85 51.8469L270.66 51.9426L270.47 52.0383L270.28 52.1818L270.09 52.3254L269.9 52.4689V52.6603L269.71 52.8038V52.8995L269.52 52.9952L269.442 53.0909L269.14 53.1866L268.76 53.2823L268.38 53.3301L268 53.378L267.81 53.2823L267.62 53.1388L267.43 52.9952L267.24 52.8517L267.05 52.756L266.86 52.6603L266.67 52.5646L266.29 52.5167L265.91 52.4689H265.53H264.96H264.2L263.63 52.5167H263.25L262.68 52.4689L262.49 52.3732V52.2775L262.3 52.134L261.92 51.9904L261.73 51.9426L261.16 51.8469L260.78 51.8947L260.59 52.0383L260.21 52.134L260.02 52.2775L259.83 52.2297H259.26L258.88 52.2775L258.5 52.4211L258.31 52.5167L257.93 52.6603L257.74 52.8038L257.36 52.8995L257.17 52.9952L256.98 53.0909L256.79 53.2823L256.41 53.2344L256.22 53.1388L256.03 53.0431L255.65 52.9952H255.341L254.89 53.0431L254.51 52.9952L254.13 52.9474L253.75 52.8517L253.37 52.7081L253.18 52.6603H252.8L252.539 52.8038L252.04 52.8517L251.66 52.8038L251.28 52.756H250.71L250.33 52.8517L249.95 52.9952L249.57 53.0909L249.19 52.9952H248.81L248.62 53.0909L248.43 53.2344V53.3301L248.24 53.4737L248.05 53.5694L247.86 53.7129L247.67 53.8565L247.29 54L246.91 54.1435L246.53 54.0957L245.96 54L245.39 53.9043L245.2 54L244.82 54.0478L244.44 54.0957L244.06 54L243.68 53.9043L243.49 53.8086L243.3 53.6651L243.11 53.5215L242.92 53.378L242.73 53.2823L242.35 53.1866L241.78 53.1388L241.59 53.2344L241.21 53.3301L241.02 53.378L240.64 53.4737L240.45 53.4258H240.07L239.69 53.3301H239.394L239.12 53.2823L238.74 53.2344L238.36 53.2823L237.98 53.3301L237.41 53.378L237.03 53.2823H236.65L236.46 53.3301L236.27 53.4737L236.08 53.6172L235.7 53.7608L235.257 53.9522L234.94 53.8565L234.75 53.8086L234.456 53.6651L234.18 53.5694H233.8L233.61 53.6651L233.42 53.7608L233.04 53.8565L232.85 53.8086L232.47 53.7608H232.09L231.71 53.8086L231.33 53.8565L230.95 53.8086L230.57 53.7608L230.19 53.8086L230 53.9522L229.62 54.0957L229.43 54L229.141 53.8565L229.05 53.7129L228.48 53.6651L228.1 53.7608L227.53 53.8086L226.96 53.7608L226.58 53.7129H226.2L226.01 53.8565L225.82 54L225.44 54.1435L225.25 54.2392L225.06 54.3828L224.68 54.5263L224.3 54.4785L223.92 54.4306L223.54 54.3349L223.16 54.2871H222.59L222.02 54.3828L221.45 54.4785L220.5 54.5263L220.12 54.622L219.93 54.7656L219.74 54.9091V55.0048L219.55 55.1962L219.17 55.3397L218.6 55.3876L218.22 55.4354L218.03 55.5789L217.65 55.7225L217.46 55.866H216.89L216.51 55.9617L216.13 56.0574L215.56 56.1531L215.37 56.2488L214.61 56.3445L214.23 56.3923L214.04 56.4402H213.47L213.09 56.3923H212.52L212.14 56.4402L211.76 56.5359L211.38 56.6316L211 56.6794H210.503H210.24L209.48 56.7751L209.1 56.823H208.53H207.96H207.77H207.01H206.63H206.25H205.3H204.92L204.35 56.7273L203.97 56.6794L203.59 56.5837L203.21 56.5359L202.64 56.6316L201.88 56.6794H201.5H200.93H200.36H199.98L199.6 56.7273L199.22 56.7751L198.84 56.8708L198.46 56.9665H198.08L197.89 56.9187H197.51H197.13L196.56 56.9665H195.8V56.9187L195.61 56.823L195.42 56.7273L195.23 56.6316L195.04 56.5359V56.4402L194.66 56.3445L194.28 56.2488L194.09 56.1531L193.52 56.0574H192.95L192.57 56.201L192.38 56.2967L191.81 56.3923L191.24 56.4402H190.29L189.72 56.3923H189.15L188.58 56.4402L188.39 56.5359L187.82 56.5837L187.44 56.5359L187.25 56.488H186.68H186.3L185.92 56.4402L185.54 56.3923L185.35 56.3445H185.16L184.78 56.4402L184.4 56.5359H184.21L184.02 56.4402L183.64 56.3923L183.26 56.3445H182.88L182.5 56.2967H182.12L181.74 56.3445L181.17 56.3923L180.98 56.4402L180.79 56.5837L180.6 56.7273L180.41 56.8708L180.03 57.0622H179.65L179.27 56.9665H178.7L178.32 56.9187L177.94 56.8708H177.37H176.99L176.61 56.9187H176.23L175.85 57.0144L175.66 57.0622L175.28 57.1579L175.09 57.2057L174.9 57.3014L174.52 57.3493L174.14 57.445H173.76L173.38 57.3493L173.19 57.2536L173 57.2057L172.81 57.0622L172.62 56.9665L172.43 56.8708L172.05 56.823H171.86H171.48L171.29 56.8708H170.91H170.53H170.15L169.58 56.823L169.39 56.7751L169.01 56.7273L168.82 56.6316H168.44L168.06 56.6794H167.87L167.68 56.7273L167.49 56.7751L167.3 56.8708H166.92L166.73 56.823L166.54 56.7273L166.16 56.6316L165.78 56.5837L165.59 56.488L165.21 56.4402L164.64 56.3923L164.26 56.4402L164.07 56.5359V56.7273C164.007 56.7592 163.88 56.8325 163.88 56.8708V57.0622L163.5 57.1579V57.0144L163.12 56.823V56.6316V56.488L162.93 56.3445L162.74 56.2488V56.1531V56.0096L162.55 55.9139V55.7703L162.36 55.6268V55.4833L162.17 55.3397V55.244V55.0526L161.98 54.9091V54.7656L161.79 54.6699L161.6 54.5263L161.03 54.4306L160.46 54.3349L160.27 54.2392L159.7 54.1435H159.32L158.94 54.2871L158.75 54.4306L158.56 54.5263L158.37 54.7177L157.8 54.8134L157.42 54.7656L157.04 54.6699L156.66 54.5742L156.09 54.622L155.71 54.6699H155.33H154.76L154.38 54.622L154 54.5742L153.62 54.6699V54.7656L153.24 54.8612L152.86 54.9569L152.48 55.1005L152.1 55.1483L151.53 55.1005L151.34 55.1483L151.15 55.2919L150.96 55.3876L150.77 55.5311L150.58 55.6268L150.39 55.7703L150.2 55.866L150.01 55.9617L149.82 56.0574L149.63 56.201L149.44 56.3923L149.06 56.3445L148.68 56.2967L148.49 56.3445L148.3 56.4402L148.11 56.5359L147.54 56.5837L147.16 56.6316L146.59 56.6794L146.21 56.7273L146.02 56.7751L145.45 56.823L145.07 56.7751L144.69 56.7273L144.12 56.6794L143.93 56.5837L143.55 56.5359L143.17 56.5837L142.79 56.6316L142.41 56.7273L142.22 56.7751L141.84 56.823H141.46L141.08 56.7751H140.7L140.32 56.823H139.94L139.75 56.7751L139.37 56.7273H138.99H138.61L138.23 56.7751L137.85 56.8708L137.47 56.823L137.28 56.7273L137.09 56.6794L136.52 56.5837L136.238 56.6316H135.76L135.19 56.5837L134.62 56.5359L134.24 56.4402L133.67 56.3923H133.29H132.72L132.34 56.4402L131.873 56.5837L131.58 56.6316L131.2 56.7273L131.01 56.823L130.63 56.9665H130.25L129.68 56.8708L129.11 56.823L128.73 56.7273H128.35L127.97 56.6316H127.21L126.64 56.5837L126.07 56.5359L125.5 56.5837L124.93 56.6316L124.74 56.7273L124.17 56.7751H123.79H123.22H122.84H122.08L121.7 56.823L121.51 56.9665L121.13 57.11H120.75L120.37 56.9665L120.18 56.823L119.8 56.6794L119.42 56.5837L119.04 56.6316H118.47L118.09 56.5359L117.9 56.4402V56.2967L117.71 56.201L117.52 56.0574L117.14 56.1053L116.57 56.0574L116 55.9617L115.62 55.866L115.524 55.7225L115.43 55.5789L115.24 55.4354V55.3397L114.86 55.1962L114.67 55.1483L114.48 55.244L114.1 55.3397L113.91 55.244L113.72 55.1483V55.0526L113.53 54.9091V54.8134L113.34 54.7177V54.622L113.15 54.5263L112.77 54.4785L112.39 54.4306L112.01 54.3349L111.63 54.2871H111.25L111.06 54.3349L110.87 54.4785L110.49 54.5742L110.195 54.6699L109.92 54.8134L109.54 54.9091L109.35 55.0048L108.97 55.1005L108.78 55.1962L108.4 55.244L108.21 55.4354L107.83 55.4833V55.3876L107.64 55.2919L107.45 55.1962L107.26 55.1005L106.88 55.0526L106.69 55.1005L106.5 55.244L106.12 55.3397L105.74 55.3876L105.36 55.4354H104.98L104.41 55.3876H103.84L103.27 55.4354L102.89 55.5311L102.51 55.5789H102.13H101.75L101.18 55.6268L100.8 55.7225L100.61 55.8182L100.42 55.9617L100.23 56.1053H99.85L99.47 56.0096L99.09 55.866L98.71 55.7703L98.33 55.6746L98.14 55.5311V55.3876L97.95 55.244L97.76 55.1483L97.57 55.0048L97.38 54.8612L97.19 54.8134L96.62 54.8612L96.24 54.9091L95.86 55.0048L95.29 55.1005H95.1H94.72L94.15 55.1483L93.77 55.244L93.39 55.2919L93.01 55.244L92.82 55.1483L92.44 55.0048L92.25 54.8612L92.06 54.6699L91.87 54.5263L91.68 54.4306L91.49 54.2871V54.1435V54.0478L91.11 53.9522L90.73 53.8565L90.35 53.7608L89.97 53.6651L89.59 53.5694H89.21H88.64L88.26 53.4737L87.88 53.3301L87.5 53.2344L86.93 53.1866L86.55 53.3301L86.17 53.4258L85.98 53.5694L85.6 53.6651L85.03 53.7129L84.65 53.8565L84.46 54.0478L84.27 54.2392L84.08 54.4306L83.89 54.622L83.7 54.8134L83.51 54.7177L83.32 54.622L83.13 54.4785L82.56 54.4306L82.18 54.5263L81.8 54.6699L81.42 54.7656L81.04 54.8134L80.66 54.7656L80.47 54.6699L80.09 54.622L79.71 54.7656L79.52 54.9091L79.33 55.1483L78.95 55.1962L78.57 55.1005L78.1009 55.1962L77.62 55.2919H77.24L76.86 55.1962L76.48 55.1005L76.1 54.9569L75.53 54.8612L74.96 54.7656L74.39 54.6699L73.82 54.622L73.25 54.6699L73.06 54.7656L72.87 54.9091L72.68 55.0526L72.3 55.1962L72.11 55.3876L71.92 55.6268L71.73 55.8182L71.54 56.0096L71.35 56.201L70.97 56.2967L70.59 56.201L70.4 56.1053L70.21 56.0096L70.02 55.866L69.83 55.7225L69.45 55.5789H68.69L68.31 55.4354L67.55 55.4833L67.17 55.6268L66.41 55.7225L66.03 55.866L65.46 55.7703L65.08 55.7225L64.51 55.6268L64.32 55.7225L64.13 55.866V56.0096L63.94 56.201V56.3923L63.75 56.5359L63.56 56.7273L62.99 56.823L62.61 56.9187L62.42 57.11L62.23 57.3014L62.04 57.4928L61.66 57.6364L61.09 57.8278L60.71 58.0191L60.14 58.1627L59.76 58.3062L59.38 58.4976L59 58.5455L58.62 58.4019L58.24 58.3062L58.05 58.1627L57.67 57.9713L57.29 57.8278L56.72 57.6842L55.96 57.6364L55.2 57.5407L54.63 57.5885L54.06 57.7321L53.49 57.8756L52.73 57.9713L52.16 58.067L51.78 58.2105L51.4 58.3062L51.02 58.4498L50.64 58.5455H50.07H49.5L49.31 58.4019L48.93 58.2584L48.55 58.3541H47.98L47.6 58.2584L47.22 58.1148L46.84 58.0191L46.27 57.9234L45.7846 57.8278L45.32 57.7321L44.862 57.5885L44.37 57.5407L43.8 57.5885L43.23 57.6842L42.66 57.7321L42.28 57.8278H41.9H41.52L41.14 57.7321L40.76 57.6364L40.38 57.7321L40 57.8756L39.62 57.7321L39.24 57.6364L38.86 57.5407L38.29 57.4928L37.91 57.5885L37.72 57.7321L37.34 57.8756L37.15 57.7321L36.8657 57.6364L36.39 57.5407L36.2 57.3971L35.82 57.5407L35.44 57.6364L35.06 57.5885L34.68 57.445L34.3 57.3493V57.1579L33.92 56.9665L33.73 56.823L33.54 56.6316L33.35 56.4402L32.97 56.2967L32.78 56.1531L32.59 56.0096L32.4 55.866L32.21 55.6746L32.02 55.5311L31.83 55.3876L31.64 55.244L31.45 55.1005L31.26 55.0048V54.8612L30.88 54.7177L30.69 54.622L30.31 54.5263L29.74 54.4785L29.36 54.3828H28.98H28.6L28.22 54.4785L27.84 54.5742L27.46 54.4785L27.08 54.4306L26.7 54.3828H26.13L25.94 54.4785L25.56 54.5263L25.18 54.4785L24.8 54.3828L24.42 54.2871L24.04 54.2392L23.66 54.1914L23.47 54.0957L23.28 54L22.9 53.9043L22.71 53.8086L22.52 53.7129L22.14 53.6172L21.76 53.6651L21.57 53.8565L21.38 53.9522L21.19 54.1435L21 54.2871L20.62 54.3828L20.24 54.4785L19.86 54.5742L19.48 54.6699H18.91L18.53 54.5742L18.34 54.4306L18.15 54.2871L17.96 54.1435V54V53.8565L17.77 53.7129L17.58 53.6172L17.2 53.5215L16.82 53.4258L16.44 53.378H16.06L15.68 53.2823L15.49 53.1866L15.11 53.1388H14.73L14.35 53.2344L14.16 53.3301L13.78 53.4258L13.4 53.5215L13.02 53.4737L12.64 53.378L12.26 53.3301L11.88 53.378H11.5L11.31 53.3301L11.12 53.2344L10.93 53.1388L10.74 53.0431V52.8995L10.36 52.8517L9.98 52.9474H9.6L9.41 52.8995L9.22 52.8038L8.84 52.756H8.46L8.27 52.8517L8.08 52.9474H7.7L7.32 53.0431L6.94 53.1388L6.56 53.1866L6.18 53.2823L5.8 53.378L5.42 53.4258H5.04L4.66 53.3301L4.28 53.4258L3.9 53.5215L3.52 53.6172L3.14 53.7129H2.76H2.38Z" fill="url(#paint0_linear_102_2221)"/>
<path d="M2 54.1151L2.38 54.0164H2.76H3.14L3.52 53.9178L3.9 53.8191L4.28 53.7204L4.66 53.6217L5.04 53.7204H5.42L5.8 53.6711L6.18 53.5724L6.56 53.4737L6.94 53.4243L7.32 53.3257L7.7 53.227H8.08L8.27 53.1283L8.46 53.0296H8.84L9.22 53.0789L9.41 53.1776L9.6 53.227H9.98L10.36 53.1283L10.74 53.1776V53.3257L10.93 53.4243L11.12 53.523L11.31 53.6217L11.5 53.6711H11.88L12.26 53.6217L12.64 53.6711L13.02 53.7697L13.4 53.8191L13.78 53.7204L14.16 53.6217L14.35 53.523L14.73 53.4243H15.11L15.49 53.4737L15.68 53.5724L16.06 53.6711H16.44L16.82 53.7204L17.2 53.8191L17.58 53.9178L17.77 54.0164L17.96 54.1645V54.3125V54.4605L18.15 54.6086L18.34 54.7566L18.53 54.9046L18.91 55.0033H19.48L19.86 54.9046L20.24 54.8059L20.62 54.7072L21 54.6086L21.19 54.4605L21.38 54.2632L21.57 54.1645L21.76 53.9671L22.14 53.9178L22.52 54.0164L22.71 54.1151L22.9 54.2138L23.28 54.3125L23.47 54.4112L23.66 54.5099L24.04 54.5592L24.42 54.6086L24.8 54.7072L25.18 54.8059L25.56 54.8553L25.94 54.8059L26.13 54.7072H26.7L27.08 54.7566L27.46 54.8059L27.84 54.9046L28.22 54.8059L28.6 54.7072H28.98H29.36L29.74 54.8059L30.31 54.8553L30.69 54.9539L30.88 55.0526L31.26 55.2007V55.3487L31.45 55.4474L31.64 55.5954L31.83 55.7434L32.02 55.8914L32.21 56.0395L32.4 56.2368L32.59 56.3849L32.78 56.5329L32.97 56.6809L33.35 56.8289L33.54 57.0263L33.73 57.2237L33.92 57.3717L34.3 57.5691V57.7664L34.68 57.8651L35.06 58.0132L35.44 58.0625L35.82 57.9638L36.2 57.8158L36.39 57.9638L36.8657 58.0625L37.15 58.1612L37.34 58.3092L37.72 58.1612L37.91 58.0132L38.29 57.9145L38.86 57.9638L39.24 58.0625L39.62 58.1612L40 58.3092L40.38 58.1612L40.76 58.0625L41.14 58.1612L41.52 58.2599H41.9H42.28L42.66 58.1612L43.23 58.1118L43.8 58.0132L44.37 57.9638L44.862 58.0132L45.32 58.1612L45.7846 58.2599L46.27 58.3586L46.84 58.4572L47.22 58.5559L47.6 58.7039L47.98 58.8026H48.55L48.93 58.7039L49.31 58.852L49.5 59H50.07H50.64L51.02 58.9013L51.4 58.7533L51.78 58.6546L52.16 58.5066L52.73 58.4079L53.49 58.3092L54.06 58.1612L54.63 58.0132L55.2 57.9638L55.96 58.0625L56.72 58.1118L57.29 58.2599L57.67 58.4079L58.05 58.6053L58.24 58.7533L58.62 58.852L59 59L59.38 58.9507L59.76 58.7533L60.14 58.6053L60.71 58.4572L61.09 58.2599L61.66 58.0625L62.04 57.9145L62.23 57.7171L62.42 57.5197L62.61 57.3224L62.99 57.2237L63.56 57.125L63.75 56.9276L63.94 56.7796V56.5822L64.13 56.3849V56.2368L64.32 56.0888L64.51 55.9901L65.08 56.0888L65.46 56.1382L66.03 56.2368L66.41 56.0888L67.17 55.9901L67.55 55.8421L68.31 55.7928L68.69 55.9408H69.45L69.83 56.0888L70.02 56.2368L70.21 56.3849L70.4 56.4836L70.59 56.5822L70.97 56.6809L71.35 56.5822L71.54 56.3849L71.73 56.1875L71.92 55.9901L72.11 55.7434L72.3 55.5461L72.68 55.398L72.87 55.25L73.06 55.102L73.25 55.0033L73.82 54.9539L74.39 55.0033L74.96 55.102L75.53 55.2007L76.1 55.2993L76.48 55.4474L76.86 55.5461L77.24 55.6447H77.62L78.1009 55.5461L78.57 55.4474L78.95 55.5461L79.33 55.4967L79.52 55.25L79.71 55.102L80.09 54.9539L80.47 55.0033L80.66 55.102L81.04 55.1513L81.42 55.102L81.8 55.0033L82.18 54.8553L82.56 54.7566L83.13 54.8059L83.32 54.9539L83.51 55.0526L83.7 55.1513L83.89 54.9539L84.08 54.7566L84.27 54.5592L84.46 54.3618L84.65 54.1645L85.03 54.0164L85.6 53.9671L85.98 53.8684L86.17 53.7204L86.55 53.6217L86.93 53.4737L87.5 53.523L87.88 53.6217L88.26 53.7697L88.64 53.8684H89.21H89.59L89.97 53.9671L90.35 54.0658L90.73 54.1645L91.11 54.2632L91.49 54.3618V54.4605V54.6086L91.68 54.7566L91.87 54.8553L92.06 55.0033L92.25 55.2007L92.44 55.3487L92.82 55.4967L93.01 55.5954L93.39 55.6447L93.77 55.5954L94.15 55.4967L94.72 55.4474H95.1H95.29L95.86 55.3487L96.24 55.25L96.62 55.2007L97.19 55.1513L97.38 55.2007L97.57 55.3487L97.76 55.4967L97.95 55.5954L98.14 55.7434V55.8914L98.33 56.0395L98.71 56.1382L99.09 56.2368L99.47 56.3849L99.85 56.4836H100.23L100.42 56.3355L100.61 56.1875L100.8 56.0888L101.18 55.9901L101.75 55.9408H102.13H102.51L102.89 55.8914L103.27 55.7928L103.84 55.7434H104.41L104.98 55.7928H105.36L105.74 55.7434L106.12 55.6941L106.5 55.5954L106.69 55.4474L106.88 55.398L107.26 55.4474L107.45 55.5461L107.64 55.6447L107.83 55.7434V55.8421L108.21 55.7928L108.4 55.5954L108.78 55.5461L108.97 55.4474L109.35 55.3487L109.54 55.25L109.92 55.1513L110.195 55.0033L110.49 54.9046L110.87 54.8059L111.06 54.6579L111.25 54.6086H111.63L112.01 54.6579L112.39 54.7566L112.77 54.8059L113.15 54.8553L113.34 54.9539V55.0526L113.53 55.1513V55.25L113.72 55.398V55.4967L113.91 55.5954L114.1 55.6941L114.48 55.5954L114.67 55.4967L114.86 55.5461L115.24 55.6941V55.7928L115.43 55.9408L115.524 56.0888L115.62 56.2368L116 56.3355L116.57 56.4342L117.14 56.4836L117.52 56.4342L117.71 56.5822L117.9 56.6809V56.8289L118.09 56.9276L118.47 57.0263H119.04L119.42 56.977L119.8 57.0757L120.18 57.2237L120.37 57.3717L120.75 57.5197H121.13L121.51 57.3717L121.7 57.2237L122.08 57.1743H122.84H123.22H123.79H124.17L124.74 57.125L124.93 57.0263L125.5 56.977L126.07 56.9276L126.64 56.977L127.21 57.0263H127.97L128.35 57.125H128.73L129.11 57.2237L129.68 57.273L130.25 57.3717H130.63L131.01 57.2237L131.2 57.125L131.58 57.0263L131.873 56.977L132.34 56.8289L132.72 56.7796H133.29H133.67L134.24 56.8289L134.62 56.9276L135.19 56.977L135.76 57.0263H136.238L136.52 56.977L137.09 57.0757L137.28 57.125L137.47 57.2237L137.85 57.273L138.23 57.1743L138.61 57.125H138.99H139.37L139.75 57.1743L139.94 57.2237H140.32L140.7 57.1743H141.08L141.46 57.2237H141.84L142.22 57.1743L142.41 57.125L142.79 57.0263L143.17 56.977L143.55 56.9276L143.93 56.977L144.12 57.0757L144.69 57.125L145.07 57.1743L145.45 57.2237L146.02 57.1743L146.21 57.125L146.59 57.0757L147.16 57.0263L147.54 56.977L148.11 56.9276L148.3 56.8289L148.49 56.7303L148.68 56.6809L149.06 56.7303L149.44 56.7796L149.63 56.5822L149.82 56.4342L150.01 56.3355L150.2 56.2368L150.39 56.1382L150.58 55.9901L150.77 55.8914L150.96 55.7434L151.15 55.6447L151.34 55.4967L151.53 55.4474L152.1 55.4967L152.48 55.4474L152.86 55.2993L153.24 55.2007L153.62 55.102V55.0033L154 54.9046L154.38 54.9539L154.76 55.0033H155.33H155.71L156.09 54.9539L156.66 54.9046L157.04 55.0033L157.42 55.102L157.8 55.1513L158.37 55.0526L158.56 54.8553L158.75 54.7566L158.94 54.6086L159.32 54.4605H159.7L160.27 54.5592L160.46 54.6579L161.03 54.7566L161.6 54.8553L161.79 55.0033L161.98 55.102V55.25L162.17 55.398V55.5954V55.6941L162.36 55.8421V55.9901L162.55 56.1382V56.2862L162.74 56.3849V56.5329V56.6316L162.93 56.7303L163.12 56.8783V57.0263V57.2237L163.5 57.4211V57.5691L163.88 57.4704C163.88 57.4211 163.88 57.3125 163.88 57.273C163.88 57.2336 164.007 57.1579 164.07 57.125V56.9276L164.26 56.8289L164.64 56.7796L165.21 56.8289L165.59 56.8783L165.78 56.977L166.16 57.0263L166.54 57.125L166.73 57.2237L166.92 57.273H167.3L167.49 57.1743L167.68 57.125L167.87 57.0757H168.06L168.44 57.0263H168.82L169.01 57.125L169.39 57.1743L169.58 57.2237L170.15 57.273H170.53H170.91H171.29L171.48 57.2237H171.86H172.05L172.43 57.273L172.62 57.3717L172.81 57.4704L173 57.6184L173.19 57.6678L173.38 57.7664L173.76 57.8651H174.14L174.52 57.7664L174.9 57.7171L175.09 57.6184L175.28 57.5691L175.66 57.4704L175.85 57.4211L176.23 57.3224H176.61L176.99 57.273H177.37H177.94L178.32 57.3224L178.7 57.3717H179.27L179.65 57.4704H180.03L180.41 57.273L180.6 57.125L180.79 56.977L180.98 56.8289L181.17 56.7796L181.74 56.7303L182.12 56.6809H182.5L182.88 56.7303H183.26L183.64 56.7796L184.02 56.8289L184.21 56.9276H184.4L184.78 56.8289L185.16 56.7303H185.35L185.54 56.7796L185.92 56.8289L186.3 56.8783C186.363 56.8783 186.528 56.8783 186.68 56.8783C186.832 56.8783 187.123 56.8783 187.25 56.8783L187.44 56.9276L187.82 56.977L188.39 56.9276L188.58 56.8289L189.15 56.7796H189.72L190.29 56.8289H191.24L191.81 56.7796L192.38 56.6809L192.57 56.5822L192.95 56.4342H193.52L194.09 56.5329L194.28 56.6316L194.66 56.7303L195.04 56.8289V56.9276L195.23 57.0263L195.42 57.125L195.61 57.2237L195.8 57.3224V57.3717H196.56L197.13 57.3224H197.51H197.89L198.08 57.3717H198.46L198.84 57.273L199.22 57.1743L199.6 57.125L199.98 57.0757H200.36H200.93H201.5H201.88L202.64 57.0263L203.21 56.9276L203.59 56.977L203.97 57.0757L204.35 57.125L204.92 57.2237H205.3H206.25H206.63H207.01H207.77H207.96H208.53H209.1L209.48 57.1743L210.24 57.0757H210.502H211L211.38 57.0263L211.76 56.9276L212.14 56.8289L212.52 56.7796H213.09L213.47 56.8289H214.04L214.23 56.7796L214.61 56.7303L215.37 56.6316L215.56 56.5329L216.13 56.4342L216.51 56.3355L216.89 56.2368H217.46L217.65 56.0888L218.03 55.9408L218.22 55.7928L218.6 55.7434L219.17 55.6941L219.55 55.5461L219.74 55.3487V55.25L219.93 55.102L220.12 54.9539L220.5 54.8553L221.45 54.8059L222.02 54.7072L222.59 54.6086H223.16L223.54 54.6579L223.92 54.7566L224.3 54.8059L224.68 54.8553L225.06 54.7072L225.25 54.5592L225.44 54.4605L225.82 54.3125L226.01 54.1645L226.2 54.0164H226.58L226.96 54.0658L227.53 54.1151L228.1 54.0658L228.48 53.9671L229.05 54.0164L229.141 54.1645L229.43 54.3125L229.62 54.4112L230 54.2632L230.19 54.1151L230.57 54.0658L230.95 54.1151L231.33 54.1645L231.71 54.1151L232.09 54.0658H232.47L232.85 54.1151L233.04 54.1645L233.42 54.0658L233.61 53.9671L233.8 53.8684H234.18L234.456 53.9671L234.75 54.1151L234.94 54.1645L235.257 54.2632L235.7 54.0658L236.08 53.9178L236.27 53.7697L236.46 53.6217L236.65 53.5724H237.03L237.41 53.6711L237.98 53.6217L238.36 53.5724L238.74 53.523L239.12 53.5724L239.394 53.6217H239.69L240.07 53.7204H240.45L240.64 53.7697L241.02 53.6711L241.21 53.6217L241.59 53.523L241.78 53.4243L242.35 53.4737L242.73 53.5724L242.92 53.6711L243.11 53.8191L243.3 53.9671L243.49 54.1151L243.68 54.2138L244.06 54.3125L244.44 54.4112L244.82 54.3618L245.2 54.3125L245.39 54.2138L245.96 54.3125L246.53 54.4112L246.91 54.4605L247.29 54.3125L247.67 54.1645L247.86 54.0164L248.05 53.8684L248.24 53.7697L248.43 53.6217V53.523L248.62 53.375L248.81 53.2763H249.19L249.57 53.375L249.95 53.2763L250.33 53.1283L250.71 53.0296H251.28L251.66 53.0789L252.04 53.1283L252.539 53.0789L252.8 52.9309H253.18L253.37 52.9803L253.75 53.1283L254.13 53.227L254.51 53.2763L254.89 53.3257L255.341 53.2763H255.65L256.03 53.3257L256.22 53.4243L256.41 53.523L256.79 53.5724L256.98 53.375L257.17 53.2763L257.36 53.1776L257.74 53.0789L257.93 52.9309L258.31 52.7829L258.5 52.6842L258.88 52.5362L259.26 52.4868H259.83L260.02 52.5362L260.21 52.3882L260.59 52.2895L260.78 52.1414L261.16 52.0921L261.73 52.1908L261.92 52.2401L262.3 52.3882L262.49 52.5362V52.6349L262.68 52.7336L263.25 52.7829H263.63L264.2 52.7336H264.96H265.53H265.91L266.29 52.7829L266.67 52.8322L266.86 52.9309L267.05 53.0296L267.24 53.1283L267.43 53.2763L267.62 53.4243L267.81 53.5724L268 53.6711L268.38 53.6217L268.76 53.5724L269.14 53.4737L269.442 53.375L269.52 53.2763L269.71 53.1776V53.0789L269.9 52.9309V52.7336L270.09 52.5855L270.28 52.4375L270.47 52.2895L270.66 52.1908L270.85 52.0921L271.04 51.9441L271.23 51.8454L271.61 51.6974L271.8 51.5987L272.18 51.5493L272.56 51.5987L272.75 51.6974L272.94 51.7961L273.32 51.8454L273.7 51.7467L274.08 51.648L274.27 51.5L274.46 51.3026L274.65 51.1546L275.03 51.0066L275.22 50.9079L275.41 50.8092L275.79 50.7105H276.17L276.55 50.7599L277.12 50.8586L277.31 50.9079H277.69L278.07 50.8092L278.26 50.7105L278.45 50.6612L278.83 50.7105L279.02 50.8092L279.21 50.9079L279.4 50.9572L279.78 50.9079L279.97 50.8092L280.35 50.7105L280.73 50.6612L280.92 50.7599L281.3 50.8092L281.49 50.8586H281.87L282.06 50.8092L282.44 50.7599L282.82 50.7105L283.2 50.7599H283.58L283.96 50.7105L284.34 50.6612L284.72 50.6118L285.1 50.5625L285.48 50.5132L286.05 50.3651H286.43L287 50.3158H287.38L287.95 50.3651L288.33 50.4145L288.71 50.4638H289.09L289.47 50.3651L289.85 50.2664V50.1184L290.04 49.9704L290.23 49.8224L290.42 49.6743L290.61 49.625H291.18H291.75L292.32 49.7237L292.7 49.8224L293.08 49.8717L293.84 49.9211L294.41 49.8717L294.98 49.8224L295.36 49.625L295.74 49.477L296.31 49.5263L296.88 49.5757L297.45 49.477L297.64 49.2796V49.0822V48.9342L297.83 48.7368L298.02 48.4901V48.3421L298.21 48.1941L298.4 47.9967L298.59 47.898L299.35 47.8487H299.92H300.49H301.25H301.63H302.2L302.39 47.75L302.77 47.7007V47.7993L302.96 47.898L303.15 48.0461V48.1941L303.34 48.3914V48.5395L303.53 48.6382V48.7368L303.72 48.8355H304.29H304.67L304.86 49.0329L305.05 49.1809L305.24 49.3783L305.43 49.5263H305.81L306.19 49.477L306.57 49.4276L306.95 49.3783L307.33 49.4276L307.71 49.477L308.28 49.4276L308.47 49.2796L308.85 49.1809L309.04 49.0329L309.42 48.9342L309.8 48.8355L310.37 48.8849L310.75 48.9342L311.13 48.9836H311.7L312.08 48.8849L312.46 48.8355L312.84 48.9342L313.22 48.9836L313.41 49.0822L313.79 49.1809L314.17 49.2303L314.55 49.1316L314.93 49.0329L315.31 48.8849L315.5 48.7368L315.88 48.6382L316.45 48.7368L316.83 48.8355L317.02 48.6875L317.21 48.5395L317.4 48.3421L317.59 48.1941L317.78 47.9967V47.8487L318.16 48.0954L318.35 48.2434L318.54 48.3914L318.92 48.4901L319.49 48.6382L320.06 48.7368H320.44H321.01H321.58L321.96 48.8355L322.34 48.8849L322.72 48.9836L323.1 48.8355L323.48 48.6875H324.24H324.62L325.19 48.6382L325.57 48.5395L326.14 48.3914L326.52 48.2928L327.09 48.2434L327.28 48.3914L327.47 48.5888L327.66 48.7862L327.85 48.9836L328.23 49.1316H328.8L329.37 49.0822L329.94 48.9836L330.51 48.8849H331.08H331.46L331.84 48.8355L332.22 48.6875L332.41 48.5888L332.6 48.4408L332.79 48.3421L333.17 48.2434L333.55 48.3421L333.74 48.4408L333.93 48.5395L334.12 48.6382L334.5 48.5888L334.69 48.4408L335.07 48.3421L335.26 48.2434L335.64 48.0954L336.02 47.9967L336.4 47.8487L336.78 47.75V47.602L336.97 47.5033L337.16 47.3553V47.2072L337.54 47.1086L338.11 47.2072H338.68L339.06 47.0592H339.44L340.01 47.1579H340.58H340.96L341.34 46.9605L341.72 46.8125L342.1 46.7138H342.67L343.24 46.7632L343.62 46.9112L344 47.0592L344.19 47.2072L344.38 47.3553L344.76 47.2072V46.9605L345.14 46.8125L345.33 46.7138L345.71 46.8618L346.09 46.9605L346.47 47.0099L347.04 46.9605H347.61L347.99 47.0592L348.18 47.2072L348.37 47.3553L348.75 47.5526L348.94 47.7007L349.32 47.7993L349.89 47.8487H350.27L350.84 47.9474L351.41 48.0954L351.98 47.9474L352.36 47.8487L352.74 47.7993H353.31H353.69L354.26 47.8487L354.83 47.9474H355.4L355.78 47.8487L356.16 47.75L356.73 47.5526L357.11 47.3553L357.3 47.1579L357.49 46.9605L357.68 46.7632L357.87 46.5658L358.06 46.3684V46.1711L358.25 45.9243L358.63 45.9737L359.01 46.0724L359.39 46.1217L359.77 46.0724L359.96 45.9737L360.34 46.023L360.91 46.0724L361.29 46.023L361.48 45.9243L361.86 45.8257L362.24 45.9243L362.62 46.023L362.81 46.1217L363.19 46.023L363.57 45.9737L363.76 46.1217L364.14 46.2697L364.33 46.3684L364.71 46.3191L365.09 46.1711L365.28 46.023L365.47 45.875L365.66 45.727L365.85 45.5296L366.04 45.3816L366.23 45.1842H366.8H367.37L367.75 45.0855L368.13 44.9868L368.51 44.8882L368.89 44.8388L369.65 44.9375L370.03 45.0362L370.22 45.1842L370.6 45.3322L370.79 45.4803L370.98 45.6283L371.17 45.7763H371.74L372.12 45.6283L372.69 45.5296L373.26 45.5789H373.83L374.4 45.5296L374.97 45.4309L375.54 45.3816H376.11L376.49 45.3322L376.87 45.1349V44.9375V44.7401L377.06 44.5921L377.25 44.3947V44.2467L377.63 44L378.01 44.2467L378.2 44.3947L378.39 44.4934L378.77 44.5921H379.34L379.91 44.6414H380.48L381.24 44.7401H381.81L382.19 44.8388L382.76 44.9375L383.33 44.8882H383.9L384.28 44.7895L384.66 44.9375L384.85 45.0855L385.23 45.1349L385.61 45.0855L385.8 44.9868L385.99 44.8388L386.37 44.9375L386.75 45.0362L386.94 45.1349L387.32 45.1842L387.7 45.1349L388.08 45.0362L388.65 44.9868L389.22 44.8882H389.6L389.98 44.8388L390.36 44.7401L390.93 44.6908L391.69 44.6414H392.26L392.64 44.6908L393.21 44.7401H393.78H394.16L394.54 44.8388L394.92 44.9375L395.3 44.9868L395.87 45.0362L397.01 44.9868H397.96H398.72H399.1L399.67 44.7895L400.05 44.6908L400.81 44.5921H401.57H402.33L403.09 44.4934L404.04 44.5921H404.99H405.75L406.32 44.7895L406.89 44.9868L407.27 45.1842V45.4803L407.65 45.727L408.03 45.9737L408.22 46.2204L408.98 46.3191L409.55 46.2204L410.5 46.1217L411.26 46.2204L411.83 46.3191L412.4 46.3684L412.78 46.2204L413.16 46.1217L413.54 46.023L413.92 46.1217L414.3 46.1711L414.68 46.2204H415.06H415.44L416.01 46.1711L416.2 46.023L416.96 45.9243L417.72 45.8257V45.6283L417.91 45.4309L418.1 45.2336L418.29 45.0855L418.48 44.9375L418.86 45.0362L419.24 45.1349L419.62 45.1842H420" stroke="#8EE8E2" stroke-linecap="round"/>
</g>
<defs>
<linearGradient id="paint0_linear_102_2221" x1="211" y1="2" x2="211" y2="60" gradientUnits="userSpaceOnUse">
<stop stop-color="#1C3131"/>
<stop offset="1" stop-color="#1C3131" stop-opacity="0"/>
</linearGradient>
<clipPath id="clip0_102_2221">
<rect width="420" height="60" fill="white"/>
</clipPath>
</defs>
</svg>
