<svg width="383" height="34" viewBox="0 0 383 34" fill="none" xmlns="http://www.w3.org/2000/svg">
<g clip-path="url(#clip0_102_2832)">
<path d="M0.348182 9.63608L0 9.73101V36H383V1.13924H382.652L382.304 1.09177L381.955 0.996835L381.607 0.901899L381.433 1.0443L381.259 1.18671L381.085 1.37658L380.911 1.56646V1.75633L380.215 1.85127L379.518 1.9462L379.344 2.08861L378.822 2.13608H378.474H378.125L377.777 2.08861L377.429 2.04114L377.081 1.9462L376.733 2.04114L376.385 2.13608L376.036 2.27848L375.514 2.23101L374.992 2.13608L374.295 2.04114L373.425 2.13608L372.903 2.23101L372.206 2.13608L372.032 1.89873L371.684 1.66139L371.336 1.42405V1.13924L370.988 0.949367L370.465 0.759494L369.943 0.56962H369.247H368.376L367.506 0.474684L366.81 0.56962H366.113H365.417L364.72 0.664557L364.372 0.759494L363.85 0.949367H363.502H362.805H361.935L360.89 0.996835L360.368 0.949367L360.02 0.901899L359.672 0.806962L359.324 0.712025H358.975H358.453L357.931 0.664557L357.583 0.617089H357.06L356.364 0.664557L355.842 0.712025L355.494 0.806962L355.145 0.85443H354.797L354.275 0.949367L353.753 0.996835L353.405 1.09177L353.056 1.13924L352.708 1.09177L352.534 0.996835L352.186 0.901899L351.838 0.806962L351.664 0.949367L351.49 1.0443L351.141 1.09177L350.793 1.0443L350.619 0.901899L350.271 0.759494L349.923 0.85443H349.4L348.878 0.901899L348.356 0.806962L348.008 0.712025H347.485L346.789 0.617089H346.267L345.745 0.56962H345.222L344.874 0.474684L344.7 0.379747L344.526 0.237342L344.178 0L343.83 0.237342V0.379747L343.655 0.56962L343.481 0.712025V0.901899V1.09177L343.133 1.28165L342.785 1.32911H342.263L341.74 1.37658L341.218 1.47152L340.696 1.51899H340.174L339.651 1.47152L339.129 1.56646L338.781 1.70886H338.259L338.085 1.56646L337.91 1.42405L337.736 1.28165L337.388 1.13924L337.214 0.996835L336.866 0.901899L336.17 0.806962L335.821 0.85443L335.473 0.949367L335.125 1.0443L334.777 1.13924H334.255H333.732L333.558 1.32911L333.384 1.47152L333.21 1.66139L333.036 1.8038L332.862 1.9462L332.688 2.08861L332.34 2.23101L331.991 2.27848L331.817 2.18354L331.469 2.04114L331.295 1.89873L330.947 1.9462L330.599 2.04114L330.425 1.9462L330.076 1.85127L329.728 1.75633L329.38 1.85127L329.206 1.9462L328.858 1.99367L328.335 1.9462L327.987 1.89873L327.813 1.99367L327.465 2.04114L327.117 1.99367L326.769 1.89873L326.42 1.85127L326.246 2.08861V2.27848L326.072 2.46835L325.898 2.65823L325.724 2.8481L325.55 3.03797L325.376 3.22785L325.028 3.41772L324.505 3.60759L324.157 3.70253L323.809 3.79747H323.287L322.765 3.70253L322.242 3.65506H321.894H321.372L321.024 3.70253L320.675 3.79747L320.153 3.93987L319.631 3.79747L319.109 3.70253H318.76L318.238 3.65506L317.89 3.56013L317.716 3.41772L317.368 3.22785L317.194 3.08544L317.02 2.94304L316.671 2.8481H316.149L315.627 2.89557L315.279 2.8481L314.93 2.75316L314.582 2.61076L314.408 2.7057L314.06 2.8481V3.08544L313.712 3.22785L313.538 3.08544L313.364 2.94304L313.015 2.80063L312.667 2.65823L312.145 2.61076H311.623L311.275 2.7057L310.926 2.8481L310.578 3.03797H310.23H309.708L309.185 2.94304H308.837L308.489 3.08544H307.967L307.445 2.99051L307.096 3.08544V3.22785L306.922 3.37025L306.748 3.46519V3.60759L306.4 3.70253L306.052 3.84494L305.704 3.93987L305.355 4.08228L305.181 4.17722L304.833 4.27215L304.659 4.41456L304.311 4.46203L304.137 4.36709L303.963 4.27215L303.789 4.17722L303.44 4.08228L303.092 4.17722L302.918 4.27215L302.744 4.41456L302.57 4.50949L302.222 4.6519L301.874 4.69937H301.525H301.003L300.481 4.7943L299.959 4.88924L299.436 4.93671H298.914L298.566 4.7943L298.392 4.60443L298.218 4.41456L298.044 4.22468L297.87 4.08228L297.347 4.12975L296.999 4.22468L296.477 4.36709L296.129 4.46203L295.606 4.50949H295.258H294.562L294.214 4.6519L293.865 4.7943L293.517 4.69937L293.169 4.6519L292.821 4.55696H292.299H291.776H291.428L290.906 4.46203L290.384 4.31962L290.035 4.22468L289.861 4.08228L289.687 3.93987L289.339 3.70253V3.84494L289.165 4.03481L288.991 4.17722L288.817 4.36709L288.643 4.50949L288.469 4.6519L288.12 4.55696L287.598 4.46203L287.25 4.55696L287.076 4.69937L286.728 4.84177L286.38 4.93671L286.031 5.03165L285.683 4.98418L285.335 4.88924L285.161 4.7943L284.813 4.74684L284.465 4.6519L284.116 4.69937L283.768 4.7943H283.246L282.898 4.74684L282.55 4.69937L282.027 4.6519L281.679 4.74684L281.331 4.84177L281.157 4.98418L280.809 5.07911L280.635 5.22152L280.112 5.26899L279.764 5.22152L279.416 5.17405L279.068 5.22152L278.72 5.26899L278.371 5.31646H278.023L277.849 5.17405L277.675 4.98418L277.501 4.84177L277.327 4.6519H276.979H276.456L276.282 4.55696V4.46203L276.108 4.36709V4.22468L275.934 4.03481V3.89241L275.76 3.75L275.586 3.65506V3.56013L275.238 3.60759L275.064 3.70253H274.541H274.193H273.497H272.975H272.452L271.756 3.75L271.582 3.84494L271.408 4.03481L271.234 4.17722V4.31962L271.06 4.55696L270.885 4.74684V4.88924V5.07911L270.711 5.26899L270.189 5.36392L269.667 5.31646L269.145 5.26899L268.796 5.41139L268.448 5.60127L267.926 5.64873L267.404 5.6962L266.707 5.64873L266.359 5.60127L266.011 5.50633L265.489 5.41139H264.966H264.444L264.27 5.45886L264.096 5.60127L263.922 5.74367L263.748 5.88608V6.02848L263.4 6.12342L263.051 6.21835H262.703L262.355 6.17089L262.007 6.12342L261.485 6.07595H261.136L260.614 6.12342H260.266L259.744 6.26582L259.395 6.31329L259.047 6.36076L258.699 6.40823L258.351 6.4557L258.003 6.50316H257.655L257.306 6.4557L256.958 6.50316L256.61 6.55063L256.436 6.5981H256.088L255.914 6.55063L255.565 6.50316L255.391 6.40823L255.043 6.4557L254.695 6.55063L254.521 6.64557L254.173 6.69304L253.999 6.64557L253.825 6.55063L253.65 6.4557L253.302 6.40823L253.128 6.4557L252.954 6.55063L252.606 6.64557H252.258L252.084 6.5981L251.561 6.50316L251.213 6.4557H250.865L250.517 6.55063L250.343 6.64557L250.169 6.74051L249.82 6.88291L249.646 7.02532L249.472 7.21519L249.298 7.35759L248.95 7.45253L248.602 7.54747L248.254 7.5L248.08 7.40506L247.905 7.31013L247.557 7.26266L247.209 7.31013L247.035 7.40506L246.687 7.54747L246.513 7.64241L246.339 7.78481L246.165 7.87975L245.99 7.97468L245.816 8.11709L245.642 8.25949L245.468 8.4019V8.59177L245.294 8.73418V8.82911L245.12 8.92405L245.048 9.01899L244.772 9.11392L244.424 9.20886L244.075 9.25633L243.727 9.3038L243.553 9.20886L243.379 9.06646L243.205 8.92405L243.031 8.78165L242.857 8.68671L242.683 8.59177L242.509 8.49683L242.16 8.44937L241.812 8.4019H241.464H240.942H240.245L239.723 8.44937H239.375L238.853 8.4019L238.679 8.30696V8.21202L238.505 8.06962L238.156 7.92722L237.982 7.87975L237.46 7.78481L237.112 7.83228L236.938 7.97468L236.59 8.06962L236.415 8.21202L236.241 8.16456H235.719L235.371 8.21202L235.023 8.35443L234.849 8.44937L234.5 8.59177L234.326 8.73418L233.978 8.82911L233.804 8.92405L233.63 9.01899L233.456 9.20886L233.108 9.16139L232.934 9.06646L232.76 8.97152L232.411 8.92405H232.128L231.715 8.97152L231.367 8.92405L231.019 8.87658L230.67 8.78165L230.322 8.63924L230.148 8.59177H229.8L229.56 8.73418L229.104 8.78165L228.755 8.73418L228.407 8.68671H227.885L227.537 8.78165L227.189 8.92405L226.84 9.01899L226.492 8.92405H226.144L225.97 9.01899L225.796 9.16139V9.25633L225.622 9.39873L225.448 9.49367L225.274 9.63608L225.1 9.77848L224.751 9.92089L224.403 10.0633L224.055 10.0158L223.533 9.92089L223.01 9.82595L222.836 9.92089L222.488 9.96835L222.14 10.0158L221.792 9.92089L221.444 9.82595L221.27 9.73101L221.095 9.58861L220.921 9.4462L220.747 9.3038L220.573 9.20886L220.225 9.11392L219.703 9.06646L219.529 9.16139L219.18 9.25633L219.006 9.3038L218.658 9.39873L218.484 9.35127H218.136L217.788 9.25633H217.516L217.265 9.20886L216.917 9.16139L216.569 9.20886L216.221 9.25633L215.699 9.3038L215.35 9.20886H215.002L214.828 9.25633L214.654 9.39873L214.48 9.54114L214.132 9.68354L213.726 9.87342L213.435 9.77848L213.261 9.73101L212.992 9.58861L212.739 9.49367H212.391L212.217 9.58861L212.043 9.68354L211.695 9.77848L211.52 9.73101L211.172 9.68354H210.824L210.476 9.73101L210.128 9.77848L209.78 9.73101L209.431 9.68354L209.083 9.73101L208.909 9.87342L208.561 10.0158L208.387 9.92089L208.122 9.77848L208.039 9.63608L207.516 9.58861L207.168 9.68354L206.646 9.73101L206.124 9.68354L205.775 9.63608H205.427L205.253 9.77848L205.079 9.92089L204.731 10.0633L204.557 10.1582L204.383 10.3006L204.035 10.443L203.686 10.3956L203.338 10.3481L202.99 10.2532L202.642 10.2057H202.12L201.597 10.3006L201.075 10.3956L200.205 10.443L199.856 10.538L199.682 10.6804L199.508 10.8228V10.9177L199.334 11.1076L198.986 11.25L198.464 11.2975L198.115 11.3449L197.941 11.4873L197.593 11.6297L197.419 11.7722H196.897L196.549 11.8671L196.2 11.962L195.678 12.057L195.504 12.1519L194.808 12.2468L194.46 12.2943L194.285 12.3418H193.763L193.415 12.2943H192.893L192.545 12.3418L192.196 12.4367L191.848 12.5316L191.5 12.5791H191.044H190.804L190.107 12.6741L189.759 12.7215H189.237H188.715H188.54H187.844H187.496H187.148H186.277H185.929L185.407 12.6266L185.059 12.5791L184.71 12.4842L184.362 12.4367L183.84 12.5316L183.144 12.5791H182.795H182.273H181.751H181.403L181.055 12.6266L180.706 12.6741L180.358 12.769L180.01 12.8639H179.662L179.488 12.8165H179.14H178.791L178.269 12.8639H177.573V12.8165L177.399 12.7215L177.225 12.6266L177.05 12.5316L176.876 12.4367V12.3418L176.528 12.2468L176.18 12.1519L176.006 12.057L175.484 11.962H174.961L174.613 12.1044L174.439 12.1994L173.917 12.2943L173.395 12.3418H172.524L172.002 12.2943H171.48L170.957 12.3418L170.783 12.4367L170.261 12.4842L169.913 12.4367L169.739 12.3892H169.216H168.868L168.52 12.3418L168.172 12.2943L167.998 12.2468H167.824L167.475 12.3418L167.127 12.4367H166.953L166.779 12.3418L166.431 12.2943L166.083 12.2468H165.735L165.386 12.1994H165.038L164.69 12.2468L164.168 12.2943L163.994 12.3418L163.82 12.4842L163.645 12.6266L163.471 12.769L163.123 12.9589H162.775L162.427 12.8639H161.905L161.556 12.8165L161.208 12.769H160.686H160.338L159.99 12.8165H159.641L159.293 12.9114L159.119 12.9589L158.771 13.0538L158.597 13.1013L158.423 13.1962L158.075 13.2437L157.726 13.3386H157.378L157.03 13.2437L156.856 13.1487L156.682 13.1013L156.508 12.9589L156.334 12.8639L156.16 12.769L155.811 12.7215H155.637H155.289L155.115 12.769H154.767H154.419H154.07L153.548 12.7215L153.374 12.6741L153.026 12.6266L152.852 12.5316H152.504L152.155 12.5791H151.981L151.807 12.6266L151.633 12.6741L151.459 12.769H151.111L150.937 12.7215L150.763 12.6266L150.415 12.5316L150.066 12.4842L149.892 12.3892L149.544 12.3418L149.022 12.2943L148.674 12.3418L148.5 12.4367V12.6266C148.442 12.6582 148.325 12.731 148.325 12.769V12.9589L147.977 13.0538V12.9114L147.629 12.7215V12.5316V12.3892L147.455 12.2468L147.281 12.1519V12.057V11.9146L147.107 11.8196V11.6772L146.933 11.5348V11.3924L146.759 11.25V11.1551V10.9652L146.585 10.8228V10.6804L146.41 10.5854L146.236 10.443L145.714 10.3481L145.192 10.2532L145.018 10.1582L144.495 10.0633H144.147L143.799 10.2057L143.625 10.3481L143.451 10.443L143.277 10.6329L142.755 10.7278L142.406 10.6804L142.058 10.5854L141.71 10.4905L141.188 10.538L140.84 10.5854H140.491H139.969L139.621 10.538L139.273 10.4905L138.925 10.5854V10.6804L138.576 10.7753L138.228 10.8703L137.88 11.0127L137.532 11.0601L137.01 11.0127L136.835 11.0601L136.661 11.2025L136.487 11.2975L136.313 11.4399L136.139 11.5348L135.965 11.6772L135.791 11.7722L135.617 11.8671L135.443 11.962L135.269 12.1044L135.095 12.2943L134.746 12.2468L134.398 12.1994L134.224 12.2468L134.05 12.3418L133.876 12.4367L133.354 12.4842L133.005 12.5316L132.483 12.5791L132.135 12.6266L131.961 12.6741L131.439 12.7215L131.09 12.6741L130.742 12.6266L130.22 12.5791L130.046 12.4842L129.698 12.4367L129.35 12.4842L129.001 12.5316L128.653 12.6266L128.479 12.6741L128.131 12.7215H127.783L127.435 12.6741H127.086L126.738 12.7215H126.39L126.216 12.6741L125.868 12.6266H125.52H125.171L124.823 12.6741L124.475 12.769L124.127 12.7215L123.953 12.6266L123.779 12.5791L123.256 12.4842L122.998 12.5316H122.56L122.038 12.4842L121.515 12.4367L121.167 12.3418L120.645 12.2943H120.297H119.775L119.426 12.3418L118.999 12.4842L118.73 12.5316L118.382 12.6266L118.208 12.7215L117.86 12.8639H117.511L116.989 12.769L116.467 12.7215L116.119 12.6266H115.77L115.422 12.5316H114.726L114.204 12.4842L113.681 12.4367L113.159 12.4842L112.637 12.5316L112.463 12.6266L111.94 12.6741H111.592H111.07H110.722H110.025L109.677 12.7215L109.503 12.8639L109.155 13.0063H108.807L108.459 12.8639L108.285 12.7215L107.936 12.5791L107.588 12.4842L107.24 12.5316H106.718L106.37 12.4367L106.195 12.3418V12.1994L106.021 12.1044L105.847 11.962L105.499 12.0095L104.977 11.962L104.455 11.8671L104.106 11.7722L104.019 11.6297L103.932 11.4873L103.758 11.3449V11.25L103.41 11.1076L103.236 11.0601L103.062 11.1551L102.714 11.25L102.54 11.1551L102.365 11.0601V10.9652L102.191 10.8228V10.7278L102.017 10.6329V10.538L101.843 10.443L101.495 10.3956L101.147 10.3481L100.799 10.2532L100.45 10.2057H100.102L99.9282 10.2532L99.7541 10.3956L99.4059 10.4905L99.1359 10.5854L98.8836 10.7278L98.5355 10.8228L98.3614 10.9177L98.0132 11.0127L97.8391 11.1076L97.4909 11.1551L97.3168 11.3449L96.9686 11.3924V11.2975L96.7945 11.2025L96.6205 11.1076L96.4464 11.0127L96.0982 10.9652L95.9241 11.0127L95.75 11.1551L95.4018 11.25L95.0536 11.2975L94.7055 11.3449H94.3573L93.835 11.2975H93.3127L92.7905 11.3449L92.4423 11.4399L92.0941 11.4873H91.7459H91.3977L90.8755 11.5348L90.5273 11.6297L90.3532 11.7247L90.1791 11.8671L90.005 12.0095H89.6568L89.3086 11.9146L88.9605 11.7722L88.6123 11.6772L88.2641 11.5823L88.09 11.4399V11.2975L87.9159 11.1551L87.7418 11.0601L87.5677 10.9177L87.3936 10.7753L87.2195 10.7278L86.6973 10.7753L86.3491 10.8228L86.0009 10.9177L85.4786 11.0127H85.3045H84.9564L84.4341 11.0601L84.0859 11.1551L83.7377 11.2025L83.3895 11.1551L83.2155 11.0601L82.8673 10.9177L82.6932 10.7753L82.5191 10.5854L82.345 10.443L82.1709 10.3481L81.9968 10.2057V10.0633V9.96835L81.6486 9.87342L81.3005 9.77848L80.9523 9.68354L80.6041 9.58861L80.2559 9.49367H79.9077H79.3855L79.0373 9.39873L78.6891 9.25633L78.3409 9.16139L77.8186 9.11392L77.4705 9.25633L77.1223 9.35127L76.9482 9.49367L76.6 9.58861L76.0777 9.63608L75.7295 9.77848L75.5555 9.96835L75.3814 10.1582L75.2073 10.3481L75.0332 10.538L74.8591 10.7278L74.685 10.6329L74.5109 10.538L74.3368 10.3956L73.8145 10.3481L73.4664 10.443L73.1182 10.5854L72.77 10.6804L72.4218 10.7278L72.0736 10.6804L71.8995 10.5854L71.5514 10.538L71.2032 10.6804L71.0291 10.8228L70.855 11.0601L70.5068 11.1076L70.1586 11.0127L69.7288 11.1076L69.2882 11.2025H68.94L68.5918 11.1076L68.2436 11.0127L67.8955 10.8703L67.3732 10.7753L66.8509 10.6804L66.3286 10.5854L65.8064 10.538L65.2841 10.5854L65.11 10.6804L64.9359 10.8228L64.7618 10.9652L64.4136 11.1076L64.2395 11.2975L64.0655 11.5348L63.8914 11.7247L63.7173 11.9146L63.5432 12.1044L63.195 12.1994L62.8468 12.1044L62.6727 12.0095L62.4986 11.9146L62.3245 11.7722L62.1505 11.6297L61.8023 11.4873H61.1059L60.7577 11.3449L60.0614 11.3924L59.7132 11.5348L59.0168 11.6297L58.6686 11.7722L58.1464 11.6772L57.7982 11.6297L57.2759 11.5348L57.1018 11.6297L56.9277 11.7722V11.9146L56.7536 12.1044V12.2943L56.5795 12.4367L56.4055 12.6266L55.8832 12.7215L55.535 12.8165L55.3609 13.0063L55.1868 13.1962L55.0127 13.3861L54.6645 13.5285L54.1423 13.7184L53.7941 13.9082L53.2718 14.0506L52.9236 14.193L52.5755 14.3829L52.2273 14.4304L51.8791 14.288L51.5309 14.193L51.3568 14.0506L51.0086 13.8608L50.6605 13.7184L50.1382 13.5759L49.4418 13.5285L48.7455 13.4335L48.2232 13.481L47.7009 13.6234L47.1786 13.7658L46.4823 13.8608L45.96 13.9557L45.6118 14.0981L45.2636 14.193L44.9155 14.3354L44.5673 14.4304H44.045H43.5227L43.3486 14.288L43.0005 14.1456L42.6523 14.2405H42.13L41.7818 14.1456L41.4336 14.0032L41.0855 13.9082L40.5632 13.8133L40.1184 13.7184L39.6927 13.6234L39.273 13.481L38.8223 13.4335L38.3 13.481L37.7777 13.5759L37.2555 13.6234L36.9073 13.7184H36.5591H36.2109L35.8627 13.6234L35.5145 13.5285L35.1664 13.6234L34.8182 13.7658L34.47 13.6234L34.1218 13.5285L33.7736 13.4335L33.2514 13.3861L32.9032 13.481L32.7291 13.6234L32.3809 13.7658L32.2068 13.6234L31.9463 13.5285L31.5105 13.4335L31.3364 13.2911L30.9882 13.4335L30.64 13.5285L30.2918 13.481L29.9436 13.3386L29.5955 13.2437V13.0538L29.2473 12.8639L29.0732 12.7215L28.8991 12.5316L28.725 12.3418L28.3768 12.1994L28.2027 12.057L28.0286 11.9146L27.8545 11.7722L27.6805 11.5823L27.5064 11.4399L27.3323 11.2975L27.1582 11.1551L26.9841 11.0127L26.81 10.9177V10.7753L26.4618 10.6329L26.2877 10.538L25.9395 10.443L25.4173 10.3956L25.0691 10.3006H24.7209H24.3727L24.0245 10.3956L23.6764 10.4905L23.3282 10.3956L22.98 10.3481L22.6318 10.3006H22.1095L21.9355 10.3956L21.5873 10.443L21.2391 10.3956L20.8909 10.3006L20.5427 10.2057L20.1945 10.1582L19.8464 10.1108L19.6723 10.0158L19.4982 9.92089L19.15 9.82595L18.9759 9.73101L18.8018 9.63608L18.4536 9.54114L18.1055 9.58861L17.9314 9.77848L17.7573 9.87342L17.5832 10.0633L17.4091 10.2057L17.0609 10.3006L16.7127 10.3956L16.3645 10.4905L16.0164 10.5854H15.4941L15.1459 10.4905L14.9718 10.3481L14.7977 10.2057L14.6236 10.0633V9.92089V9.77848L14.4495 9.63608L14.2755 9.54114L13.9273 9.4462L13.5791 9.35127L13.2309 9.3038H12.8827L12.5345 9.20886L12.3605 9.11392L12.0123 9.06646H11.6641L11.3159 9.16139L11.1418 9.25633L10.7936 9.35127L10.4455 9.4462L10.0973 9.39873L9.74909 9.3038L9.40091 9.25633L9.05273 9.3038H8.70455L8.53045 9.25633L8.35636 9.16139L8.18227 9.06646L8.00818 8.97152V8.82911L7.66 8.78165L7.31182 8.87658H6.96364L6.78955 8.82911L6.61545 8.73418L6.26727 8.68671H5.91909L5.745 8.78165L5.57091 8.87658H5.22273L4.87455 8.97152L4.52636 9.06646L4.17818 9.11392L3.83 9.20886L3.48182 9.3038L3.13364 9.35127H2.78545L2.43727 9.25633L2.08909 9.35127L1.74091 9.4462L1.39273 9.54114L1.04455 9.63608H0.696364H0.348182Z" fill="url(#paint0_linear_102_2832)"/>
<path d="M0 9.44079L0.348182 9.34868H0.696364H1.04455L1.39273 9.25658L1.74091 9.16447L2.08909 9.07237L2.43727 8.98026L2.78545 9.07237H3.13364L3.48182 9.02632L3.83 8.93421L4.17818 8.84211L4.52636 8.79605L4.87455 8.70395L5.22273 8.61184H5.57091L5.745 8.51974L5.91909 8.42763H6.26727L6.61545 8.47368L6.78955 8.56579L6.96364 8.61184H7.31182L7.66 8.51974L8.00818 8.56579V8.70395L8.18227 8.79605L8.35636 8.88816L8.53045 8.98026L8.70455 9.02632H9.05273L9.40091 8.98026L9.74909 9.02632L10.0973 9.11842L10.4455 9.16447L10.7936 9.07237L11.1418 8.98026L11.3159 8.88816L11.6641 8.79605H12.0123L12.3605 8.84211L12.5345 8.93421L12.8827 9.02632H13.2309L13.5791 9.07237L13.9273 9.16447L14.2755 9.25658L14.4495 9.34868L14.6236 9.48684V9.625V9.76316L14.7977 9.90132L14.9718 10.0395L15.1459 10.1776L15.4941 10.2697H16.0164L16.3645 10.1776L16.7127 10.0855L17.0609 9.99342L17.4091 9.90132L17.5832 9.76316L17.7573 9.57895L17.9314 9.48684L18.1055 9.30263L18.4536 9.25658L18.8018 9.34868L18.9759 9.44079L19.15 9.53289L19.4982 9.625L19.6723 9.71711L19.8464 9.80921L20.1945 9.85526L20.5427 9.90132L20.8909 9.99342L21.2391 10.0855L21.5873 10.1316L21.9355 10.0855L22.1095 9.99342H22.6318L22.98 10.0395L23.3282 10.0855L23.6764 10.1776L24.0245 10.0855L24.3727 9.99342H24.7209H25.0691L25.4173 10.0855L25.9395 10.1316L26.2877 10.2237L26.4618 10.3158L26.81 10.4539V10.5921L26.9841 10.6842L27.1582 10.8224L27.3323 10.9605L27.5064 11.0987L27.6805 11.2368L27.8545 11.4211L28.0286 11.5592L28.2027 11.6974L28.3768 11.8355L28.725 11.9737L28.8991 12.1579L29.0732 12.3421L29.2473 12.4803L29.5955 12.6645V12.8487L29.9436 12.9408L30.2918 13.0789L30.64 13.125L30.9882 13.0329L31.3364 12.8947L31.5105 13.0329L31.9463 13.125L32.2068 13.2171L32.3809 13.3553L32.7291 13.2171L32.9032 13.0789L33.2514 12.9868L33.7736 13.0329L34.1218 13.125L34.47 13.2171L34.8182 13.3553L35.1664 13.2171L35.5145 13.125L35.8627 13.2171L36.2109 13.3092H36.5591H36.9073L37.2555 13.2171L37.7777 13.1711L38.3 13.0789L38.8223 13.0329L39.273 13.0789L39.6927 13.2171L40.1184 13.3092L40.5632 13.4013L41.0855 13.4934L41.4336 13.5855L41.7818 13.7237L42.13 13.8158H42.6523L43.0005 13.7237L43.3486 13.8618L43.5227 14H44.045H44.5673L44.9155 13.9079L45.2636 13.7697L45.6118 13.6776L45.96 13.5395L46.4823 13.4474L47.1786 13.3553L47.7009 13.2171L48.2232 13.0789L48.7455 13.0329L49.4418 13.125L50.1382 13.1711L50.6605 13.3092L51.0086 13.4474L51.3568 13.6316L51.5309 13.7697L51.8791 13.8618L52.2273 14L52.5755 13.9539L52.9236 13.7697L53.2718 13.6316L53.7941 13.4934L54.1423 13.3092L54.6645 13.125L55.0127 12.9868L55.1868 12.8026L55.3609 12.6184L55.535 12.4342L55.8832 12.3421L56.4055 12.25L56.5795 12.0658L56.7536 11.9276V11.7434L56.9277 11.5592V11.4211L57.1018 11.2829L57.2759 11.1908L57.7982 11.2829L58.1464 11.3289L58.6686 11.4211L59.0168 11.2829L59.7132 11.1908L60.0614 11.0526L60.7577 11.0066L61.1059 11.1447H61.8023L62.1505 11.2829L62.3245 11.4211L62.4986 11.5592L62.6727 11.6513L62.8468 11.7434L63.195 11.8355L63.5432 11.7434L63.7173 11.5592L63.8914 11.375L64.0655 11.1908L64.2395 10.9605L64.4136 10.7763L64.7618 10.6382L64.9359 10.5L65.11 10.3618L65.2841 10.2697L65.8064 10.2237L66.3286 10.2697L66.8509 10.3618L67.3732 10.4539L67.8955 10.5461L68.2436 10.6842L68.5918 10.7763L68.94 10.8684H69.2882L69.7288 10.7763L70.1586 10.6842L70.5068 10.7763L70.855 10.7303L71.0291 10.5L71.2032 10.3618L71.5514 10.2237L71.8995 10.2697L72.0736 10.3618L72.4218 10.4079L72.77 10.3618L73.1182 10.2697L73.4664 10.1316L73.8145 10.0395L74.3368 10.0855L74.5109 10.2237L74.685 10.3158L74.8591 10.4079L75.0332 10.2237L75.2073 10.0395L75.3814 9.85526L75.5555 9.67105L75.7295 9.48684L76.0777 9.34868L76.6 9.30263L76.9482 9.21053L77.1223 9.07237L77.4705 8.98026L77.8186 8.84211L78.3409 8.88816L78.6891 8.98026L79.0373 9.11842L79.3855 9.21053H79.9077H80.2559L80.6041 9.30263L80.9523 9.39474L81.3005 9.48684L81.6486 9.57895L81.9968 9.67105V9.76316V9.90132L82.1709 10.0395L82.345 10.1316L82.5191 10.2697L82.6932 10.4539L82.8673 10.5921L83.2155 10.7303L83.3895 10.8224L83.7377 10.8684L84.0859 10.8224L84.4341 10.7303L84.9564 10.6842H85.3045H85.4786L86.0009 10.5921L86.3491 10.5L86.6973 10.4539L87.2195 10.4079L87.3936 10.4539L87.5677 10.5921L87.7418 10.7303L87.9159 10.8224L88.09 10.9605V11.0987L88.2641 11.2368L88.6123 11.3289L88.9605 11.4211L89.3086 11.5592L89.6568 11.6513H90.005L90.1791 11.5132L90.3532 11.375L90.5273 11.2829L90.8755 11.1908L91.3977 11.1447H91.7459H92.0941L92.4423 11.0987L92.7905 11.0066L93.3127 10.9605H93.835L94.3573 11.0066H94.7055L95.0536 10.9605L95.4018 10.9145L95.75 10.8224L95.9241 10.6842L96.0982 10.6382L96.4464 10.6842L96.6205 10.7763L96.7945 10.8684L96.9686 10.9605V11.0526L97.3168 11.0066L97.4909 10.8224L97.8391 10.7763L98.0132 10.6842L98.3614 10.5921L98.5355 10.5L98.8836 10.4079L99.1358 10.2697L99.4059 10.1776L99.7541 10.0855L99.9282 9.94737L100.102 9.90132H100.45L100.799 9.94737L101.147 10.0395L101.495 10.0855L101.843 10.1316L102.017 10.2237V10.3158L102.191 10.4079V10.5L102.365 10.6382V10.7303L102.54 10.8224L102.714 10.9145L103.062 10.8224L103.236 10.7303L103.41 10.7763L103.758 10.9145V11.0066L103.932 11.1447L104.019 11.2829L104.106 11.4211L104.455 11.5132L104.977 11.6053L105.499 11.6513L105.847 11.6053L106.021 11.7434L106.195 11.8355V11.9737L106.37 12.0658L106.718 12.1579H107.24L107.588 12.1118L107.936 12.2039L108.285 12.3421L108.459 12.4803L108.807 12.6184H109.155L109.503 12.4803L109.677 12.3421L110.025 12.2961H110.722H111.07H111.592H111.94L112.463 12.25L112.637 12.1579L113.159 12.1118L113.681 12.0658L114.204 12.1118L114.726 12.1579H115.422L115.77 12.25H116.119L116.467 12.3421L116.989 12.3882L117.511 12.4803H117.86L118.208 12.3421L118.382 12.25L118.73 12.1579L118.999 12.1118L119.426 11.9737L119.775 11.9276H120.297H120.645L121.167 11.9737L121.515 12.0658L122.038 12.1118L122.56 12.1579H122.998L123.256 12.1118L123.779 12.2039L123.953 12.25L124.127 12.3421L124.475 12.3882L124.823 12.2961L125.171 12.25H125.52H125.868L126.216 12.2961L126.39 12.3421H126.738L127.086 12.2961H127.435L127.783 12.3421H128.131L128.479 12.2961L128.653 12.25L129.001 12.1579L129.35 12.1118L129.698 12.0658L130.046 12.1118L130.22 12.2039L130.742 12.25L131.09 12.2961L131.439 12.3421L131.961 12.2961L132.135 12.25L132.483 12.2039L133.005 12.1579L133.354 12.1118L133.876 12.0658L134.05 11.9737L134.224 11.8816L134.398 11.8355L134.746 11.8816L135.095 11.9276L135.269 11.7434L135.443 11.6053L135.617 11.5132L135.791 11.4211L135.965 11.3289L136.139 11.1908L136.313 11.0987L136.487 10.9605L136.661 10.8684L136.835 10.7303L137.01 10.6842L137.532 10.7303L137.88 10.6842L138.228 10.5461L138.576 10.4539L138.925 10.3618V10.2697L139.273 10.1776L139.621 10.2237L139.969 10.2697H140.491H140.84L141.188 10.2237L141.71 10.1776L142.058 10.2697L142.406 10.3618L142.755 10.4079L143.277 10.3158L143.451 10.1316L143.625 10.0395L143.799 9.90132L144.147 9.76316H144.495L145.018 9.85526L145.192 9.94737L145.714 10.0395L146.236 10.1316L146.41 10.2697L146.585 10.3618V10.5L146.759 10.6382V10.8224V10.9145L146.933 11.0526V11.1908L147.107 11.3289V11.4671L147.281 11.5592V11.6974V11.7895L147.455 11.8816L147.629 12.0197V12.1579V12.3421L147.977 12.5263V12.6645L148.325 12.5724C148.325 12.5263 148.325 12.425 148.325 12.3882C148.325 12.3513 148.442 12.2807 148.5 12.25V12.0658L148.674 11.9737L149.022 11.9276L149.544 11.9737L149.892 12.0197L150.066 12.1118L150.415 12.1579L150.763 12.25L150.937 12.3421L151.111 12.3882H151.459L151.633 12.2961L151.807 12.25L151.981 12.2039H152.155L152.504 12.1579H152.852L153.026 12.25L153.374 12.2961L153.548 12.3421L154.07 12.3882H154.419H154.767H155.115L155.289 12.3421H155.637H155.811L156.16 12.3882L156.334 12.4803L156.508 12.5724L156.682 12.7105L156.856 12.7566L157.03 12.8487L157.378 12.9408H157.726L158.075 12.8487L158.423 12.8026L158.597 12.7105L158.771 12.6645L159.119 12.5724L159.293 12.5263L159.641 12.4342H159.99L160.338 12.3882H160.686H161.208L161.556 12.4342L161.905 12.4803H162.427L162.775 12.5724H163.123L163.471 12.3882L163.645 12.25L163.82 12.1118L163.994 11.9737L164.168 11.9276L164.69 11.8816L165.038 11.8355H165.386L165.735 11.8816H166.083L166.431 11.9276L166.779 11.9737L166.953 12.0658H167.127L167.475 11.9737L167.824 11.8816H167.998L168.172 11.9276L168.52 11.9737L168.868 12.0197C168.926 12.0197 169.077 12.0197 169.216 12.0197C169.356 12.0197 169.623 12.0197 169.739 12.0197L169.913 12.0658L170.261 12.1118L170.783 12.0658L170.957 11.9737L171.48 11.9276H172.002L172.524 11.9737H173.395L173.917 11.9276L174.439 11.8355L174.613 11.7434L174.961 11.6053H175.484L176.006 11.6974L176.18 11.7895L176.528 11.8816L176.876 11.9737V12.0658L177.05 12.1579L177.225 12.25L177.399 12.3421L177.573 12.4342V12.4803H178.269L178.791 12.4342H179.14H179.488L179.662 12.4803H180.01L180.358 12.3882L180.706 12.2961L181.055 12.25L181.403 12.2039H181.751H182.273H182.795H183.144L183.84 12.1579L184.362 12.0658L184.71 12.1118L185.059 12.2039L185.407 12.25L185.929 12.3421H186.277H187.148H187.496H187.844H188.54H188.715H189.237H189.759L190.107 12.2961L190.804 12.2039H191.044H191.5L191.848 12.1579L192.196 12.0658L192.545 11.9737L192.893 11.9276H193.415L193.763 11.9737H194.285L194.46 11.9276L194.808 11.8816L195.504 11.7895L195.678 11.6974L196.2 11.6053L196.549 11.5132L196.897 11.4211H197.419L197.593 11.2829L197.941 11.1447L198.115 11.0066L198.464 10.9605L198.986 10.9145L199.334 10.7763L199.508 10.5921V10.5L199.682 10.3618L199.856 10.2237L200.205 10.1316L201.075 10.0855L201.597 9.99342L202.12 9.90132H202.642L202.99 9.94737L203.338 10.0395L203.686 10.0855L204.035 10.1316L204.383 9.99342L204.557 9.85526L204.731 9.76316L205.079 9.625L205.253 9.48684L205.427 9.34868H205.775L206.124 9.39474L206.646 9.44079L207.168 9.39474L207.516 9.30263L208.039 9.34868L208.122 9.48684L208.387 9.625L208.561 9.71711L208.909 9.57895L209.083 9.44079L209.431 9.39474L209.78 9.44079L210.128 9.48684L210.476 9.44079L210.824 9.39474H211.172L211.52 9.44079L211.695 9.48684L212.043 9.39474L212.217 9.30263L212.391 9.21053H212.739L212.992 9.30263L213.261 9.44079L213.435 9.48684L213.726 9.57895L214.132 9.39474L214.48 9.25658L214.654 9.11842L214.828 8.98026L215.002 8.93421H215.35L215.699 9.02632L216.221 8.98026L216.569 8.93421L216.917 8.88816L217.265 8.93421L217.516 8.98026H217.788L218.136 9.07237H218.484L218.658 9.11842L219.006 9.02632L219.18 8.98026L219.529 8.88816L219.703 8.79605L220.225 8.84211L220.573 8.93421L220.747 9.02632L220.921 9.16447L221.095 9.30263L221.27 9.44079L221.444 9.53289L221.792 9.625L222.14 9.71711L222.488 9.67105L222.836 9.625L223.01 9.53289L223.533 9.625L224.055 9.71711L224.403 9.76316L224.751 9.625L225.1 9.48684L225.274 9.34868L225.448 9.21053L225.622 9.11842L225.796 8.98026V8.88816L225.97 8.75L226.144 8.65789H226.492L226.84 8.75L227.189 8.65789L227.537 8.51974L227.885 8.42763H228.407L228.755 8.47368L229.104 8.51974L229.56 8.47368L229.8 8.33553H230.148L230.322 8.38158L230.67 8.51974L231.019 8.61184L231.367 8.65789L231.715 8.70395L232.128 8.65789H232.411L232.76 8.70395L232.934 8.79605L233.108 8.88816L233.456 8.93421L233.63 8.75L233.804 8.65789L233.978 8.56579L234.326 8.47368L234.5 8.33553L234.849 8.19737L235.023 8.10526L235.371 7.96711L235.719 7.92105H236.241L236.415 7.96711L236.59 7.82895L236.938 7.73684L237.112 7.59868L237.46 7.55263L237.982 7.64474L238.156 7.69079L238.505 7.82895L238.679 7.96711V8.05921L238.853 8.15132L239.375 8.19737H239.723L240.245 8.15132H240.942H241.464H241.812L242.16 8.19737L242.509 8.24342L242.683 8.33553L242.857 8.42763L243.031 8.51974L243.205 8.65789L243.379 8.79605L243.553 8.93421L243.727 9.02632L244.075 8.98026L244.424 8.93421L244.772 8.84211L245.048 8.75L245.12 8.65789L245.294 8.56579V8.47368L245.468 8.33553V8.15132L245.642 8.01316L245.816 7.875L245.99 7.73684L246.165 7.64474L246.339 7.55263L246.513 7.41447L246.687 7.32237L247.035 7.18421L247.209 7.09211L247.557 7.04605L247.905 7.09211L248.08 7.18421L248.254 7.27632L248.602 7.32237L248.95 7.23026L249.298 7.13816L249.472 7L249.646 6.81579L249.82 6.67763L250.169 6.53947L250.343 6.44737L250.517 6.35526L250.865 6.26316H251.213L251.561 6.30921L252.084 6.40132L252.258 6.44737H252.606L252.954 6.35526L253.128 6.26316L253.302 6.21711L253.65 6.26316L253.825 6.35526L253.999 6.44737L254.173 6.49342L254.521 6.44737L254.695 6.35526L255.043 6.26316L255.391 6.21711L255.565 6.30921L255.914 6.35526L256.088 6.40132H256.436L256.61 6.35526L256.958 6.30921L257.306 6.26316L257.655 6.30921H258.003L258.351 6.26316L258.699 6.21711L259.047 6.17105L259.395 6.125L259.744 6.07895L260.266 5.94079H260.614L261.136 5.89474H261.485L262.007 5.94079L262.355 5.98684L262.703 6.03289H263.051L263.4 5.94079L263.748 5.84868V5.71053L263.922 5.57237L264.096 5.43421L264.27 5.29605L264.444 5.25H264.966H265.489L266.011 5.34211L266.359 5.43421L266.707 5.48026L267.404 5.52632L267.926 5.48026L268.448 5.43421L268.796 5.25L269.145 5.11184L269.667 5.15789L270.189 5.20395L270.711 5.11184L270.885 4.92763V4.74342V4.60526L271.06 4.42105L271.234 4.19079V4.05263L271.408 3.91447L271.582 3.73026L271.756 3.63816L272.452 3.59211H272.975H273.497H274.193H274.541H275.064L275.238 3.5L275.586 3.45395V3.54605L275.76 3.63816L275.934 3.77632V3.91447L276.108 4.09868V4.23684L276.282 4.32895V4.42105L276.456 4.51316H276.979H277.327L277.501 4.69737L277.675 4.83553L277.849 5.01974L278.023 5.15789H278.371L278.72 5.11184L279.068 5.06579L279.416 5.01974L279.764 5.06579L280.112 5.11184L280.635 5.06579L280.809 4.92763L281.157 4.83553L281.331 4.69737L281.679 4.60526L282.027 4.51316L282.55 4.55921L282.898 4.60526L283.246 4.65132H283.768L284.116 4.55921L284.465 4.51316L284.813 4.60526L285.161 4.65132L285.335 4.74342L285.683 4.83553L286.031 4.88158L286.38 4.78947L286.728 4.69737L287.076 4.55921L287.25 4.42105L287.598 4.32895L288.12 4.42105L288.469 4.51316L288.643 4.375L288.817 4.23684L288.991 4.05263L289.165 3.91447L289.339 3.73026V3.59211L289.687 3.82237L289.861 3.96053L290.035 4.09868L290.384 4.19079L290.906 4.32895L291.428 4.42105H291.776H292.299H292.821L293.169 4.51316L293.517 4.55921L293.865 4.65132L294.214 4.51316L294.562 4.375H295.258H295.606L296.129 4.32895L296.477 4.23684L296.999 4.09868L297.347 4.00658L297.87 3.96053L298.044 4.09868L298.218 4.28289L298.392 4.46711L298.566 4.65132L298.914 4.78947H299.436L299.959 4.74342L300.481 4.65132L301.003 4.55921H301.525H301.874L302.222 4.51316L302.57 4.375L302.744 4.28289L302.918 4.14474L303.092 4.05263L303.44 3.96053L303.789 4.05263L303.963 4.14474L304.137 4.23684L304.311 4.32895L304.659 4.28289L304.833 4.14474L305.181 4.05263L305.355 3.96053L305.704 3.82237L306.052 3.73026L306.4 3.59211L306.748 3.5V3.36184L306.922 3.26974L307.096 3.13158V2.99342L307.445 2.90132L307.967 2.99342H308.489L308.837 2.85526H309.185L309.708 2.94737H310.23H310.578L310.926 2.76316L311.275 2.625L311.623 2.53289H312.145L312.667 2.57895L313.015 2.71711L313.364 2.85526L313.538 2.99342L313.712 3.13158L314.06 2.99342V2.76316L314.408 2.625L314.582 2.53289L314.93 2.67105L315.279 2.76316L315.627 2.80921L316.149 2.76316H316.671L317.02 2.85526L317.194 2.99342L317.368 3.13158L317.716 3.31579L317.89 3.45395L318.238 3.54605L318.76 3.59211H319.109L319.631 3.68421L320.153 3.82237L320.675 3.68421L321.024 3.59211L321.372 3.54605H321.894H322.242L322.765 3.59211L323.287 3.68421H323.809L324.157 3.59211L324.505 3.5L325.028 3.31579L325.376 3.13158L325.55 2.94737L325.724 2.76316L325.898 2.57895L326.072 2.39474L326.246 2.21053V2.02632L326.42 1.79605L326.769 1.84211L327.117 1.93421L327.465 1.98026L327.813 1.93421L327.987 1.84211L328.335 1.88816L328.858 1.93421L329.206 1.88816L329.38 1.79605L329.728 1.70395L330.076 1.79605L330.425 1.88816L330.599 1.98026L330.947 1.88816L331.295 1.84211L331.469 1.98026L331.817 2.11842L331.991 2.21053L332.34 2.16447L332.688 2.02632L332.862 1.88816L333.036 1.75L333.21 1.61184L333.384 1.42763L333.558 1.28947L333.732 1.10526H334.255H334.777L335.125 1.01316L335.473 0.921053L335.821 0.828947L336.17 0.782895L336.866 0.875L337.214 0.967105L337.388 1.10526L337.736 1.24342L337.91 1.38158L338.085 1.51974L338.259 1.65789H338.781L339.129 1.51974L339.651 1.42763L340.174 1.47368H340.696L341.218 1.42763L341.74 1.33553L342.263 1.28947H342.785L343.133 1.24342L343.481 1.05921V0.875V0.690789L343.655 0.552632L343.83 0.368421V0.230263L344.178 0L344.526 0.230263L344.7 0.368421L344.874 0.460526L345.222 0.552632H345.745L346.267 0.598684H346.789L347.485 0.690789H348.008L348.356 0.782895L348.878 0.875L349.4 0.828947H349.923L350.271 0.736842L350.619 0.875L350.793 1.01316L351.141 1.05921L351.49 1.01316L351.664 0.921053L351.838 0.782895L352.186 0.875L352.534 0.967105L352.708 1.05921L353.056 1.10526L353.405 1.05921L353.753 0.967105L354.275 0.921053L354.797 0.828947H355.145L355.494 0.782895L355.842 0.690789L356.364 0.644737L357.06 0.598684H357.583L357.931 0.644737L358.453 0.690789H358.975H359.324L359.672 0.782895L360.02 0.875L360.368 0.921053L360.89 0.967105L361.935 0.921053H362.805H363.502H363.85L364.372 0.736842L364.72 0.644737L365.417 0.552632H366.113H366.81L367.506 0.460526L368.376 0.552632H369.247H369.943L370.465 0.736842L370.988 0.921053L371.336 1.10526V1.38158L371.684 1.61184L372.032 1.84211L372.206 2.07237L372.903 2.16447L373.425 2.07237L374.295 1.98026L374.992 2.07237L375.514 2.16447L376.036 2.21053L376.385 2.07237L376.733 1.98026L377.081 1.88816L377.429 1.98026L377.777 2.02632L378.125 2.07237H378.474H378.822L379.344 2.02632L379.518 1.88816L380.215 1.79605L380.911 1.70395V1.51974L381.085 1.33553L381.259 1.15132L381.433 1.01316L381.607 0.875L381.955 0.967105L382.304 1.05921L382.652 1.10526H383" stroke="#BFB0EB" stroke-linecap="round"/>
</g>
<defs>
<linearGradient id="paint0_linear_102_2832" x1="191.5" y1="0" x2="191.5" y2="36" gradientUnits="userSpaceOnUse">
<stop stop-color="#BFB0EB" stop-opacity="0.1"/>
<stop offset="1" stop-color="#BFB0EB" stop-opacity="0"/>
</linearGradient>
<clipPath id="clip0_102_2832">
<rect width="383" height="34" fill="white"/>
</clipPath>
</defs>
</svg>
