<svg width="383" height="34" viewBox="0 0 383 34" fill="none" xmlns="http://www.w3.org/2000/svg">
<g clip-path="url(#clip0_76_1499)">
<path d="M382.652 25.7753L383 25.9209V34H0V12.7468H0.348175L0.69635 12.6741L1.04456 12.5285L1.39273 12.3829L1.5668 12.6013L1.74091 12.8196L1.91498 13.1108L2.08908 13.4019V13.693L2.78543 13.8386L3.48181 13.9842L3.65588 14.2025L4.17816 14.2753H4.52634H4.87451L5.22272 14.2025L5.57092 14.1297L5.9191 13.9842L6.26727 14.1297L6.61545 14.2753L6.96362 14.4937L7.4859 14.4209L8.00818 14.2753L8.70453 14.1297L9.57498 14.2753L10.0973 14.4209L10.7936 14.2753L10.9677 13.9114L11.3159 13.5475L11.6641 13.1835V12.7468L12.0122 12.4557L12.5345 12.1646L13.0568 11.8734H13.7532H14.6236L15.4941 11.7278L16.1904 11.8734H16.8868H17.5832L18.2795 12.019L18.6277 12.1646L19.15 12.4557H19.4982H20.1945H21.065L22.1095 12.5285L22.6318 12.4557L22.98 12.3829L23.3282 12.2373L23.6764 12.0918H24.0245H24.5468L25.0691 12.019L25.4172 11.9462H25.9395L26.6359 12.019L27.1582 12.0918L27.5064 12.2373L27.8546 12.3101H28.2027L28.725 12.4557L29.2473 12.5285L29.5955 12.6741L29.9436 12.7468L30.2918 12.6741L30.4659 12.5285L30.8141 12.3829L31.1623 12.2373L31.3363 12.4557L31.5104 12.6013L31.8586 12.6741L32.2068 12.6013L32.3809 12.3829L32.7291 12.1646L33.0772 12.3101H33.5995L34.1218 12.3829L34.6441 12.2373L34.9923 12.0918H35.5145L36.2109 11.9462H36.7332L37.2554 11.8734H37.7777L38.1259 11.7278L38.3 11.5823L38.4741 11.3639L38.8223 11L39.1704 11.3639V11.5823L39.3445 11.8734L39.5186 12.0918V12.3829V12.6741L39.8668 12.9652L40.215 13.038H40.7373L41.2596 13.1108L41.7818 13.2563L42.3041 13.3291H42.8264L43.3486 13.2563L43.8709 13.4019L44.2191 13.6203H44.7413L44.9154 13.4019L45.0895 13.1835L45.2636 12.9652L45.6118 12.7468L45.7859 12.5285L46.1341 12.3829L46.8304 12.2373L47.1786 12.3101L47.5268 12.4557L47.875 12.6013L48.2232 12.7468H48.7455H49.2677L49.4418 13.038L49.6159 13.2563L49.79 13.5475L49.9641 13.7658L50.1382 13.9842L50.3123 14.2025L50.6604 14.4209L51.0086 14.4937L51.1827 14.3481L51.5309 14.1297L51.705 13.9114L52.0532 13.9842L52.4013 14.1297L52.5754 13.9842L52.9236 13.8386L53.2718 13.693L53.62 13.8386L53.7941 13.9842L54.1423 14.057L54.6646 13.9842L55.0127 13.9114L55.1868 14.057L55.535 14.1297L55.8832 14.057L56.2314 13.9114L56.5795 13.8386L56.7536 14.2025V14.4937L56.9277 14.7848L57.1018 15.0759L57.2759 15.3671L57.45 15.6582L57.6241 15.9494L57.9723 16.2405L58.4945 16.5316L58.8427 16.6772L59.1909 16.8228H59.7132L60.2355 16.6772L60.7577 16.6044H61.1059H61.6282L61.9763 16.6772L62.3246 16.8228L62.8468 17.0411L63.3691 16.8228L63.8914 16.6772H64.2395L64.7618 16.6044L65.11 16.4589L65.2841 16.2405L65.6323 15.9494L65.8063 15.731L65.9804 15.5127L66.3286 15.3671H66.8509L67.3732 15.4399L67.7214 15.3671L68.0695 15.2215L68.4177 15.0032L68.5918 15.1487L68.94 15.3671V15.731L69.2882 15.9494L69.4622 15.731L69.6364 15.5127L69.9845 15.2943L70.3327 15.0759L70.855 15.0032H71.3773L71.7254 15.1487L72.0736 15.3671L72.4218 15.6582H72.77H73.2923L73.8145 15.5127H74.1627L74.5109 15.731H75.0332L75.5555 15.5854L75.9036 15.731V15.9494L76.0777 16.1677L76.2518 16.3133V16.5316L76.6 16.6772L76.9482 16.8956L77.2964 17.0411L77.6445 17.2595L77.8186 17.4051L78.1668 17.5506L78.3409 17.769L78.6891 17.8418L78.8632 17.6962L79.0373 17.5506L79.2114 17.4051L79.5595 17.2595L79.9077 17.4051L80.0818 17.5506L80.2559 17.769L80.43 17.9146L80.7782 18.1329L81.1264 18.2057H81.4745H81.9968L82.5191 18.3513L83.0414 18.4968L83.5636 18.5696H84.0859L84.4341 18.3513L84.6082 18.0601L84.7823 17.769L84.9564 17.4778L85.1305 17.2595L85.6527 17.3323L86.0009 17.4778L86.5232 17.6962L86.8713 17.8418L87.3936 17.9146H87.7418H88.4382L88.7863 18.1329L89.1346 18.3513L89.4827 18.2057L89.8309 18.1329L90.1791 17.9873H90.7014H91.2236H91.5718L92.0941 17.8418L92.6164 17.6234L92.9645 17.4778L93.1386 17.2595L93.3127 17.0411L93.6609 16.6772V16.8956L93.835 17.1867L94.0091 17.4051L94.1832 17.6962L94.3573 17.9146L94.5314 18.1329L94.8795 17.9873L95.4018 17.8418L95.75 17.9873L95.9241 18.2057L96.2723 18.4241L96.6205 18.5696L96.9686 18.7152L97.3168 18.6424L97.665 18.4968L97.8391 18.3513L98.1873 18.2785L98.5355 18.1329L98.8836 18.2057L99.2318 18.3513H99.7541L100.102 18.2785L100.45 18.2057L100.973 18.1329L101.321 18.2785L101.669 18.4241L101.843 18.6424L102.191 18.788L102.365 19.0063L102.888 19.0791L103.236 19.0063L103.584 18.9335L103.932 19.0063L104.28 19.0791L104.629 19.1519H104.977L105.151 18.9335L105.325 18.6424L105.499 18.4241L105.673 18.1329H106.021H106.544L106.718 17.9873V17.8418L106.892 17.6962V17.4778L107.066 17.1867V16.9684L107.24 16.75L107.414 16.6044V16.4589L107.762 16.5316L107.936 16.6772H108.459H108.807H109.503H110.025H110.548L111.244 16.75L111.418 16.8956L111.592 17.1867L111.766 17.4051V17.6234L111.94 17.9873L112.115 18.2785V18.4968V18.788L112.289 19.0791L112.811 19.2247L113.333 19.1519L113.855 19.0791L114.204 19.2975L114.552 19.5886L115.074 19.6614L115.596 19.7342L116.293 19.6614L116.641 19.5886L116.989 19.443L117.511 19.2975H118.034H118.556L118.73 19.3703L118.904 19.5886L119.078 19.807L119.252 20.0253V20.2437L119.6 20.3892L119.949 20.5348H120.297L120.645 20.462L120.993 20.3892L121.515 20.3165H121.864L122.386 20.3892H122.734L123.256 20.6076L123.605 20.6804L123.953 20.7532L124.301 20.8259L124.649 20.8987L124.997 20.9715H125.345L125.694 20.8987L126.042 20.9715L126.39 21.0443L126.564 21.1171H126.912L127.086 21.0443L127.435 20.9715L127.609 20.8259L127.957 20.8987L128.305 21.0443L128.479 21.1899L128.827 21.2627L129.001 21.1899L129.175 21.0443L129.35 20.8987L129.698 20.8259L129.872 20.8987L130.046 21.0443L130.394 21.1899H130.742L130.916 21.1171L131.439 20.9715L131.787 20.8987H132.135L132.483 21.0443L132.657 21.1899L132.831 21.3354L133.18 21.5538L133.354 21.7722L133.528 22.0633L133.702 22.2816L134.05 22.4272L134.398 22.5728L134.746 22.5L134.92 22.3544L135.095 22.2089L135.443 22.1361L135.791 22.2089L135.965 22.3544L136.313 22.5728L136.487 22.7184L136.661 22.9367L136.835 23.0823L137.01 23.2278L137.184 23.4462L137.358 23.6646L137.532 23.8829V24.1741L137.706 24.3924V24.538L137.88 24.6835L137.952 24.8291L138.228 24.9747L138.576 25.1203L138.925 25.193L139.273 25.2658L139.447 25.1203L139.621 24.9019L139.795 24.6835L139.969 24.4652L140.143 24.3196L140.317 24.1741L140.491 24.0285L140.84 23.9557L141.188 23.8829H141.536H142.058H142.755L143.277 23.9557H143.625L144.147 23.8829L144.321 23.7373V23.5918L144.495 23.3734L144.844 23.1551L145.018 23.0823L145.54 22.9367L145.888 23.0095L146.062 23.2278L146.41 23.3734L146.585 23.5918L146.759 23.519H147.281L147.629 23.5918L147.977 23.8101L148.151 23.9557L148.5 24.1741L148.674 24.3924L149.022 24.538L149.196 24.6835L149.37 24.8291L149.544 25.1203L149.892 25.0475L150.066 24.9019L150.24 24.7563L150.589 24.6835H150.872L151.285 24.7563L151.633 24.6835L151.981 24.6108L152.33 24.4652L152.678 24.2468L152.852 24.1741H153.2L153.44 24.3924L153.896 24.4652L154.245 24.3924L154.593 24.3196H155.115L155.463 24.4652L155.811 24.6835L156.16 24.8291L156.508 24.6835H156.856L157.03 24.8291L157.204 25.0475V25.193L157.378 25.4114L157.552 25.557L157.726 25.7753L157.9 25.9937L158.249 26.212L158.597 26.4304L158.945 26.3576L159.467 26.212L159.99 26.0665L160.164 26.212L160.512 26.2848L160.86 26.3576L161.208 26.212L161.556 26.0665L161.73 25.9209L161.905 25.7025L162.079 25.4842L162.253 25.2658L162.427 25.1203L162.775 24.9747L163.297 24.9019L163.471 25.0475L163.82 25.193L163.994 25.2658L164.342 25.4114L164.516 25.3386H164.864L165.212 25.193H165.484L165.735 25.1203L166.083 25.0475L166.431 25.1203L166.779 25.193L167.301 25.2658L167.65 25.1203H167.998L168.172 25.193L168.346 25.4114L168.52 25.6297L168.868 25.8481L169.274 26.1392L169.565 25.9937L169.739 25.9209L170.008 25.7025L170.261 25.557H170.609L170.783 25.7025L170.957 25.8481L171.305 25.9937L171.48 25.9209L171.828 25.8481H172.176L172.524 25.9209L172.872 25.9937L173.22 25.9209L173.569 25.8481L173.917 25.9209L174.091 26.1392L174.439 26.3576L174.613 26.212L174.878 25.9937L174.961 25.7753L175.484 25.7025L175.832 25.8481L176.354 25.9209L176.876 25.8481L177.225 25.7753H177.573L177.747 25.9937L177.921 26.212L178.269 26.4304L178.443 26.5759L178.617 26.7943L178.965 27.0127L179.314 26.9399L179.662 26.8671L180.01 26.7215L180.358 26.6487H180.88L181.403 26.7943L181.925 26.9399L182.795 27.0127L183.144 27.1582L183.318 27.3766L183.492 27.5949V27.7405L183.666 28.0316L184.014 28.25L184.536 28.3228L184.885 28.3956L185.059 28.6139L185.407 28.8323L185.581 29.0506H186.103L186.451 29.1962L186.8 29.3418L187.322 29.4873L187.496 29.6329L188.192 29.7785L188.54 29.8513L188.715 29.9241H189.237L189.585 29.8513H190.107L190.455 29.9241L190.804 30.0696L191.152 30.2152L191.5 30.288H191.956H192.196L192.893 30.4335L193.241 30.5063H193.763H194.285H194.46H195.156H195.504H195.852H196.723H197.071L197.593 30.3608L197.941 30.288L198.29 30.1424L198.638 30.0696L199.16 30.2152L199.856 30.288H200.205H200.727H201.249H201.597L201.945 30.3608L202.294 30.4335L202.642 30.5791L202.99 30.7247H203.338L203.512 30.6519H203.86H204.209L204.731 30.7247H205.427V30.6519L205.601 30.5063L205.775 30.3608L205.95 30.2152L206.124 30.0696V29.9241L206.472 29.7785L206.82 29.6329L206.994 29.4873L207.516 29.3418H208.039L208.387 29.5601L208.561 29.7057L209.083 29.8513L209.605 29.9241H210.476L210.998 29.8513H211.52L212.043 29.9241L212.217 30.0696L212.739 30.1424L213.087 30.0696L213.261 29.9968H213.784H214.132L214.48 29.9241L214.828 29.8513L215.002 29.7785H215.176L215.525 29.9241L215.873 30.0696H216.047L216.221 29.9241L216.569 29.8513L216.917 29.7785H217.265L217.614 29.7057H217.962L218.31 29.7785L218.832 29.8513L219.006 29.9241L219.18 30.1424L219.355 30.3608L219.529 30.5791L219.877 30.8703H220.225L220.573 30.7247H221.095L221.444 30.6519L221.792 30.5791H222.314H222.662L223.01 30.6519H223.359L223.707 30.7975L223.881 30.8703L224.229 31.0158L224.403 31.0886L224.577 31.2342L224.925 31.307L225.274 31.4525H225.622L225.97 31.307L226.144 31.1614L226.318 31.0886L226.492 30.8703L226.666 30.7247L226.84 30.5791L227.189 30.5063H227.363H227.711L227.885 30.5791H228.233H228.581H228.93L229.452 30.5063L229.626 30.4335L229.974 30.3608L230.148 30.2152H230.496L230.845 30.288H231.019L231.193 30.3608L231.367 30.4335L231.541 30.5791H231.889L232.063 30.5063L232.237 30.3608L232.585 30.2152L232.934 30.1424L233.108 29.9968L233.456 29.9241L233.978 29.8513L234.326 29.9241L234.5 30.0696V30.3608C234.558 30.4093 234.675 30.5209 234.675 30.5791V30.8703L235.023 31.0158V30.7975L235.371 30.5063V30.2152V29.9968L235.545 29.7785L235.719 29.6329V29.4873V29.269L235.893 29.1234V28.9051L236.067 28.6867V28.4684L236.241 28.25V28.1044V27.8133L236.415 27.5949V27.3766L236.59 27.231L236.764 27.0127L237.286 26.8671L237.808 26.7215L237.982 26.5759L238.505 26.4304H238.853L239.201 26.6487L239.375 26.8671L239.549 27.0127L239.723 27.3038L240.245 27.4494L240.594 27.3766L240.942 27.231L241.29 27.0854L241.812 27.1582L242.16 27.231H242.509H243.031L243.379 27.1582L243.727 27.0854L244.075 27.231V27.3766L244.424 27.5222L244.772 27.6677L245.12 27.8861L245.468 27.9589L245.99 27.8861L246.165 27.9589L246.339 28.1772L246.513 28.3228L246.687 28.5411L246.861 28.6867L247.035 28.9051L247.209 29.0506L247.383 29.1962L247.557 29.3418L247.731 29.5601L247.905 29.8513L248.254 29.7785L248.602 29.7057L248.776 29.7785L248.95 29.9241L249.124 30.0696L249.646 30.1424L249.995 30.2152L250.517 30.288L250.865 30.3608L251.039 30.4335L251.561 30.5063L251.91 30.4335L252.258 30.3608L252.78 30.288L252.954 30.1424L253.302 30.0696L253.65 30.1424L253.999 30.2152L254.347 30.3608L254.521 30.4335L254.869 30.5063H255.217L255.565 30.4335H255.914L256.262 30.5063H256.61L256.784 30.4335L257.132 30.3608H257.48H257.829L258.177 30.4335L258.525 30.5791L258.873 30.5063L259.047 30.3608L259.221 30.288L259.744 30.1424L260.002 30.2152H260.44L260.962 30.1424L261.485 30.0696L261.833 29.9241L262.355 29.8513H262.703H263.225L263.574 29.9241L264.001 30.1424L264.27 30.2152L264.618 30.3608L264.792 30.5063L265.14 30.7247H265.489L266.011 30.5791L266.533 30.5063L266.881 30.3608H267.23L267.578 30.2152H268.274L268.796 30.1424L269.319 30.0696L269.841 30.1424L270.363 30.2152L270.537 30.3608L271.06 30.4335H271.408H271.93H272.278H272.975L273.323 30.5063L273.497 30.7247L273.845 30.943H274.193L274.541 30.7247L274.715 30.5063L275.064 30.288L275.412 30.1424L275.76 30.2152H276.282L276.63 30.0696L276.805 29.9241V29.7057L276.979 29.5601L277.153 29.3418L277.501 29.4146L278.023 29.3418L278.545 29.1962L278.894 29.0506L278.981 28.8323L279.068 28.6139L279.242 28.3956V28.25L279.59 28.0316L279.764 27.9589L279.938 28.1044L280.286 28.25L280.46 28.1044L280.635 27.9589V27.8133L280.809 27.5949V27.4494L280.983 27.3038V27.1582L281.157 27.0127L281.505 26.9399L281.853 26.8671L282.201 26.7215L282.55 26.6487H282.898L283.072 26.7215L283.246 26.9399L283.594 27.0854L283.864 27.231L284.116 27.4494L284.465 27.5949L284.639 27.7405L284.987 27.8861L285.161 28.0316L285.509 28.1044L285.683 28.3956L286.031 28.4684V28.3228L286.205 28.1772L286.38 28.0316L286.554 27.8861L286.902 27.8133L287.076 27.8861L287.25 28.1044L287.598 28.25L287.946 28.3228L288.295 28.3956H288.643L289.165 28.3228H289.687L290.21 28.3956L290.558 28.5411L290.906 28.6139H291.254H291.602L292.125 28.6867L292.473 28.8323L292.647 28.9778L292.821 29.1962L292.995 29.4146H293.343L293.691 29.269L294.04 29.0506L294.388 28.9051L294.736 28.7595L294.91 28.5411V28.3228L295.084 28.1044L295.258 27.9589L295.432 27.7405L295.606 27.5222L295.78 27.4494L296.303 27.5222L296.651 27.5949L296.999 27.7405L297.521 27.8861H297.695H298.044L298.566 27.9589L298.914 28.1044L299.262 28.1772L299.61 28.1044L299.785 27.9589L300.133 27.7405L300.307 27.5222L300.481 27.231L300.655 27.0127L300.829 26.8671L301.003 26.6487V26.4304V26.2848L301.351 26.1392L301.7 25.9937L302.048 25.8481L302.396 25.7025L302.744 25.557H303.092H303.615L303.963 25.4114L304.311 25.193L304.659 25.0475L305.181 24.9747L305.53 25.193L305.878 25.3386L306.052 25.557L306.4 25.7025L306.922 25.7753L307.27 25.9937L307.445 26.2848L307.619 26.5759L307.793 26.8671L307.967 27.1582L308.141 27.4494L308.315 27.3038L308.489 27.1582L308.663 26.9399L309.185 26.8671L309.534 27.0127L309.882 27.231L310.23 27.3766L310.578 27.4494L310.926 27.3766L311.1 27.231L311.449 27.1582L311.797 27.3766L311.971 27.5949L312.145 27.9589L312.493 28.0316L312.841 27.8861L313.271 28.0316L313.712 28.1772H314.06L314.408 28.0316L314.756 27.8861L315.105 27.6677L315.627 27.5222L316.149 27.3766L316.671 27.231L317.194 27.1582L317.716 27.231L317.89 27.3766L318.064 27.5949L318.238 27.8133L318.586 28.0316L318.76 28.3228L318.935 28.6867L319.109 28.9778L319.283 29.269L319.457 29.5601L319.805 29.7057L320.153 29.5601L320.327 29.4146L320.501 29.269L320.675 29.0506L320.85 28.8323L321.198 28.6139H321.894L322.242 28.3956L322.939 28.4684L323.287 28.6867L323.983 28.8323L324.331 29.0506L324.854 28.9051L325.202 28.8323L325.724 28.6867L325.898 28.8323L326.072 29.0506V29.269L326.246 29.5601V29.8513L326.42 30.0696L326.595 30.3608L327.117 30.5063L327.465 30.6519L327.639 30.943L327.813 31.2342L327.987 31.5253L328.335 31.7437L328.858 32.0348L329.206 32.326L329.728 32.5443L330.076 32.7627L330.425 33.0538L330.773 33.1266L331.121 32.9082L331.469 32.7627L331.643 32.5443L331.991 32.2532L332.34 32.0348L332.862 31.8165L333.558 31.7437L334.255 31.5981L334.777 31.6709L335.299 31.8892L335.821 32.1076L336.518 32.2532L337.04 32.3987L337.388 32.6171L337.736 32.7627L338.085 32.981L338.433 33.1266H338.955H339.477L339.651 32.9082L340 32.6899L340.348 32.8354H340.87L341.218 32.6899L341.566 32.4715L341.915 32.326L342.437 32.1804L342.882 32.0348L343.307 31.8892L343.727 31.6709L344.178 31.5981L344.7 31.6709L345.222 31.8165L345.745 31.8892L346.093 32.0348H346.441H346.789L347.137 31.8892L347.485 31.7437L347.834 31.8892L348.182 32.1076L348.53 31.8892L348.878 31.7437L349.226 31.5981L349.749 31.5253L350.097 31.6709L350.271 31.8892L350.619 32.1076L350.793 31.8892L351.054 31.7437L351.49 31.5981L351.664 31.3797L352.012 31.5981L352.36 31.7437L352.708 31.6709L353.056 31.4525L353.405 31.307V31.0158L353.753 30.7247L353.927 30.5063L354.101 30.2152L354.275 29.9241L354.623 29.7057L354.797 29.4873L354.971 29.269L355.145 29.0506L355.32 28.7595L355.494 28.5411L355.668 28.3228L355.842 28.1044L356.016 27.8861L356.19 27.7405V27.5222L356.538 27.3038L356.712 27.1582L357.06 27.0127L357.583 26.9399L357.931 26.7943H358.279H358.627L358.975 26.9399L359.324 27.0854L359.672 26.9399L360.02 26.8671L360.368 26.7943H360.89L361.065 26.9399L361.413 27.0127L361.761 26.9399L362.109 26.7943L362.457 26.6487L362.805 26.5759L363.154 26.5032L363.328 26.3576L363.502 26.212L363.85 26.0665L364.024 25.9209L364.198 25.7753L364.546 25.6297L364.895 25.7025L365.069 25.9937L365.243 26.1392L365.417 26.4304L365.591 26.6487L365.939 26.7943L366.287 26.9399L366.635 27.0854L366.984 27.231H367.506L367.854 27.0854L368.028 26.8671L368.202 26.6487L368.376 26.4304V26.212V25.9937L368.55 25.7753L368.725 25.6297L369.073 25.4842L369.421 25.3386L369.769 25.2658H370.117L370.465 25.1203L370.64 24.9747L370.988 24.9019H371.336L371.684 25.0475L371.858 25.193L372.206 25.3386L372.555 25.4842L372.903 25.4114L373.251 25.2658L373.599 25.193L373.947 25.2658H374.295L374.47 25.193L374.644 25.0475L374.818 24.9019L374.992 24.7563V24.538L375.34 24.4652L375.688 24.6108H376.036L376.21 24.538L376.385 24.3924L376.733 24.3196H377.081L377.255 24.4652L377.429 24.6108H377.777L378.125 24.7563L378.474 24.9019L378.822 24.9747L379.17 25.1203L379.518 25.2658L379.866 25.3386H380.215L380.563 25.193L380.911 25.3386L381.259 25.4842L381.607 25.6297L381.955 25.7753H382.304H382.652Z" fill="url(#paint0_linear_76_1499)"/>
<path d="M383 25.8355L382.652 25.6908H382.304H381.955L381.607 25.5461L381.259 25.4013L380.911 25.2566L380.563 25.1118L380.215 25.2566H379.866L379.518 25.1842L379.17 25.0395L378.822 24.8947L378.474 24.8224L378.125 24.6776L377.777 24.5329H377.429L377.255 24.3882L377.081 24.2434H376.733L376.385 24.3158L376.21 24.4605L376.036 24.5329H375.688L375.34 24.3882L374.992 24.4605V24.6776L374.818 24.8224L374.644 24.9671L374.47 25.1118L374.295 25.1842H373.947L373.599 25.1118L373.251 25.1842L372.903 25.3289L372.555 25.4013L372.206 25.2566L371.858 25.1118L371.684 24.9671L371.336 24.8224H370.988L370.64 24.8947L370.465 25.0395L370.117 25.1842H369.769L369.421 25.2566L369.073 25.4013L368.725 25.5461L368.55 25.6908L368.376 25.9079V26.125V26.3421L368.202 26.5592L368.028 26.7763L367.854 26.9934L367.506 27.1382H366.984L366.635 26.9934L366.287 26.8487L365.939 26.7039L365.591 26.5592L365.417 26.3421L365.243 26.0526L365.069 25.9079L364.895 25.6184L364.546 25.5461L364.198 25.6908L364.024 25.8355L363.85 25.9803L363.502 26.125L363.328 26.2697L363.154 26.4145L362.805 26.4868L362.457 26.5592L362.109 26.7039L361.761 26.8487L361.413 26.9211L361.065 26.8487L360.89 26.7039H360.368L360.02 26.7763L359.672 26.8487L359.324 26.9934L358.975 26.8487L358.627 26.7039H358.279H357.931L357.583 26.8487L357.06 26.9211L356.712 27.0658L356.538 27.2105L356.19 27.4276V27.6447L356.016 27.7895L355.842 28.0066L355.668 28.2237L355.494 28.4408L355.32 28.6579L355.145 28.9474L354.971 29.1645L354.797 29.3816L354.623 29.5987L354.275 29.8158L354.101 30.1053L353.927 30.3947L353.753 30.6118L353.405 30.9013V31.1908L353.056 31.3355L352.708 31.5526L352.36 31.625L352.012 31.4803L351.664 31.2632L351.49 31.4803L351.054 31.625L350.793 31.7697L350.619 31.9868L350.271 31.7697L350.097 31.5526L349.749 31.4079L349.226 31.4803L348.878 31.625L348.53 31.7697L348.182 31.9868L347.834 31.7697L347.485 31.625L347.137 31.7697L346.789 31.9145H346.441H346.093L345.745 31.7697L345.222 31.6974L344.7 31.5526L344.178 31.4803L343.727 31.5526L343.307 31.7697L342.882 31.9145L342.437 32.0592L341.915 32.2039L341.566 32.3487L341.218 32.5658L340.87 32.7105H340.348L340 32.5658L339.651 32.7829L339.477 33H338.955H338.433L338.085 32.8553L337.736 32.6382L337.388 32.4934L337.04 32.2763L336.518 32.1316L335.821 31.9868L335.299 31.7697L334.777 31.5526L334.255 31.4803L333.558 31.625L332.862 31.6974L332.34 31.9145L331.991 32.1316L331.643 32.4211L331.469 32.6382L331.121 32.7829L330.773 33L330.425 32.9276L330.076 32.6382L329.728 32.4211L329.206 32.2039L328.858 31.9145L328.335 31.625L327.987 31.4079L327.813 31.1184L327.639 30.8289L327.465 30.5395L327.117 30.3947L326.595 30.25L326.42 29.9605L326.246 29.7434V29.4539L326.072 29.1645V28.9474L325.898 28.7303L325.724 28.5855L325.202 28.7303L324.854 28.8026L324.331 28.9474L323.983 28.7303L323.287 28.5855L322.939 28.3684L322.242 28.2961L321.894 28.5132H321.198L320.85 28.7303L320.675 28.9474L320.501 29.1645L320.327 29.3092L320.153 29.4539L319.805 29.5987L319.457 29.4539L319.283 29.1645L319.109 28.875L318.935 28.5855L318.76 28.2237L318.586 27.9342L318.238 27.7171L318.064 27.5L317.89 27.2829L317.716 27.1382L317.194 27.0658L316.671 27.1382L316.149 27.2829L315.627 27.4276L315.105 27.5724L314.756 27.7895L314.408 27.9342L314.06 28.0789H313.712L313.271 27.9342L312.841 27.7895L312.493 27.9342L312.145 27.8618L311.971 27.5L311.797 27.2829L311.449 27.0658L311.1 27.1382L310.926 27.2829L310.578 27.3553L310.23 27.2829L309.882 27.1382L309.534 26.9211L309.185 26.7763L308.663 26.8487L308.489 27.0658L308.315 27.2105L308.141 27.3553L307.967 27.0658L307.793 26.7763L307.619 26.4868L307.445 26.1974L307.27 25.9079L306.922 25.6908L306.4 25.6184L306.052 25.4737L305.878 25.2566L305.53 25.1118L305.181 24.8947L304.659 24.9671L304.311 25.1118L303.963 25.3289L303.615 25.4737H303.092H302.744L302.396 25.6184L302.048 25.7632L301.7 25.9079L301.351 26.0526L301.003 26.1974V26.3421V26.5592L300.829 26.7763L300.655 26.9211L300.481 27.1382L300.307 27.4276L300.133 27.6447L299.785 27.8618L299.61 28.0066L299.262 28.0789L298.914 28.0066L298.566 27.8618L298.044 27.7895H297.695H297.521L296.999 27.6447L296.651 27.5L296.303 27.4276L295.78 27.3553L295.606 27.4276L295.432 27.6447L295.258 27.8618L295.084 28.0066L294.91 28.2237V28.4408L294.736 28.6579L294.388 28.8026L294.04 28.9474L293.691 29.1645L293.343 29.3092H292.995L292.821 29.0921L292.647 28.875L292.473 28.7303L292.125 28.5855L291.602 28.5132H291.254H290.906L290.558 28.4408L290.21 28.2961L289.687 28.2237H289.165L288.643 28.2961H288.295L287.946 28.2237L287.598 28.1513L287.25 28.0066L287.076 27.7895L286.902 27.7171L286.554 27.7895L286.38 27.9342L286.205 28.0789L286.031 28.2237V28.3684L285.683 28.2961L285.509 28.0066L285.161 27.9342L284.987 27.7895L284.639 27.6447L284.465 27.5L284.116 27.3553L283.864 27.1382L283.594 26.9934L283.246 26.8487L283.072 26.6316L282.898 26.5592H282.55L282.201 26.6316L281.853 26.7763L281.505 26.8487L281.157 26.9211L280.983 27.0658V27.2105L280.809 27.3553V27.5L280.635 27.7171V27.8618L280.46 28.0066L280.286 28.1513L279.938 28.0066L279.764 27.8618L279.59 27.9342L279.242 28.1513V28.2961L279.068 28.5132L278.981 28.7303L278.894 28.9474L278.545 29.0921L278.023 29.2368L277.501 29.3092L277.153 29.2368L276.979 29.4539L276.805 29.5987V29.8158L276.63 29.9605L276.282 30.1053H275.76L275.412 30.0329L275.064 30.1776L274.715 30.3947L274.541 30.6118L274.193 30.8289H273.845L273.497 30.6118L273.323 30.3947L272.975 30.3224H272.278H271.93H271.408H271.06L270.537 30.25L270.363 30.1053L269.841 30.0329L269.319 29.9605L268.796 30.0329L268.274 30.1053H267.578L267.23 30.25H266.881L266.533 30.3947L266.011 30.4671L265.489 30.6118H265.14L264.792 30.3947L264.618 30.25L264.27 30.1053L264.001 30.0329L263.574 29.8158L263.225 29.7434H262.703H262.355L261.833 29.8158L261.485 29.9605L260.962 30.0329L260.44 30.1053H260.002L259.744 30.0329L259.221 30.1776L259.047 30.25L258.873 30.3947L258.525 30.4671L258.177 30.3224L257.829 30.25H257.48H257.132L256.784 30.3224L256.61 30.3947H256.262L255.914 30.3224H255.565L255.217 30.3947H254.869L254.521 30.3224L254.347 30.25L253.999 30.1053L253.65 30.0329L253.302 29.9605L252.954 30.0329L252.78 30.1776L252.258 30.25L251.91 30.3224L251.561 30.3947L251.039 30.3224L250.865 30.25L250.517 30.1776L249.995 30.1053L249.646 30.0329L249.124 29.9605L248.95 29.8158L248.776 29.6711L248.602 29.5987L248.254 29.6711L247.905 29.7434L247.731 29.4539L247.557 29.2368L247.383 29.0921L247.209 28.9474L247.035 28.8026L246.861 28.5855L246.687 28.4408L246.513 28.2237L246.339 28.0789L246.165 27.8618L245.99 27.7895L245.468 27.8618L245.12 27.7895L244.772 27.5724L244.424 27.4276L244.075 27.2829V27.1382L243.727 26.9934L243.379 27.0658L243.031 27.1382H242.509H242.16L241.812 27.0658L241.29 26.9934L240.942 27.1382L240.594 27.2829L240.245 27.3553L239.723 27.2105L239.549 26.9211L239.375 26.7763L239.201 26.5592L238.853 26.3421H238.505L237.982 26.4868L237.808 26.6316L237.286 26.7763L236.764 26.9211L236.59 27.1382L236.415 27.2829V27.5L236.241 27.7171V28.0066V28.1513L236.067 28.3684V28.5855L235.893 28.8026V29.0197L235.719 29.1645V29.3816V29.5263L235.545 29.6711L235.371 29.8882V30.1053V30.3947L235.023 30.6842V30.9013L234.675 30.7566C234.675 30.6842 234.675 30.525 234.675 30.4671C234.675 30.4092 234.558 30.2982 234.5 30.25V29.9605L234.326 29.8158L233.978 29.7434L233.456 29.8158L233.108 29.8882L232.934 30.0329L232.585 30.1053L232.237 30.25L232.063 30.3947L231.889 30.4671H231.541L231.367 30.3224L231.193 30.25L231.019 30.1776H230.845L230.496 30.1053H230.148L229.974 30.25L229.626 30.3224L229.452 30.3947L228.93 30.4671H228.581H228.233H227.885L227.711 30.3947H227.363H227.189L226.84 30.4671L226.666 30.6118L226.492 30.7566L226.318 30.9737L226.144 31.0461L225.97 31.1908L225.622 31.3355H225.274L224.925 31.1908L224.577 31.1184L224.403 30.9737L224.229 30.9013L223.881 30.7566L223.707 30.6842L223.359 30.5395H223.01L222.662 30.4671H222.314H221.792L221.444 30.5395L221.095 30.6118H220.573L220.225 30.7566H219.877L219.529 30.4671L219.355 30.25L219.18 30.0329L219.006 29.8158L218.832 29.7434L218.31 29.6711L217.962 29.5987H217.614L217.265 29.6711H216.917L216.569 29.7434L216.221 29.8158L216.047 29.9605H215.873L215.525 29.8158L215.176 29.6711H215.002L214.828 29.7434L214.48 29.8158L214.132 29.8882C214.074 29.8882 213.923 29.8882 213.784 29.8882C213.644 29.8882 213.377 29.8882 213.261 29.8882L213.087 29.9605L212.739 30.0329L212.217 29.9605L212.043 29.8158L211.52 29.7434H210.998L210.476 29.8158H209.605L209.083 29.7434L208.561 29.5987L208.387 29.4539L208.039 29.2368H207.516L206.994 29.3816L206.82 29.5263L206.472 29.6711L206.124 29.8158V29.9605L205.95 30.1053L205.775 30.25L205.601 30.3947L205.427 30.5395V30.6118H204.731L204.209 30.5395H203.86H203.512L203.338 30.6118H202.99L202.642 30.4671L202.294 30.3224L201.945 30.25L201.597 30.1776H201.249H200.727H200.205H199.856L199.16 30.1053L198.638 29.9605L198.29 30.0329L197.941 30.1776L197.593 30.25L197.071 30.3947H196.723H195.852H195.504H195.156H194.46H194.285H193.763H193.241L192.893 30.3224L192.196 30.1776H191.956H191.5L191.152 30.1053L190.804 29.9605L190.455 29.8158L190.107 29.7434H189.585L189.237 29.8158H188.715L188.54 29.7434L188.192 29.6711L187.496 29.5263L187.322 29.3816L186.8 29.2368L186.451 29.0921L186.103 28.9474H185.581L185.407 28.7303L185.059 28.5132L184.885 28.2961L184.536 28.2237L184.014 28.1513L183.666 27.9342L183.492 27.6447V27.5L183.318 27.2829L183.144 27.0658L182.795 26.9211L181.925 26.8487L181.403 26.7039L180.88 26.5592H180.358L180.01 26.6316L179.662 26.7763L179.314 26.8487L178.965 26.9211L178.617 26.7039L178.443 26.4868L178.269 26.3421L177.921 26.125L177.747 25.9079L177.573 25.6908H177.225L176.876 25.7632L176.354 25.8355L175.832 25.7632L175.484 25.6184L174.961 25.6908L174.878 25.9079L174.613 26.125L174.439 26.2697L174.091 26.0526L173.917 25.8355L173.569 25.7632L173.22 25.8355L172.872 25.9079L172.524 25.8355L172.176 25.7632H171.828L171.48 25.8355L171.305 25.9079L170.957 25.7632L170.783 25.6184L170.609 25.4737H170.261L170.008 25.6184L169.739 25.8355L169.565 25.9079L169.274 26.0526L168.868 25.7632L168.52 25.5461L168.346 25.3289L168.172 25.1118L167.998 25.0395H167.65L167.301 25.1842L166.779 25.1118L166.431 25.0395L166.083 24.9671L165.735 25.0395L165.484 25.1118H165.212L164.864 25.2566H164.516L164.342 25.3289L163.994 25.1842L163.82 25.1118L163.471 24.9671L163.297 24.8224L162.775 24.8947L162.427 25.0395L162.253 25.1842L162.079 25.4013L161.905 25.6184L161.73 25.8355L161.556 25.9803L161.208 26.125L160.86 26.2697L160.512 26.1974L160.164 26.125L159.99 25.9803L159.467 26.125L158.945 26.2697L158.597 26.3421L158.249 26.125L157.9 25.9079L157.726 25.6908L157.552 25.4737L157.378 25.3289L157.204 25.1118V24.9671L157.03 24.75L156.856 24.6053H156.508L156.16 24.75L155.811 24.6053L155.463 24.3882L155.115 24.2434H154.593L154.245 24.3158L153.896 24.3882L153.44 24.3158L153.2 24.0987H152.852L152.678 24.1711L152.33 24.3882L151.981 24.5329L151.633 24.6053L151.285 24.6776L150.872 24.6053H150.589L150.24 24.6776L150.066 24.8224L149.892 24.9671L149.544 25.0395L149.37 24.75L149.196 24.6053L149.022 24.4605L148.674 24.3158L148.5 24.0987L148.151 23.8816L147.977 23.7368L147.629 23.5197L147.281 23.4474H146.759L146.585 23.5197L146.41 23.3026L146.062 23.1579L145.888 22.9408L145.54 22.8684L145.018 23.0132L144.844 23.0855L144.495 23.3026L144.321 23.5197V23.6645L144.147 23.8092L143.625 23.8816H143.277L142.755 23.8092H142.058H141.536H141.188L140.84 23.8816L140.491 23.9539L140.317 24.0987L140.143 24.2434L139.969 24.3882L139.795 24.6053L139.621 24.8224L139.447 25.0395L139.273 25.1842L138.925 25.1118L138.576 25.0395L138.228 24.8947L137.952 24.75L137.88 24.6053L137.706 24.4605V24.3158L137.532 24.0987V23.8092L137.358 23.5921L137.184 23.375L137.01 23.1579L136.835 23.0132L136.661 22.8684L136.487 22.6513L136.313 22.5066L135.965 22.2895L135.791 22.1447L135.443 22.0724L135.095 22.1447L134.92 22.2895L134.746 22.4342L134.398 22.5066L134.05 22.3618L133.702 22.2171L133.528 22L133.354 21.7105L133.18 21.4934L132.831 21.2763L132.657 21.1316L132.483 20.9868L132.135 20.8421H131.787L131.439 20.9145L130.916 21.0592L130.742 21.1316H130.394L130.046 20.9868L129.872 20.8421L129.698 20.7697L129.35 20.8421L129.175 20.9868L129.001 21.1316L128.827 21.2039L128.479 21.1316L128.305 20.9868L127.957 20.8421L127.609 20.7697L127.435 20.9145L127.086 20.9868L126.912 21.0592H126.564L126.39 20.9868L126.042 20.9145L125.694 20.8421L125.345 20.9145H124.997L124.649 20.8421L124.301 20.7697L123.953 20.6974L123.605 20.625L123.256 20.5526L122.734 20.3355H122.386L121.864 20.2632H121.515L120.993 20.3355L120.645 20.4079L120.297 20.4803H119.949L119.6 20.3355L119.252 20.1908V19.9737L119.078 19.7566L118.904 19.5395L118.73 19.3224L118.556 19.25H118.034H117.511L116.989 19.3947L116.641 19.5395L116.293 19.6118L115.596 19.6842L115.074 19.6118L114.552 19.5395L114.204 19.25L113.855 19.0329L113.333 19.1053L112.811 19.1776L112.289 19.0329L112.115 18.7434V18.4539V18.2368L111.94 17.9474L111.766 17.5855V17.3684L111.592 17.1513L111.418 16.8618L111.244 16.7171L110.548 16.6447H110.025H109.503H108.807H108.459H107.936L107.762 16.5L107.414 16.4276V16.5724L107.24 16.7171L107.066 16.9342V17.1513L106.892 17.4408V17.6579L106.718 17.8026V17.9474L106.544 18.0921H106.021H105.673L105.499 18.3816L105.325 18.5987L105.151 18.8882L104.977 19.1053H104.629L104.28 19.0329L103.932 18.9605L103.584 18.8882L103.236 18.9605L102.888 19.0329L102.365 18.9605L102.191 18.7434L101.843 18.5987L101.669 18.3816L101.321 18.2368L100.973 18.0921L100.45 18.1645L100.102 18.2368L99.7541 18.3092H99.2318L98.8836 18.1645L98.5355 18.0921L98.1873 18.2368L97.8391 18.3092L97.665 18.4539L97.3168 18.5987L96.9686 18.6711L96.6205 18.5263L96.2723 18.3816L95.9241 18.1645L95.75 17.9474L95.4018 17.8026L94.8795 17.9474L94.5314 18.0921L94.3573 17.875L94.1832 17.6579L94.0091 17.3684L93.835 17.1513L93.6609 16.8618V16.6447L93.3127 17.0066L93.1386 17.2237L92.9645 17.4408L92.6164 17.5855L92.0941 17.8026L91.5718 17.9474H91.2236H90.7014H90.1791L89.8309 18.0921L89.4827 18.1645L89.1345 18.3092L88.7864 18.0921L88.4382 17.875H87.7418H87.3936L86.8714 17.8026L86.5232 17.6579L86.0009 17.4408L85.6527 17.2961L85.1305 17.2237L84.9564 17.4408L84.7823 17.7303L84.6082 18.0197L84.4341 18.3092L84.0859 18.5263H83.5636L83.0414 18.4539L82.5191 18.3092L81.9968 18.1645H81.4745H81.1264L80.7782 18.0921L80.43 17.875L80.2559 17.7303L80.0818 17.5132L79.9077 17.3684L79.5595 17.2237L79.2114 17.3684L79.0373 17.5132L78.8632 17.6579L78.6891 17.8026L78.3409 17.7303L78.1668 17.5132L77.8186 17.3684L77.6445 17.2237L77.2964 17.0066L76.9482 16.8618L76.6 16.6447L76.2518 16.5V16.2829L76.0777 16.1382L75.9036 15.9211V15.7039L75.5555 15.5592L75.0332 15.7039H74.5109L74.1627 15.4868H73.8145L73.2923 15.6316H72.77H72.4218L72.0736 15.3421L71.7255 15.125L71.3773 14.9803H70.855L70.3327 15.0526L69.9845 15.2697L69.6364 15.4868L69.4623 15.7039L69.2882 15.9211L68.94 15.7039V15.3421L68.5918 15.125L68.4177 14.9803L68.0695 15.1974L67.7214 15.3421L67.3732 15.4145L66.8509 15.3421H66.3286L65.9805 15.4868L65.8064 15.7039L65.6323 15.9211L65.2841 16.2105L65.11 16.4276L64.7618 16.5724L64.2395 16.6447H63.8914L63.3691 16.7895L62.8468 17.0066L62.3245 16.7895L61.9764 16.6447L61.6282 16.5724H61.1059H60.7577L60.2355 16.6447L59.7132 16.7895H59.1909L58.8427 16.6447L58.4945 16.5L57.9723 16.2105L57.6241 15.9211L57.45 15.6316L57.2759 15.3421L57.1018 15.0526L56.9277 14.7632L56.7536 14.4737V14.1842L56.5795 13.8224L56.2314 13.8947L55.8832 14.0395L55.535 14.1118L55.1868 14.0395L55.0127 13.8947L54.6645 13.9671L54.1423 14.0395L53.7941 13.9671L53.62 13.8224L53.2718 13.6776L52.9236 13.8224L52.5755 13.9671L52.4014 14.1118L52.0532 13.9671L51.705 13.8947L51.5309 14.1118L51.1827 14.3289L51.0086 14.4737L50.6605 14.4013L50.3123 14.1842L50.1382 13.9671L49.9641 13.75L49.79 13.5329L49.6159 13.2434L49.4418 13.0263L49.2677 12.7368H48.7455H48.2232L47.875 12.5921L47.5268 12.4474L47.1786 12.3026L46.8305 12.2303L46.1341 12.375L45.7859 12.5197L45.6118 12.7368L45.2636 12.9539L45.0895 13.1711L44.9155 13.3882L44.7414 13.6053H44.2191L43.8709 13.3882L43.3486 13.2434L42.8264 13.3158H42.3041L41.7818 13.2434L41.2595 13.0987L40.7373 13.0263H40.215L39.8668 12.9539L39.5186 12.6645V12.375V12.0855L39.3445 11.8684L39.1705 11.5789V11.3618L38.8223 11L38.4741 11.3618L38.3 11.5789L38.1259 11.7237L37.7777 11.8684H37.2555L36.7332 11.9408H36.2109L35.5145 12.0855H34.9923L34.6441 12.2303L34.1218 12.375L33.5995 12.3026H33.0773L32.7291 12.1579L32.3809 12.375L32.2068 12.5921L31.8586 12.6645L31.5105 12.5921L31.3364 12.4474L31.1623 12.2303L30.8141 12.375L30.4659 12.5197L30.2918 12.6645L29.9436 12.7368L29.5955 12.6645L29.2473 12.5197L28.725 12.4474L28.2027 12.3026H27.8545L27.5064 12.2303L27.1582 12.0855L26.6359 12.0132L25.9395 11.9408H25.4173L25.0691 12.0132L24.5468 12.0855H24.0245H23.6764L23.3282 12.2303L22.98 12.375L22.6318 12.4474L22.1095 12.5197L21.065 12.4474H20.1945H19.4982H19.15L18.6277 12.1579L18.2795 12.0132L17.5832 11.8684H16.8868H16.1905L15.4941 11.7237L14.6236 11.8684H13.7532H13.0568L12.5345 12.1579L12.0123 12.4474L11.6641 12.7368V13.1711L11.3159 13.5329L10.9677 13.8947L10.7936 14.2566L10.0973 14.4013L9.575 14.2566L8.70455 14.1118L8.00819 14.2566L7.48591 14.4013L6.96364 14.4737L6.61546 14.2566L6.26728 14.1118L5.9191 13.9671L5.57091 14.1118L5.22273 14.1842L4.87455 14.2566H4.52637H4.17819L3.65591 14.1842L3.48182 13.9671L2.78546 13.8224L2.0891 13.6776V13.3882L1.915 13.0987L1.74091 12.8092L1.56682 12.5921L1.39273 12.375L1.04455 12.5197L0.696368 12.6645L0.348186 12.7368H4.64916e-06" stroke="#E4ABAB" stroke-linecap="round"/>
</g>
<defs>
<linearGradient id="paint0_linear_76_1499" x1="191.5" y1="11" x2="191.5" y2="34" gradientUnits="userSpaceOnUse">
<stop stop-color="#E4ABAB" stop-opacity="0.1"/>
<stop offset="1" stop-color="#E4ABAB" stop-opacity="0"/>
</linearGradient>
<clipPath id="clip0_76_1499">
<rect width="383" height="34" fill="white"/>
</clipPath>
</defs>
</svg>
