<svg width="24" height="24" viewBox="0 0 24 24" fill="none" xmlns="http://www.w3.org/2000/svg">
<path opacity="0.35" d="M18.673 13.092L18.723 13.011V13.004C18.9036 12.7002 18.9993 12.3534 19 12C18.9997 11.5359 18.838 11.0864 18.5426 10.7284C18.2472 10.3705 17.8366 10.1264 17.381 10.038L14 9V4C13.9981 3.56775 13.8562 3.14773 13.5956 2.80287C13.335 2.458 12.9697 2.20685 12.5544 2.08703C12.1391 1.96721 11.6961 1.98517 11.2919 2.13822C10.8876 2.29127 10.5438 2.57117 10.312 2.936L5.36398 10.855C5.18086 11.1142 5.06252 11.4135 5.01888 11.7278C4.97523 12.0421 5.00754 12.3624 5.11311 12.6616C5.21868 12.9609 5.39442 13.2305 5.62563 13.4479C5.85684 13.6653 6.13677 13.8241 6.44198 13.911V13.917L9.99998 15V20C9.99874 20.448 10.1484 20.8835 10.4249 21.236C10.7014 21.5886 11.0886 21.8377 11.524 21.9433C11.9595 22.0489 12.4178 22.0048 12.825 21.818C13.2323 21.6313 13.5648 21.3128 13.769 20.914L18.649 13.129C18.658 13.117 18.665 13.1 18.673 13.092Z" fill="#B7EB8E"/>
<path d="M14.8599 12.5442L14.8813 12.5037V12.5002C14.9587 12.3482 14.9997 12.1748 15 11.998C14.9999 11.7658 14.9306 11.5409 14.804 11.3619C14.6774 11.1828 14.5014 11.0607 14.3061 11.0165L12.8571 10.4973V7.99613C12.8563 7.7799 12.7955 7.5698 12.6839 7.39729C12.5722 7.22478 12.4156 7.09914 12.2376 7.03921C12.0596 6.97927 11.8698 6.98825 11.6965 7.06481C11.5233 7.14137 11.3759 7.28139 11.2766 7.46388L9.15599 11.4252C9.07751 11.5549 9.0268 11.7046 9.00809 11.8618C8.98938 12.019 9.00323 12.1792 9.04847 12.3289C9.09372 12.4786 9.16904 12.6135 9.26813 12.7222C9.36722 12.831 9.48719 12.9104 9.61799 12.9539V12.9569L11.1429 13.4986V15.9998C11.1423 16.2239 11.2065 16.4417 11.325 16.6181C11.4435 16.7944 11.6094 16.9191 11.796 16.9719C11.9826 17.0247 12.179 17.0026 12.3536 16.9092C12.5281 16.8158 12.6707 16.6565 12.7581 16.457L14.8496 12.5627C14.8534 12.5567 14.8564 12.5482 14.8599 12.5442Z" fill="#B7EB8E"/>
</svg>
