<svg width="30" height="30" viewBox="0 0 30 30" fill="none" xmlns="http://www.w3.org/2000/svg">
<path opacity="0.35" d="M16.8749 23.5812V16.7775L26.0074 10.9563L23.9924 7.79375L14.9999 13.5275L8.64493 9.475L15.9187 5.38375L14.0812 2.11625L4.08118 7.74125L4.99993 9.375L3.99243 10.9563L13.1249 16.7775V23.5812L6.00743 19.0438L3.99243 22.2062L13.9924 28.5813L14.9999 27L16.0074 28.5813L26.0074 22.2062L23.9924 19.0438L16.8749 23.5812Z" fill="#E3E4AB"/>
<path d="M15 6.25C16.3807 6.25 17.5 5.13071 17.5 3.75C17.5 2.36929 16.3807 1.25 15 1.25C13.6193 1.25 12.5 2.36929 12.5 3.75C12.5 5.13071 13.6193 6.25 15 6.25Z" fill="#E3E4AB"/>
<path d="M25 11.875C26.3807 11.875 27.5 10.7557 27.5 9.375C27.5 7.99429 26.3807 6.875 25 6.875C23.6193 6.875 22.5 7.99429 22.5 9.375C22.5 10.7557 23.6193 11.875 25 11.875Z" fill="#E3E4AB"/>
<path d="M5 11.875C6.38071 11.875 7.5 10.7557 7.5 9.375C7.5 7.99429 6.38071 6.875 5 6.875C3.61929 6.875 2.5 7.99429 2.5 9.375C2.5 10.7557 3.61929 11.875 5 11.875Z" fill="#E3E4AB"/>
<path d="M15 28.75C16.3807 28.75 17.5 27.6307 17.5 26.25C17.5 24.8693 16.3807 23.75 15 23.75C13.6193 23.75 12.5 24.8693 12.5 26.25C12.5 27.6307 13.6193 28.75 15 28.75Z" fill="#E3E4AB"/>
<path d="M5 23.125C6.38071 23.125 7.5 22.0057 7.5 20.625C7.5 19.2443 6.38071 18.125 5 18.125C3.61929 18.125 2.5 19.2443 2.5 20.625C2.5 22.0057 3.61929 23.125 5 23.125Z" fill="#E3E4AB"/>
<path d="M25 23.125C26.3807 23.125 27.5 22.0057 27.5 20.625C27.5 19.2443 26.3807 18.125 25 18.125C23.6193 18.125 22.5 19.2443 22.5 20.625C22.5 22.0057 23.6193 23.125 25 23.125Z" fill="#E3E4AB"/>
<path d="M15 17.5C16.3807 17.5 17.5 16.3807 17.5 15C17.5 13.6193 16.3807 12.5 15 12.5C13.6193 12.5 12.5 13.6193 12.5 15C12.5 16.3807 13.6193 17.5 15 17.5Z" fill="#E3E4AB"/>
</svg>
