<svg width="24" height="24" viewBox="0 0 24 24" fill="none" xmlns="http://www.w3.org/2000/svg">
<path d="M19.727 8.51202C20.084 6.47602 20.367 4.10002 20 3.00002C19 2.09808e-05 16 3.00002 16 3.00002L14.526 4.47402C13.574 4.17102 12.559 4.00002 11.5 4.00002C11.008 4.00002 10.529 4.04602 10.057 4.11502C9.738 3.47702 9.369 2.73902 9 2.00002C8 2.09808e-05 7 1.00002 7 3.00002C7 3.50002 7 5.00002 7 5.00002L7.104 5.02602C4.072 6.52902 2 9.53302 2 13C2 17.971 6.253 22 11.5 22C16.747 22 21 17.971 21 13C21 11.364 20.532 9.83402 19.727 8.51202Z" fill="#8EE8E2"/>
<path d="M19.727 8.51202C20.084 6.47602 20.367 4.10002 20 3.00002C19 2.09808e-05 16 3.00002 16 3.00002L14.526 4.47402C13.574 4.17102 12.559 4.00002 11.5 4.00002C11.008 4.00002 10.529 4.04602 10.057 4.11502C9.738 3.47702 9.369 2.73902 9 2.00002C8 2.09808e-05 7 1.00002 7 3.00002C7 3.50002 7 5.00002 7 5.00002L7.104 5.02602C5.045 6.04702 3.449 7.76902 2.623 9.84902C3.337 9.71502 4.514 9.63002 5.349 10.235C4.551 10.568 4 11.229 4 12C4 12.176 4.037 12.344 4.091 12.506C4.195 12.945 4.523 13.366 5 13.663V16.158C3.675 15.744 2.707 15.101 2.172 14.686C2.387 15.76 2.807 16.762 3.386 17.664C4.533 18.153 5.959 18.541 7.599 18.541C9.349 18.541 11.342 18.099 13.496 16.868C13.975 16.594 14.142 15.983 13.868 15.504C13.594 15.025 12.984 14.859 12.504 15.132C10.436 16.314 8.577 16.628 7 16.526V14C7 13.988 6.994 13.979 6.993 13.967C7.003 13.964 7.011 13.958 7.021 13.955C8.152 13.763 9 12.961 9 12C9 11.991 8.997 11.983 8.997 11.975C9.782 12.103 11.788 12.394 13 13C15 14 16.509 12.004 17 11C17.395 10.193 18 8.00002 20.505 10.199C20.299 9.61102 20.049 9.04102 19.727 8.51202ZM7.944 8.28002C7.862 8.11602 7.696 8.00002 7.5 8.00002C7.224 8.00002 7 8.22402 7 8.50002C7 8.69602 7.116 8.86202 7.28 8.94302C7.189 8.97002 7.099 9.00002 7 9.00002C6.448 9.00002 6 8.55202 6 8.00002C6 7.44802 6.448 7.00002 7 7.00002C7.552 7.00002 8 7.44802 8 8.00002C8 8.09902 7.971 8.18902 7.944 8.28002ZM13.964 9.82102C13.877 9.35702 13.489 9.00002 13 9.00002C12.448 9.00002 12 9.44802 12 10C12 10.489 12.357 10.877 12.821 10.964C12.717 10.986 12.61 11 12.5 11C11.672 11 11 10.328 11 9.50002C11 8.67202 11.672 8.00002 12.5 8.00002C13.328 8.00002 14 8.67202 14 9.50002C14 9.61002 13.986 9.71702 13.964 9.82102ZM19.09 7.60402C18.303 6.61302 17.311 5.77902 16.165 5.16502L16 5.00002C16 5.00002 18 2.00002 19 3.00002C19.808 3.80802 19.311 6.57002 19.09 7.60402Z" fill="#4D8375"/>
</svg>
