<svg width="24" height="24" viewBox="0 0 24 24" fill="none" xmlns="http://www.w3.org/2000/svg">
<path opacity="0.35" d="M5 4H19C20.657 4 22 5.343 22 7V17C22 18.657 20.657 20 19 20H5C3.343 20 2 18.657 2 17V7C2 5.343 3.343 4 5 4Z" fill="white"/>
<path d="M19 20H17C17 20.552 17.448 21 18 21C18.552 21 19 20.552 19 20Z" fill="white"/>
<path d="M7 20H5C5 20.552 5.448 21 6 21C6.552 21 7 20.552 7 20Z" fill="white"/>
<path d="M5.5 15C6.32843 15 7 14.3284 7 13.5C7 12.6716 6.32843 12 5.5 12C4.67157 12 4 12.6716 4 13.5C4 14.3284 4.67157 15 5.5 15Z" fill="white"/>
<path d="M17.721 8.69301L18.707 7.70701C19.098 7.31601 19.098 6.68401 18.707 6.29301C18.316 5.90201 17.684 5.90201 17.293 6.29301L16.105 7.48101C15.463 7.18001 14.754 7.00001 14 7.00001C13.246 7.00001 12.537 7.18001 11.895 7.48101L10.707 6.29301C10.316 5.90201 9.68401 5.90201 9.29301 6.29301C8.90201 6.68401 8.90201 7.31601 9.29301 7.70701L10.279 8.69301C9.49301 9.57701 9.00001 10.727 9.00001 12C9.00001 13.273 9.49301 14.423 10.279 15.307L9.29301 16.293C8.90201 16.684 8.90201 17.316 9.29301 17.707C9.48801 17.902 9.74401 18 10 18C10.256 18 10.512 17.902 10.707 17.707L11.895 16.519C12.537 16.82 13.246 17 14 17C14.754 17 15.463 16.82 16.105 16.519L17.293 17.707C17.488 17.902 17.744 18 18 18C18.256 18 18.512 17.902 18.707 17.707C19.098 17.316 19.098 16.684 18.707 16.293L17.721 15.307C18.507 14.423 19 13.273 19 12C19 10.727 18.507 9.57701 17.721 8.69301ZM12 12C12 10.897 12.897 10 14 10C15.103 10 16 10.897 16 12C16 13.103 15.103 14 14 14C12.897 14 12 13.103 12 12Z" fill="white"/>
</svg>
