<svg width="24" height="24" viewBox="0 0 24 24" fill="none" xmlns="http://www.w3.org/2000/svg">
<path d="M19.727 8.512C20.084 6.476 20.367 4.1 20 3C19 -5.96046e-08 16 3 16 3L14.526 4.474C13.574 4.171 12.559 4 11.5 4C11.008 4 10.529 4.046 10.057 4.115C9.738 3.477 9.369 2.739 9 2C8 -5.96046e-08 7 1 7 3C7 3.5 7 5 7 5L7.104 5.026C4.072 6.529 2 9.533 2 13C2 17.971 6.253 22 11.5 22C16.747 22 21 17.971 21 13C21 11.364 20.532 9.834 19.727 8.512Z" fill="#8EE8E2"/>
<path d="M19.7269 8.512C20.0839 6.476 20.3669 4.1 19.9999 3C18.9999 -5.96046e-08 15.9999 3 15.9999 3L14.5259 4.474C13.5739 4.171 12.5589 4 11.4999 4C11.0079 4 10.5289 4.046 10.0569 4.115C9.73787 3.477 9.36888 2.739 8.99988 2C7.99988 -5.96046e-08 6.99988 1 6.99988 3C6.99988 3.5 6.99988 5 6.99988 5L7.10388 5.026C5.04488 6.047 3.44887 7.769 2.62287 9.849C3.33687 9.715 4.51388 9.63 5.34888 10.235C4.55088 10.568 3.99988 11.229 3.99988 12C3.99988 12.176 4.03688 12.344 4.09088 12.506C4.19488 12.945 4.52288 13.366 4.99988 13.663V16.158C3.67488 15.744 2.70688 15.101 2.17188 14.686C2.38688 15.76 2.80687 16.762 3.38587 17.664C4.53288 18.153 5.95888 18.541 7.59888 18.541C9.34888 18.541 11.3419 18.099 13.4959 16.868C13.9749 16.594 14.1419 15.983 13.8679 15.504C13.5939 15.025 12.9839 14.859 12.5039 15.132C10.4359 16.314 8.57688 16.628 6.99988 16.526V14C6.99988 13.988 6.99388 13.979 6.99288 13.967C7.00288 13.964 7.01087 13.958 7.02087 13.955C8.15188 13.763 8.99988 12.961 8.99988 12C8.99988 11.991 8.99687 11.983 8.99687 11.975C9.78187 12.103 11.7879 12.394 12.9999 13C14.9999 14 16.5089 12.004 16.9999 11C17.3949 10.193 17.9999 8 20.5049 10.199C20.2989 9.611 20.0489 9.041 19.7269 8.512ZM7.94387 8.28C7.86188 8.116 7.69588 8 7.49988 8C7.22388 8 6.99988 8.224 6.99988 8.5C6.99988 8.696 7.11588 8.862 7.27988 8.943C7.18888 8.97 7.09888 9 6.99988 9C6.44788 9 5.99988 8.552 5.99988 8C5.99988 7.448 6.44788 7 6.99988 7C7.55188 7 7.99988 7.448 7.99988 8C7.99988 8.099 7.97087 8.189 7.94387 8.28ZM13.9639 9.821C13.8769 9.357 13.4889 9 12.9999 9C12.4479 9 11.9999 9.448 11.9999 10C11.9999 10.489 12.3569 10.877 12.8209 10.964C12.7169 10.986 12.6099 11 12.4999 11C11.6719 11 10.9999 10.328 10.9999 9.5C10.9999 8.672 11.6719 8 12.4999 8C13.3279 8 13.9999 8.672 13.9999 9.5C13.9999 9.61 13.9859 9.717 13.9639 9.821ZM19.0899 7.604C18.3029 6.613 17.3109 5.779 16.1649 5.165L15.9999 5C15.9999 5 17.9999 2 18.9999 3C19.8079 3.808 19.3109 6.57 19.0899 7.604Z" fill="#4D8375"/>
</svg>
