<svg width="24" height="24" viewBox="0 0 24 24" fill="none" xmlns="http://www.w3.org/2000/svg">
<g opacity="0.5">
<path d="M20.2502 14.605V17.7625L12.0002 22L3.75021 17.7625V16.105C4.96521 15.04 6.75021 13.75 7.50021 13.75C8.06271 13.75 10.0052 14.8525 11.4977 15.85V15.7525C12.2852 14.995 15.7502 12.25 16.5002 12.25C17.2502 12.25 19.0277 13.54 20.2502 14.605Z" fill="#E3C5FB"/>
<path fill-rule="evenodd" clip-rule="evenodd" d="M19.6425 7.29904L12.2502 3.03109C12.0955 2.94177 11.9049 2.94177 11.7502 3.03109L4.35791 7.29904C4.20321 7.38835 4.10791 7.55342 4.10791 7.73205V16.2679C4.10791 16.4466 4.20321 16.6116 4.35791 16.701L11.7502 20.9689C11.9049 21.0582 12.0955 21.0582 12.2502 20.9689L19.6425 16.701C19.7972 16.6116 19.8925 16.4466 19.8925 16.2679V7.73205C19.8925 7.55342 19.7972 7.38835 19.6425 7.29904ZM13.5002 0.866025C12.572 0.330127 11.4284 0.330127 10.5002 0.866026L3.10791 5.13397C2.17971 5.66987 1.60791 6.66025 1.60791 7.73205V16.2679C1.60791 17.3397 2.17971 18.3301 3.10791 18.866L10.5002 23.134C11.4284 23.6699 12.572 23.6699 13.5002 23.134L20.8925 18.866C21.8207 18.3301 22.3925 17.3397 22.3925 16.2679V7.73205C22.3925 6.66025 21.8207 5.66987 20.8925 5.13397L13.5002 0.866025Z" fill="#E3C5FB"/>
</g>
<circle cx="11" cy="9" r="3" fill="#E3C5FB"/>
</svg>
