<svg width="1253" height="32" viewBox="0 0 1253 32" fill="none" xmlns="http://www.w3.org/2000/svg">
<path d="M1 21.2303L2.13727 21.0329H3.27455H4.41182L5.54909 20.8355L6.68636 20.6382L7.82364 20.4408L8.96091 20.2434L10.0982 20.4408H11.2355L12.3727 20.3421L13.51 20.1447L14.6473 19.9474L15.7845 19.8487L16.9218 19.6513L18.0591 19.4539H19.1964L19.765 19.2566L20.3336 19.0592H21.4709L22.6082 19.1579L23.1768 19.3553L23.7455 19.4539H24.8827L26.02 19.2566L27.1573 19.3553V19.6513L27.7259 19.8487L28.2945 20.0461L28.8632 20.2434L29.4318 20.3421H30.5691L31.7064 20.2434L32.8436 20.3421L33.9809 20.5395L35.1182 20.6382L36.2555 20.4408L37.3927 20.2434L37.9614 20.0461L39.0986 19.8487H40.2359L41.3732 19.9474L41.9418 20.1447L43.0791 20.3421H44.2164L45.3536 20.4408L46.4909 20.6382L47.6282 20.8355L48.1968 21.0329L48.7655 21.3289V21.625V21.9211L49.3341 22.2171L49.9027 22.5132L50.4714 22.8092L51.6086 23.0066H53.3145L54.4518 22.8092L55.5891 22.6118L56.7264 22.4145L57.8636 22.2171L58.4323 21.9211L59.0009 21.5263L59.5695 21.3289L60.1382 20.9342L61.2755 20.8355L62.4127 21.0329L62.9814 21.2303L63.55 21.4276L64.6873 21.625L65.2559 21.8224L65.8245 22.0197L66.9618 22.1184L68.0991 22.2171L69.2364 22.4145L70.3736 22.6118L71.5109 22.7105L72.6482 22.6118L73.2168 22.4145H74.9227L76.06 22.5132L77.1973 22.6118L78.3345 22.8092L79.4718 22.6118L80.6091 22.4145H81.7464H82.8836L84.0209 22.6118L85.7268 22.7105L86.8641 22.9079L87.4327 23.1053L88.57 23.4013V23.6974L89.1386 23.8947L89.7073 24.1908L90.2759 24.4868L90.8445 24.7829L91.4132 25.0789L91.9818 25.4737L92.5505 25.7697L93.1191 26.0658L93.6877 26.3618L94.825 26.6579L95.3936 27.0526L95.9623 27.4474L96.5309 27.7434L97.6682 28.1382V28.5329L98.8055 28.7303L99.9427 29.0263L101.08 29.125L102.217 28.9276L103.355 28.6316L103.923 28.9276L105.347 29.125L106.198 29.3224L106.766 29.6184L107.904 29.3224L108.472 29.0263L109.61 28.8289L111.315 28.9276L112.453 29.125L113.59 29.3224L114.727 29.6184L115.865 29.3224L117.002 29.125L118.139 29.3224L119.276 29.5197H120.414H121.551L122.688 29.3224L124.394 29.2237L126.1 29.0263L127.806 28.9276L129.278 29.0263L130.649 29.3224L132.04 29.5197L133.492 29.7171L135.198 29.9145L136.335 30.1118L137.473 30.4079L138.61 30.6053H140.316L141.453 30.4079L142.59 30.7039L143.159 31H144.865H146.571L147.708 30.8026L148.845 30.5066L149.983 30.3092L151.12 30.0132L152.826 29.8158L155.1 29.6184L156.806 29.3224L158.512 29.0263L160.218 28.9276L162.493 29.125L164.767 29.2237L166.473 29.5197L167.61 29.8158L168.748 30.2105L169.316 30.5066L170.454 30.7039L171.591 31L172.728 30.9013L173.865 30.5066L175.003 30.2105L176.709 29.9145L177.846 29.5197L179.552 29.125L180.689 28.8289L181.258 28.4342L181.826 28.0395L182.395 27.6447L183.532 27.4474L185.238 27.25L185.807 26.8553L186.375 26.5592V26.1645L186.944 25.7697V25.4737L187.513 25.1776L188.081 24.9803L189.787 25.1776L190.925 25.2763L192.63 25.4737L193.768 25.1776L196.042 24.9803L197.18 24.6842L199.454 24.5855L200.591 24.8816H202.866L204.003 25.1776L204.572 25.4737L205.14 25.7697L205.709 25.9671L206.278 26.1645L207.415 26.3618L208.552 26.1645L209.121 25.7697L209.69 25.375L210.258 24.9803L210.827 24.4868L211.395 24.0921L212.533 23.7961L213.101 23.5L213.67 23.2039L214.239 23.0066L215.945 22.9079L217.65 23.0066L219.356 23.2039L221.062 23.4013L222.768 23.5987L223.905 23.8947L225.043 24.0921L226.18 24.2895H227.317L228.757 24.0921L230.16 23.8947L231.298 24.0921L232.435 23.9934L233.004 23.5L233.572 23.2039L234.71 22.9079L235.847 23.0066L236.415 23.2039L237.553 23.3026L238.69 23.2039L239.827 23.0066L240.965 22.7105L242.102 22.5132L243.808 22.6118L244.376 22.9079L244.945 23.1053L245.514 23.3026L246.082 22.9079L246.651 22.5132L247.22 22.1184L247.788 21.7237L248.357 21.3289L249.494 21.0329L251.2 20.9342L252.337 20.7368L252.906 20.4408L254.043 20.2434L255.18 19.9474L256.886 20.0461L258.024 20.2434L259.161 20.5395L260.298 20.7368H262.004H263.141L264.279 20.9342L265.416 21.1316L266.553 21.3289L267.69 21.5263L268.828 21.7237V21.9211V22.2171L269.396 22.5132L269.965 22.7105L270.534 23.0066L271.102 23.4013L271.671 23.6974L272.808 23.9934L273.377 24.1908L274.514 24.2895L275.651 24.1908L276.789 23.9934L278.495 23.8947H279.632H280.2L281.906 23.6974L283.044 23.5L284.181 23.4013L285.887 23.3026L286.455 23.4013L287.024 23.6974L287.593 23.9934L288.161 24.1908L288.73 24.4868V24.7829L289.299 25.0789L290.436 25.2763L291.573 25.4737L292.71 25.7697L293.848 25.9671H294.985L295.554 25.6711L296.122 25.375L296.691 25.1776L297.828 24.9803L299.534 24.8816H300.671H301.809L302.946 24.7829L304.083 24.5855L305.789 24.4868H307.495L309.201 24.5855H310.338L311.475 24.4868L312.613 24.3882L313.75 24.1908L314.319 23.8947L314.887 23.7961L316.025 23.8947L316.593 24.0921L317.162 24.2895L317.73 24.4868V24.6842L318.868 24.5855L319.436 24.1908L320.574 24.0921L321.142 23.8947L322.28 23.6974L322.848 23.5L323.985 23.3026L324.809 23.0066L325.691 22.8092L326.829 22.6118L327.397 22.3158L327.966 22.2171H329.103L330.24 22.3158L331.378 22.5132L332.515 22.6118L333.652 22.7105L334.221 22.9079V23.1053L334.79 23.3026V23.5L335.358 23.7961V23.9934L335.927 24.1908L336.495 24.3882L337.633 24.1908L338.201 23.9934L338.77 24.0921L339.907 24.3882V24.5855L340.476 24.8816L340.758 25.1776L341.045 25.4737L342.182 25.6711L343.888 25.8684L345.594 25.9671L346.731 25.8684L347.3 26.1645L347.868 26.3618V26.6579L348.437 26.8553L349.574 27.0526H351.28L352.417 26.9539L353.555 27.1513L354.692 27.4474L355.26 27.7434L356.398 28.0395H357.535L358.672 27.7434L359.241 27.4474L360.378 27.3487H362.653H363.79H365.496H366.633L368.339 27.25L368.908 27.0526L370.614 26.9539L372.32 26.8553L374.025 26.9539L375.731 27.0526H378.006L379.143 27.25H380.28L381.418 27.4474L383.124 27.5461L384.83 27.7434H385.967L387.104 27.4474L387.673 27.25L388.81 27.0526L389.688 26.9539L391.085 26.6579L392.222 26.5592H393.928H395.065L396.771 26.6579L397.908 26.8553L399.614 26.9539L401.32 27.0526H402.751L403.595 26.9539L405.3 27.1513L405.869 27.25L406.438 27.4474L407.575 27.5461L408.712 27.3487L409.85 27.25H410.987H412.124L413.261 27.3487L413.83 27.4474H414.967L416.105 27.3487H417.242L418.379 27.4474H419.516L420.654 27.3487L421.222 27.25L422.36 27.0526L423.497 26.9539L424.634 26.8553L425.771 26.9539L426.34 27.1513L428.046 27.25L429.183 27.3487L430.32 27.4474L432.026 27.3487L432.595 27.25L433.732 27.1513L435.438 27.0526L436.575 26.9539L438.281 26.8553L438.85 26.6579L439.419 26.4605L439.987 26.3618L441.125 26.4605L442.262 26.5592L442.83 26.1645L443.399 25.8684L443.968 25.6711L444.536 25.4737L445.105 25.2763L445.674 24.9803L446.242 24.7829L446.811 24.4868L447.38 24.2895L447.948 23.9934L448.517 23.8947L450.223 23.9934L451.36 23.8947L452.497 23.5987L453.635 23.4013L454.772 23.2039V23.0066L455.909 22.8092L457.046 22.9079L458.184 23.0066H459.89H461.027L462.164 22.9079L463.87 22.8092L465.007 23.0066L466.145 23.2039L467.282 23.3026L468.988 23.1053L469.556 22.7105L470.125 22.5132L470.694 22.2171L471.831 21.9211H472.968L474.674 22.1184L475.243 22.3158L476.949 22.5132L478.655 22.7105L479.223 23.0066L479.792 23.2039V23.5L480.36 23.7961V24.1908V24.3882L480.929 24.6842V24.9803L481.498 25.2763V25.5724L482.066 25.7697V26.0658V26.2632L482.635 26.4605L483.204 26.7566V27.0526V27.4474L484.341 27.8421V28.1382L485.478 27.9408C485.478 27.8421 485.478 27.625 485.478 27.5461C485.478 27.4671 485.857 27.3158 486.047 27.25V26.8553L486.615 26.6579L487.753 26.5592L489.459 26.6579L490.596 26.7566L491.165 26.9539L492.302 27.0526L493.439 27.25L494.008 27.4474L494.576 27.5461H495.714L496.282 27.3487L496.851 27.25L497.42 27.1513H497.988L499.125 27.0526H500.263L500.831 27.25L501.969 27.3487L502.537 27.4474L504.243 27.5461H505.38H506.518H507.655L508.224 27.4474H509.361H509.93L511.067 27.5461L511.635 27.7434L512.204 27.9408L512.773 28.2368L513.341 28.3355L513.91 28.5329L515.047 28.7303H516.185L517.322 28.5329L518.459 28.4342L519.028 28.2368L519.596 28.1382L520.734 27.9408L521.302 27.8421L522.44 27.6447H523.577L524.714 27.5461H525.851H527.557L528.695 27.6447L529.832 27.7434H531.538L532.675 27.9408H533.812L534.95 27.5461L535.518 27.25L536.087 26.9539L536.655 26.6579L537.224 26.5592L538.93 26.4605L540.067 26.3618H541.205L542.342 26.4605H543.479L544.616 26.5592L545.754 26.6579L546.322 26.8553H546.891L548.028 26.6579L549.165 26.4605H549.734L550.303 26.5592L551.44 26.6579L552.577 26.7566C552.767 26.7566 553.26 26.7566 553.715 26.7566C554.169 26.7566 555.041 26.7566 555.42 26.7566L555.989 26.8553L557.126 26.9539L558.832 26.8553L559.401 26.6579L561.107 26.5592H562.813L564.519 26.6579H567.362L569.068 26.5592L570.774 26.3618L571.342 26.1645L572.48 25.8684H574.185L575.891 26.0658L576.46 26.2632L577.597 26.4605L578.735 26.6579V26.8553L579.303 27.0526L579.872 27.25L580.44 27.4474L581.009 27.6447V27.7434H583.284L584.99 27.6447H586.127H587.264L587.833 27.7434H588.97L590.107 27.5461L591.245 27.3487L592.382 27.25L593.519 27.1513H594.656H596.362H598.068H599.205L601.48 27.0526L603.186 26.8553L604.323 26.9539L605.46 27.1513L606.598 27.25L608.304 27.4474H609.441H612.284H613.421H614.559H616.833H617.402H619.108H620.814L621.951 27.3487L624.225 27.1513H625.011H626.5L627.637 27.0526L628.775 26.8553L629.912 26.6579L631.049 26.5592H632.755L633.892 26.6579H635.598L636.167 26.5592L637.304 26.4605L639.579 26.2632L640.147 26.0658L641.853 25.8684L642.99 25.6711L644.128 25.4737H645.834L646.402 25.1776L647.54 24.8816L648.108 24.5855L649.245 24.4868L650.951 24.3882L652.089 24.0921L652.657 23.6974V23.5L653.226 23.2039L653.795 22.9079L654.932 22.7105L657.775 22.6118L659.481 22.4145L661.187 22.2171H662.893L664.03 22.3158L665.167 22.5132L666.305 22.6118L667.442 22.7105L668.579 22.4145L669.148 22.1184L669.716 21.9211L670.854 21.625L671.422 21.3289L671.991 21.0329H673.128L674.265 21.1316L675.971 21.2303L677.677 21.1316L678.815 20.9342L680.52 21.0329L680.792 21.3289L681.658 21.625L682.226 21.8224L683.364 21.5263L683.932 21.2303L685.07 21.1316L686.207 21.2303L687.344 21.3289L688.481 21.2303L689.619 21.1316H690.756L691.893 21.2303L692.462 21.3289L693.599 21.1316L694.168 20.9342L694.736 20.7368H695.874L696.701 20.9342L697.58 21.2303L698.148 21.3289L699.097 21.5263L700.423 21.1316L701.56 20.8355L702.129 20.5395L702.697 20.2434L703.266 20.1447H704.403L705.54 20.3421L707.246 20.2434L708.384 20.1447L709.521 20.0461L710.658 20.1447L711.478 20.2434H712.364L713.501 20.4408H714.639L715.207 20.5395L716.345 20.3421L716.913 20.2434L718.05 20.0461L718.619 19.8487L720.325 19.9474L721.462 20.1447L722.031 20.3421L722.6 20.6382L723.168 20.9342L723.737 21.2303L724.305 21.4276L725.443 21.625L726.58 21.8224L727.717 21.7237L728.855 21.625L729.423 21.4276L731.129 21.625L732.835 21.8224L733.972 21.9211L735.11 21.625L736.247 21.3289L736.815 21.0329L737.384 20.7368L737.953 20.5395L738.521 20.2434V20.0461L739.09 19.75L739.659 19.5526H740.796L741.933 19.75L743.07 19.5526L744.208 19.2566L745.345 19.0592H747.051L748.188 19.1579L749.325 19.2566L750.818 19.1579L751.6 18.8618H752.737L753.306 18.9605L754.443 19.2566L755.58 19.4539L756.718 19.5526L757.855 19.6513L759.205 19.5526H760.13L761.267 19.6513L761.835 19.8487L762.404 20.0461L763.541 20.1447L764.11 19.75L764.679 19.5526L765.247 19.3553L766.385 19.1579L766.953 18.8618L768.09 18.5658L768.659 18.3684L769.796 18.0724L770.934 17.9737H772.64L773.208 18.0724L773.777 17.7763L774.914 17.5789L775.483 17.2829L776.62 17.1842L778.326 17.3816L778.895 17.4803L780.032 17.7763L780.6 18.0724V18.2697L781.169 18.4671L782.875 18.5658H784.012L785.718 18.4671H787.993H789.699H790.836L791.973 18.5658L793.11 18.6645L793.679 18.8618L794.248 19.0592L794.816 19.2566L795.385 19.5526L795.954 19.8487L796.522 20.1447L797.091 20.3421L798.228 20.2434L799.365 20.1447L800.503 19.9474L801.406 19.75L801.64 19.5526L802.209 19.3553V19.1579L802.777 18.8618V18.4671L803.346 18.1711L803.915 17.875L804.483 17.5789L805.052 17.3816L805.62 17.1842L806.189 16.8882L806.758 16.6908L807.895 16.3947L808.464 16.1974L809.601 16.0987L810.738 16.1974L811.307 16.3947L811.875 16.5921L813.013 16.6908L814.15 16.4934L815.287 16.2961L815.856 16L816.425 15.6053L816.993 15.3092L818.13 15.0132L818.699 14.8158L819.268 14.6184L820.405 14.4211H821.542L822.68 14.5197L824.385 14.7171L824.954 14.8158H826.091L827.229 14.6184L827.797 14.4211L828.366 14.3224L829.503 14.4211L830.072 14.6184L830.64 14.8158L831.209 14.9145L832.346 14.8158L832.915 14.6184L834.052 14.4211L835.19 14.3224L835.758 14.5197L836.895 14.6184L837.464 14.7171H838.601L839.17 14.6184L840.307 14.5197L841.445 14.4211L842.582 14.5197H843.719L844.856 14.4211L845.994 14.3224L847.131 14.2237L848.268 14.125L849.405 14.0263L851.111 13.7303H852.249L853.955 13.6316H855.092L856.798 13.7303L857.935 13.8289L859.072 13.9276H860.21L861.347 13.7303L862.484 13.5329V13.2368L863.053 12.9408L863.621 12.6447L864.19 12.3487L864.759 12.25H866.465H868.17L869.876 12.4474L871.014 12.6447L872.151 12.7434L874.425 12.8421L876.131 12.7434L877.837 12.6447L878.975 12.25L880.112 11.9539L881.818 12.0526L883.524 12.1513L885.23 11.9539L885.798 11.5592V11.1645V10.8684L886.367 10.4737L886.935 9.98026V9.68421L887.504 9.38816L888.073 8.99342L888.641 8.79605L890.916 8.69737H892.622H894.328H896.602H897.74H899.445L900.014 8.5L901.151 8.40132V8.59868L901.72 8.79605L902.289 9.09211V9.38816L902.857 9.7829V10.0789L903.426 10.2763V10.4737L903.995 10.6711H905.7H906.838L907.406 11.0658L907.975 11.3618L908.544 11.7566L909.112 12.0526H910.25L911.387 11.9539L912.524 11.8553L913.661 11.7566L914.799 11.8553L915.936 11.9539L917.642 11.8553L918.21 11.5592L919.348 11.3618L919.916 11.0658L921.054 10.8684L922.191 10.6711L923.897 10.7697L925.034 10.8684L926.171 10.9671H927.877L929.015 10.7697L930.152 10.6711L931.289 10.8684L932.426 10.9671L932.995 11.1645L934.132 11.3618L935.27 11.4605L936.407 11.2632L937.544 11.0658L938.681 10.7697L939.25 10.4737L940.387 10.2763L942.093 10.4737L943.23 10.6711L943.799 10.375L944.368 10.0789L944.936 9.68421L945.505 9.38816L946.074 8.99342V8.69737L947.211 9.19079L947.78 9.48684L948.348 9.7829L949.485 9.98026L951.191 10.2763L952.897 10.4737H954.035H955.74H957.446L958.584 10.6711L959.721 10.7697L960.858 10.9671L961.995 10.6711L963.133 10.375H965.407H966.545L968.25 10.2763L969.388 10.0789L971.094 9.7829L972.231 9.58553L973.937 9.48684L974.505 9.7829L975.074 10.1776L975.643 10.5724L976.211 10.9671L977.349 11.2632H979.055L980.76 11.1645L982.466 10.9671L984.172 10.7697H985.878H987.015L988.153 10.6711L989.29 10.375L989.859 10.1776L990.427 9.88158L990.996 9.68421L992.133 9.48684L993.27 9.68421L993.839 9.88158L994.408 10.0789L994.976 10.2763L996.114 10.1776L996.682 9.88158L997.82 9.68421L998.388 9.48684L999.525 9.19079L1000.66 8.99342L1001.8 8.69737L1002.94 8.5V8.20395L1003.51 8.00658L1004.07 7.71053V7.41447L1005.21 7.21711L1006.92 7.41447H1008.62L1009.76 7.11842H1010.9L1012.6 7.31579H1014.31H1015.45L1016.58 6.92105L1017.72 6.625L1018.86 6.42763H1020.56L1022.27 6.52632L1023.41 6.82237L1024.55 7.11842L1025.11 7.41447L1025.68 7.71053L1026.82 7.41447V6.92105L1027.96 6.625L1028.53 6.42763L1029.66 6.72368L1030.8 6.92105L1031.94 7.01974L1033.64 6.92105H1035.35L1036.49 7.11842L1037.06 7.41447L1037.62 7.71053L1038.76 8.10526L1039.33 8.40132L1040.47 8.59868L1042.17 8.69737H1043.31L1045.02 8.89474L1046.72 9.19079L1048.43 8.89474L1049.57 8.69737L1050.7 8.59868H1052.41H1053.55L1055.25 8.69737L1056.96 8.89474H1058.66L1059.8 8.69737L1060.94 8.5L1062.64 8.10526L1063.78 7.71053L1064.35 7.31579L1064.92 6.92105L1065.49 6.52632L1066.06 6.13158L1066.62 5.73684V5.34211L1067.19 4.84868L1068.33 4.94737L1069.47 5.14474L1070.6 5.24342L1071.74 5.14474L1072.31 4.94737L1073.45 5.04605L1075.15 5.14474L1076.29 5.04605L1076.86 4.84868L1078 4.65132L1079.13 4.84868L1080.27 5.04605L1080.84 5.24342L1081.98 5.04605L1083.11 4.94737L1083.68 5.24342L1084.82 5.53947L1085.39 5.73684L1086.53 5.63816L1087.66 5.34211L1088.23 5.04605L1088.8 4.75L1089.37 4.45395L1089.94 4.05921L1090.51 3.76316L1091.08 3.36842H1092.78H1094.49L1095.62 3.17105L1096.76 2.97368L1097.9 2.77632L1099.04 2.67763L1101.31 2.875L1102.45 3.07237L1103.02 3.36842L1104.15 3.66447L1104.72 3.96053L1105.29 4.25658L1105.86 4.55263H1107.57L1108.7 4.25658L1110.41 4.05921L1112.12 4.15789H1113.82L1115.53 4.05921L1117.23 3.86184L1118.94 3.76316H1120.64L1121.78 3.66447L1122.92 3.26974V2.875V2.48026L1123.49 2.18421L1124.06 1.78947V1.49342L1125.19 1L1126.33 1.49342L1126.9 1.78947L1127.47 1.98684L1128.61 2.18421H1130.31L1132.02 2.28289H1133.72L1136 2.48026H1137.7L1138.84 2.67763L1140.55 2.875L1142.25 2.77632H1143.96L1145.1 2.57895L1146.23 2.875L1146.8 3.17105L1147.94 3.26974L1149.08 3.17105L1149.65 2.97368L1150.21 2.67763L1151.35 2.875L1152.49 3.07237L1153.06 3.26974L1154.19 3.36842L1155.33 3.26974L1156.47 3.07237L1158.17 2.97368L1159.88 2.77632H1161.02L1162.16 2.67763L1163.29 2.48026L1165 2.38158L1167.27 2.28289H1168.98L1170.12 2.38158L1171.82 2.48026H1173.53H1174.67L1175.8 2.67763L1176.94 2.875L1178.08 2.97368L1179.78 3.07237L1183.19 2.97368H1186.04H1188.31H1189.45L1191.16 2.57895L1192.29 2.38158L1194.57 2.18421H1196.84H1199.12L1201.39 1.98684L1204.23 2.18421H1207.08H1209.35L1211.06 2.57895L1212.76 2.97368L1213.9 3.36842V3.96053L1215.04 4.45395L1216.18 4.94737L1216.74 5.44079L1219.02 5.63816L1220.72 5.44079L1223.57 5.24342L1225.84 5.44079L1227.55 5.63816L1229.25 5.73684L1230.39 5.44079L1231.53 5.24342L1232.67 5.04605L1233.8 5.24342L1234.94 5.34211L1236.08 5.44079H1237.22H1238.35L1240.06 5.34211L1240.63 5.04605L1242.9 4.84868L1245.18 4.65132V4.25658L1245.74 3.86184L1246.31 3.46711L1246.88 3.17105L1247.45 2.875L1248.59 3.07237L1249.73 3.26974L1250.86 3.36842H1252" stroke="#8EE8E2" stroke-linecap="round"/>
</svg>
