<svg width="1253" height="51" viewBox="0 0 1253 51" fill="none" xmlns="http://www.w3.org/2000/svg">
<path d="M1252 16.9572L1250.86 17.2796H1249.73H1248.59L1247.45 17.602L1246.31 17.9243L1245.18 18.2467L1244.04 18.5691L1242.9 18.2467H1241.76L1240.63 18.4079L1239.49 18.7303L1238.35 19.0526L1237.22 19.2138L1236.08 19.5362L1234.94 19.8586H1233.8L1233.24 20.1809L1232.67 20.5033H1231.53L1230.39 20.3421L1229.82 20.0197L1229.25 19.8586H1228.12L1226.98 20.1809L1225.84 20.0197V19.5362L1225.27 19.2138L1224.71 18.8914L1224.14 18.5691L1223.57 18.4079H1222.43L1221.29 18.5691L1220.16 18.4079L1219.02 18.0855L1217.88 17.9243L1216.74 18.2467L1215.61 18.5691L1215.04 18.8914L1213.9 19.2138H1212.76L1211.63 19.0526L1211.06 18.7303L1209.92 18.4079H1208.78L1207.65 18.2467L1206.51 17.9243L1205.37 17.602L1204.8 17.2796L1204.23 16.7961V16.3125V15.8289L1203.67 15.3454L1203.1 14.8618L1202.53 14.3783L1201.39 14.0559H1199.69L1198.55 14.3783L1197.41 14.7007L1196.27 15.023L1195.14 15.3454L1194.57 15.8289L1194 16.4737L1193.43 16.7961L1192.86 17.4408L1191.72 17.602L1190.59 17.2796L1190.02 16.9572L1189.45 16.6349L1188.31 16.3125L1187.74 15.9901L1187.18 15.6678L1186.04 15.5066L1184.9 15.3454L1183.76 15.023L1182.63 14.7007L1181.49 14.5395L1180.35 14.7007L1179.78 15.023H1178.08L1176.94 14.8618L1175.8 14.7007L1174.67 14.3783L1173.53 14.7007L1172.39 15.023H1171.25H1170.12L1168.98 14.7007L1167.27 14.5395L1166.14 14.2171L1165.57 13.8947L1164.43 13.4112V12.9276L1163.86 12.6053L1163.29 12.1217L1162.72 11.6382L1162.16 11.1546L1161.59 10.6711L1161.02 10.0263L1160.45 9.54276L1159.88 9.05921L1159.31 8.57566L1158.18 8.09211L1157.61 7.44737L1157.04 6.80263L1156.47 6.31908L1155.33 5.67434V5.02961L1154.19 4.70724L1153.06 4.22369L1151.92 4.0625L1150.78 4.38487L1149.65 4.86842L1149.08 4.38487L1147.65 4.0625L1146.8 3.74013L1146.23 3.25658L1145.1 3.74013L1144.53 4.22369L1143.39 4.54605L1141.68 4.38487L1140.55 4.0625L1139.41 3.74013L1138.27 3.25658L1137.14 3.74013L1136 4.0625L1134.86 3.74013L1133.72 3.41776H1132.59H1131.45L1130.31 3.74013L1128.61 3.90132L1126.9 4.22369L1125.19 4.38487L1123.72 4.22369L1122.35 3.74013L1120.96 3.41776L1119.51 3.0954L1117.8 2.77303L1116.66 2.45066L1115.53 1.96711L1114.39 1.64474H1112.68L1111.55 1.96711L1110.41 1.48355L1109.84 1H1108.14H1106.43L1105.29 1.32237L1104.15 1.80592L1103.02 2.12829L1101.88 2.61184L1100.17 2.93421L1097.9 3.25658L1096.19 3.74013L1094.49 4.22369L1092.78 4.38487L1090.51 4.0625L1088.23 3.90132L1086.53 3.41776L1085.39 2.93421L1084.25 2.28947L1083.68 1.80592L1082.55 1.48355L1081.41 1L1080.27 1.16119L1079.13 1.80592L1078 2.28947L1076.29 2.77303L1075.15 3.41776L1073.45 4.0625L1072.31 4.54605L1071.74 5.19079L1071.17 5.83553L1070.61 6.48026L1069.47 6.80263L1067.76 7.125L1067.19 7.76974L1066.62 8.25329V8.89803L1066.06 9.54276V10.0263L1065.49 10.5099L1064.92 10.8322L1063.21 10.5099L1062.08 10.3487L1060.37 10.0263L1059.23 10.5099L1056.96 10.8322L1055.82 11.3158L1053.55 11.477L1052.41 10.9934H1050.13L1049 10.5099L1048.43 10.0263L1047.86 9.54276L1047.29 9.2204L1046.72 8.89803L1045.59 8.57566L1044.45 8.89803L1043.88 9.54276L1043.31 10.1875L1042.74 10.8322L1042.17 11.6382L1041.6 12.2829L1040.47 12.7664L1039.9 13.25L1039.33 13.7336L1038.76 14.0559L1037.06 14.2171L1035.35 14.0559L1033.64 13.7336L1031.94 13.4112L1030.23 13.0888L1029.09 12.6053L1027.96 12.2829L1026.82 11.9605H1025.68L1024.24 12.2829L1022.84 12.6053L1021.7 12.2829L1020.57 12.4441L1020 13.25L1019.43 13.7336L1018.29 14.2171L1017.15 14.0559L1016.58 13.7336L1015.45 13.5724L1014.31 13.7336L1013.17 14.0559L1012.04 14.5395L1010.9 14.8618L1009.19 14.7007L1008.62 14.2171L1008.06 13.8947L1007.49 13.5724L1006.92 14.2171L1006.35 14.8618L1005.78 15.5066L1005.21 16.1513L1004.64 16.7961L1003.51 17.2796L1001.8 17.4408L1000.66 17.7632L1000.09 18.2467L998.957 18.5691L997.82 19.0526L996.114 18.8914L994.976 18.5691L993.839 18.0855L992.702 17.7632H990.996H989.859L988.721 17.4408L987.584 17.1184L986.447 16.7961L985.31 16.4737L984.172 16.1513V15.8289V15.3454L983.604 14.8618L983.035 14.5395L982.466 14.0559L981.898 13.4112L981.329 12.9276L980.192 12.4441L979.623 12.1217L978.486 11.9605L977.349 12.1217L976.211 12.4441L974.505 12.6053H973.368H972.8L971.094 12.9276L969.956 13.25L968.819 13.4112L967.113 13.5724L966.545 13.4112L965.976 12.9276L965.407 12.4441L964.839 12.1217L964.27 11.6382V11.1546L963.701 10.6711L962.564 10.3487L961.427 10.0263L960.29 9.54276L959.152 9.2204H958.015L957.446 9.70395L956.878 10.1875L956.309 10.5099L955.172 10.8322L953.466 10.9934H952.329H951.191L950.054 11.1546L948.917 11.477L947.211 11.6382H945.505L943.799 11.477H942.662L941.525 11.6382L940.387 11.7993L939.25 12.1217L938.681 12.6053L938.113 12.7664L936.975 12.6053L936.407 12.2829L935.838 11.9605L935.27 11.6382V11.3158L934.132 11.477L933.564 12.1217L932.426 12.2829L931.858 12.6053L930.72 12.9276L930.152 13.25L929.015 13.5724L928.191 14.0559L927.309 14.3783L926.171 14.7007L925.603 15.1842L925.034 15.3454H923.897L922.76 15.1842L921.622 14.8618L920.485 14.7007L919.348 14.5395L918.779 14.2171V13.8947L918.21 13.5724V13.25L917.642 12.7664V12.4441L917.073 12.1217L916.505 11.7993L915.367 12.1217L914.799 12.4441L914.23 12.2829L913.093 11.7993V11.477L912.524 10.9934L912.242 10.5099L911.955 10.0263L910.818 9.70395L909.112 9.38158L907.406 9.2204L906.269 9.38158L905.7 8.89803L905.132 8.57566V8.09211L904.563 7.76974L903.426 7.44737H901.72L900.583 7.60855L899.445 7.28619L898.308 6.80263L897.74 6.31908L896.602 5.83553H895.465L894.328 6.31908L893.759 6.80263L892.622 6.96382H890.347H889.21H887.504H886.367L884.661 7.125L884.092 7.44737L882.386 7.60855L880.68 7.76974L878.975 7.60855L877.269 7.44737H874.994L873.857 7.125H872.72L871.582 6.80263L869.876 6.64145L868.17 6.31908H867.033L865.896 6.80263L865.327 7.125L864.19 7.44737L863.312 7.60855L861.915 8.09211L860.778 8.25329H859.072H857.935L856.229 8.09211L855.092 7.76974L853.386 7.60855L851.68 7.44737H850.249L849.405 7.60855L847.7 7.28619L847.131 7.125L846.562 6.80263L845.425 6.64145L844.288 6.96382L843.15 7.125H842.013H840.876L839.739 6.96382L839.17 6.80263H838.033L836.895 6.96382H835.758L834.621 6.80263H833.484L832.346 6.96382L831.778 7.125L830.64 7.44737L829.503 7.60855L828.366 7.76974L827.229 7.60855L826.66 7.28619L824.954 7.125L823.817 6.96382L822.68 6.80263L820.974 6.96382L820.405 7.125L819.268 7.28619L817.562 7.44737L816.425 7.60855L814.719 7.76974L814.15 8.09211L813.581 8.41447L813.013 8.57566L811.875 8.41447L810.738 8.25329L810.17 8.89803L809.601 9.38158L809.032 9.70395L808.464 10.0263L807.895 10.3487L807.326 10.8322L806.758 11.1546L806.189 11.6382L805.62 11.9605L805.052 12.4441L804.483 12.6053L802.777 12.4441L801.64 12.6053L800.503 13.0888L799.365 13.4112L798.228 13.7336V14.0559L797.091 14.3783L795.954 14.2171L794.816 14.0559H793.11H791.973L790.836 14.2171L789.13 14.3783L787.993 14.0559L786.855 13.7336L785.718 13.5724L784.012 13.8947L783.444 14.5395L782.875 14.8618L782.306 15.3454L781.169 15.8289H780.032L778.326 15.5066L777.757 15.1842L776.051 14.8618L774.345 14.5395L773.777 14.0559L773.208 13.7336V13.25L772.64 12.7664V12.1217V11.7993L772.071 11.3158V10.8322L771.502 10.3487V9.86513L770.934 9.54276V9.05921V8.73684L770.365 8.41447L769.796 7.93092V7.44737V6.80263L768.659 6.1579V5.67434L767.522 5.99671C767.522 6.1579 767.522 6.5125 767.522 6.64145C767.522 6.7704 767.143 7.01754 766.953 7.125V7.76974L766.385 8.09211L765.247 8.25329L763.541 8.09211L762.404 7.93092L761.835 7.60855L760.698 7.44737L759.561 7.125L758.992 6.80263L758.424 6.64145H757.286L756.718 6.96382L756.149 7.125L755.58 7.28619H755.012L753.875 7.44737H752.737L752.169 7.125L751.031 6.96382L750.463 6.80263L748.757 6.64145H747.62H746.482H745.345L744.776 6.80263H743.639H743.07L741.933 6.64145L741.365 6.31908L740.796 5.99671L740.227 5.51316L739.659 5.35197L739.09 5.02961L737.953 4.70724H736.815L735.678 5.02961L734.541 5.19079L733.972 5.51316L733.404 5.67434L732.266 5.99671L731.698 6.1579L730.56 6.48026H729.423L728.286 6.64145H727.149H725.443L724.305 6.48026L723.168 6.31908H721.462L720.325 5.99671H719.188L718.05 6.64145L717.482 7.125L716.913 7.60855L716.345 8.09211L715.776 8.25329L714.07 8.41447L712.933 8.57566H711.795L710.658 8.41447H709.521L708.384 8.25329L707.246 8.09211L706.678 7.76974H706.109L704.972 8.09211L703.835 8.41447H703.266L702.697 8.25329L701.56 8.09211L700.423 7.93092C700.233 7.93092 699.74 7.93092 699.285 7.93092C698.831 7.93092 697.959 7.93092 697.58 7.93092L697.011 7.76974L695.874 7.60855L694.168 7.76974L693.599 8.09211L691.893 8.25329H690.187L688.481 8.09211H685.638L683.932 8.25329L682.226 8.57566L681.658 8.89803L680.52 9.38158H678.815L677.109 9.05921L676.54 8.73684L675.403 8.41447L674.265 8.09211V7.76974L673.697 7.44737L673.128 7.125L672.56 6.80263L671.991 6.48026V6.31908H669.716L668.01 6.48026H666.873H665.736L665.167 6.31908H664.03L662.893 6.64145L661.755 6.96382L660.618 7.125L659.481 7.28619H658.344H656.638H654.932H653.795L651.52 7.44737L649.814 7.76974L648.677 7.60855L647.54 7.28619L646.402 7.125L644.696 6.80263H643.559H640.716H639.579H638.441H636.167H635.598H633.892H632.186L631.049 6.96382L628.775 7.28619H627.989H626.5L625.363 7.44737L624.225 7.76974L623.088 8.09211L621.951 8.25329H620.245L619.108 8.09211H617.402L616.833 8.25329L615.696 8.41447L613.421 8.73684L612.853 9.05921L611.147 9.38158L610.01 9.70395L608.872 10.0263H607.166L606.598 10.5099L605.46 10.9934L604.892 11.477L603.755 11.6382L602.049 11.7993L600.911 12.2829L600.343 12.9276V13.25L599.774 13.7336L599.205 14.2171L598.068 14.5395L595.225 14.7007L593.519 15.023L591.813 15.3454H590.107L588.97 15.1842L587.833 14.8618L586.695 14.7007L585.558 14.5395L584.421 15.023L583.852 15.5066L583.284 15.8289L582.146 16.3125L581.578 16.7961L581.009 17.2796H579.872L578.735 17.1184L577.029 16.9572L575.323 17.1184L574.185 17.4408L572.48 17.2796L572.208 16.7961L571.342 16.3125L570.774 15.9901L569.636 16.4737L569.068 16.9572L567.93 17.1184L566.793 16.9572L565.656 16.7961L564.519 16.9572L563.381 17.1184H562.244L561.107 16.9572L560.538 16.7961L559.401 17.1184L558.832 17.4408L558.264 17.7632H557.126L556.299 17.4408L555.42 16.9572L554.852 16.7961L553.903 16.4737L552.577 17.1184L551.44 17.602L550.871 18.0855L550.303 18.5691L549.734 18.7303H548.597L547.46 18.4079L545.754 18.5691L544.616 18.7303L543.479 18.8914L542.342 18.7303L541.522 18.5691H540.636L539.499 18.2467H538.361L537.793 18.0855L536.655 18.4079L536.087 18.5691L534.95 18.8914L534.381 19.2138L532.675 19.0526L531.538 18.7303L530.969 18.4079L530.4 17.9243L529.832 17.4408L529.263 16.9572L528.695 16.6349L527.557 16.3125L526.42 15.9901L525.283 16.1513L524.145 16.3125L523.577 16.6349L521.871 16.3125L520.165 15.9901L519.028 15.8289L517.89 16.3125L516.753 16.7961L516.185 17.2796L515.616 17.7632L515.047 18.0855L514.479 18.5691V18.8914L513.91 19.375L513.341 19.6974H512.204L511.067 19.375L509.93 19.6974L508.792 20.1809L507.655 20.5033H505.949L504.812 20.3421L503.675 20.1809L502.182 20.3421L501.4 20.8257H500.263L499.694 20.6645L498.557 20.1809L497.42 19.8586L496.282 19.6974L495.145 19.5362L493.795 19.6974H492.87L491.733 19.5362L491.165 19.2138L490.596 18.8914L489.459 18.7303L488.89 19.375L488.321 19.6974L487.753 20.0197L486.615 20.3421L486.047 20.8257L484.91 21.3092L484.341 21.6316L483.204 22.1151L482.066 22.2763H480.36L479.792 22.1151L479.223 22.5987L478.086 22.9211L477.517 23.4046L476.38 23.5658L474.674 23.2434L474.105 23.0822L472.968 22.5987L472.4 22.1151V21.7928L471.831 21.4704L470.125 21.3092H468.988L467.282 21.4704H465.007H463.301H462.164L461.027 21.3092L459.89 21.148L459.321 20.8257L458.752 20.5033L458.184 20.1809L457.615 19.6974L457.046 19.2138L456.478 18.7303L455.909 18.4079L454.772 18.5691L453.635 18.7303L452.497 19.0526L451.594 19.375L451.36 19.6974L450.791 20.0197V20.3421L450.223 20.8257V21.4704L449.654 21.9539L449.085 22.4375L448.517 22.9211L447.948 23.2434L447.38 23.5658L446.811 24.0493L446.242 24.3717L445.105 24.8553L444.536 25.1776L443.399 25.3388L442.262 25.1776L441.693 24.8553L441.125 24.5329L439.987 24.3717L438.85 24.6941L437.713 25.0164L437.144 25.5L436.575 26.1447L436.007 26.6283L434.87 27.1118L434.301 27.4342L433.732 27.7566L432.595 28.0789H431.458L430.32 27.9178L428.615 27.5954L428.046 27.4342H426.909L425.771 27.7566L425.203 28.0789L424.634 28.2401L423.497 28.0789L422.928 27.7566L422.36 27.4342L421.791 27.273L420.654 27.4342L420.085 27.7566L418.948 28.0789L417.81 28.2401L417.242 27.9178L416.105 27.7566L415.536 27.5954H414.399L413.83 27.7566L412.693 27.9178L411.555 28.0789L410.418 27.9178H409.281L408.144 28.0789L407.006 28.2401L405.869 28.4013L404.732 28.5625L403.595 28.7237L401.889 29.2072H400.751L399.045 29.3684H397.908L396.202 29.2072L395.065 29.0461L393.928 28.8849H392.79L391.653 29.2072L390.516 29.5296V30.0132L389.947 30.4967L389.379 30.9803L388.81 31.4638L388.241 31.625H386.535H384.83L383.124 31.3026L381.986 30.9803L380.849 30.8191L378.575 30.6579L376.869 30.8191L375.163 30.9803L374.025 31.625L372.888 32.1086L371.182 31.9474L369.476 31.7862L367.77 32.1086L367.202 32.7533V33.398V33.8816L366.633 34.5263L366.065 35.3322V35.8158L365.496 36.2993L364.927 36.9441L364.359 37.2664L362.084 37.4276H360.378H358.672H356.398H355.26H353.555L352.986 37.75L351.849 37.9112V37.5888L351.28 37.2664L350.711 36.7829V36.2993L350.143 35.6546V35.1711L349.574 34.8487V34.5263L349.005 34.2039H347.3H346.162L345.594 33.5592L345.025 33.0757L344.456 32.4309L343.888 31.9474H342.75L341.613 32.1086L340.476 32.2697L339.339 32.4309L338.201 32.2697L337.064 32.1086L335.358 32.2697L334.79 32.7533L333.652 33.0757L333.084 33.5592L331.946 33.8816L330.809 34.2039L329.103 34.0428L327.966 33.8816L326.829 33.7204H325.123L323.985 34.0428L322.848 34.2039L321.711 33.8816L320.574 33.7204L320.005 33.398L318.868 33.0757L317.73 32.9145L316.593 33.2368L315.456 33.5592L314.319 34.0428L313.75 34.5263L312.613 34.8487L310.907 34.5263L309.77 34.2039L309.201 34.6875L308.632 35.1711L308.064 35.8158L307.495 36.2993L306.926 36.9441V37.4276L305.789 36.6217L305.22 36.1382L304.652 35.6546L303.515 35.3322L301.809 34.8487L300.103 34.5263H298.965H297.26H295.554L294.416 34.2039L293.279 34.0428L292.142 33.7204L291.005 34.2039L289.867 34.6875H287.593H286.455L284.75 34.8487L283.612 35.1711L281.906 35.6546L280.769 35.977L279.063 36.1382L278.495 35.6546L277.926 35.0099L277.357 34.3651L276.789 33.7204L275.651 33.2368H273.945L272.24 33.398L270.534 33.7204L268.828 34.0428H267.122H265.985L264.847 34.2039L263.71 34.6875L263.141 35.0099L262.573 35.4934L262.004 35.8158L260.867 36.1382L259.73 35.8158L259.161 35.4934L258.592 35.1711L258.024 34.8487L256.886 35.0099L256.318 35.4934L255.18 35.8158L254.612 36.1382L253.475 36.6217L252.337 36.9441L251.2 37.4276L250.063 37.75V38.2336L249.494 38.5559L248.925 39.0395V39.523L247.788 39.8454L246.082 39.523H244.376L243.239 40.0066H242.102L240.396 39.6842H238.69H237.553L236.415 40.3289L235.278 40.8125L234.141 41.1349H232.435L230.729 40.9737L229.592 40.4901L228.455 40.0066L227.886 39.523L227.317 39.0395L226.18 39.523V40.3289L225.043 40.8125L224.474 41.1349L223.337 40.6513L222.2 40.3289L221.062 40.1678L219.356 40.3289H217.65L216.513 40.0066L215.945 39.523L215.376 39.0395L214.239 38.3947L213.67 37.9112L212.533 37.5888L210.827 37.4276H209.69L207.984 37.1053L206.278 36.6217L204.572 37.1053L203.435 37.4276L202.297 37.5888H200.591H199.454L197.748 37.4276L196.042 37.1053H194.336L193.199 37.4276L192.062 37.75L190.356 38.3947L189.219 39.0395L188.65 39.6842L188.081 40.3289L187.513 40.9737L186.944 41.6184L186.375 42.2632V42.9079L185.807 43.7138L184.67 43.5526L183.532 43.2303L182.395 43.0691L181.258 43.2303L180.689 43.5526L179.552 43.3914L177.846 43.2303L176.709 43.3914L176.14 43.7138L175.003 44.0362L173.865 43.7138L172.728 43.3914L172.16 43.0691L171.022 43.3914L169.885 43.5526L169.316 43.0691L168.179 42.5855L167.61 42.2632L166.473 42.4243L165.336 42.9079L164.767 43.3914L164.199 43.875L163.63 44.3586L163.061 45.0033L162.493 45.4868L161.924 46.1316H160.218H158.512L157.375 46.4539L156.238 46.7763L155.1 47.0987L153.963 47.2599L151.689 46.9375L150.551 46.6151L149.983 46.1316L148.845 45.648L148.277 45.1645L147.708 44.6809L147.14 44.1974H145.434L144.296 44.6809L142.59 45.0033L140.885 44.8421H139.179L137.473 45.0033L135.767 45.3257L134.061 45.4868H132.355L131.218 45.648L130.08 46.2928V46.9375V47.5822L129.512 48.0658L128.943 48.7105V49.1941L127.806 50L126.669 49.1941L126.1 48.7105L125.531 48.3882L124.394 48.0658H122.688L120.982 47.9046H119.276L117.002 47.5822H115.296L114.159 47.2599L112.453 46.9375L110.747 47.0987H109.041L107.904 47.4211L106.766 46.9375L106.198 46.4539L105.06 46.2928L103.923 46.4539L103.355 46.7763L102.786 47.2599L101.649 46.9375L100.511 46.6151L99.9427 46.2928L98.8055 46.1316L97.6682 46.2928L96.5309 46.6151L94.825 46.7763L93.1191 47.0987H91.9818L90.8446 47.2599L89.7073 47.5822L88.0014 47.7434L85.7268 47.9046H84.0209L82.8836 47.7434L81.1777 47.5822H79.4718H78.3346L77.1973 47.2599L76.06 46.9375L74.9227 46.7763L73.2168 46.6151L69.805 46.7763H66.9618H64.6873H63.55L61.8441 47.4211L60.7068 47.7434L58.4323 48.0658H56.1577H53.8832L51.6086 48.3882L48.7655 48.0658H45.9223H43.6477L41.9418 47.4211L40.2359 46.7763L39.0986 46.1316V45.1645L37.9614 44.3586L36.8241 43.5526L36.2555 42.7467L33.9809 42.4243L32.275 42.7467L29.4318 43.0691L27.1573 42.7467L25.4514 42.4243L23.7455 42.2632L22.6082 42.7467L21.4709 43.0691L20.3336 43.3914L19.1964 43.0691L18.0591 42.9079L16.9218 42.7467H15.7846H14.6473L12.9414 42.9079L12.3727 43.3914L10.0982 43.7138L7.82365 44.0362V44.6809L7.25501 45.3257L6.68638 45.9704L6.11774 46.4539L5.5491 46.9375L4.41183 46.6151L3.27456 46.2928L2.13729 46.1316H1.00001" stroke="#906CF8" stroke-linecap="round"/>
</svg>
