<svg width="22" height="24" viewBox="0 0 22 24" fill="none" xmlns="http://www.w3.org/2000/svg">
<g opacity="0.5">
<path d="M19.25 14.605V17.7625L11 22L2.74997 17.7625V16.105C3.96497 15.04 5.74997 13.75 6.49997 13.75C7.06247 13.75 9.00497 14.8525 10.4975 15.85V15.7525C11.285 14.995 14.75 12.25 15.5 12.25C16.25 12.25 18.0275 13.54 19.25 14.605Z" fill="#E3C5FB"/>
<path fill-rule="evenodd" clip-rule="evenodd" d="M18.6423 7.29905L11.25 3.0311C11.0953 2.94178 10.9047 2.94178 10.75 3.0311L3.35767 7.29905C3.20297 7.38836 3.10767 7.55343 3.10767 7.73206V16.268C3.10767 16.4466 3.20297 16.6117 3.35767 16.701L10.75 20.9689C10.9047 21.0582 11.0953 21.0582 11.25 20.9689L18.6423 16.701C18.797 16.6117 18.8923 16.4466 18.8923 16.268V7.73206C18.8923 7.55343 18.797 7.38836 18.6423 7.29905ZM12.5 0.866035C11.5718 0.330137 10.4282 0.330137 9.49997 0.866035L2.10767 5.13398C1.17946 5.66988 0.607666 6.66026 0.607666 7.73206V16.268C0.607666 17.3398 1.17946 18.3301 2.10767 18.866L9.49997 23.134C10.4282 23.6699 11.5718 23.6699 12.5 23.134L19.8923 18.866C20.8205 18.3301 21.3923 17.3398 21.3923 16.268V7.73206C21.3923 6.66026 20.8205 5.66988 19.8923 5.13398L12.5 0.866035Z" fill="#E3C5FB"/>
</g>
</svg>
