<svg width="1251" height="158" viewBox="0 0 1251 158" fill="none" xmlns="http://www.w3.org/2000/svg">
<path d="M1.13727 101.5L0 102.5V158H1251V12H1249.86L1248.73 11.5L1247.59 10.5L1246.45 9.5L1245.88 11L1245.31 12.5L1244.75 14.5L1244.18 16.5V18.5L1241.9 19.5L1239.63 20.5L1239.06 22L1237.35 22.5H1236.22H1235.08L1233.94 22L1232.8 21.5L1231.67 20.5L1230.53 21.5L1229.39 22.5L1228.25 24L1226.55 23.5L1224.84 22.5L1222.57 21.5L1219.73 22.5L1218.02 23.5L1215.74 22.5L1215.18 20L1214.04 17.5L1212.9 15V12L1211.76 10L1210.06 8L1208.35 6H1206.08H1203.23L1200.39 5L1198.12 6H1195.84H1193.57L1191.29 7L1190.16 8L1188.45 10H1187.31H1185.04H1182.2L1178.78 10.5L1177.08 10L1175.94 9.5L1174.8 8.5L1173.67 7.5H1172.53H1170.82L1169.12 7L1167.98 6.5H1166.27L1164 7L1162.29 7.5L1161.16 8.5L1160.02 9H1158.88L1157.18 10L1155.47 10.5L1154.33 11.5L1153.19 12L1152.06 11.5L1151.49 10.5L1150.35 9.5L1149.21 8.5L1148.65 10L1148.08 11L1146.94 11.5L1145.8 11L1145.23 9.5L1144.1 8L1142.96 9H1141.25L1139.55 9.5L1137.84 8.5L1136.7 7.5H1135L1132.72 6.5H1131.02L1129.31 6H1127.61L1126.47 5L1125.9 4L1125.33 2.5L1124.19 0L1123.06 2.5V4L1122.49 6L1121.92 7.5V9.5V11.5L1120.78 13.5L1119.65 14H1117.94L1116.23 14.5L1114.53 15.5L1112.82 16H1111.12L1109.41 15.5L1107.7 16.5L1106.57 18H1104.86L1104.29 16.5L1103.72 15L1103.15 13.5L1102.02 12L1101.45 10.5L1100.31 9.5L1098.04 8.5L1096.9 9L1095.76 10L1094.62 11L1093.49 12H1091.78H1090.08L1089.51 14L1088.94 15.5L1088.37 17.5L1087.8 19L1087.23 20.5L1086.66 22L1085.53 23.5L1084.39 24L1083.82 23L1082.68 21.5L1082.11 20L1080.98 20.5L1079.84 21.5L1079.27 20.5L1078.13 19.5L1077 18.5L1075.86 19.5L1075.29 20.5L1074.15 21L1072.45 20.5L1071.31 20L1070.74 21L1069.6 21.5L1068.47 21L1067.33 20L1066.19 19.5L1065.62 22V24L1065.06 26L1064.49 28L1063.92 30L1063.35 32L1062.78 34L1061.64 36L1059.94 38L1058.8 39L1057.66 40H1055.96L1054.25 39L1052.55 38.5H1051.41H1049.7L1048.57 39L1047.43 40L1045.72 41.5L1044.02 40L1042.31 39H1041.17L1039.47 38.5L1038.33 37.5L1037.76 36L1036.62 34L1036.06 32.5L1035.49 31L1034.35 30H1032.64L1030.94 30.5L1029.8 30L1028.66 29L1027.53 27.5L1026.96 28.5L1025.82 30V32.5L1024.68 34L1024.11 32.5L1023.55 31L1022.41 29.5L1021.27 28L1019.57 27.5H1017.86L1016.72 28.5L1015.58 30L1014.45 32H1013.31H1011.6L1009.9 31H1008.76L1007.62 32.5H1005.92L1004.21 31.5L1003.07 32.5V34L1002.51 35.5L1001.94 36.5V38L1000.8 39L999.663 40.5L998.526 41.5L997.388 43L996.82 44L995.682 45L995.114 46.5L993.976 47L993.408 46L992.839 45L992.271 44L991.133 43L989.996 44L989.427 45L988.859 46.5L988.29 47.5L987.153 49L986.016 49.5H984.878H983.172L981.466 50.5L979.76 51.5L978.055 52H976.349L975.211 50.5L974.643 48.5L974.074 46.5L973.506 44.5L972.937 43L971.231 43.5L970.094 44.5L968.388 46L967.25 47L965.545 47.5H964.407H962.133L960.995 49L959.858 50.5L958.721 49.5L957.584 49L956.446 48H954.74H953.035H951.897L950.191 47L948.485 45.5L947.348 44.5L946.78 43L946.211 41.5L945.074 39V40.5L944.505 42.5L943.936 44L943.368 46L942.799 47.5L942.23 49L941.093 48L939.387 47L938.25 48L937.681 49.5L936.544 51L935.407 52L934.27 53L933.132 52.5L931.995 51.5L931.426 50.5L930.289 50L929.152 49L928.015 49.5L926.877 50.5H925.171L924.034 50L922.897 49.5L921.191 49L920.054 50L918.916 51L918.348 52.5L917.211 53.5L916.642 55L914.936 55.5L913.799 55L912.661 54.5L911.524 55L910.387 55.5L909.25 56H908.112L907.544 54.5L906.975 52.5L906.406 51L905.838 49H904.701H902.995L902.426 48V47L901.857 46V44.5L901.289 42.5V41L900.72 39.5L900.151 38.5V37.5L899.014 38L898.445 39H896.74H895.602H893.328H891.622H889.916L887.641 39.5L887.073 40.5L886.504 42.5L885.935 44V45.5L885.367 48L884.798 50V51.5V53.5L884.23 55.5L882.524 56.5L880.818 56L879.112 55.5L877.975 57L876.837 59L875.131 59.5L873.425 60L871.151 59.5L870.014 59L868.876 58L867.171 57H865.465H863.759L863.19 57.5L862.621 59L862.053 60.5L861.484 62V63.5L860.347 64.5L859.21 65.5H858.072L856.935 65L855.798 64.5L854.092 64H852.955L851.249 64.5H850.111L848.406 66L847.268 66.5L846.131 67L844.994 67.5L843.856 68L842.719 68.5H841.582L840.445 68L839.307 68.5L838.17 69L837.601 69.5H836.464L835.896 69L834.758 68.5L834.19 67.5L833.052 68L831.915 69L831.346 70L830.209 70.5L829.64 70L829.072 69L828.503 68L827.366 67.5L826.797 68L826.229 69L825.091 70H823.954L823.385 69.5L821.68 68.5L820.542 68H819.405L818.268 69L817.699 70L817.13 71L815.993 72.5L815.425 74L814.856 76L814.287 77.5L813.15 78.5L812.013 79.5L810.875 79L810.307 78L809.738 77L808.601 76.5L807.464 77L806.895 78L805.758 79.5L805.189 80.5L804.62 82L804.052 83L803.483 84L802.915 85.5L802.346 87L801.777 88.5V90.5L801.209 92V93L800.64 94L800.406 95L799.503 96L798.365 97L797.228 97.5L796.091 98L795.522 97L794.954 95.5L794.385 94L793.816 92.5L793.248 91.5L792.679 90.5L792.11 89.5L790.973 89L789.836 88.5H788.699H786.993H784.718L783.012 89H781.875L780.169 88.5L779.6 87.5V86.5L779.032 85L777.895 83.5L777.326 83L775.62 82L774.483 82.5L773.914 84L772.777 85L772.208 86.5L771.64 86H769.934L768.796 86.5L767.659 88L767.091 89L765.953 90.5L765.385 92L764.247 93L763.679 94L763.11 95L762.541 97L761.404 96.5L760.836 95.5L760.267 94.5L759.13 94H758.205L756.855 94.5L755.718 94L754.581 93.5L753.443 92.5L752.306 91L751.737 90.5H750.6L749.818 92L748.326 92.5L747.188 92L746.051 91.5H744.345L743.208 92.5L742.07 94L740.933 95L739.796 94H738.659L738.09 95L737.521 96.5V97.5L736.953 99L736.384 100L735.815 101.5L735.247 103L734.11 104.5L732.972 106L731.835 105.5L730.129 104.5L728.423 103.5L727.855 104.5L726.717 105L725.58 105.5L724.443 104.5L723.305 103.5L722.737 102.5L722.168 101L721.6 99.5L721.031 98L720.462 97L719.325 96L717.619 95.5L717.051 96.5L715.913 97.5L715.345 98L714.207 99L713.639 98.5H712.501L711.364 97.5H710.478L709.658 97L708.521 96.5L707.384 97L706.246 97.5L704.541 98L703.403 97H702.266L701.697 97.5L701.129 99L700.56 100.5L699.423 102L698.097 104L697.148 103L696.58 102.5L695.701 101L694.874 100H693.736L693.168 101L692.599 102L691.462 103L690.893 102.5L689.756 102H688.619L687.481 102.5L686.344 103L685.207 102.5L684.07 102L682.932 102.5L682.364 104L681.226 105.5L680.658 104.5L679.792 103L679.52 101.5L677.815 101L676.677 102L674.971 102.5L673.265 102L672.128 101.5H670.991L670.422 103L669.854 104.5L668.716 106L668.148 107L667.579 108.5L666.442 110L665.305 109.5L664.167 109L663.03 108L661.893 107.5H660.187L658.481 108.5L656.775 109.5L653.932 110L652.795 111L652.226 112.5L651.657 114V115L651.089 117L649.951 118.5L648.245 119L647.108 119.5L646.54 121L645.402 122.5L644.834 124H643.128L641.99 125L640.853 126L639.147 127L638.579 128L636.304 129L635.167 129.5L634.598 130H632.892L631.755 129.5H630.049L628.912 130L627.775 131L626.637 132L625.5 132.5H624.011H623.225L620.951 133.5L619.814 134H618.108H616.402H615.833H613.559H612.421H611.284H608.441H607.304L605.598 133L604.461 132.5L603.323 131.5L602.186 131L600.48 132L598.206 132.5H597.068H595.362H593.656H592.519L591.382 133L590.245 133.5L589.107 134.5L587.97 135.5H586.833L586.264 135H585.127H583.99L582.284 135.5H580.009V135L579.44 134L578.872 133L578.303 132L577.735 131V130L576.597 129L575.46 128L574.891 127L573.185 126H571.48L570.342 127.5L569.774 128.5L568.068 129.5L566.362 130H563.519L561.813 129.5H560.107L558.401 130L557.832 131L556.126 131.5L554.989 131L554.421 130.5H552.715H551.577L550.44 130L549.303 129.5L548.734 129H548.165L547.028 130L545.891 131H545.322L544.754 130L543.616 129.5L542.479 129H541.342L540.205 128.5H539.067L537.93 129L536.224 129.5L535.655 130L535.087 131.5L534.518 133L533.95 134.5L532.812 136.5H531.675L530.538 135.5H528.832L527.695 135L526.557 134.5H524.851H523.714L522.577 135H521.44L520.302 136L519.734 136.5L518.596 137.5L518.028 138L517.459 139L516.322 139.5L515.185 140.5H514.047L512.91 139.5L512.341 138.5L511.773 138L511.204 136.5L510.635 135.5L510.067 134.5L508.93 134H508.361H507.224L506.655 134.5H505.518H504.38H503.243L501.537 134L500.969 133.5L499.831 133L499.263 132H498.125L496.988 132.5H496.42L495.851 133L495.282 133.5L494.714 134.5H493.576L493.008 134L492.439 133L491.302 132L490.165 131.5L489.596 130.5L488.459 130L486.753 129.5L485.615 130L485.047 131V133C484.857 133.333 484.478 134.1 484.478 134.5V136.5L483.341 137.5V136L482.204 134V132V130.5L481.635 129L481.066 128V127V125.5L480.498 124.5V123L479.929 121.5V120L479.36 118.5V117.5V115.5L478.792 114V112.5L478.223 111.5L477.655 110L475.949 109L474.243 108L473.674 107L471.968 106H470.831L469.694 107.5L469.125 109L468.556 110L467.988 112L466.282 113L465.145 112.5L464.007 111.5L462.87 110.5L461.164 111L460.027 111.5H458.89H457.184L456.046 111L454.909 110.5L453.772 111.5V112.5L452.635 113.5L451.497 114.5L450.36 116L449.223 116.5L447.517 116L446.948 116.5L446.38 118L445.811 119L445.242 120.5L444.674 121.5L444.105 123L443.536 124L442.968 125L442.399 126L441.83 127.5L441.262 129.5L440.125 129L438.987 128.5L438.419 129L437.85 130L437.281 131L435.575 131.5L434.438 132L432.732 132.5L431.595 133L431.026 133.5L429.32 134L428.183 133.5L427.046 133L425.34 132.5L424.771 131.5L423.634 131L422.497 131.5L421.36 132L420.222 133L419.654 133.5L418.516 134H417.379L416.242 133.5H415.105L413.967 134H412.83L412.261 133.5L411.124 133H409.987H408.85L407.712 133.5L406.575 134.5L405.438 134L404.869 133L404.3 132.5L402.595 131.5L401.751 132H400.32L398.614 131.5L396.908 131L395.771 130L394.065 129.5H392.928H391.222L390.085 130L388.688 131.5L387.81 132L386.673 133L386.104 134L384.967 135.5H383.83L382.124 134.5L380.418 134L379.28 133H378.143L377.006 132H374.731L373.025 131.5L371.32 131L369.614 131.5L367.908 132L367.339 133L365.633 133.5H364.496H362.79H361.653H359.378L358.241 134L357.672 135.5L356.535 137H355.398L354.26 135.5L353.692 134L352.555 132.5L351.417 131.5L350.28 132H348.574L347.437 131L346.868 130V128.5L346.3 127.5L345.731 126L344.594 126.5L342.888 126L341.182 125L340.045 124L339.758 122.5L339.476 121L338.907 119.5V118.5L337.77 117L337.201 116.5L336.633 117.5L335.495 118.5L334.927 117.5L334.358 116.5V115.5L333.79 114V113L333.221 112V111L332.652 110L331.515 109.5L330.378 109L329.24 108L328.103 107.5H326.966L326.397 108L325.829 109.5L324.691 110.5L323.809 111.5L322.985 113L321.848 114L321.28 115L320.142 116L319.574 117L318.436 117.5L317.868 119.5L316.73 120V119L316.162 118L315.593 117L315.025 116L313.887 115.5L313.319 116L312.75 117.5L311.613 118.5L310.475 119L309.338 119.5H308.201L306.495 119H304.789L303.083 119.5L301.946 120.5L300.809 121H299.671H298.534L296.828 121.5L295.691 122.5L295.122 123.5L294.554 125L293.985 126.5H292.848L291.71 125.5L290.573 124L289.436 123L288.299 122L287.73 120.5V119L287.161 117.5L286.593 116.5L286.024 115L285.455 113.5L284.887 113L283.181 113.5L282.044 114L280.906 115L279.2 116H278.632H277.495L275.789 116.5L274.651 117.5L273.514 118L272.377 117.5L271.808 116.5L270.671 115L270.102 113.5L269.534 111.5L268.965 110L268.396 109L267.828 107.5V106V105L266.69 104L265.553 103L264.416 102L263.279 101L262.141 100H261.004H259.298L258.161 99L257.024 97.5L255.886 96.5L254.18 96L253.043 97.5L251.906 98.5L251.337 100L250.2 101L248.494 101.5L247.357 103L246.788 105L246.22 107L245.651 109L245.082 111L244.514 113L243.945 112L243.376 111L242.808 109.5L241.102 109L239.965 110L238.827 111.5L237.69 112.5L236.553 113L235.415 112.5L234.847 111.5L233.71 111L232.572 112.5L232.004 114L231.435 116.5L230.298 117L229.16 116L227.757 117L226.317 118H225.18L224.043 117L222.905 116L221.768 114.5L220.062 113.5L218.356 112.5L216.65 111.5L214.945 111L213.239 111.5L212.67 112.5L212.101 114L211.533 115.5L210.395 117L209.827 119L209.258 121.5L208.69 123.5L208.121 125.5L207.552 127.5L206.415 128.5L205.278 127.5L204.709 126.5L204.14 125.5L203.572 124L203.003 122.5L201.866 121H199.591L198.454 119.5L196.18 120L195.042 121.5L192.768 122.5L191.63 124L189.925 123L188.787 122.5L187.081 121.5L186.513 122.5L185.944 124V125.5L185.375 127.5V129.5L184.807 131L184.238 133L182.532 134L181.395 135L180.826 137L180.258 139L179.689 141L178.552 142.5L176.846 144.5L175.709 146.5L174.003 148L172.865 149.5L171.728 151.5L170.591 152L169.454 150.5L168.316 149.5L167.748 148L166.61 146L165.473 144.5L163.767 143L161.493 142.5L159.218 141.5L157.512 142L155.806 143.5L154.1 145L151.826 146L150.12 147L148.983 148.5L147.845 149.5L146.708 151L145.571 152H143.865H142.159L141.59 150.5L140.453 149L139.316 150H137.61L136.473 149L135.335 147.5L134.198 146.5L132.492 145.5L131.04 144.5L129.649 143.5L128.278 142L126.806 141.5L125.1 142L123.394 143L121.688 143.5L120.551 144.5H119.414H118.276L117.139 143.5L116.002 142.5L114.865 143.5L113.727 145L112.59 143.5L111.453 142.5L110.315 141.5L108.61 141L107.472 142L106.904 143.5L105.766 145L105.198 143.5L104.347 142.5L102.923 141.5L102.355 140L101.217 141.5L100.08 142.5L98.9427 142L97.8055 140.5L96.6682 139.5V137.5L95.5309 135.5L94.9623 134L94.3936 132L93.825 130L92.6877 128.5L92.1191 127L91.5505 125.5L90.9818 124L90.4132 122L89.8446 120.5L89.2759 119L88.7073 117.5L88.1386 116L87.57 115V113.5L86.4327 112L85.8641 111L84.7268 110L83.0209 109.5L81.8836 108.5H80.7464H79.6091L78.4718 109.5L77.3345 110.5L76.1973 109.5L75.06 109L73.9227 108.5H72.2168L71.6482 109.5L70.5109 110L69.3736 109.5L68.2364 108.5L67.0991 107.5L65.9618 107L64.8245 106.5L64.2559 105.5L63.6873 104.5L62.55 103.5L61.9814 102.5L61.4127 101.5L60.2755 100.5L59.1382 101L58.5695 103L58.0009 104L57.4323 106L56.8636 107.5L55.7264 108.5L54.5891 109.5L53.4518 110.5L52.3145 111.5H50.6086L49.4714 110.5L48.9027 109L48.3341 107.5L47.7655 106V104.5V103L47.1968 101.5L46.6282 100.5L45.4909 99.5L44.3536 98.5L43.2164 98H42.0791L40.9418 97L40.3732 96L39.2359 95.5H38.0986L36.9614 96.5L36.3927 97.5L35.2555 98.5L34.1182 99.5L32.9809 99L31.8436 98L30.7064 97.5L29.5691 98H28.4318L27.8632 97.5L27.2945 96.5L26.7259 95.5L26.1573 94.5V93L25.02 92.5L23.8827 93.5H22.7455L22.1768 93L21.6082 92L20.4709 91.5H19.3336L18.765 92.5L18.1964 93.5H17.0591L15.9218 94.5L14.7845 95.5L13.6473 96L12.51 97L11.3727 98L10.2355 98.5H9.09818L7.96091 97.5L6.82364 98.5L5.68636 99.5L4.54909 100.5L3.41182 101.5H2.27455H1.13727Z" fill="url(#paint0_linear_76_1253)"/>
<defs>
<linearGradient id="paint0_linear_76_1253" x1="625.5" y1="0" x2="625.5" y2="158" gradientUnits="userSpaceOnUse">
<stop stop-color="white" stop-opacity="0.1"/>
<stop offset="1" stop-color="white" stop-opacity="0"/>
</linearGradient>
</defs>
</svg>
