<svg width="1301" height="51" viewBox="0 0 1301 51" fill="none" xmlns="http://www.w3.org/2000/svg">
<path d="M1300 16.9572L1298.82 17.2796H1297.64H1296.46L1295.28 17.602L1294.1 17.9243L1292.91 18.2467L1291.73 18.5691L1290.55 18.2467H1289.37L1288.19 18.4079L1287.01 18.7303L1285.83 19.0526L1284.65 19.2138L1283.47 19.5362L1282.29 19.8586H1281.11L1280.52 20.1809L1279.92 20.5033H1278.74L1277.56 20.3421L1276.97 20.0197L1276.38 19.8586H1275.2L1274.02 20.1809L1272.84 20.0197V19.5362L1272.25 19.2138L1271.66 18.8914L1271.07 18.5691L1270.48 18.4079H1269.3L1268.12 18.5691L1266.93 18.4079L1265.75 18.0855L1264.57 17.9243L1263.39 18.2467L1262.21 18.5691L1261.62 18.8914L1260.44 19.2138H1259.26L1258.08 19.0526L1257.49 18.7303L1256.31 18.4079H1255.13L1253.94 18.2467L1252.76 17.9243L1251.58 17.602L1250.99 17.2796L1250.4 16.7961V16.3125V15.8289L1249.81 15.3454L1249.22 14.8618L1248.63 14.3783L1247.45 14.0559H1245.68L1244.5 14.3783L1243.32 14.7007L1242.14 15.023L1240.95 15.3454L1240.36 15.8289L1239.77 16.4737L1239.18 16.7961L1238.59 17.4408L1237.41 17.602L1236.23 17.2796L1235.64 16.9572L1235.05 16.6349L1233.87 16.3125L1233.28 15.9901L1232.69 15.6678L1231.51 15.5066L1230.33 15.3454L1229.15 15.023L1227.96 14.7007L1226.78 14.5395L1225.6 14.7007L1225.01 15.023H1223.24L1222.06 14.8618L1220.88 14.7007L1219.7 14.3783L1218.52 14.7007L1217.34 15.023H1216.16H1214.97L1213.79 14.7007L1212.02 14.5395L1210.84 14.2171L1210.25 13.8947L1209.07 13.4112V12.9276L1208.48 12.6053L1207.89 12.1217L1207.3 11.6382L1206.71 11.1546L1206.12 10.6711L1205.53 10.0263L1204.94 9.54276L1204.35 9.05921L1203.76 8.57566L1202.58 8.09211L1201.98 7.44737L1201.39 6.80263L1200.8 6.31908L1199.62 5.67434V5.02961L1198.44 4.70724L1197.26 4.22369L1196.08 4.0625L1194.9 4.38487L1193.72 4.86842L1193.13 4.38487L1191.65 4.0625L1190.77 3.74013L1190.18 3.25658L1188.99 3.74013L1188.4 4.22369L1187.22 4.54605L1185.45 4.38487L1184.27 4.0625L1183.09 3.74013L1181.91 3.25658L1180.73 3.74013L1179.55 4.0625L1178.37 3.74013L1177.19 3.41776H1176H1174.82L1173.64 3.74013L1171.87 3.90132L1170.1 4.22369L1168.33 4.38487L1166.8 4.22369L1165.38 3.74013L1163.93 3.41776L1162.42 3.0954L1160.65 2.77303L1159.47 2.45066L1158.29 1.96711L1157.11 1.64474H1155.34L1154.16 1.96711L1152.98 1.48355L1152.39 1H1150.62H1148.84L1147.66 1.32237L1146.48 1.80592L1145.3 2.12829L1144.12 2.61184L1142.35 2.93421L1139.99 3.25658L1138.22 3.74013L1136.44 4.22369L1134.67 4.38487L1132.31 4.0625L1129.95 3.90132L1128.18 3.41776L1127 2.93421L1125.82 2.28947L1125.23 1.80592L1124.04 1.48355L1122.86 1L1121.68 1.16119L1120.5 1.80592L1119.32 2.28947L1117.55 2.77303L1116.37 3.41776L1114.6 4.0625L1113.42 4.54605L1112.83 5.19079L1112.24 5.83553L1111.65 6.48026L1110.46 6.80263L1108.69 7.125L1108.1 7.76974L1107.51 8.25329V8.89803L1106.92 9.54276V10.0263L1106.33 10.5099L1105.74 10.8322L1103.97 10.5099L1102.79 10.3487L1101.02 10.0263L1099.84 10.5099L1097.47 10.8322L1096.29 11.3158L1093.93 11.477L1092.75 10.9934H1090.39L1089.21 10.5099L1088.62 10.0263L1088.03 9.54276L1087.44 9.2204L1086.85 8.89803L1085.67 8.57566L1084.48 8.89803L1083.89 9.54276L1083.3 10.1875L1082.71 10.8322L1082.12 11.6382L1081.53 12.2829L1080.35 12.7664L1079.76 13.25L1079.17 13.7336L1078.58 14.0559L1076.81 14.2171L1075.04 14.0559L1073.27 13.7336L1071.49 13.4112L1069.72 13.0888L1068.54 12.6053L1067.36 12.2829L1066.18 11.9605H1065L1063.5 12.2829L1062.05 12.6053L1060.87 12.2829L1059.69 12.4441L1059.09 13.25L1058.5 13.7336L1057.32 14.2171L1056.14 14.0559L1055.55 13.7336L1054.37 13.5724L1053.19 13.7336L1052.01 14.0559L1050.83 14.5395L1049.65 14.8618L1047.88 14.7007L1047.29 14.2171L1046.7 13.8947L1046.1 13.5724L1045.51 14.2171L1044.92 14.8618L1044.33 15.5066L1043.74 16.1513L1043.15 16.7961L1041.97 17.2796L1040.2 17.4408L1039.02 17.7632L1038.43 18.2467L1037.25 18.5691L1036.07 19.0526L1034.3 18.8914L1033.11 18.5691L1031.93 18.0855L1030.75 17.7632H1028.98H1027.8L1026.62 17.4408L1025.44 17.1184L1024.26 16.7961L1023.08 16.4737L1021.9 16.1513V15.8289V15.3454L1021.31 14.8618L1020.72 14.5395L1020.12 14.0559L1019.53 13.4112L1018.94 12.9276L1017.76 12.4441L1017.17 12.1217L1015.99 11.9605L1014.81 12.1217L1013.63 12.4441L1011.86 12.6053H1010.68H1010.09L1008.32 12.9276L1007.13 13.25L1005.95 13.4112L1004.18 13.5724L1003.59 13.4112L1003 12.9276L1002.41 12.4441L1001.82 12.1217L1001.23 11.6382V11.1546L1000.64 10.6711L999.459 10.3487L998.278 10.0263L997.097 9.54276L995.916 9.2204H994.735L994.145 9.70395L993.554 10.1875L992.964 10.5099L991.783 10.8322L990.011 10.9934H988.83H987.65L986.469 11.1546L985.288 11.477L983.516 11.6382H981.745L979.974 11.477H978.793L977.612 11.6382L976.431 11.7993L975.25 12.1217L974.66 12.6053L974.069 12.7664L972.888 12.6053L972.298 12.2829L971.707 11.9605L971.117 11.6382V11.3158L969.936 11.477L969.345 12.1217L968.165 12.2829L967.574 12.6053L966.393 12.9276L965.803 13.25L964.622 13.5724L963.766 14.0559L962.85 14.3783L961.67 14.7007L961.079 15.1842L960.489 15.3454H959.308L958.127 15.1842L956.946 14.8618L955.765 14.7007L954.584 14.5395L953.994 14.2171V13.8947L953.403 13.5724V13.25L952.813 12.7664V12.4441L952.222 12.1217L951.632 11.7993L950.451 12.1217L949.86 12.4441L949.27 12.2829L948.089 11.7993V11.477L947.499 10.9934L947.205 10.5099L946.908 10.0263L945.727 9.70395L943.956 9.38158L942.185 9.2204L941.004 9.38158L940.413 8.89803L939.823 8.57566V8.09211L939.232 7.76974L938.051 7.44737H936.28L935.099 7.60855L933.918 7.28619L932.737 6.80263L932.147 6.31908L930.966 5.83553H929.785L928.604 6.31908L928.014 6.80263L926.833 6.96382H924.471H923.29H921.519H920.338L918.566 7.125L917.976 7.44737L916.205 7.60855L914.433 7.76974L912.662 7.60855L910.89 7.44737H908.529L907.348 7.125H906.167L904.986 6.80263L903.215 6.64145L901.443 6.31908H900.262L899.081 6.80263L898.491 7.125L897.31 7.44737L896.398 7.60855L894.948 8.09211L893.767 8.25329H891.996H890.815L889.044 8.09211L887.863 7.76974L886.091 7.60855L884.32 7.44737H882.834L881.958 7.60855L880.187 7.28619L879.596 7.125L879.006 6.80263L877.825 6.64145L876.644 6.96382L875.463 7.125H874.282H873.101L871.92 6.96382L871.33 6.80263H870.149L868.968 6.96382H867.787L866.606 6.80263H865.425L864.245 6.96382L863.654 7.125L862.473 7.44737L861.292 7.60855L860.111 7.76974L858.93 7.60855L858.34 7.28619L856.569 7.125L855.388 6.96382L854.207 6.80263L852.435 6.96382L851.845 7.125L850.664 7.28619L848.893 7.44737L847.712 7.60855L845.94 7.76974L845.35 8.09211L844.76 8.41447L844.169 8.57566L842.988 8.41447L841.807 8.25329L841.217 8.89803L840.626 9.38158L840.036 9.70395L839.445 10.0263L838.855 10.3487L838.265 10.8322L837.674 11.1546L837.084 11.6382L836.493 11.9605L835.903 12.4441L835.312 12.6053L833.541 12.4441L832.36 12.6053L831.179 13.0888L829.998 13.4112L828.817 13.7336V14.0559L827.636 14.3783L826.455 14.2171L825.275 14.0559H823.503H822.322L821.141 14.2171L819.37 14.3783L818.189 14.0559L817.008 13.7336L815.827 13.5724L814.056 13.8947L813.465 14.5395L812.875 14.8618L812.285 15.3454L811.104 15.8289H809.923L808.151 15.5066L807.561 15.1842L805.79 14.8618L804.018 14.5395L803.428 14.0559L802.837 13.7336V13.25L802.247 12.7664V12.1217V11.7993L801.656 11.3158V10.8322L801.066 10.3487V9.86513L800.475 9.54276V9.05921V8.73684L799.885 8.41447L799.295 7.93092V7.44737V6.80263L798.114 6.1579V5.67434L796.933 5.99671C796.933 6.1579 796.933 6.5125 796.933 6.64145C796.933 6.7704 796.539 7.01754 796.342 7.125V7.76974L795.752 8.09211L794.571 8.25329L792.8 8.09211L791.619 7.93092L791.028 7.60855L789.847 7.44737L788.666 7.125L788.076 6.80263L787.485 6.64145H786.305L785.714 6.96382L785.124 7.125L784.533 7.28619H783.943L782.762 7.44737H781.581L780.99 7.125L779.81 6.96382L779.219 6.80263L777.448 6.64145H776.267H775.086H773.905L773.315 6.80263H772.134H771.543L770.362 6.64145L769.772 6.31908L769.181 5.99671L768.591 5.51316L768 5.35197L767.41 5.02961L766.229 4.70724H765.048L763.867 5.02961L762.686 5.19079L762.096 5.51316L761.505 5.67434L760.325 5.99671L759.734 6.1579L758.553 6.48026H757.372L756.191 6.64145H755.01H753.239L752.058 6.48026L750.877 6.31908H749.106L747.925 5.99671H746.744L745.563 6.64145L744.973 7.125L744.382 7.60855L743.792 8.09211L743.201 8.25329L741.43 8.41447L740.249 8.57566H739.068L737.887 8.41447H736.706L735.525 8.25329L734.345 8.09211L733.754 7.76974H733.164L731.983 8.09211L730.802 8.41447H730.211L729.621 8.25329L728.44 8.09211L727.259 7.93092C727.062 7.93092 726.551 7.93092 726.078 7.93092C725.606 7.93092 724.7 7.93092 724.307 7.93092L723.716 7.76974L722.535 7.60855L720.764 7.76974L720.174 8.09211L718.402 8.25329H716.631L714.86 8.09211H711.907L710.136 8.25329L708.365 8.57566L707.774 8.89803L706.593 9.38158H704.822L703.05 9.05921L702.46 8.73684L701.279 8.41447L700.098 8.09211V7.76974L699.508 7.44737L698.917 7.125L698.327 6.80263L697.736 6.48026V6.31908H695.375L693.603 6.48026H692.422H691.241L690.651 6.31908H689.47L688.289 6.64145L687.108 6.96382L685.927 7.125L684.746 7.28619H683.565H681.794H680.023H678.842L676.48 7.44737L674.709 7.76974L673.528 7.60855L672.347 7.28619L671.166 7.125L669.395 6.80263H668.214H665.261H664.08H662.9H660.538H659.947H658.176H656.405L655.224 6.96382L652.862 7.28619H652.046H650.5L649.319 7.44737L648.138 7.76974L646.957 8.09211L645.776 8.25329H644.005L642.824 8.09211H641.053L640.462 8.25329L639.281 8.41447L636.92 8.73684L636.329 9.05921L634.558 9.38158L633.377 9.70395L632.196 10.0263H630.425L629.834 10.5099L628.653 10.9934L628.063 11.477L626.882 11.6382L625.11 11.7993L623.93 12.2829L623.339 12.9276V13.25L622.749 13.7336L622.158 14.2171L620.977 14.5395L618.025 14.7007L616.254 15.023L614.482 15.3454H612.711L611.53 15.1842L610.349 14.8618L609.168 14.7007L607.987 14.5395L606.806 15.023L606.216 15.5066L605.625 15.8289L604.445 16.3125L603.854 16.7961L603.264 17.2796H602.083L600.902 17.1184L599.13 16.9572L597.359 17.1184L596.178 17.4408L594.407 17.2796L594.125 16.7961L593.226 16.3125L592.635 15.9901L591.455 16.4737L590.864 16.9572L589.683 17.1184L588.502 16.9572L587.321 16.7961L586.14 16.9572L584.96 17.1184H583.779L582.598 16.9572L582.007 16.7961L580.826 17.1184L580.236 17.4408L579.645 17.7632H578.465L577.606 17.4408L576.693 16.9572L576.103 16.7961L575.117 16.4737L573.741 17.1184L572.56 17.602L571.97 18.0855L571.379 18.5691L570.789 18.7303H569.608L568.427 18.4079L566.655 18.5691L565.475 18.7303L564.294 18.8914L563.113 18.7303L562.261 18.5691H561.341L560.16 18.2467H558.98L558.389 18.0855L557.208 18.4079L556.618 18.5691L555.437 18.8914L554.846 19.2138L553.075 19.0526L551.894 18.7303L551.304 18.4079L550.713 17.9243L550.123 17.4408L549.532 16.9572L548.942 16.6349L547.761 16.3125L546.58 15.9901L545.399 16.1513L544.218 16.3125L543.628 16.6349L541.856 16.3125L540.085 15.9901L538.904 15.8289L537.723 16.3125L536.542 16.7961L535.952 17.2796L535.361 17.7632L534.771 18.0855L534.18 18.5691V18.8914L533.59 19.375L533 19.6974H531.819L530.638 19.375L529.457 19.6974L528.276 20.1809L527.095 20.5033H525.324L524.143 20.3421L522.962 20.1809L521.412 20.3421L520.6 20.8257H519.419L518.829 20.6645L517.648 20.1809L516.467 19.8586L515.286 19.6974L514.105 19.5362L512.704 19.6974H511.743L510.562 19.5362L509.972 19.2138L509.381 18.8914L508.2 18.7303L507.61 19.375L507.02 19.6974L506.429 20.0197L505.248 20.3421L504.658 20.8257L503.477 21.3092L502.886 21.6316L501.705 22.1151L500.525 22.2763H498.753L498.163 22.1151L497.572 22.5987L496.391 22.9211L495.801 23.4046L494.62 23.5658L492.849 23.2434L492.258 23.0822L491.077 22.5987L490.487 22.1151V21.7928L489.896 21.4704L488.125 21.3092H486.944L485.173 21.4704H482.811H481.04H479.859L478.678 21.3092L477.497 21.148L476.906 20.8257L476.316 20.5033L475.725 20.1809L475.135 19.6974L474.545 19.2138L473.954 18.7303L473.364 18.4079L472.183 18.5691L471.002 18.7303L469.821 19.0526L468.883 19.375L468.64 19.6974L468.05 20.0197V20.3421L467.459 20.8257V21.4704L466.869 21.9539L466.278 22.4375L465.688 22.9211L465.097 23.2434L464.507 23.5658L463.916 24.0493L463.326 24.3717L462.145 24.8553L461.555 25.1776L460.374 25.3388L459.193 25.1776L458.602 24.8553L458.012 24.5329L456.831 24.3717L455.65 24.6941L454.469 25.0164L453.879 25.5L453.288 26.1447L452.698 26.6283L451.517 27.1118L450.926 27.4342L450.336 27.7566L449.155 28.0789H447.974L446.793 27.9178L445.022 27.5954L444.431 27.4342H443.25L442.07 27.7566L441.479 28.0789L440.889 28.2401L439.708 28.0789L439.117 27.7566L438.527 27.4342L437.936 27.273L436.755 27.4342L436.165 27.7566L434.984 28.0789L433.803 28.2401L433.213 27.9178L432.032 27.7566L431.441 27.5954H430.26L429.67 27.7566L428.489 27.9178L427.308 28.0789L426.127 27.9178H424.946L423.765 28.0789L422.585 28.2401L421.404 28.4013L420.223 28.5625L419.042 28.7237L417.27 29.2072H416.09L414.318 29.3684H413.137L411.366 29.2072L410.185 29.0461L409.004 28.8849H407.823L406.642 29.2072L405.461 29.5296V30.0132L404.871 30.4967L404.28 30.9803L403.69 31.4638L403.1 31.625H401.328H399.557L397.785 31.3026L396.605 30.9803L395.424 30.8191L393.062 30.6579L391.29 30.8191L389.519 30.9803L388.338 31.625L387.157 32.1086L385.386 31.9474L383.615 31.7862L381.843 32.1086L381.253 32.7533V33.398V33.8816L380.662 34.5263L380.072 35.3322V35.8158L379.481 36.2993L378.891 36.9441L378.3 37.2664L375.939 37.4276H374.167H372.396H370.034H368.853H367.082L366.491 37.75L365.31 37.9112V37.5888L364.72 37.2664L364.13 36.7829V36.2993L363.539 35.6546V35.1711L362.949 34.8487V34.5263L362.358 34.2039H360.587H359.406L358.815 33.5592L358.225 33.0757L357.635 32.4309L357.044 31.9474H355.863L354.682 32.1086L353.501 32.2697L352.32 32.4309L351.14 32.2697L349.959 32.1086L348.187 32.2697L347.597 32.7533L346.416 33.0757L345.825 33.5592L344.645 33.8816L343.464 34.2039L341.692 34.0428L340.511 33.8816L339.33 33.7204H337.559L336.378 34.0428L335.197 34.2039L334.016 33.8816L332.835 33.7204L332.245 33.398L331.064 33.0757L329.883 32.9145L328.702 33.2368L327.521 33.5592L326.34 34.0428L325.75 34.5263L324.569 34.8487L322.798 34.5263L321.617 34.2039L321.026 34.6875L320.436 35.1711L319.845 35.8158L319.255 36.2993L318.665 36.9441V37.4276L317.484 36.6217L316.893 36.1382L316.303 35.6546L315.122 35.3322L313.35 34.8487L311.579 34.5263H310.398H308.627H306.855L305.675 34.2039L304.494 34.0428L303.313 33.7204L302.132 34.2039L300.951 34.6875H298.589H297.408L295.637 34.8487L294.456 35.1711L292.685 35.6546L291.504 35.977L289.732 36.1382L289.142 35.6546L288.551 35.0099L287.961 34.3651L287.371 33.7204L286.19 33.2368H284.418L282.647 33.398L280.876 33.7204L279.104 34.0428H277.333H276.152L274.971 34.2039L273.79 34.6875L273.2 35.0099L272.609 35.4934L272.019 35.8158L270.838 36.1382L269.657 35.8158L269.066 35.4934L268.476 35.1711L267.886 34.8487L266.705 35.0099L266.114 35.4934L264.933 35.8158L264.343 36.1382L263.162 36.6217L261.981 36.9441L260.8 37.4276L259.619 37.75V38.2336L259.029 38.5559L258.438 39.0395V39.523L257.257 39.8454L255.486 39.523H253.715L252.534 40.0066H251.353L249.581 39.6842H247.81H246.629L245.448 40.3289L244.267 40.8125L243.086 41.1349H241.315L239.544 40.9737L238.363 40.4901L237.182 40.0066L236.591 39.523L236.001 39.0395L234.82 39.523V40.3289L233.639 40.8125L233.049 41.1349L231.868 40.6513L230.687 40.3289L229.506 40.1678L227.735 40.3289H225.963L224.782 40.0066L224.192 39.523L223.601 39.0395L222.421 38.3947L221.83 37.9112L220.649 37.5888L218.878 37.4276H217.697L215.926 37.1053L214.154 36.6217L212.383 37.1053L211.202 37.4276L210.021 37.5888H208.25H207.069L205.297 37.4276L203.526 37.1053H201.755L200.574 37.4276L199.393 37.75L197.621 38.3947L196.441 39.0395L195.85 39.6842L195.26 40.3289L194.669 40.9737L194.079 41.6184L193.488 42.2632V42.9079L192.898 43.7138L191.717 43.5526L190.536 43.2303L189.355 43.0691L188.174 43.2303L187.584 43.5526L186.403 43.3914L184.631 43.2303L183.451 43.3914L182.86 43.7138L181.679 44.0362L180.498 43.7138L179.317 43.3914L178.727 43.0691L177.546 43.3914L176.365 43.5526L175.775 43.0691L174.594 42.5855L174.003 42.2632L172.822 42.4243L171.641 42.9079L171.051 43.3914L170.461 43.875L169.87 44.3586L169.28 45.0033L168.689 45.4868L168.099 46.1316H166.327H164.556L163.375 46.4539L162.194 46.7763L161.013 47.0987L159.832 47.2599L157.471 46.9375L156.29 46.6151L155.699 46.1316L154.518 45.648L153.928 45.1645L153.337 44.6809L152.747 44.1974H150.976L149.795 44.6809L148.023 45.0033L146.252 44.8421H144.481L142.709 45.0033L140.938 45.3257L139.166 45.4868H137.395L136.214 45.648L135.033 46.2928V46.9375V47.5822L134.443 48.0658L133.852 48.7105V49.1941L132.671 50L131.491 49.1941L130.9 48.7105L130.31 48.3882L129.129 48.0658H127.357L125.586 47.9046H123.815L121.453 47.5822H119.681L118.501 47.2599L116.729 46.9375L114.958 47.0987H113.186L112.006 47.4211L110.825 46.9375L110.234 46.4539L109.053 46.2928L107.872 46.4539L107.282 46.7763L106.691 47.2599L105.511 46.9375L104.33 46.6151L103.739 46.2928L102.558 46.1316L101.377 46.2928L100.196 46.6151L98.4251 46.7763L96.6537 47.0987H95.4728L94.2919 47.2599L93.111 47.5822L91.3396 47.7434L88.9778 47.9046H87.2064L86.0255 47.7434L84.2541 47.5822H82.4828H81.3019L80.121 47.2599L78.9401 46.9375L77.7591 46.7763L75.9878 46.6151L72.4451 46.7763H69.4928H67.131H65.9501L64.1787 47.4211L62.9978 47.7434L60.636 48.0658H58.2741H55.9123L53.5505 48.3882L50.5982 48.0658H47.646H45.2841L43.5128 47.4211L41.7414 46.7763L40.5605 46.1316V45.1645L39.3796 44.3586L38.1987 43.5526L37.6082 42.7467L35.2464 42.4243L33.4751 42.7467L30.5228 43.0691L28.161 42.7467L26.3896 42.4243L24.6182 42.2632L23.4373 42.7467L22.2564 43.0691L21.0755 43.3914L19.8946 43.0691L18.7137 42.9079L17.5328 42.7467H16.3519H15.171L13.3996 42.9079L12.8091 43.3914L10.4473 43.7138L8.08551 44.0362V44.6809L7.49506 45.3257L6.9046 45.9704L6.31415 46.4539L5.72369 46.9375L4.54279 46.6151L3.36188 46.2928L2.18097 46.1316H1.00006" stroke="#906CF8" stroke-linecap="round"/>
</svg>
