<svg width="1301" height="155" viewBox="0 0 1301 155" fill="none" xmlns="http://www.w3.org/2000/svg">
<path d="M1 104.5L2.18091 103.5H3.36182H4.54273L5.72364 102.5L6.90455 101.5L8.08545 100.5L9.26636 99.5L10.4473 100.5H11.6282L12.8091 100L13.99 99L15.1709 98L16.3518 97.5L17.5327 96.5L18.7136 95.5H19.8945L20.485 94.5L21.0755 93.5H22.2564L23.4373 94L24.0277 95L24.6182 95.5H25.7991L26.98 94.5L28.1609 95V96.5L28.7514 97.5L29.3418 98.5L29.9323 99.5L30.5227 100H31.7036L32.8845 99.5L34.0655 100L35.2464 101L36.4273 101.5L37.6082 100.5L38.7891 99.5L39.3795 98.5L40.5605 97.5H41.7414L42.9223 98L43.5127 99L44.6936 100H45.8745L47.0555 100.5L48.2364 101.5L49.4173 102.5L50.0077 103.5L50.5982 105V106.5V108L51.1886 109.5L51.7791 111L52.3695 112.5L53.5505 113.5H55.3218L56.5027 112.5L57.6836 111.5L58.8645 110.5L60.0455 109.5L60.6359 108L61.2264 106L61.8168 105L62.4073 103L63.5882 102.5L64.7691 103.5L65.3595 104.5L65.95 105.5L67.1309 106.5L67.7214 107.5L68.3118 108.5L69.4927 109L70.6736 109.5L71.8545 110.5L73.0355 111.5L74.2164 112L75.3973 111.5L75.9877 110.5H77.7591L78.94 111L80.1209 111.5L81.3018 112.5L82.4827 111.5L83.6636 110.5H84.8445H86.0255L87.2064 111.5L88.9777 112L90.1586 113L90.7491 114L91.93 115.5V117L92.5205 118L93.1109 119.5L93.7014 121L94.2918 122.5L94.8823 124L95.4727 126L96.0632 127.5L96.6536 129L97.2441 130.5L98.425 132L99.0155 134L99.6059 136L100.196 137.5L101.377 139.5V141.5L102.558 142.5L103.739 144L104.92 144.5L106.101 143.5L107.282 142L107.872 143.5L109.351 144.5L110.234 145.5L110.825 147L112.005 145.5L112.596 144L113.777 143L115.548 143.5L116.729 144.5L117.91 145.5L119.091 147L120.272 145.5L121.453 144.5L122.634 145.5L123.815 146.5H124.995H126.176L127.357 145.5L129.129 145L130.9 144L132.671 143.5L134.2 144L135.624 145.5L137.067 146.5L138.576 147.5L140.347 148.5L141.528 149.5L142.709 151L143.89 152H145.661L146.842 151L148.023 152.5L148.614 154H150.385H152.156L153.337 153L154.518 151.5L155.699 150.5L156.88 149L158.651 148L161.013 147L162.785 145.5L164.556 144L166.327 143.5L168.689 144.5L171.051 145L172.822 146.5L174.003 148L175.184 150L175.775 151.5L176.955 152.5L178.136 154L179.317 153.5L180.498 151.5L181.679 150L183.45 148.5L184.631 146.5L186.403 144.5L187.584 143L188.174 141L188.765 139L189.355 137L190.536 136L192.307 135L192.898 133L193.488 131.5V129.5L194.079 127.5V126L194.669 124.5L195.26 123.5L197.031 124.5L198.212 125L199.983 126L201.164 124.5L203.526 123.5L204.707 122L207.069 121.5L208.25 123H210.611L211.792 124.5L212.383 126L212.973 127.5L213.564 128.5L214.154 129.5L215.335 130.5L216.516 129.5L217.106 127.5L217.697 125.5L218.287 123.5L218.878 121L219.468 119L220.649 117.5L221.24 116L221.83 114.5L222.42 113.5L224.192 113L225.963 113.5L227.735 114.5L229.506 115.5L231.277 116.5L232.458 118L233.639 119L234.82 120H236.001L237.495 119L238.953 118L240.134 119L241.315 118.5L241.905 116L242.496 114.5L243.677 113L244.858 113.5L245.448 114.5L246.629 115L247.81 114.5L248.991 113.5L250.172 112L251.353 111L253.124 111.5L253.715 113L254.305 114L254.895 115L255.486 113L256.076 111L256.667 109L257.257 107L257.848 105L259.029 103.5L260.8 103L261.981 102L262.571 100.5L263.752 99.5L264.933 98L266.705 98.5L267.885 99.5L269.066 101L270.247 102H272.019H273.2L274.38 103L275.561 104L276.742 105L277.923 106L279.104 107V108V109.5L279.695 111L280.285 112L280.875 113.5L281.466 115.5L282.056 117L283.237 118.5L283.828 119.5L285.009 120L286.19 119.5L287.37 118.5L289.142 118H290.323H290.913L292.685 117L293.865 116L295.046 115.5L296.818 115L297.408 115.5L297.999 117L298.589 118.5L299.18 119.5L299.77 121V122.5L300.36 124L301.541 125L302.722 126L303.903 127.5L305.084 128.5H306.265L306.855 127L307.446 125.5L308.036 124.5L309.217 123.5L310.989 123H312.17H313.35L314.531 122.5L315.712 121.5L317.484 121H319.255L321.026 121.5H322.207L323.388 121L324.569 120.5L325.75 119.5L326.34 118L326.931 117.5L328.112 118L328.702 119L329.293 120L329.883 121V122L331.064 121.5L331.655 119.5L332.835 119L333.426 118L334.607 117L335.197 116L336.378 115L337.234 113.5L338.15 112.5L339.33 111.5L339.921 110L340.511 109.5H341.692L342.873 110L344.054 111L345.235 111.5L346.416 112L347.006 113V114L347.597 115V116L348.187 117.5V118.5L348.778 119.5L349.368 120.5L350.549 119.5L351.14 118.5L351.73 119L352.911 120.5V121.5L353.501 123L353.795 124.5L354.092 126L355.273 127L357.044 128L358.815 128.5L359.996 128L360.587 129.5L361.177 130.5V132L361.768 133L362.949 134H364.72L365.901 133.5L367.082 134.5L368.263 136L368.853 137.5L370.034 139H371.215L372.396 137.5L372.986 136L374.167 135.5H376.529H377.71H379.481H380.662L382.434 135L383.024 134L384.795 133.5L386.567 133L388.338 133.5L390.11 134H392.471L393.652 135H394.833L396.014 136L397.785 136.5L399.557 137.5H400.738L401.919 136L402.509 135L403.69 134L404.602 133.5L406.052 132L407.233 131.5H409.004H410.185L411.956 132L413.137 133L414.909 133.5L416.68 134H418.166L419.042 133.5L420.813 134.5L421.404 135L421.994 136L423.175 136.5L424.356 135.5L425.537 135H426.718H427.899L429.08 135.5L429.67 136H430.851L432.032 135.5H433.213L434.394 136H435.575L436.755 135.5L437.346 135L438.527 134L439.708 133.5L440.889 133L442.07 133.5L442.66 134.5L444.431 135L445.612 135.5L446.793 136L448.565 135.5L449.155 135L450.336 134.5L452.107 134L453.288 133.5L455.06 133L455.65 132L456.24 131L456.831 130.5L458.012 131L459.193 131.5L459.783 129.5L460.374 128L460.964 127L461.555 126L462.145 125L462.735 123.5L463.326 122.5L463.916 121L464.507 120L465.097 118.5L465.688 118L467.459 118.5L468.64 118L469.821 116.5L471.002 115.5L472.183 114.5V113.5L473.364 112.5L474.545 113L475.725 113.5H477.497H478.678L479.859 113L481.63 112.5L482.811 113.5L483.992 114.5L485.173 115L486.944 114L487.535 112L488.125 111L488.715 109.5L489.896 108H491.077L492.849 109L493.439 110L495.21 111L496.982 112L497.572 113.5L498.163 114.5V116L498.753 117.5V119.5V120.5L499.344 122V123.5L499.934 125V126.5L500.525 127.5V129V130L501.115 131L501.705 132.5V134V136L502.886 138V139.5L504.067 138.5C504.067 138 504.067 136.9 504.067 136.5C504.067 136.1 504.461 135.333 504.658 135V133L505.248 132L506.429 131.5L508.2 132L509.381 132.5L509.972 133.5L511.153 134L512.334 135L512.924 136L513.515 136.5H514.695L515.286 135.5L515.876 135L516.467 134.5H517.057L518.238 134H519.419L520.01 135L521.19 135.5L521.781 136L523.552 136.5H524.733H525.914H527.095L527.685 136H528.866H529.457L530.638 136.5L531.228 137.5L531.819 138.5L532.409 140L533 140.5L533.59 141.5L534.771 142.5H535.952L537.133 141.5L538.314 141L538.904 140L539.495 139.5L540.675 138.5L541.266 138L542.447 137H543.628L544.809 136.5H545.99H547.761L548.942 137L550.123 137.5H551.894L553.075 138.5H554.256L555.437 136.5L556.027 135L556.618 133.5L557.208 132L557.799 131.5L559.57 131L560.751 130.5H561.932L563.113 131H564.294L565.475 131.5L566.655 132L567.246 133H567.836L569.017 132L570.198 131H570.789L571.379 131.5L572.56 132L573.741 132.5C573.938 132.5 574.449 132.5 574.922 132.5C575.394 132.5 576.3 132.5 576.693 132.5L577.284 133L578.465 133.5L580.236 133L580.826 132L582.598 131.5H584.369L586.14 132H589.093L590.864 131.5L592.635 130.5L593.226 129.5L594.407 128H596.178L597.95 129L598.54 130L599.721 131L600.902 132V133L601.492 134L602.083 135L602.673 136L603.264 137V137.5H605.625L607.397 137H608.578H609.759L610.349 137.5H611.53L612.711 136.5L613.892 135.5L615.073 135L616.254 134.5H617.435H619.206H620.977H622.158L624.52 134L626.291 133L627.472 133.5L628.653 134.5L629.834 135L631.605 136H632.786H635.739H636.92H638.1H640.462H641.053H642.824H644.595L645.776 135.5L648.138 134.5H648.954H650.5L651.681 134L652.862 133L654.043 132L655.224 131.5H656.995L658.176 132H659.947L660.538 131.5L661.719 131L664.08 130L664.671 129L666.442 128L667.623 127L668.804 126H670.575L671.166 124.5L672.347 123L672.937 121.5L674.118 121L675.89 120.5L677.07 119L677.661 117V116L678.251 114.5L678.842 113L680.023 112L682.975 111.5L684.746 110.5L686.518 109.5H688.289L689.47 110L690.651 111L691.832 111.5L693.013 112L694.194 110.5L694.784 109L695.375 108L696.555 106.5L697.146 105L697.736 103.5H698.917L700.098 104L701.87 104.5L703.641 104L704.822 103L706.593 103.5L706.875 105L707.774 106.5L708.365 107.5L709.545 106L710.136 104.5L711.317 104L712.498 104.5L713.679 105L714.86 104.5L716.04 104H717.221L718.402 104.5L718.993 105L720.174 104L720.764 103L721.355 102H722.535L723.394 103L724.307 104.5L724.897 105L725.883 106L727.259 104L728.44 102.5L729.03 101L729.621 99.5L730.211 99H731.392L732.573 100L734.345 99.5L735.525 99L736.706 98.5L737.887 99L738.739 99.5H739.659L740.84 100.5H742.02L742.611 101L743.792 100L744.382 99.5L745.563 98.5L746.154 97.5L747.925 98L749.106 99L749.696 100L750.287 101.5L750.877 103L751.468 104.5L752.058 105.5L753.239 106.5L754.42 107.5L755.601 107L756.782 106.5L757.372 105.5L759.144 106.5L760.915 107.5L762.096 108L763.277 106.5L764.458 105L765.048 103.5L765.639 102L766.229 101L766.82 99.5V98.5L767.41 97L768 96H769.181L770.362 97L771.543 96L772.724 94.5L773.905 93.5H775.676L776.857 94L778.038 94.5L779.588 94L780.4 92.5H781.581L782.171 93L783.352 94.5L784.533 95.5L785.714 96L786.895 96.5L788.296 96H789.257L790.438 96.5L791.028 97.5L791.619 98.5L792.8 99L793.39 97L793.98 96L794.571 95L795.752 94L796.342 92.5L797.523 91L798.114 90L799.295 88.5L800.475 88H802.247L802.837 88.5L803.428 87L804.609 86L805.199 84.5L806.38 84L808.151 85L808.742 85.5L809.923 87L810.513 88.5V89.5L811.104 90.5L812.875 91H814.056L815.827 90.5H818.189H819.96H821.141L822.322 91L823.503 91.5L824.094 92.5L824.684 93.5L825.275 94.5L825.865 96L826.455 97.5L827.046 99L827.636 100L828.817 99.5L829.998 99L831.179 98L832.117 97L832.36 96L832.95 95V94L833.541 92.5V90.5L834.131 89L834.722 87.5L835.312 86L835.903 85L836.493 84L837.084 82.5L837.674 81.5L838.855 80L839.445 79L840.626 78.5L841.807 79L842.398 80L842.988 81L844.169 81.5L845.35 80.5L846.531 79.5L847.121 78L847.712 76L848.302 74.5L849.483 73L850.074 72L850.664 71L851.845 70H853.026L854.207 70.5L855.978 71.5L856.569 72H857.75L858.93 71L859.521 70L860.111 69.5L861.292 70L861.883 71L862.473 72L863.064 72.5L864.245 72L864.835 71L866.016 70L867.197 69.5L867.787 70.5L868.968 71L869.559 71.5H870.74L871.33 71L872.511 70.5L873.692 70L874.873 70.5H876.054L877.235 70L878.415 69.5L879.596 69L880.777 68.5L881.958 68L883.73 66.5H884.91L886.682 66H887.863L889.634 66.5L890.815 67L891.996 67.5H893.177L894.358 66.5L895.539 65.5V64L896.129 62.5L896.72 61L897.31 59.5L897.9 59H899.672H901.443L903.215 60L904.395 61L905.576 61.5L907.938 62L909.71 61.5L911.481 61L912.662 59L913.843 57.5L915.614 58L917.385 58.5L919.157 57.5L919.747 55.5V53.5V52L920.338 50L920.928 47.5V46L921.519 44.5L922.109 42.5L922.7 41.5L925.061 41H926.833H928.604H930.966H932.147H933.918L934.509 40L935.69 39.5V40.5L936.28 41.5L936.87 43V44.5L937.461 46.5V48L938.051 49V50L938.642 51H940.413H941.594L942.185 53L942.775 54.5L943.365 56.5L943.956 58H945.137L946.318 57.5L947.499 57L948.68 56.5L949.86 57L951.041 57.5L952.813 57L953.403 55.5L954.584 54.5L955.175 53L956.355 52L957.536 51L959.308 51.5L960.489 52L961.67 52.5H963.441L964.622 51.5L965.803 51L966.984 52L968.165 52.5L968.755 53.5L969.936 54.5L971.117 55L972.298 54L973.479 53L974.66 51.5L975.25 50L976.431 49L978.202 50L979.383 51L979.974 49.5L980.564 48L981.155 46L981.745 44.5L982.335 42.5V41L983.516 43.5L984.107 45L984.697 46.5L985.878 47.5L987.65 49L989.421 50H990.602H992.373H994.145L995.325 51L996.506 51.5L997.687 52.5L998.868 51L1000.05 49.5H1002.41H1003.59L1005.36 49L1006.54 48L1008.32 46.5L1009.5 45.5L1011.27 45L1011.86 46.5L1012.45 48.5L1013.04 50.5L1013.63 52.5L1014.81 54H1016.58L1018.35 53.5L1020.12 52.5L1021.9 51.5H1023.67H1024.85L1026.03 51L1027.21 49.5L1027.8 48.5L1028.39 47L1028.98 46L1030.16 45L1031.34 46L1031.93 47L1032.52 48L1033.11 49L1034.3 48.5L1034.89 47L1036.07 46L1036.66 45L1037.84 43.5L1039.02 42.5L1040.2 41L1041.38 40V38.5L1041.97 37.5L1042.56 36V34.5L1043.74 33.5L1045.51 34.5H1047.29L1048.47 33H1049.65L1051.42 34H1053.19H1054.37L1055.55 32L1056.73 30.5L1057.91 29.5H1059.68L1061.46 30L1062.64 31.5L1063.82 33L1064.41 34.5L1065 36L1066.18 34.5V32L1067.36 30.5L1067.95 29.5L1069.13 31L1070.31 32L1071.49 32.5L1073.27 32H1075.04L1076.22 33L1076.81 34.5L1077.4 36L1078.58 38L1079.17 39.5L1080.35 40.5L1082.12 41H1083.3L1085.07 42L1086.85 43.5L1088.62 42L1089.8 41L1090.98 40.5H1092.75H1093.93L1095.7 41L1097.47 42H1099.25L1100.43 41L1101.61 40L1103.38 38L1104.56 36L1105.15 34L1105.74 32L1106.33 30L1106.92 28L1107.51 26V24L1108.1 21.5L1109.28 22L1110.46 23L1111.64 23.5L1112.83 23L1113.42 22L1114.6 22.5L1116.37 23L1117.55 22.5L1118.14 21.5L1119.32 20.5L1120.5 21.5L1121.68 22.5L1122.27 23.5L1123.45 22.5L1124.63 22L1125.23 23.5L1126.41 25L1127 26L1128.18 25.5L1129.36 24L1129.95 22.5L1130.54 21L1131.13 19.5L1131.72 17.5L1132.31 16L1132.9 14H1134.67H1136.44L1137.62 13L1138.81 12L1139.99 11L1141.17 10.5L1143.53 11.5L1144.71 12.5L1145.3 14L1146.48 15.5L1147.07 17L1147.66 18.5L1148.25 20H1150.02L1151.21 18.5L1152.98 17.5L1154.75 18H1156.52L1158.29 17.5L1160.06 16.5L1161.83 16H1163.6L1164.79 15.5L1165.97 13.5V11.5V9.5L1166.56 8L1167.15 6V4.5L1168.33 2L1169.51 4.5L1170.1 6L1170.69 7L1171.87 8H1173.64L1175.41 8.5H1177.19L1179.55 9.5H1181.32L1182.5 10.5L1184.27 11.5L1186.04 11H1187.81L1188.99 10L1190.18 11.5L1190.77 13L1191.95 13.5L1193.13 13L1193.72 12L1194.31 10.5L1195.49 11.5L1196.67 12.5L1197.26 13.5L1198.44 14L1199.62 13.5L1200.8 12.5L1202.57 12L1204.35 11H1205.53L1206.71 10.5L1207.89 9.5L1209.66 9L1212.02 8.5H1213.79L1214.97 9L1216.75 9.5H1218.52H1219.7L1220.88 10.5L1222.06 11.5L1223.24 12L1225.01 12.5L1228.55 12H1231.51H1233.87H1235.05L1236.82 10L1238 9L1240.36 8H1242.73H1245.09L1247.45 7L1250.4 8H1253.35H1255.72L1257.49 10L1259.26 12L1260.44 14V17L1261.62 19.5L1262.8 22L1263.39 24.5L1265.75 25.5L1267.52 24.5L1270.48 23.5L1272.84 24.5L1274.61 25.5L1276.38 26L1277.56 24.5L1278.74 23.5L1279.92 22.5L1281.11 23.5L1282.29 24L1283.47 24.5H1284.65H1285.83L1287.6 24L1288.19 22.5L1290.55 21.5L1292.91 20.5V18.5L1293.5 16.5L1294.1 14.5L1294.69 13L1295.28 11.5L1296.46 12.5L1297.64 13.5L1298.82 14H1300" stroke="#E3E4AB" stroke-linecap="round"/>
</svg>
