<svg width="1299" height="158" viewBox="0 0 1299 158" fill="none" xmlns="http://www.w3.org/2000/svg">
<path d="M1.18091 101.5L0 102.5V158H1299V12H1297.82L1296.64 11.5L1295.46 10.5L1294.28 9.5L1293.69 11L1293.1 12.5L1292.51 14.5L1291.91 16.5V18.5L1289.55 19.5L1287.19 20.5L1286.6 22L1284.83 22.5H1283.65H1282.47L1281.29 22L1280.11 21.5L1278.92 20.5L1277.74 21.5L1276.56 22.5L1275.38 24L1273.61 23.5L1271.84 22.5L1269.48 21.5L1266.53 22.5L1264.75 23.5L1262.39 22.5L1261.8 20L1260.62 17.5L1259.44 15V12L1258.26 10L1256.49 8L1254.72 6H1252.35H1249.4L1246.45 5L1244.09 6H1241.73H1239.36L1237 7L1235.82 8L1234.05 10H1232.87H1230.51H1227.55L1224.01 10.5L1222.24 10L1221.06 9.5L1219.88 8.5L1218.7 7.5H1217.52H1215.75L1213.97 7L1212.79 6.5H1211.02L1208.66 7L1206.89 7.5L1205.71 8.5L1204.53 9H1203.35L1201.57 10L1199.8 10.5L1198.62 11.5L1197.44 12L1196.26 11.5L1195.67 10.5L1194.49 9.5L1193.31 8.5L1192.72 10L1192.13 11L1190.95 11.5L1189.77 11L1189.18 9.5L1187.99 8L1186.81 9H1185.04L1183.27 9.5L1181.5 8.5L1180.32 7.5H1178.55L1176.19 6.5H1174.41L1172.64 6H1170.87L1169.69 5L1169.1 4L1168.51 2.5L1167.33 0L1166.15 2.5V4L1165.56 6L1164.97 7.5V9.5V11.5L1163.79 13.5L1162.6 14H1160.83L1159.06 14.5L1157.29 15.5L1155.52 16H1153.75L1151.98 15.5L1150.21 16.5L1149.02 18H1147.25L1146.66 16.5L1146.07 15L1145.48 13.5L1144.3 12L1143.71 10.5L1142.53 9.5L1140.17 8.5L1138.99 9L1137.81 10L1136.62 11L1135.44 12H1133.67H1131.9L1131.31 14L1130.72 15.5L1130.13 17.5L1129.54 19L1128.95 20.5L1128.36 22L1127.18 23.5L1126 24L1125.41 23L1124.23 21.5L1123.64 20L1122.45 20.5L1121.27 21.5L1120.68 20.5L1119.5 19.5L1118.32 18.5L1117.14 19.5L1116.55 20.5L1115.37 21L1113.6 20.5L1112.42 20L1111.83 21L1110.65 21.5L1109.46 21L1108.28 20L1107.1 19.5L1106.51 22V24L1105.92 26L1105.33 28L1104.74 30L1104.15 32L1103.56 34L1102.38 36L1100.61 38L1099.43 39L1098.25 40H1096.47L1094.7 39L1092.93 38.5H1091.75H1089.98L1088.8 39L1087.62 40L1085.85 41.5L1084.07 40L1082.3 39H1081.12L1079.35 38.5L1078.17 37.5L1077.58 36L1076.4 34L1075.81 32.5L1075.22 31L1074.04 30H1072.27L1070.49 30.5L1069.31 30L1068.13 29L1066.95 27.5L1066.36 28.5L1065.18 30V32.5L1064 34L1063.41 32.5L1062.82 31L1061.64 29.5L1060.46 28L1058.68 27.5H1056.91L1055.73 28.5L1054.55 30L1053.37 32H1052.19H1050.42L1048.65 31H1047.47L1046.29 32.5H1044.51L1042.74 31.5L1041.56 32.5V34L1040.97 35.5L1040.38 36.5V38L1039.2 39L1038.02 40.5L1036.84 41.5L1035.66 43L1035.07 44L1033.89 45L1033.3 46.5L1032.11 47L1031.52 46L1030.93 45L1030.34 44L1029.16 43L1027.98 44L1027.39 45L1026.8 46.5L1026.21 47.5L1025.03 49L1023.85 49.5H1022.67H1020.9L1019.12 50.5L1017.35 51.5L1015.58 52H1013.81L1012.63 50.5L1012.04 48.5L1011.45 46.5L1010.86 44.5L1010.27 43L1008.5 43.5L1007.32 44.5L1005.54 46L1004.36 47L1002.59 47.5H1001.41H999.049L997.868 49L996.687 50.5L995.506 49.5L994.325 49L993.145 48H991.373H989.602H988.421L986.65 47L984.878 45.5L983.697 44.5L983.107 43L982.516 41.5L981.335 39V40.5L980.745 42.5L980.155 44L979.564 46L978.974 47.5L978.383 49L977.202 48L975.431 47L974.25 48L973.66 49.5L972.479 51L971.298 52L970.117 53L968.936 52.5L967.755 51.5L967.165 50.5L965.984 50L964.803 49L963.622 49.5L962.441 50.5H960.67L959.489 50L958.308 49.5L956.536 49L955.355 50L954.175 51L953.584 52.5L952.403 53.5L951.813 55L950.041 55.5L948.86 55L947.68 54.5L946.499 55L945.318 55.5L944.137 56H942.956L942.365 54.5L941.775 52.5L941.185 51L940.594 49H939.413H937.642L937.051 48V47L936.461 46V44.5L935.87 42.5V41L935.28 39.5L934.69 38.5V37.5L933.509 38L932.918 39H931.147H929.966H927.604H925.833H924.061L921.7 39.5L921.109 40.5L920.519 42.5L919.928 44V45.5L919.338 48L918.747 50V51.5V53.5L918.157 55.5L916.385 56.5L914.614 56L912.843 55.5L911.662 57L910.481 59L908.71 59.5L906.938 60L904.576 59.5L903.395 59L902.215 58L900.443 57H898.672H896.9L896.31 57.5L895.72 59L895.129 60.5L894.539 62V63.5L893.358 64.5L892.177 65.5H890.996L889.815 65L888.634 64.5L886.863 64H885.682L883.91 64.5H882.729L880.958 66L879.777 66.5L878.596 67L877.415 67.5L876.235 68L875.054 68.5H873.873L872.692 68L871.511 68.5L870.33 69L869.74 69.5H868.559L867.968 69L866.787 68.5L866.197 67.5L865.016 68L863.835 69L863.245 70L862.064 70.5L861.473 70L860.883 69L860.292 68L859.111 67.5L858.521 68L857.93 69L856.75 70H855.569L854.978 69.5L853.207 68.5L852.026 68H850.845L849.664 69L849.074 70L848.483 71L847.302 72.5L846.712 74L846.121 76L845.531 77.5L844.35 78.5L843.169 79.5L841.988 79L841.398 78L840.807 77L839.626 76.5L838.445 77L837.855 78L836.674 79.5L836.084 80.5L835.493 82L834.903 83L834.312 84L833.722 85.5L833.131 87L832.541 88.5V90.5L831.95 92V93L831.36 94L831.117 95L830.179 96L828.998 97L827.817 97.5L826.636 98L826.046 97L825.455 95.5L824.865 94L824.275 92.5L823.684 91.5L823.094 90.5L822.503 89.5L821.322 89L820.141 88.5H818.96H817.189H814.827L813.056 89H811.875L810.104 88.5L809.513 87.5V86.5L808.923 85L807.742 83.5L807.151 83L805.38 82L804.199 82.5L803.609 84L802.428 85L801.837 86.5L801.247 86H799.475L798.295 86.5L797.114 88L796.523 89L795.342 90.5L794.752 92L793.571 93L792.98 94L792.39 95L791.8 97L790.619 96.5L790.028 95.5L789.438 94.5L788.257 94H787.296L785.895 94.5L784.714 94L783.533 93.5L782.352 92.5L781.171 91L780.581 90.5H779.4L778.588 92L777.038 92.5L775.857 92L774.676 91.5H772.905L771.724 92.5L770.543 94L769.362 95L768.181 94H767L766.41 95L765.82 96.5V97.5L765.229 99L764.639 100L764.048 101.5L763.458 103L762.277 104.5L761.096 106L759.915 105.5L758.144 104.5L756.372 103.5L755.782 104.5L754.601 105L753.42 105.5L752.239 104.5L751.058 103.5L750.468 102.5L749.877 101L749.287 99.5L748.696 98L748.106 97L746.925 96L745.154 95.5L744.563 96.5L743.382 97.5L742.792 98L741.611 99L741.02 98.5H739.84L738.659 97.5H737.739L736.887 97L735.706 96.5L734.525 97L733.345 97.5L731.573 98L730.392 97H729.211L728.621 97.5L728.03 99L727.44 100.5L726.259 102L724.883 104L723.897 103L723.307 102.5L722.394 101L721.535 100H720.354L719.764 101L719.174 102L717.993 103L717.402 102.5L716.221 102H715.04L713.86 102.5L712.679 103L711.498 102.5L710.317 102L709.136 102.5L708.545 104L707.365 105.5L706.774 104.5L705.875 103L705.593 101.5L703.822 101L702.641 102L700.87 102.5L699.098 102L697.917 101.5H696.736L696.146 103L695.555 104.5L694.375 106L693.784 107L693.194 108.5L692.013 110L690.832 109.5L689.651 109L688.47 108L687.289 107.5H685.518L683.746 108.5L681.975 109.5L679.023 110L677.842 111L677.251 112.5L676.661 114V115L676.07 117L674.89 118.5L673.118 119L671.937 119.5L671.347 121L670.166 122.5L669.575 124H667.804L666.623 125L665.442 126L663.671 127L663.08 128L660.719 129L659.538 129.5L658.947 130H657.176L655.995 129.5H654.224L653.043 130L651.862 131L650.681 132L649.5 132.5H647.954H647.138L644.776 133.5L643.595 134H641.824H640.053H639.462H637.1H635.92H634.739H631.786H630.605L628.834 133L627.653 132.5L626.472 131.5L625.291 131L623.52 132L621.158 132.5H619.977H618.206H616.435H615.254L614.073 133L612.892 133.5L611.711 134.5L610.53 135.5H609.349L608.759 135H607.578H606.397L604.625 135.5H602.264V135L601.673 134L601.083 133L600.492 132L599.902 131V130L598.721 129L597.54 128L596.95 127L595.178 126H593.407L592.226 127.5L591.635 128.5L589.864 129.5L588.093 130H585.14L583.369 129.5H581.598L579.826 130L579.236 131L577.465 131.5L576.284 131L575.693 130.5H573.922H572.741L571.56 130L570.379 129.5L569.789 129H569.198L568.017 130L566.836 131H566.246L565.655 130L564.475 129.5L563.294 129H562.113L560.932 128.5H559.751L558.57 129L556.799 129.5L556.208 130L555.618 131.5L555.027 133L554.437 134.5L553.256 136.5H552.075L550.894 135.5H549.123L547.942 135L546.761 134.5H544.99H543.809L542.628 135H541.447L540.266 136L539.675 136.5L538.495 137.5L537.904 138L537.314 139L536.133 139.5L534.952 140.5H533.771L532.59 139.5L532 138.5L531.409 138L530.819 136.5L530.228 135.5L529.638 134.5L528.457 134H527.866H526.685L526.095 134.5H524.914H523.733H522.552L520.781 134L520.19 133.5L519.01 133L518.419 132H517.238L516.057 132.5H515.467L514.876 133L514.286 133.5L513.695 134.5H512.515L511.924 134L511.334 133L510.153 132L508.972 131.5L508.381 130.5L507.2 130L505.429 129.5L504.248 130L503.658 131V133C503.461 133.333 503.067 134.1 503.067 134.5V136.5L501.886 137.5V136L500.705 134V132V130.5L500.115 129L499.525 128V127V125.5L498.934 124.5V123L498.344 121.5V120L497.753 118.5V117.5V115.5L497.163 114V112.5L496.572 111.5L495.982 110L494.21 109L492.439 108L491.849 107L490.077 106H488.896L487.715 107.5L487.125 109L486.535 110L485.944 112L484.173 113L482.992 112.5L481.811 111.5L480.63 110.5L478.859 111L477.678 111.5H476.497H474.725L473.545 111L472.364 110.5L471.183 111.5V112.5L470.002 113.5L468.821 114.5L467.64 116L466.459 116.5L464.688 116L464.097 116.5L463.507 118L462.916 119L462.326 120.5L461.735 121.5L461.145 123L460.555 124L459.964 125L459.374 126L458.783 127.5L458.193 129.5L457.012 129L455.831 128.5L455.24 129L454.65 130L454.06 131L452.288 131.5L451.107 132L449.336 132.5L448.155 133L447.565 133.5L445.793 134L444.612 133.5L443.431 133L441.66 132.5L441.07 131.5L439.889 131L438.708 131.5L437.527 132L436.346 133L435.755 133.5L434.575 134H433.394L432.213 133.5H431.032L429.851 134H428.67L428.08 133.5L426.899 133H425.718H424.537L423.356 133.5L422.175 134.5L420.994 134L420.404 133L419.813 132.5L418.042 131.5L417.166 132H415.68L413.909 131.5L412.137 131L410.956 130L409.185 129.5H408.004H406.233L405.052 130L403.602 131.5L402.69 132L401.509 133L400.919 134L399.738 135.5H398.557L396.785 134.5L395.014 134L393.833 133H392.652L391.471 132H389.11L387.338 131.5L385.567 131L383.795 131.5L382.024 132L381.434 133L379.662 133.5H378.481H376.71H375.529H373.167L371.986 134L371.396 135.5L370.215 137H369.034L367.853 135.5L367.263 134L366.082 132.5L364.901 131.5L363.72 132H361.949L360.768 131L360.177 130V128.5L359.587 127.5L358.996 126L357.815 126.5L356.044 126L354.273 125L353.092 124L352.795 122.5L352.501 121L351.911 119.5V118.5L350.73 117L350.14 116.5L349.549 117.5L348.368 118.5L347.778 117.5L347.187 116.5V115.5L346.597 114V113L346.006 112V111L345.416 110L344.235 109.5L343.054 109L341.873 108L340.692 107.5H339.511L338.921 108L338.33 109.5L337.15 110.5L336.234 111.5L335.378 113L334.197 114L333.607 115L332.426 116L331.835 117L330.655 117.5L330.064 119.5L328.883 120V119L328.293 118L327.702 117L327.112 116L325.931 115.5L325.34 116L324.75 117.5L323.569 118.5L322.388 119L321.207 119.5H320.026L318.255 119H316.484L314.712 119.5L313.531 120.5L312.35 121H311.17H309.989L308.217 121.5L307.036 122.5L306.446 123.5L305.855 125L305.265 126.5H304.084L302.903 125.5L301.722 124L300.541 123L299.36 122L298.77 120.5V119L298.18 117.5L297.589 116.5L296.999 115L296.408 113.5L295.818 113L294.046 113.5L292.865 114L291.685 115L289.913 116H289.323H288.142L286.37 116.5L285.19 117.5L284.009 118L282.828 117.5L282.237 116.5L281.056 115L280.466 113.5L279.875 111.5L279.285 110L278.695 109L278.104 107.5V106V105L276.923 104L275.742 103L274.561 102L273.38 101L272.2 100H271.019H269.247L268.066 99L266.885 97.5L265.705 96.5L263.933 96L262.752 97.5L261.571 98.5L260.981 100L259.8 101L258.029 101.5L256.848 103L256.257 105L255.667 107L255.076 109L254.486 111L253.895 113L253.305 112L252.715 111L252.124 109.5L250.353 109L249.172 110L247.991 111.5L246.81 112.5L245.629 113L244.448 112.5L243.858 111.5L242.677 111L241.496 112.5L240.905 114L240.315 116.5L239.134 117L237.953 116L236.495 117L235.001 118H233.82L232.639 117L231.458 116L230.277 114.5L228.506 113.5L226.735 112.5L224.963 111.5L223.192 111L221.42 111.5L220.83 112.5L220.24 114L219.649 115.5L218.468 117L217.878 119L217.287 121.5L216.697 123.5L216.106 125.5L215.516 127.5L214.335 128.5L213.154 127.5L212.564 126.5L211.973 125.5L211.383 124L210.792 122.5L209.611 121H207.25L206.069 119.5L203.707 120L202.526 121.5L200.164 122.5L198.983 124L197.212 123L196.031 122.5L194.26 121.5L193.669 122.5L193.079 124V125.5L192.488 127.5V129.5L191.898 131L191.307 133L189.536 134L188.355 135L187.765 137L187.174 139L186.584 141L185.403 142.5L183.631 144.5L182.45 146.5L180.679 148L179.498 149.5L178.317 151.5L177.136 152L175.955 150.5L174.775 149.5L174.184 148L173.003 146L171.822 144.5L170.051 143L167.689 142.5L165.327 141.5L163.556 142L161.785 143.5L160.013 145L157.651 146L155.88 147L154.699 148.5L153.518 149.5L152.337 151L151.156 152H149.385H147.614L147.023 150.5L145.842 149L144.661 150H142.89L141.709 149L140.528 147.5L139.347 146.5L137.576 145.5L136.067 144.5L134.624 143.5L133.2 142L131.671 141.5L129.9 142L128.129 143L126.357 143.5L125.176 144.5H123.995H122.815L121.634 143.5L120.453 142.5L119.272 143.5L118.091 145L116.91 143.5L115.729 142.5L114.548 141.5L112.777 141L111.596 142L111.005 143.5L109.825 145L109.234 143.5L108.351 142.5L106.872 141.5L106.282 140L105.101 141.5L103.92 142.5L102.739 142L101.558 140.5L100.377 139.5V137.5L99.1964 135.5L98.6059 134L98.0155 132L97.425 130L96.2441 128.5L95.6536 127L95.0632 125.5L94.4727 124L93.8823 122L93.2918 120.5L92.7014 119L92.1109 117.5L91.5205 116L90.93 115V113.5L89.7491 112L89.1586 111L87.9777 110L86.2064 109.5L85.0255 108.5H83.8445H82.6636L81.4827 109.5L80.3018 110.5L79.1209 109.5L77.94 109L76.7591 108.5H74.9877L74.3973 109.5L73.2164 110L72.0355 109.5L70.8545 108.5L69.6736 107.5L68.4927 107L67.3118 106.5L66.7214 105.5L66.1309 104.5L64.95 103.5L64.3595 102.5L63.7691 101.5L62.5882 100.5L61.4073 101L60.8168 103L60.2264 104L59.6359 106L59.0455 107.5L57.8645 108.5L56.6836 109.5L55.5027 110.5L54.3218 111.5H52.5505L51.3695 110.5L50.7791 109L50.1886 107.5L49.5982 106V104.5V103L49.0077 101.5L48.4173 100.5L47.2364 99.5L46.0555 98.5L44.8745 98H43.6936L42.5127 97L41.9223 96L40.7414 95.5H39.5605L38.3795 96.5L37.7891 97.5L36.6082 98.5L35.4273 99.5L34.2464 99L33.0655 98L31.8845 97.5L30.7036 98H29.5227L28.9323 97.5L28.3418 96.5L27.7514 95.5L27.1609 94.5V93L25.98 92.5L24.7991 93.5H23.6182L23.0277 93L22.4373 92L21.2564 91.5H20.0755L19.485 92.5L18.8945 93.5H17.7136L16.5327 94.5L15.3518 95.5L14.1709 96L12.99 97L11.8091 98L10.6282 98.5H9.44727L8.26636 97.5L7.08545 98.5L5.90455 99.5L4.72364 100.5L3.54273 101.5H2.36182H1.18091Z" fill="url(#paint0_linear_76_1288)"/>
<defs>
<linearGradient id="paint0_linear_76_1288" x1="649.5" y1="0" x2="649.5" y2="158" gradientUnits="userSpaceOnUse">
<stop stop-color="white" stop-opacity="0.1"/>
<stop offset="1" stop-color="white" stop-opacity="0"/>
</linearGradient>
</defs>
</svg>
