<svg width="1301" height="51" viewBox="0 0 1301 51" fill="none" xmlns="http://www.w3.org/2000/svg">
<path d="M1 16.9572L2.18091 17.2796H3.36182H4.54273L5.72364 17.602L6.90455 17.9243L8.08545 18.2467L9.26636 18.5691L10.4473 18.2467H11.6282L12.8091 18.4079L13.99 18.7303L15.1709 19.0526L16.3518 19.2138L17.5327 19.5362L18.7136 19.8586H19.8945L20.485 20.1809L21.0755 20.5033H22.2564L23.4373 20.3421L24.0277 20.0197L24.6182 19.8586H25.7991L26.98 20.1809L28.1609 20.0197V19.5362L28.7514 19.2138L29.3418 18.8914L29.9323 18.5691L30.5227 18.4079H31.7036L32.8845 18.5691L34.0655 18.4079L35.2464 18.0855L36.4273 17.9243L37.6082 18.2467L38.7891 18.5691L39.3795 18.8914L40.5605 19.2138H41.7414L42.9223 19.0526L43.5127 18.7303L44.6936 18.4079H45.8745L47.0555 18.2467L48.2364 17.9243L49.4173 17.602L50.0077 17.2796L50.5982 16.7961V16.3125V15.8289L51.1886 15.3454L51.7791 14.8618L52.3695 14.3783L53.5505 14.0559H55.3218L56.5027 14.3783L57.6836 14.7007L58.8645 15.023L60.0455 15.3454L60.6359 15.8289L61.2264 16.4737L61.8168 16.7961L62.4073 17.4408L63.5882 17.602L64.7691 17.2796L65.3595 16.9572L65.95 16.6349L67.1309 16.3125L67.7214 15.9901L68.3118 15.6678L69.4927 15.5066L70.6736 15.3454L71.8545 15.023L73.0355 14.7007L74.2164 14.5395L75.3973 14.7007L75.9877 15.023H77.7591L78.94 14.8618L80.1209 14.7007L81.3018 14.3783L82.4827 14.7007L83.6636 15.023H84.8445H86.0255L87.2064 14.7007L88.9777 14.5395L90.1586 14.2171L90.7491 13.8947L91.93 13.4112V12.9276L92.5205 12.6053L93.1109 12.1217L93.7014 11.6382L94.2918 11.1546L94.8823 10.6711L95.4727 10.0263L96.0632 9.54276L96.6536 9.05921L97.2441 8.57566L98.425 8.09211L99.0155 7.44737L99.6059 6.80263L100.196 6.31908L101.377 5.67434V5.02961L102.558 4.70724L103.739 4.22369L104.92 4.0625L106.101 4.38487L107.282 4.86842L107.872 4.38487L109.351 4.0625L110.234 3.74013L110.825 3.25658L112.005 3.74013L112.596 4.22369L113.777 4.54605L115.548 4.38487L116.729 4.0625L117.91 3.74013L119.091 3.25658L120.272 3.74013L121.453 4.0625L122.634 3.74013L123.815 3.41776H124.995H126.176L127.357 3.74013L129.129 3.90132L130.9 4.22369L132.671 4.38487L134.2 4.22369L135.624 3.74013L137.067 3.41776L138.576 3.0954L140.347 2.77303L141.528 2.45066L142.709 1.96711L143.89 1.64474H145.661L146.842 1.96711L148.023 1.48355L148.614 1H150.385H152.156L153.337 1.32237L154.518 1.80592L155.699 2.12829L156.88 2.61184L158.651 2.93421L161.013 3.25658L162.785 3.74013L164.556 4.22369L166.327 4.38487L168.689 4.0625L171.051 3.90132L172.822 3.41776L174.003 2.93421L175.184 2.28947L175.775 1.80592L176.955 1.48355L178.136 1L179.317 1.16119L180.498 1.80592L181.679 2.28947L183.45 2.77303L184.631 3.41776L186.403 4.0625L187.584 4.54605L188.174 5.19079L188.765 5.83553L189.355 6.48026L190.536 6.80263L192.307 7.125L192.898 7.76974L193.488 8.25329V8.89803L194.079 9.54276V10.0263L194.669 10.5099L195.26 10.8322L197.031 10.5099L198.212 10.3487L199.983 10.0263L201.164 10.5099L203.526 10.8322L204.707 11.3158L207.069 11.477L208.25 10.9934H210.611L211.792 10.5099L212.383 10.0263L212.973 9.54276L213.564 9.2204L214.154 8.89803L215.335 8.57566L216.516 8.89803L217.106 9.54276L217.697 10.1875L218.287 10.8322L218.878 11.6382L219.468 12.2829L220.649 12.7664L221.24 13.25L221.83 13.7336L222.42 14.0559L224.192 14.2171L225.963 14.0559L227.735 13.7336L229.506 13.4112L231.277 13.0888L232.458 12.6053L233.639 12.2829L234.82 11.9605H236.001L237.495 12.2829L238.953 12.6053L240.134 12.2829L241.315 12.4441L241.905 13.25L242.496 13.7336L243.677 14.2171L244.858 14.0559L245.448 13.7336L246.629 13.5724L247.81 13.7336L248.991 14.0559L250.172 14.5395L251.353 14.8618L253.124 14.7007L253.715 14.2171L254.305 13.8947L254.895 13.5724L255.486 14.2171L256.076 14.8618L256.667 15.5066L257.257 16.1513L257.848 16.7961L259.029 17.2796L260.8 17.4408L261.981 17.7632L262.571 18.2467L263.752 18.5691L264.933 19.0526L266.705 18.8914L267.885 18.5691L269.066 18.0855L270.247 17.7632H272.019H273.2L274.38 17.4408L275.561 17.1184L276.742 16.7961L277.923 16.4737L279.104 16.1513V15.8289V15.3454L279.695 14.8618L280.285 14.5395L280.875 14.0559L281.466 13.4112L282.056 12.9276L283.237 12.4441L283.828 12.1217L285.009 11.9605L286.19 12.1217L287.37 12.4441L289.142 12.6053H290.323H290.913L292.685 12.9276L293.865 13.25L295.046 13.4112L296.818 13.5724L297.408 13.4112L297.999 12.9276L298.589 12.4441L299.18 12.1217L299.77 11.6382V11.1546L300.36 10.6711L301.541 10.3487L302.722 10.0263L303.903 9.54276L305.084 9.2204H306.265L306.855 9.70395L307.446 10.1875L308.036 10.5099L309.217 10.8322L310.989 10.9934H312.17H313.35L314.531 11.1546L315.712 11.477L317.484 11.6382H319.255L321.026 11.477H322.207L323.388 11.6382L324.569 11.7993L325.75 12.1217L326.34 12.6053L326.931 12.7664L328.112 12.6053L328.702 12.2829L329.293 11.9605L329.883 11.6382V11.3158L331.064 11.477L331.655 12.1217L332.835 12.2829L333.426 12.6053L334.607 12.9276L335.197 13.25L336.378 13.5724L337.234 14.0559L338.15 14.3783L339.33 14.7007L339.921 15.1842L340.511 15.3454H341.692L342.873 15.1842L344.054 14.8618L345.235 14.7007L346.416 14.5395L347.006 14.2171V13.8947L347.597 13.5724V13.25L348.187 12.7664V12.4441L348.778 12.1217L349.368 11.7993L350.549 12.1217L351.14 12.4441L351.73 12.2829L352.911 11.7993V11.477L353.501 10.9934L353.795 10.5099L354.092 10.0263L355.273 9.70395L357.044 9.38158L358.815 9.2204L359.996 9.38158L360.587 8.89803L361.177 8.57566V8.09211L361.768 7.76974L362.949 7.44737H364.72L365.901 7.60855L367.082 7.28619L368.263 6.80263L368.853 6.31908L370.034 5.83553H371.215L372.396 6.31908L372.986 6.80263L374.167 6.96382H376.529H377.71H379.481H380.662L382.434 7.125L383.024 7.44737L384.795 7.60855L386.567 7.76974L388.338 7.60855L390.11 7.44737H392.471L393.652 7.125H394.833L396.014 6.80263L397.785 6.64145L399.557 6.31908H400.738L401.919 6.80263L402.509 7.125L403.69 7.44737L404.602 7.60855L406.052 8.09211L407.233 8.25329H409.004H410.185L411.956 8.09211L413.137 7.76974L414.909 7.60855L416.68 7.44737H418.166L419.042 7.60855L420.813 7.28619L421.404 7.125L421.994 6.80263L423.175 6.64145L424.356 6.96382L425.537 7.125H426.718H427.899L429.08 6.96382L429.67 6.80263H430.851L432.032 6.96382H433.213L434.394 6.80263H435.575L436.755 6.96382L437.346 7.125L438.527 7.44737L439.708 7.60855L440.889 7.76974L442.07 7.60855L442.66 7.28619L444.431 7.125L445.612 6.96382L446.793 6.80263L448.565 6.96382L449.155 7.125L450.336 7.28619L452.107 7.44737L453.288 7.60855L455.06 7.76974L455.65 8.09211L456.24 8.41447L456.831 8.57566L458.012 8.41447L459.193 8.25329L459.783 8.89803L460.374 9.38158L460.964 9.70395L461.555 10.0263L462.145 10.3487L462.735 10.8322L463.326 11.1546L463.916 11.6382L464.507 11.9605L465.097 12.4441L465.688 12.6053L467.459 12.4441L468.64 12.6053L469.821 13.0888L471.002 13.4112L472.183 13.7336V14.0559L473.364 14.3783L474.545 14.2171L475.725 14.0559H477.497H478.678L479.859 14.2171L481.63 14.3783L482.811 14.0559L483.992 13.7336L485.173 13.5724L486.944 13.8947L487.535 14.5395L488.125 14.8618L488.715 15.3454L489.896 15.8289H491.077L492.849 15.5066L493.439 15.1842L495.21 14.8618L496.982 14.5395L497.572 14.0559L498.163 13.7336V13.25L498.753 12.7664V12.1217V11.7993L499.344 11.3158V10.8322L499.934 10.3487V9.86513L500.525 9.54276V9.05921V8.73684L501.115 8.41447L501.705 7.93092V7.44737V6.80263L502.886 6.1579V5.67434L504.067 5.99671C504.067 6.1579 504.067 6.5125 504.067 6.64145C504.067 6.7704 504.461 7.01754 504.658 7.125V7.76974L505.248 8.09211L506.429 8.25329L508.2 8.09211L509.381 7.93092L509.972 7.60855L511.153 7.44737L512.334 7.125L512.924 6.80263L513.515 6.64145H514.695L515.286 6.96382L515.876 7.125L516.467 7.28619H517.057L518.238 7.44737H519.419L520.01 7.125L521.19 6.96382L521.781 6.80263L523.552 6.64145H524.733H525.914H527.095L527.685 6.80263H528.866H529.457L530.638 6.64145L531.228 6.31908L531.819 5.99671L532.409 5.51316L533 5.35197L533.59 5.02961L534.771 4.70724H535.952L537.133 5.02961L538.314 5.19079L538.904 5.51316L539.495 5.67434L540.675 5.99671L541.266 6.1579L542.447 6.48026H543.628L544.809 6.64145H545.99H547.761L548.942 6.48026L550.123 6.31908H551.894L553.075 5.99671H554.256L555.437 6.64145L556.027 7.125L556.618 7.60855L557.208 8.09211L557.799 8.25329L559.57 8.41447L560.751 8.57566H561.932L563.113 8.41447H564.294L565.475 8.25329L566.655 8.09211L567.246 7.76974H567.836L569.017 8.09211L570.198 8.41447H570.789L571.379 8.25329L572.56 8.09211L573.741 7.93092C573.938 7.93092 574.449 7.93092 574.922 7.93092C575.394 7.93092 576.3 7.93092 576.693 7.93092L577.284 7.76974L578.465 7.60855L580.236 7.76974L580.826 8.09211L582.598 8.25329H584.369L586.14 8.09211H589.093L590.864 8.25329L592.635 8.57566L593.226 8.89803L594.407 9.38158H596.178L597.95 9.05921L598.54 8.73684L599.721 8.41447L600.902 8.09211V7.76974L601.492 7.44737L602.083 7.125L602.673 6.80263L603.264 6.48026V6.31908H605.625L607.397 6.48026H608.578H609.759L610.349 6.31908H611.53L612.711 6.64145L613.892 6.96382L615.073 7.125L616.254 7.28619H617.435H619.206H620.977H622.158L624.52 7.44737L626.291 7.76974L627.472 7.60855L628.653 7.28619L629.834 7.125L631.605 6.80263H632.786H635.739H636.92H638.1H640.462H641.053H642.824H644.595L645.776 6.96382L648.138 7.28619H648.954H650.5L651.681 7.44737L652.862 7.76974L654.043 8.09211L655.224 8.25329H656.995L658.176 8.09211H659.947L660.538 8.25329L661.719 8.41447L664.08 8.73684L664.671 9.05921L666.442 9.38158L667.623 9.70395L668.804 10.0263H670.575L671.166 10.5099L672.347 10.9934L672.937 11.477L674.118 11.6382L675.89 11.7993L677.07 12.2829L677.661 12.9276V13.25L678.251 13.7336L678.842 14.2171L680.023 14.5395L682.975 14.7007L684.746 15.023L686.518 15.3454H688.289L689.47 15.1842L690.651 14.8618L691.832 14.7007L693.013 14.5395L694.194 15.023L694.784 15.5066L695.375 15.8289L696.555 16.3125L697.146 16.7961L697.736 17.2796H698.917L700.098 17.1184L701.87 16.9572L703.641 17.1184L704.822 17.4408L706.593 17.2796L706.875 16.7961L707.774 16.3125L708.365 15.9901L709.545 16.4737L710.136 16.9572L711.317 17.1184L712.498 16.9572L713.679 16.7961L714.86 16.9572L716.04 17.1184H717.221L718.402 16.9572L718.993 16.7961L720.174 17.1184L720.764 17.4408L721.355 17.7632H722.535L723.394 17.4408L724.307 16.9572L724.897 16.7961L725.883 16.4737L727.259 17.1184L728.44 17.602L729.03 18.0855L729.621 18.5691L730.211 18.7303H731.392L732.573 18.4079L734.345 18.5691L735.525 18.7303L736.706 18.8914L737.887 18.7303L738.739 18.5691H739.659L740.84 18.2467H742.02L742.611 18.0855L743.792 18.4079L744.382 18.5691L745.563 18.8914L746.154 19.2138L747.925 19.0526L749.106 18.7303L749.696 18.4079L750.287 17.9243L750.877 17.4408L751.468 16.9572L752.058 16.6349L753.239 16.3125L754.42 15.9901L755.601 16.1513L756.782 16.3125L757.372 16.6349L759.144 16.3125L760.915 15.9901L762.096 15.8289L763.277 16.3125L764.458 16.7961L765.048 17.2796L765.639 17.7632L766.229 18.0855L766.82 18.5691V18.8914L767.41 19.375L768 19.6974H769.181L770.362 19.375L771.543 19.6974L772.724 20.1809L773.905 20.5033H775.676L776.857 20.3421L778.038 20.1809L779.588 20.3421L780.4 20.8257H781.581L782.171 20.6645L783.352 20.1809L784.533 19.8586L785.714 19.6974L786.895 19.5362L788.296 19.6974H789.257L790.438 19.5362L791.028 19.2138L791.619 18.8914L792.8 18.7303L793.39 19.375L793.98 19.6974L794.571 20.0197L795.752 20.3421L796.342 20.8257L797.523 21.3092L798.114 21.6316L799.295 22.1151L800.475 22.2763H802.247L802.837 22.1151L803.428 22.5987L804.609 22.9211L805.199 23.4046L806.38 23.5658L808.151 23.2434L808.742 23.0822L809.923 22.5987L810.513 22.1151V21.7928L811.104 21.4704L812.875 21.3092H814.056L815.827 21.4704H818.189H819.96H821.141L822.322 21.3092L823.503 21.148L824.094 20.8257L824.684 20.5033L825.275 20.1809L825.865 19.6974L826.455 19.2138L827.046 18.7303L827.636 18.4079L828.817 18.5691L829.998 18.7303L831.179 19.0526L832.117 19.375L832.36 19.6974L832.95 20.0197V20.3421L833.541 20.8257V21.4704L834.131 21.9539L834.722 22.4375L835.312 22.9211L835.903 23.2434L836.493 23.5658L837.084 24.0493L837.674 24.3717L838.855 24.8553L839.445 25.1776L840.626 25.3388L841.807 25.1776L842.398 24.8553L842.988 24.5329L844.169 24.3717L845.35 24.6941L846.531 25.0164L847.121 25.5L847.712 26.1447L848.302 26.6283L849.483 27.1118L850.074 27.4342L850.664 27.7566L851.845 28.0789H853.026L854.207 27.9178L855.978 27.5954L856.569 27.4342H857.75L858.93 27.7566L859.521 28.0789L860.111 28.2401L861.292 28.0789L861.883 27.7566L862.473 27.4342L863.064 27.273L864.245 27.4342L864.835 27.7566L866.016 28.0789L867.197 28.2401L867.787 27.9178L868.968 27.7566L869.559 27.5954H870.74L871.33 27.7566L872.511 27.9178L873.692 28.0789L874.873 27.9178H876.054L877.235 28.0789L878.415 28.2401L879.596 28.4013L880.777 28.5625L881.958 28.7237L883.73 29.2072H884.91L886.682 29.3684H887.863L889.634 29.2072L890.815 29.0461L891.996 28.8849H893.177L894.358 29.2072L895.539 29.5296V30.0132L896.129 30.4967L896.72 30.9803L897.31 31.4638L897.9 31.625H899.672H901.443L903.215 31.3026L904.395 30.9803L905.576 30.8191L907.938 30.6579L909.71 30.8191L911.481 30.9803L912.662 31.625L913.843 32.1086L915.614 31.9474L917.385 31.7862L919.157 32.1086L919.747 32.7533V33.398V33.8816L920.338 34.5263L920.928 35.3322V35.8158L921.519 36.2993L922.109 36.9441L922.7 37.2664L925.061 37.4276H926.833H928.604H930.966H932.147H933.918L934.509 37.75L935.69 37.9112V37.5888L936.28 37.2664L936.87 36.7829V36.2993L937.461 35.6546V35.1711L938.051 34.8487V34.5263L938.642 34.2039H940.413H941.594L942.185 33.5592L942.775 33.0757L943.365 32.4309L943.956 31.9474H945.137L946.318 32.1086L947.499 32.2697L948.68 32.4309L949.86 32.2697L951.041 32.1086L952.813 32.2697L953.403 32.7533L954.584 33.0757L955.175 33.5592L956.355 33.8816L957.536 34.2039L959.308 34.0428L960.489 33.8816L961.67 33.7204H963.441L964.622 34.0428L965.803 34.2039L966.984 33.8816L968.165 33.7204L968.755 33.398L969.936 33.0757L971.117 32.9145L972.298 33.2368L973.479 33.5592L974.66 34.0428L975.25 34.5263L976.431 34.8487L978.202 34.5263L979.383 34.2039L979.974 34.6875L980.564 35.1711L981.155 35.8158L981.745 36.2993L982.335 36.9441V37.4276L983.516 36.6217L984.107 36.1382L984.697 35.6546L985.878 35.3322L987.65 34.8487L989.421 34.5263H990.602H992.373H994.145L995.325 34.2039L996.506 34.0428L997.687 33.7204L998.868 34.2039L1000.05 34.6875H1002.41H1003.59L1005.36 34.8487L1006.54 35.1711L1008.32 35.6546L1009.5 35.977L1011.27 36.1382L1011.86 35.6546L1012.45 35.0099L1013.04 34.3651L1013.63 33.7204L1014.81 33.2368H1016.58L1018.35 33.398L1020.12 33.7204L1021.9 34.0428H1023.67H1024.85L1026.03 34.2039L1027.21 34.6875L1027.8 35.0099L1028.39 35.4934L1028.98 35.8158L1030.16 36.1382L1031.34 35.8158L1031.93 35.4934L1032.52 35.1711L1033.11 34.8487L1034.3 35.0099L1034.89 35.4934L1036.07 35.8158L1036.66 36.1382L1037.84 36.6217L1039.02 36.9441L1040.2 37.4276L1041.38 37.75V38.2336L1041.97 38.5559L1042.56 39.0395V39.523L1043.74 39.8454L1045.51 39.523H1047.29L1048.47 40.0066H1049.65L1051.42 39.6842H1053.19H1054.37L1055.55 40.3289L1056.73 40.8125L1057.91 41.1349H1059.68L1061.46 40.9737L1062.64 40.4901L1063.82 40.0066L1064.41 39.523L1065 39.0395L1066.18 39.523V40.3289L1067.36 40.8125L1067.95 41.1349L1069.13 40.6513L1070.31 40.3289L1071.49 40.1678L1073.27 40.3289H1075.04L1076.22 40.0066L1076.81 39.523L1077.4 39.0395L1078.58 38.3947L1079.17 37.9112L1080.35 37.5888L1082.12 37.4276H1083.3L1085.07 37.1053L1086.85 36.6217L1088.62 37.1053L1089.8 37.4276L1090.98 37.5888H1092.75H1093.93L1095.7 37.4276L1097.47 37.1053H1099.25L1100.43 37.4276L1101.61 37.75L1103.38 38.3947L1104.56 39.0395L1105.15 39.6842L1105.74 40.3289L1106.33 40.9737L1106.92 41.6184L1107.51 42.2632V42.9079L1108.1 43.7138L1109.28 43.5526L1110.46 43.2303L1111.64 43.0691L1112.83 43.2303L1113.42 43.5526L1114.6 43.3914L1116.37 43.2303L1117.55 43.3914L1118.14 43.7138L1119.32 44.0362L1120.5 43.7138L1121.68 43.3914L1122.27 43.0691L1123.45 43.3914L1124.63 43.5526L1125.23 43.0691L1126.41 42.5855L1127 42.2632L1128.18 42.4243L1129.36 42.9079L1129.95 43.3914L1130.54 43.875L1131.13 44.3586L1131.72 45.0033L1132.31 45.4868L1132.9 46.1316H1134.67H1136.44L1137.62 46.4539L1138.81 46.7763L1139.99 47.0987L1141.17 47.2599L1143.53 46.9375L1144.71 46.6151L1145.3 46.1316L1146.48 45.648L1147.07 45.1645L1147.66 44.6809L1148.25 44.1974H1150.02L1151.21 44.6809L1152.98 45.0033L1154.75 44.8421H1156.52L1158.29 45.0033L1160.06 45.3257L1161.83 45.4868H1163.6L1164.79 45.648L1165.97 46.2928V46.9375V47.5822L1166.56 48.0658L1167.15 48.7105V49.1941L1168.33 50L1169.51 49.1941L1170.1 48.7105L1170.69 48.3882L1171.87 48.0658H1173.64L1175.41 47.9046H1177.19L1179.55 47.5822H1181.32L1182.5 47.2599L1184.27 46.9375L1186.04 47.0987H1187.81L1188.99 47.4211L1190.18 46.9375L1190.77 46.4539L1191.95 46.2928L1193.13 46.4539L1193.72 46.7763L1194.31 47.2599L1195.49 46.9375L1196.67 46.6151L1197.26 46.2928L1198.44 46.1316L1199.62 46.2928L1200.8 46.6151L1202.57 46.7763L1204.35 47.0987H1205.53L1206.71 47.2599L1207.89 47.5822L1209.66 47.7434L1212.02 47.9046H1213.79L1214.97 47.7434L1216.75 47.5822H1218.52H1219.7L1220.88 47.2599L1222.06 46.9375L1223.24 46.7763L1225.01 46.6151L1228.55 46.7763H1231.51H1233.87H1235.05L1236.82 47.4211L1238 47.7434L1240.36 48.0658H1242.73H1245.09L1247.45 48.3882L1250.4 48.0658H1253.35H1255.72L1257.49 47.4211L1259.26 46.7763L1260.44 46.1316V45.1645L1261.62 44.3586L1262.8 43.5526L1263.39 42.7467L1265.75 42.4243L1267.52 42.7467L1270.48 43.0691L1272.84 42.7467L1274.61 42.4243L1276.38 42.2632L1277.56 42.7467L1278.74 43.0691L1279.92 43.3914L1281.11 43.0691L1282.29 42.9079L1283.47 42.7467H1284.65H1285.83L1287.6 42.9079L1288.19 43.3914L1290.55 43.7138L1292.91 44.0362V44.6809L1293.5 45.3257L1294.1 45.9704L1294.69 46.4539L1295.28 46.9375L1296.46 46.6151L1297.64 46.2928L1298.82 46.1316H1300" stroke="#FFA300" stroke-linecap="round"/>
</svg>
