<svg width="1253" height="51" viewBox="0 0 1253 51" fill="none" xmlns="http://www.w3.org/2000/svg">
<path d="M1 34.0428L2.13727 33.7204H3.27455H4.41182L5.54909 33.398L6.68636 33.0757L7.82364 32.7533L8.96091 32.4309L10.0982 32.7533H11.2355L12.3727 32.5921L13.51 32.2697L14.6473 31.9474L15.7845 31.7862L16.9218 31.4638L18.0591 31.1414H19.1964L19.765 30.8191L20.3336 30.4967H21.4709L22.6082 30.6579L23.1768 30.9803L23.7455 31.1414H24.8827L26.02 30.8191L27.1573 30.9803V31.4638L27.7259 31.7862L28.2945 32.1086L28.8632 32.4309L29.4318 32.5921H30.5691L31.7064 32.4309L32.8436 32.5921L33.9809 32.9145L35.1182 33.0757L36.2555 32.7533L37.3927 32.4309L37.9614 32.1086L39.0986 31.7862H40.2359L41.3732 31.9474L41.9418 32.2697L43.0791 32.5921H44.2164L45.3536 32.7533L46.4909 33.0757L47.6282 33.398L48.1968 33.7204L48.7655 34.2039V34.6875V35.1711L49.3341 35.6546L49.9027 36.1382L50.4714 36.6217L51.6086 36.9441H53.3145L54.4518 36.6217L55.5891 36.2993L56.7264 35.977L57.8636 35.6546L58.4323 35.1711L59.0009 34.5263L59.5695 34.2039L60.1382 33.5592L61.2755 33.398L62.4127 33.7204L62.9814 34.0428L63.55 34.3651L64.6873 34.6875L65.2559 35.0099L65.8245 35.3322L66.9618 35.4934L68.0991 35.6546L69.2364 35.977L70.3736 36.2993L71.5109 36.4605L72.6482 36.2993L73.2168 35.977H74.9227L76.06 36.1382L77.1973 36.2993L78.3345 36.6217L79.4718 36.2993L80.6091 35.977H81.7464H82.8836L84.0209 36.2993L85.7268 36.4605L86.8641 36.7829L87.4327 37.1053L88.57 37.5888V38.0724L89.1386 38.3947L89.7073 38.8783L90.2759 39.3618L90.8445 39.8454L91.4132 40.3289L91.9818 40.9737L92.5505 41.4572L93.1191 41.9408L93.6877 42.4243L94.825 42.9079L95.3936 43.5526L95.9623 44.1974L96.5309 44.6809L97.6682 45.3257V45.9704L98.8055 46.2928L99.9427 46.7763L101.08 46.9375L102.217 46.6151L103.355 46.1316L103.923 46.6151L105.347 46.9375L106.198 47.2599L106.766 47.7434L107.904 47.2599L108.472 46.7763L109.61 46.4539L111.315 46.6151L112.453 46.9375L113.59 47.2599L114.727 47.7434L115.865 47.2599L117.002 46.9375L118.139 47.2599L119.276 47.5822H120.414H121.551L122.688 47.2599L124.394 47.0987L126.1 46.7763L127.806 46.6151L129.278 46.7763L130.649 47.2599L132.04 47.5822L133.492 47.9046L135.198 48.227L136.335 48.5493L137.473 49.0329L138.61 49.3553H140.316L141.453 49.0329L142.59 49.5164L143.159 50H144.865H146.571L147.708 49.6776L148.845 49.1941L149.983 48.8717L151.12 48.3882L152.826 48.0658L155.1 47.7434L156.806 47.2599L158.512 46.7763L160.218 46.6151L162.493 46.9375L164.767 47.0987L166.473 47.5822L167.61 48.0658L168.748 48.7105L169.316 49.1941L170.454 49.5164L171.591 50L172.728 49.8388L173.865 49.1941L175.003 48.7105L176.709 48.227L177.846 47.5822L179.552 46.9375L180.689 46.4539L181.258 45.8092L181.826 45.1645L182.395 44.5197L183.532 44.1974L185.238 43.875L185.807 43.2303L186.375 42.7467V42.102L186.944 41.4572V40.9737L187.513 40.4901L188.081 40.1678L189.787 40.4901L190.925 40.6513L192.63 40.9737L193.768 40.4901L196.042 40.1678L197.18 39.6842L199.454 39.523L200.591 40.0066H202.866L204.003 40.4901L204.572 40.9737L205.14 41.4572L205.709 41.7796L206.278 42.102L207.415 42.4243L208.552 42.102L209.121 41.4572L209.69 40.8125L210.258 40.1678L210.827 39.3618L211.395 38.7171L212.533 38.2336L213.101 37.75L213.67 37.2664L214.239 36.9441L215.945 36.7829L217.65 36.9441L219.356 37.2664L221.062 37.5888L222.768 37.9112L223.905 38.3947L225.043 38.7171L226.18 39.0395H227.317L228.757 38.7171L230.16 38.3947L231.298 38.7171L232.435 38.5559L233.004 37.75L233.572 37.2664L234.71 36.7829L235.847 36.9441L236.415 37.2664L237.553 37.4276L238.69 37.2664L239.827 36.9441L240.965 36.4605L242.102 36.1382L243.808 36.2993L244.376 36.7829L244.945 37.1053L245.514 37.4276L246.082 36.7829L246.651 36.1382L247.22 35.4934L247.788 34.8487L248.357 34.2039L249.494 33.7204L251.2 33.5592L252.337 33.2368L252.906 32.7533L254.043 32.4309L255.18 31.9474L256.886 32.1086L258.024 32.4309L259.161 32.9145L260.298 33.2368H262.004H263.141L264.279 33.5592L265.416 33.8816L266.553 34.2039L267.69 34.5263L268.828 34.8487V35.1711V35.6546L269.396 36.1382L269.965 36.4605L270.534 36.9441L271.102 37.5888L271.671 38.0724L272.808 38.5559L273.377 38.8783L274.514 39.0395L275.651 38.8783L276.789 38.5559L278.495 38.3947H279.632H280.2L281.906 38.0724L283.044 37.75L284.181 37.5888L285.887 37.4276L286.455 37.5888L287.024 38.0724L287.593 38.5559L288.161 38.8783L288.73 39.3618V39.8454L289.299 40.3289L290.436 40.6513L291.573 40.9737L292.71 41.4572L293.848 41.7796H294.985L295.554 41.2961L296.122 40.8125L296.691 40.4901L297.828 40.1678L299.534 40.0066H300.671H301.809L302.946 39.8454L304.083 39.523L305.789 39.3618H307.495L309.201 39.523H310.338L311.475 39.3618L312.613 39.2007L313.75 38.8783L314.319 38.3947L314.887 38.2336L316.025 38.3947L316.593 38.7171L317.162 39.0395L317.73 39.3618V39.6842L318.868 39.523L319.436 38.8783L320.574 38.7171L321.142 38.3947L322.28 38.0724L322.848 37.75L323.985 37.4276L324.809 36.9441L325.691 36.6217L326.829 36.2993L327.397 35.8158L327.966 35.6546H329.103L330.24 35.8158L331.378 36.1382L332.515 36.2993L333.652 36.4605L334.221 36.7829V37.1053L334.79 37.4276V37.75L335.358 38.2336V38.5559L335.927 38.8783L336.495 39.2007L337.633 38.8783L338.201 38.5559L338.77 38.7171L339.907 39.2007V39.523L340.476 40.0066L340.758 40.4901L341.045 40.9737L342.182 41.2961L343.888 41.6184L345.594 41.7796L346.731 41.6184L347.3 42.102L347.868 42.4243V42.9079L348.437 43.2303L349.574 43.5526H351.28L352.417 43.3914L353.555 43.7138L354.692 44.1974L355.26 44.6809L356.398 45.1645H357.535L358.672 44.6809L359.241 44.1974L360.378 44.0362H362.653H363.79H365.496H366.633L368.339 43.875L368.908 43.5526L370.614 43.3914L372.32 43.2303L374.025 43.3914L375.731 43.5526H378.006L379.143 43.875H380.28L381.418 44.1974L383.124 44.3586L384.83 44.6809H385.967L387.104 44.1974L387.673 43.875L388.81 43.5526L389.688 43.3914L391.085 42.9079L392.222 42.7467H393.928H395.065L396.771 42.9079L397.908 43.2303L399.614 43.3914L401.32 43.5526H402.751L403.595 43.3914L405.3 43.7138L405.869 43.875L406.438 44.1974L407.575 44.3586L408.712 44.0362L409.85 43.875H410.987H412.124L413.261 44.0362L413.83 44.1974H414.967L416.105 44.0362H417.242L418.379 44.1974H419.516L420.654 44.0362L421.222 43.875L422.36 43.5526L423.497 43.3914L424.634 43.2303L425.771 43.3914L426.34 43.7138L428.046 43.875L429.183 44.0362L430.32 44.1974L432.026 44.0362L432.595 43.875L433.732 43.7138L435.438 43.5526L436.575 43.3914L438.281 43.2303L438.85 42.9079L439.419 42.5855L439.987 42.4243L441.125 42.5855L442.262 42.7467L442.83 42.102L443.399 41.6184L443.968 41.2961L444.536 40.9737L445.105 40.6513L445.674 40.1678L446.242 39.8454L446.811 39.3618L447.38 39.0395L447.948 38.5559L448.517 38.3947L450.223 38.5559L451.36 38.3947L452.497 37.9112L453.635 37.5888L454.772 37.2664V36.9441L455.909 36.6217L457.046 36.7829L458.184 36.9441H459.89H461.027L462.164 36.7829L463.87 36.6217L465.007 36.9441L466.145 37.2664L467.282 37.4276L468.988 37.1053L469.556 36.4605L470.125 36.1382L470.694 35.6546L471.831 35.1711H472.968L474.674 35.4934L475.243 35.8158L476.949 36.1382L478.655 36.4605L479.223 36.9441L479.792 37.2664V37.75L480.36 38.2336V38.8783V39.2007L480.929 39.6842V40.1678L481.498 40.6513V41.1349L482.066 41.4572V41.9408V42.2632L482.635 42.5855L483.204 43.0691V43.5526V44.1974L484.341 44.8421V45.3257L485.478 45.0033C485.478 44.8421 485.478 44.4875 485.478 44.3586C485.478 44.2296 485.857 43.9825 486.047 43.875V43.2303L486.615 42.9079L487.753 42.7467L489.459 42.9079L490.596 43.0691L491.165 43.3914L492.302 43.5526L493.439 43.875L494.008 44.1974L494.576 44.3586H495.714L496.282 44.0362L496.851 43.875L497.42 43.7138H497.988L499.125 43.5526H500.263L500.831 43.875L501.969 44.0362L502.537 44.1974L504.243 44.3586H505.38H506.518H507.655L508.224 44.1974H509.361H509.93L511.067 44.3586L511.635 44.6809L512.204 45.0033L512.773 45.4868L513.341 45.648L513.91 45.9704L515.047 46.2928H516.185L517.322 45.9704L518.459 45.8092L519.028 45.4868L519.596 45.3257L520.734 45.0033L521.302 44.8421L522.44 44.5197H523.577L524.714 44.3586H525.851H527.557L528.695 44.5197L529.832 44.6809H531.538L532.675 45.0033H533.812L534.95 44.3586L535.518 43.875L536.087 43.3914L536.655 42.9079L537.224 42.7467L538.93 42.5855L540.067 42.4243H541.205L542.342 42.5855H543.479L544.616 42.7467L545.754 42.9079L546.322 43.2303H546.891L548.028 42.9079L549.165 42.5855H549.734L550.303 42.7467L551.44 42.9079L552.577 43.0691C552.767 43.0691 553.26 43.0691 553.715 43.0691C554.169 43.0691 555.041 43.0691 555.42 43.0691L555.989 43.2303L557.126 43.3914L558.832 43.2303L559.401 42.9079L561.107 42.7467H562.813L564.519 42.9079H567.362L569.068 42.7467L570.774 42.4243L571.342 42.102L572.48 41.6184H574.185L575.891 41.9408L576.46 42.2632L577.597 42.5855L578.735 42.9079V43.2303L579.303 43.5526L579.872 43.875L580.44 44.1974L581.009 44.5197V44.6809H583.284L584.99 44.5197H586.127H587.264L587.833 44.6809H588.97L590.107 44.3586L591.245 44.0362L592.382 43.875L593.519 43.7138H594.656H596.362H598.068H599.205L601.48 43.5526L603.186 43.2303L604.323 43.3914L605.46 43.7138L606.598 43.875L608.304 44.1974H609.441H612.284H613.421H614.559H616.833H617.402H619.108H620.814L621.951 44.0362L624.225 43.7138H625.011H626.5L627.637 43.5526L628.775 43.2303L629.912 42.9079L631.049 42.7467H632.755L633.892 42.9079H635.598L636.167 42.7467L637.304 42.5855L639.579 42.2632L640.147 41.9408L641.853 41.6184L642.99 41.2961L644.128 40.9737H645.834L646.402 40.4901L647.54 40.0066L648.108 39.523L649.245 39.3618L650.951 39.2007L652.089 38.7171L652.657 38.0724V37.75L653.226 37.2664L653.795 36.7829L654.932 36.4605L657.775 36.2993L659.481 35.977L661.187 35.6546H662.893L664.03 35.8158L665.167 36.1382L666.305 36.2993L667.442 36.4605L668.579 35.977L669.148 35.4934L669.716 35.1711L670.854 34.6875L671.422 34.2039L671.991 33.7204H673.128L674.265 33.8816L675.971 34.0428L677.677 33.8816L678.815 33.5592L680.52 33.7204L680.792 34.2039L681.658 34.6875L682.226 35.0099L683.364 34.5263L683.932 34.0428L685.07 33.8816L686.207 34.0428L687.344 34.2039L688.481 34.0428L689.619 33.8816H690.756L691.893 34.0428L692.462 34.2039L693.599 33.8816L694.168 33.5592L694.736 33.2368H695.874L696.701 33.5592L697.58 34.0428L698.148 34.2039L699.097 34.5263L700.423 33.8816L701.56 33.398L702.129 32.9145L702.697 32.4309L703.266 32.2697H704.403L705.54 32.5921L707.246 32.4309L708.384 32.2697L709.521 32.1086L710.658 32.2697L711.478 32.4309H712.364L713.501 32.7533H714.639L715.207 32.9145L716.345 32.5921L716.913 32.4309L718.05 32.1086L718.619 31.7862L720.325 31.9474L721.462 32.2697L722.031 32.5921L722.6 33.0757L723.168 33.5592L723.737 34.0428L724.305 34.3651L725.443 34.6875L726.58 35.0099L727.717 34.8487L728.855 34.6875L729.423 34.3651L731.129 34.6875L732.835 35.0099L733.972 35.1711L735.11 34.6875L736.247 34.2039L736.815 33.7204L737.384 33.2368L737.953 32.9145L738.521 32.4309V32.1086L739.09 31.625L739.659 31.3026H740.796L741.933 31.625L743.07 31.3026L744.208 30.8191L745.345 30.4967H747.051L748.188 30.6579L749.325 30.8191L750.818 30.6579L751.6 30.1743H752.737L753.306 30.3355L754.443 30.8191L755.58 31.1414L756.718 31.3026L757.855 31.4638L759.205 31.3026H760.13L761.267 31.4638L761.835 31.7862L762.404 32.1086L763.541 32.2697L764.11 31.625L764.679 31.3026L765.247 30.9803L766.385 30.6579L766.953 30.1743L768.09 29.6908L768.659 29.3684L769.796 28.8849L770.934 28.7237H772.64L773.208 28.8849L773.777 28.4013L774.914 28.0789L775.483 27.5954L776.62 27.4342L778.326 27.7566L778.895 27.9178L780.032 28.4013L780.6 28.8849V29.2072L781.169 29.5296L782.875 29.6908H784.012L785.718 29.5296H787.993H789.699H790.836L791.973 29.6908L793.11 29.852L793.679 30.1743L794.248 30.4967L794.816 30.8191L795.385 31.3026L795.954 31.7862L796.522 32.2697L797.091 32.5921L798.228 32.4309L799.365 32.2697L800.503 31.9474L801.406 31.625L801.64 31.3026L802.209 30.9803V30.6579L802.777 30.1743V29.5296L803.346 29.0461L803.915 28.5625L804.483 28.0789L805.052 27.7566L805.62 27.4342L806.189 26.9507L806.758 26.6283L807.895 26.1447L808.464 25.8224L809.601 25.6612L810.738 25.8224L811.307 26.1447L811.875 26.4671L813.013 26.6283L814.15 26.3059L815.287 25.9836L815.856 25.5L816.425 24.8553L816.993 24.3717L818.13 23.8882L818.699 23.5658L819.268 23.2434L820.405 22.9211H821.542L822.68 23.0822L824.385 23.4046L824.954 23.5658H826.091L827.229 23.2434L827.797 22.9211L828.366 22.7599L829.503 22.9211L830.072 23.2434L830.64 23.5658L831.209 23.727L832.346 23.5658L832.915 23.2434L834.052 22.9211L835.19 22.7599L835.758 23.0822L836.895 23.2434L837.464 23.4046H838.601L839.17 23.2434L840.307 23.0822L841.445 22.9211L842.582 23.0822H843.719L844.856 22.9211L845.994 22.7599L847.131 22.5987L848.268 22.4375L849.405 22.2763L851.111 21.7928H852.249L853.955 21.6316H855.092L856.798 21.7928L857.935 21.9539L859.072 22.1151H860.21L861.347 21.7928L862.484 21.4704V20.9868L863.053 20.5033L863.621 20.0197L864.19 19.5362L864.759 19.375H866.465H868.17L869.876 19.6974L871.014 20.0197L872.151 20.1809L874.425 20.3421L876.131 20.1809L877.837 20.0197L878.975 19.375L880.112 18.8914L881.818 19.0526L883.524 19.2138L885.23 18.8914L885.798 18.2467V17.602V17.1184L886.367 16.4737L886.935 15.6678V15.1842L887.504 14.7007L888.073 14.0559L888.641 13.7336L890.916 13.5724H892.622H894.328H896.602H897.74H899.445L900.014 13.25L901.151 13.0888V13.4112L901.72 13.7336L902.289 14.2171V14.7007L902.857 15.3454V15.8289L903.426 16.1513V16.4737L903.995 16.7961H905.7H906.838L907.406 17.4408L907.975 17.9243L908.544 18.5691L909.112 19.0526H910.25L911.387 18.8914L912.524 18.7303L913.661 18.5691L914.799 18.7303L915.936 18.8914L917.642 18.7303L918.21 18.2467L919.348 17.9243L919.916 17.4408L921.054 17.1184L922.191 16.7961L923.897 16.9572L925.034 17.1184L926.171 17.2796H927.877L929.015 16.9572L930.152 16.7961L931.289 17.1184L932.426 17.2796L932.995 17.602L934.132 17.9243L935.27 18.0855L936.407 17.7632L937.544 17.4408L938.681 16.9572L939.25 16.4737L940.387 16.1513L942.093 16.4737L943.23 16.7961L943.799 16.3125L944.368 15.8289L944.936 15.1842L945.505 14.7007L946.074 14.0559V13.5724L947.211 14.3783L947.78 14.8618L948.348 15.3454L949.485 15.6678L951.191 16.1513L952.897 16.4737H954.035H955.74H957.446L958.584 16.7961L959.721 16.9572L960.858 17.2796L961.995 16.7961L963.133 16.3125H965.407H966.545L968.25 16.1513L969.388 15.8289L971.094 15.3454L972.231 15.023L973.937 14.8618L974.505 15.3454L975.074 15.9901L975.643 16.6349L976.211 17.2796L977.349 17.7632H979.055L980.76 17.602L982.466 17.2796L984.172 16.9572H985.878H987.015L988.153 16.7961L989.29 16.3125L989.859 15.9901L990.427 15.5066L990.996 15.1842L992.133 14.8618L993.27 15.1842L993.839 15.5066L994.408 15.8289L994.976 16.1513L996.114 15.9901L996.682 15.5066L997.82 15.1842L998.388 14.8618L999.525 14.3783L1000.66 14.0559L1001.8 13.5724L1002.94 13.25V12.7664L1003.51 12.4441L1004.07 11.9605V11.477L1005.21 11.1546L1006.92 11.477H1008.62L1009.76 10.9934H1010.9L1012.6 11.3158H1014.31H1015.45L1016.58 10.6711L1017.72 10.1875L1018.86 9.86513H1020.56L1022.27 10.0263L1023.41 10.5099L1024.55 10.9934L1025.11 11.477L1025.68 11.9605L1026.82 11.477V10.6711L1027.96 10.1875L1028.53 9.86513L1029.66 10.3487L1030.8 10.6711L1031.94 10.8322L1033.64 10.6711H1035.35L1036.49 10.9934L1037.06 11.477L1037.62 11.9605L1038.76 12.6053L1039.33 13.0888L1040.47 13.4112L1042.17 13.5724H1043.31L1045.02 13.8947L1046.72 14.3783L1048.43 13.8947L1049.57 13.5724L1050.7 13.4112H1052.41H1053.55L1055.25 13.5724L1056.96 13.8947H1058.66L1059.8 13.5724L1060.94 13.25L1062.64 12.6053L1063.78 11.9605L1064.35 11.3158L1064.92 10.6711L1065.49 10.0263L1066.06 9.38158L1066.62 8.73684V8.09211L1067.19 7.28618L1068.33 7.44737L1069.47 7.76974L1070.6 7.93092L1071.74 7.76974L1072.31 7.44737L1073.45 7.60855L1075.15 7.76974L1076.29 7.60855L1076.86 7.28618L1078 6.96382L1079.13 7.28618L1080.27 7.60855L1080.84 7.93092L1081.98 7.60855L1083.11 7.44737L1083.68 7.93092L1084.82 8.41447L1085.39 8.73684L1086.53 8.57566L1087.66 8.09211L1088.23 7.60855L1088.8 7.125L1089.37 6.64145L1089.94 5.99671L1090.51 5.51316L1091.08 4.86842H1092.78H1094.49L1095.62 4.54605L1096.76 4.22368L1097.9 3.90132L1099.04 3.74013L1101.31 4.0625L1102.45 4.38487L1103.02 4.86842L1104.15 5.35197L1104.72 5.83553L1105.29 6.31908L1105.86 6.80263H1107.57L1108.7 6.31908L1110.41 5.99671L1112.12 6.15789H1113.82L1115.53 5.99671L1117.23 5.67434L1118.94 5.51316H1120.64L1121.78 5.35197L1122.92 4.70724V4.0625V3.41776L1123.49 2.93421L1124.06 2.28947V1.80592L1125.19 1L1126.33 1.80592L1126.9 2.28947L1127.47 2.61184L1128.61 2.93421H1130.31L1132.02 3.09539H1133.72L1136 3.41776H1137.7L1138.84 3.74013L1140.55 4.0625L1142.25 3.90132H1143.96L1145.1 3.57895L1146.23 4.0625L1146.8 4.54605L1147.94 4.70724L1149.08 4.54605L1149.65 4.22368L1150.21 3.74013L1151.35 4.0625L1152.49 4.38487L1153.06 4.70724L1154.19 4.86842L1155.33 4.70724L1156.47 4.38487L1158.17 4.22368L1159.88 3.90132H1161.02L1162.16 3.74013L1163.29 3.41776L1165 3.25658L1167.27 3.09539H1168.98L1170.12 3.25658L1171.82 3.41776H1173.53H1174.67L1175.8 3.74013L1176.94 4.0625L1178.08 4.22368L1179.78 4.38487L1183.19 4.22368H1186.04H1188.31H1189.45L1191.16 3.57895L1192.29 3.25658L1194.57 2.93421H1196.84H1199.12L1201.39 2.61184L1204.23 2.93421H1207.08H1209.35L1211.06 3.57895L1212.76 4.22368L1213.9 4.86842V5.83553L1215.04 6.64145L1216.18 7.44737L1216.74 8.25329L1219.02 8.57566L1220.72 8.25329L1223.57 7.93092L1225.84 8.25329L1227.55 8.57566L1229.25 8.73684L1230.39 8.25329L1231.53 7.93092L1232.67 7.60855L1233.8 7.93092L1234.94 8.09211L1236.08 8.25329H1237.22H1238.35L1240.06 8.09211L1240.63 7.60855L1242.9 7.28618L1245.18 6.96382V6.31908L1245.74 5.67434L1246.31 5.02961L1246.88 4.54605L1247.45 4.0625L1248.59 4.38487L1249.73 4.70724L1250.86 4.86842H1252" stroke="#E3E4AB" stroke-linecap="round"/>
</svg>
