<svg width="1253" height="107" viewBox="0 0 1253 107" fill="none" xmlns="http://www.w3.org/2000/svg">
<path d="M1 71.8059L2.13727 71.1151H3.27455H4.41182L5.54909 70.4243L6.68636 69.7336L7.82364 69.0428L8.96091 68.352L10.0982 69.0428H11.2355L12.3727 68.6974L13.51 68.0066L14.6473 67.3158L15.7845 66.9704L16.9218 66.2796L18.0591 65.5888H19.1964L19.765 64.898L20.3336 64.2072H21.4709L22.6082 64.5526L23.1768 65.2434L23.7455 65.5888H24.8827L26.02 64.898L27.1573 65.2434V66.2796L27.7259 66.9704L28.2945 67.6612L28.8632 68.352L29.4318 68.6974H30.5691L31.7064 68.352L32.8436 68.6974L33.9809 69.3882L35.1182 69.7336L36.2555 69.0428L37.3927 68.352L37.9614 67.6612L39.0986 66.9704H40.2359L41.3732 67.3158L41.9418 68.0066L43.0791 68.6974H44.2164L45.3536 69.0428L46.4909 69.7336L47.6282 70.4243L48.1968 71.1151L48.7655 72.1513V73.1875V74.2237L49.3341 75.2599L49.9027 76.2961L50.4714 77.3322L51.6086 78.023H53.3145L54.4518 77.3322L55.5891 76.6414L56.7264 75.9507L57.8636 75.2599L58.4323 74.2237L59.0009 72.8421L59.5695 72.1513L60.1382 70.7697L61.2755 70.4243L62.4127 71.1151L62.9814 71.8059L63.55 72.4967L64.6873 73.1875L65.2559 73.8783L65.8245 74.5691L66.9618 74.9145L68.0991 75.2599L69.2364 75.9507L70.3736 76.6414L71.5109 76.9868L72.6482 76.6414L73.2168 75.9507H74.9227L76.06 76.2961L77.1973 76.6414L78.3345 77.3322L79.4718 76.6414L80.6091 75.9507H81.7464H82.8836L84.0209 76.6414L85.7268 76.9868L86.8641 77.6776L87.4327 78.3684L88.57 79.4046V80.4408L89.1386 81.1316L89.7073 82.1678L90.2759 83.2039L90.8445 84.2401L91.4132 85.2763L91.9818 86.6579L92.5505 87.6941L93.1191 88.7303L93.6877 89.7664L94.825 90.8026L95.3936 92.1842L95.9623 93.5658L96.5309 94.602L97.6682 95.9836V97.3651L98.8055 98.0559L99.9427 99.0921L101.08 99.4375L102.217 98.7467L103.355 97.7105L103.923 98.7467L105.347 99.4375L106.198 100.128L106.766 101.164L107.904 100.128L108.472 99.0921L109.61 98.4013L111.315 98.7467L112.453 99.4375L113.59 100.128L114.727 101.164L115.865 100.128L117.002 99.4375L118.139 100.128L119.276 100.819H120.414H121.551L122.688 100.128L124.394 99.7829L126.1 99.0921L127.806 98.7467L129.278 99.0921L130.649 100.128L132.04 100.819L133.492 101.51L135.198 102.201L136.335 102.891L137.473 103.928L138.61 104.618H140.316L141.453 103.928L142.59 104.964L143.159 106H144.865H146.571L147.708 105.309L148.845 104.273L149.983 103.582L151.12 102.546L152.826 101.855L155.1 101.164L156.806 100.128L158.512 99.0921L160.218 98.7467L162.493 99.4375L164.767 99.7829L166.473 100.819L167.61 101.855L168.748 103.237L169.316 104.273L170.454 104.964L171.591 106L172.728 105.655L173.865 104.273L175.003 103.237L176.709 102.201L177.846 100.819L179.552 99.4375L180.689 98.4013L181.258 97.0197L181.826 95.6382L182.395 94.2566L183.532 93.5658L185.238 92.875L185.807 91.4934L186.375 90.4572V89.0757L186.944 87.6941V86.6579L187.513 85.6217L188.081 84.9309L189.787 85.6217L190.925 85.9671L192.63 86.6579L193.768 85.6217L196.042 84.9309L197.18 83.8947L199.454 83.5493L200.591 84.5855H202.866L204.003 85.6217L204.572 86.6579L205.14 87.6941L205.709 88.3849L206.278 89.0757L207.415 89.7664L208.552 89.0757L209.121 87.6941L209.69 86.3125L210.258 84.9309L210.827 83.2039L211.395 81.8224L212.533 80.7862L213.101 79.75L213.67 78.7138L214.239 78.023L215.945 77.6776L217.65 78.023L219.356 78.7138L221.062 79.4046L222.768 80.0954L223.905 81.1316L225.043 81.8224L226.18 82.5132H227.317L228.757 81.8224L230.16 81.1316L231.298 81.8224L232.435 81.477L233.004 79.75L233.572 78.7138L234.71 77.6776L235.847 78.023L236.415 78.7138L237.553 79.0592L238.69 78.7138L239.827 78.023L240.965 76.9868L242.102 76.2961L243.808 76.6414L244.376 77.6776L244.945 78.3684L245.514 79.0592L246.082 77.6776L246.651 76.2961L247.22 74.9145L247.788 73.5329L248.357 72.1513L249.494 71.1151L251.2 70.7697L252.337 70.0789L252.906 69.0428L254.043 68.352L255.18 67.3158L256.886 67.6612L258.024 68.352L259.161 69.3882L260.298 70.0789H262.004H263.141L264.279 70.7697L265.416 71.4605L266.553 72.1513L267.69 72.8421L268.828 73.5329V74.2237V75.2599L269.396 76.2961L269.965 76.9868L270.534 78.023L271.102 79.4046L271.671 80.4408L272.808 81.477L273.377 82.1678L274.514 82.5132L275.651 82.1678L276.789 81.477L278.495 81.1316H279.632H280.2L281.906 80.4408L283.044 79.75L284.181 79.4046L285.887 79.0592L286.455 79.4046L287.024 80.4408L287.593 81.477L288.161 82.1678L288.73 83.2039V84.2401L289.299 85.2763L290.436 85.9671L291.573 86.6579L292.71 87.6941L293.848 88.3849H294.985L295.554 87.3487L296.122 86.3125L296.691 85.6217L297.828 84.9309L299.534 84.5855H300.671H301.809L302.946 84.2401L304.083 83.5493L305.789 83.2039H307.495L309.201 83.5493H310.338L311.475 83.2039L312.613 82.8586L313.75 82.1678L314.319 81.1316L314.887 80.7862L316.025 81.1316L316.593 81.8224L317.162 82.5132L317.73 83.2039V83.8947L318.868 83.5493L319.436 82.1678L320.574 81.8224L321.142 81.1316L322.28 80.4408L322.848 79.75L323.985 79.0592L324.809 78.023L325.691 77.3322L326.829 76.6414L327.397 75.6053L327.966 75.2599H329.103L330.24 75.6053L331.378 76.2961L332.515 76.6414L333.652 76.9868L334.221 77.6776V78.3684L334.79 79.0592V79.75L335.358 80.7862V81.477L335.927 82.1678L336.495 82.8586L337.633 82.1678L338.201 81.477L338.77 81.8224L339.907 82.8586V83.5493L340.476 84.5855L340.758 85.6217L341.045 86.6579L342.182 87.3487L343.888 88.0395L345.594 88.3849L346.731 88.0395L347.3 89.0757L347.868 89.7664V90.8026L348.437 91.4934L349.574 92.1842H351.28L352.417 91.8388L353.555 92.5296L354.692 93.5658L355.26 94.602L356.398 95.6382H357.535L358.672 94.602L359.241 93.5658L360.378 93.2204H362.653H363.79H365.496H366.633L368.339 92.875L368.908 92.1842L370.614 91.8388L372.32 91.4934L374.025 91.8388L375.731 92.1842H378.006L379.143 92.875H380.28L381.418 93.5658L383.124 93.9112L384.83 94.602H385.967L387.104 93.5658L387.673 92.875L388.81 92.1842L389.688 91.8388L391.085 90.8026L392.222 90.4572H393.928H395.065L396.771 90.8026L397.908 91.4934L399.614 91.8388L401.32 92.1842H402.751L403.595 91.8388L405.3 92.5296L405.869 92.875L406.438 93.5658L407.575 93.9112L408.712 93.2204L409.85 92.875H410.987H412.124L413.261 93.2204L413.83 93.5658H414.967L416.105 93.2204H417.242L418.379 93.5658H419.516L420.654 93.2204L421.222 92.875L422.36 92.1842L423.497 91.8388L424.634 91.4934L425.771 91.8388L426.34 92.5296L428.046 92.875L429.183 93.2204L430.32 93.5658L432.026 93.2204L432.595 92.875L433.732 92.5296L435.438 92.1842L436.575 91.8388L438.281 91.4934L438.85 90.8026L439.419 90.1118L439.987 89.7664L441.125 90.1118L442.262 90.4572L442.83 89.0757L443.399 88.0395L443.968 87.3487L444.536 86.6579L445.105 85.9671L445.674 84.9309L446.242 84.2401L446.811 83.2039L447.38 82.5132L447.948 81.477L448.517 81.1316L450.223 81.477L451.36 81.1316L452.497 80.0954L453.635 79.4046L454.772 78.7138V78.023L455.909 77.3322L457.046 77.6776L458.184 78.023H459.89H461.027L462.164 77.6776L463.87 77.3322L465.007 78.023L466.145 78.7138L467.282 79.0592L468.988 78.3684L469.556 76.9868L470.125 76.2961L470.694 75.2599L471.831 74.2237H472.968L474.674 74.9145L475.243 75.6053L476.949 76.2961L478.655 76.9868L479.223 78.023L479.792 78.7138V79.75L480.36 80.7862V82.1678V82.8586L480.929 83.8947V84.9309L481.498 85.9671V87.0033L482.066 87.6941V88.7303V89.4211L482.635 90.1118L483.204 91.148V92.1842V93.5658L484.341 94.9474V95.9836L485.478 95.2928C485.478 94.9474 485.478 94.1875 485.478 93.9112C485.478 93.6349 485.857 93.1053 486.047 92.875V91.4934L486.615 90.8026L487.753 90.4572L489.459 90.8026L490.596 91.148L491.165 91.8388L492.302 92.1842L493.439 92.875L494.008 93.5658L494.576 93.9112H495.714L496.282 93.2204L496.851 92.875L497.42 92.5296H497.988L499.125 92.1842H500.263L500.831 92.875L501.969 93.2204L502.537 93.5658L504.243 93.9112H505.38H506.518H507.655L508.224 93.5658H509.361H509.93L511.067 93.9112L511.635 94.602L512.204 95.2928L512.773 96.3289L513.341 96.6743L513.91 97.3651L515.047 98.0559H516.185L517.322 97.3651L518.459 97.0197L519.028 96.3289L519.596 95.9836L520.734 95.2928L521.302 94.9474L522.44 94.2566H523.577L524.714 93.9112H525.851H527.557L528.695 94.2566L529.832 94.602H531.538L532.675 95.2928H533.812L534.95 93.9112L535.518 92.875L536.087 91.8388L536.655 90.8026L537.224 90.4572L538.93 90.1118L540.067 89.7664H541.205L542.342 90.1118H543.479L544.616 90.4572L545.754 90.8026L546.322 91.4934H546.891L548.028 90.8026L549.165 90.1118H549.734L550.303 90.4572L551.44 90.8026L552.577 91.148C552.767 91.148 553.26 91.148 553.715 91.148C554.169 91.148 555.041 91.148 555.42 91.148L555.989 91.4934L557.126 91.8388L558.832 91.4934L559.401 90.8026L561.107 90.4572H562.813L564.519 90.8026H567.362L569.068 90.4572L570.774 89.7664L571.342 89.0757L572.48 88.0395H574.185L575.891 88.7303L576.46 89.4211L577.597 90.1118L578.735 90.8026V91.4934L579.303 92.1842L579.872 92.875L580.44 93.5658L581.009 94.2566V94.602H583.284L584.99 94.2566H586.127H587.264L587.833 94.602H588.97L590.107 93.9112L591.245 93.2204L592.382 92.875L593.519 92.5296H594.656H596.362H598.068H599.205L601.48 92.1842L603.186 91.4934L604.323 91.8388L605.46 92.5296L606.598 92.875L608.304 93.5658H609.441H612.284H613.421H614.559H616.833H617.402H619.108H620.814L621.951 93.2204L624.225 92.5296H625.011H626.5L627.637 92.1842L628.775 91.4934L629.912 90.8026L631.049 90.4572H632.755L633.892 90.8026H635.598L636.167 90.4572L637.304 90.1118L639.579 89.4211L640.147 88.7303L641.853 88.0395L642.99 87.3487L644.128 86.6579H645.834L646.402 85.6217L647.54 84.5855L648.108 83.5493L649.245 83.2039L650.951 82.8586L652.089 81.8224L652.657 80.4408V79.75L653.226 78.7138L653.795 77.6776L654.932 76.9868L657.775 76.6414L659.481 75.9507L661.187 75.2599H662.893L664.03 75.6053L665.167 76.2961L666.305 76.6414L667.442 76.9868L668.579 75.9507L669.148 74.9145L669.716 74.2237L670.854 73.1875L671.422 72.1513L671.991 71.1151H673.128L674.265 71.4605L675.971 71.8059L677.677 71.4605L678.815 70.7697L680.52 71.1151L680.792 72.1513L681.658 73.1875L682.226 73.8783L683.364 72.8421L683.932 71.8059L685.07 71.4605L686.207 71.8059L687.344 72.1513L688.481 71.8059L689.619 71.4605H690.756L691.893 71.8059L692.462 72.1513L693.599 71.4605L694.168 70.7697L694.736 70.0789H695.874L696.701 70.7697L697.58 71.8059L698.148 72.1513L699.097 72.8421L700.423 71.4605L701.56 70.4243L702.129 69.3882L702.697 68.352L703.266 68.0066H704.403L705.54 68.6974L707.246 68.352L708.384 68.0066L709.521 67.6612L710.658 68.0066L711.478 68.352H712.364L713.501 69.0428H714.639L715.207 69.3882L716.345 68.6974L716.913 68.352L718.05 67.6612L718.619 66.9704L720.325 67.3158L721.462 68.0066L722.031 68.6974L722.6 69.7336L723.168 70.7697L723.737 71.8059L724.305 72.4967L725.443 73.1875L726.58 73.8783L727.717 73.5329L728.855 73.1875L729.423 72.4967L731.129 73.1875L732.835 73.8783L733.972 74.2237L735.11 73.1875L736.247 72.1513L736.815 71.1151L737.384 70.0789L737.953 69.3882L738.521 68.352V67.6612L739.09 66.625L739.659 65.9342H740.796L741.933 66.625L743.07 65.9342L744.208 64.898L745.345 64.2072H747.051L748.188 64.5526L749.325 64.898L750.818 64.5526L751.6 63.5164H752.737L753.306 63.8618L754.443 64.898L755.58 65.5888L756.718 65.9342L757.855 66.2796L759.205 65.9342H760.13L761.267 66.2796L761.835 66.9704L762.404 67.6612L763.541 68.0066L764.11 66.625L764.679 65.9342L765.247 65.2434L766.385 64.5526L766.953 63.5164L768.09 62.4803L768.659 61.7895L769.796 60.7533L770.934 60.4079H772.64L773.208 60.7533L773.777 59.7171L774.914 59.0263L775.483 57.9901L776.62 57.6447L778.326 58.3355L778.895 58.6809L780.032 59.7171L780.6 60.7533V61.4441L781.169 62.1349L782.875 62.4803H784.012L785.718 62.1349H787.993H789.699H790.836L791.973 62.4803L793.11 62.8257L793.679 63.5164L794.248 64.2072L794.816 64.898L795.385 65.9342L795.954 66.9704L796.522 68.0066L797.091 68.6974L798.228 68.352L799.365 68.0066L800.503 67.3158L801.406 66.625L801.64 65.9342L802.209 65.2434V64.5526L802.777 63.5164V62.1349L803.346 61.0987L803.915 60.0625L804.483 59.0263L805.052 58.3355L805.62 57.6447L806.189 56.6086L806.758 55.9178L807.895 54.8816L808.464 54.1908L809.601 53.8454L810.738 54.1908L811.307 54.8816L811.875 55.5724L813.013 55.9178L814.15 55.227L815.287 54.5362L815.856 53.5L816.425 52.1184L816.993 51.0822L818.13 50.0461L818.699 49.3553L819.268 48.6645L820.405 47.9737H821.542L822.68 48.3191L824.385 49.0099L824.954 49.3553H826.091L827.229 48.6645L827.797 47.9737L828.366 47.6283L829.503 47.9737L830.072 48.6645L830.64 49.3553L831.209 49.7007L832.346 49.3553L832.915 48.6645L834.052 47.9737L835.19 47.6283L835.758 48.3191L836.895 48.6645L837.464 49.0099H838.601L839.17 48.6645L840.307 48.3191L841.445 47.9737L842.582 48.3191H843.719L844.856 47.9737L845.994 47.6283L847.131 47.2829L848.268 46.9375L849.405 46.5921L851.111 45.5559H852.249L853.955 45.2105H855.092L856.798 45.5559L857.935 45.9013L859.072 46.2467H860.21L861.347 45.5559L862.484 44.8651V43.8289L863.053 42.7928L863.621 41.7566L864.19 40.7204L864.759 40.375H866.465H868.17L869.876 41.0658L871.014 41.7566L872.151 42.102L874.425 42.4474L876.131 42.102L877.837 41.7566L878.975 40.375L880.112 39.3388L881.818 39.6842L883.524 40.0296L885.23 39.3388L885.798 37.9572V36.5757V35.5395L886.367 34.1579L886.935 32.4309V31.3947L887.504 30.3586L888.073 28.977L888.641 28.2862L890.916 27.9408H892.622H894.328H896.602H897.74H899.445L900.014 27.25L901.151 26.9046V27.5954L901.72 28.2862L902.289 29.3224V30.3586L902.857 31.7401V32.7763L903.426 33.4671V34.1579L903.995 34.8487H905.7H906.838L907.406 36.2303L907.975 37.2664L908.544 38.648L909.112 39.6842H910.25L911.387 39.3388L912.524 38.9934L913.661 38.648L914.799 38.9934L915.936 39.3388L917.642 38.9934L918.21 37.9572L919.348 37.2664L919.916 36.2303L921.054 35.5395L922.191 34.8487L923.897 35.1941L925.034 35.5395L926.171 35.8849H927.877L929.015 35.1941L930.152 34.8487L931.289 35.5395L932.426 35.8849L932.995 36.5757L934.132 37.2664L935.27 37.6118L936.407 36.9211L937.544 36.2303L938.681 35.1941L939.25 34.1579L940.387 33.4671L942.093 34.1579L943.23 34.8487L943.799 33.8125L944.368 32.7763L944.936 31.3947L945.505 30.3586L946.074 28.977V27.9408L947.211 29.6678L947.78 30.7039L948.348 31.7401L949.485 32.4309L951.191 33.4671L952.897 34.1579H954.035H955.74H957.446L958.584 34.8487L959.721 35.1941L960.858 35.8849L961.995 34.8487L963.133 33.8125H965.407H966.545L968.25 33.4671L969.388 32.7763L971.094 31.7401L972.231 31.0493L973.937 30.7039L974.505 31.7401L975.074 33.1217L975.643 34.5033L976.211 35.8849L977.349 36.9211H979.055L980.76 36.5757L982.466 35.8849L984.172 35.1941H985.878H987.015L988.153 34.8487L989.29 33.8125L989.859 33.1217L990.427 32.0855L990.996 31.3947L992.133 30.7039L993.27 31.3947L993.839 32.0855L994.408 32.7763L994.976 33.4671L996.114 33.1217L996.682 32.0855L997.82 31.3947L998.388 30.7039L999.525 29.6678L1000.66 28.977L1001.8 27.9408L1002.94 27.25V26.2138L1003.51 25.523L1004.07 24.4868V23.4507L1005.21 22.7599L1006.92 23.4507H1008.62L1009.76 22.4145H1010.9L1012.6 23.1053H1014.31H1015.45L1016.58 21.7237L1017.72 20.6875L1018.86 19.9967H1020.56L1022.27 20.3421L1023.41 21.3783L1024.55 22.4145L1025.11 23.4507L1025.68 24.4868L1026.82 23.4507V21.7237L1027.96 20.6875L1028.53 19.9967L1029.66 21.0329L1030.8 21.7237L1031.94 22.0691L1033.64 21.7237H1035.35L1036.49 22.4145L1037.06 23.4507L1037.62 24.4868L1038.76 25.8684L1039.33 26.9046L1040.47 27.5954L1042.17 27.9408H1043.31L1045.02 28.6316L1046.72 29.6678L1048.43 28.6316L1049.57 27.9408L1050.7 27.5954H1052.41H1053.55L1055.25 27.9408L1056.96 28.6316H1058.66L1059.8 27.9408L1060.94 27.25L1062.64 25.8684L1063.78 24.4868L1064.35 23.1053L1064.92 21.7237L1065.49 20.3421L1066.06 18.9605L1066.62 17.5789V16.1974L1067.19 14.4704L1068.33 14.8158L1069.47 15.5066L1070.6 15.852L1071.74 15.5066L1072.31 14.8158L1073.45 15.1612L1075.15 15.5066L1076.29 15.1612L1076.86 14.4704L1078 13.7796L1079.13 14.4704L1080.27 15.1612L1080.84 15.852L1081.98 15.1612L1083.11 14.8158L1083.68 15.852L1084.82 16.8882L1085.39 17.5789L1086.53 17.2336L1087.66 16.1974L1088.23 15.1612L1088.8 14.125L1089.37 13.0888L1089.94 11.7072L1090.51 10.6711L1091.08 9.28947H1092.78H1094.49L1095.62 8.59868L1096.76 7.90789L1097.9 7.21711L1099.04 6.87171L1101.31 7.5625L1102.45 8.25329L1103.02 9.28947L1104.15 10.3257L1104.72 11.3618L1105.29 12.398L1105.86 13.4342H1107.57L1108.7 12.398L1110.41 11.7072L1112.12 12.0526H1113.82L1115.53 11.7072L1117.23 11.0164L1118.94 10.6711H1120.64L1121.78 10.3257L1122.92 8.94408V7.5625V6.18092L1123.49 5.14474L1124.06 3.76316V2.72697L1125.19 1L1126.33 2.72697L1126.9 3.76316L1127.47 4.45395L1128.61 5.14474H1130.31L1132.02 5.49013H1133.72L1136 6.18092H1137.7L1138.84 6.87171L1140.55 7.5625L1142.25 7.21711H1143.96L1145.1 6.52632L1146.23 7.5625L1146.8 8.59868L1147.94 8.94408L1149.08 8.59868L1149.65 7.90789L1150.21 6.87171L1151.35 7.5625L1152.49 8.25329L1153.06 8.94408L1154.19 9.28947L1155.33 8.94408L1156.47 8.25329L1158.17 7.90789L1159.88 7.21711H1161.02L1162.16 6.87171L1163.29 6.18092L1165 5.83553L1167.27 5.49013H1168.98L1170.12 5.83553L1171.82 6.18092H1173.53H1174.67L1175.8 6.87171L1176.94 7.5625L1178.08 7.90789L1179.78 8.25329L1183.19 7.90789H1186.04H1188.31H1189.45L1191.16 6.52632L1192.29 5.83553L1194.57 5.14474H1196.84H1199.12L1201.39 4.45395L1204.23 5.14474H1207.08H1209.35L1211.06 6.52632L1212.76 7.90789L1213.9 9.28947V11.3618L1215.04 13.0888L1216.18 14.8158L1216.74 16.5428L1219.02 17.2336L1220.72 16.5428L1223.57 15.852L1225.84 16.5428L1227.55 17.2336L1229.25 17.5789L1230.39 16.5428L1231.53 15.852L1232.67 15.1612L1233.8 15.852L1234.94 16.1974L1236.08 16.5428H1237.22H1238.35L1240.06 16.1974L1240.63 15.1612L1242.9 14.4704L1245.18 13.7796V12.398L1245.74 11.0164L1246.31 9.63487L1246.88 8.59868L1247.45 7.5625L1248.59 8.25329L1249.73 8.94408L1250.86 9.28947H1252" stroke="#E4ABAB" stroke-linecap="round"/>
</svg>
