<svg width="1253" height="155" viewBox="0 0 1253 155" fill="none" xmlns="http://www.w3.org/2000/svg">
<path d="M1 104.5L2.13727 103.5H3.27455H4.41182L5.54909 102.5L6.68636 101.5L7.82364 100.5L8.96091 99.5L10.0982 100.5H11.2355L12.3727 100L13.51 99L14.6473 98L15.7845 97.5L16.9218 96.5L18.0591 95.5H19.1964L19.765 94.5L20.3336 93.5H21.4709L22.6082 94L23.1768 95L23.7455 95.5H24.8827L26.02 94.5L27.1573 95V96.5L27.7259 97.5L28.2945 98.5L28.8632 99.5L29.4318 100H30.5691L31.7064 99.5L32.8436 100L33.9809 101L35.1182 101.5L36.2555 100.5L37.3927 99.5L37.9614 98.5L39.0986 97.5H40.2359L41.3732 98L41.9418 99L43.0791 100H44.2164L45.3536 100.5L46.4909 101.5L47.6282 102.5L48.1968 103.5L48.7655 105V106.5V108L49.3341 109.5L49.9027 111L50.4714 112.5L51.6086 113.5H53.3145L54.4518 112.5L55.5891 111.5L56.7264 110.5L57.8636 109.5L58.4323 108L59.0009 106L59.5695 105L60.1382 103L61.2755 102.5L62.4127 103.5L62.9814 104.5L63.55 105.5L64.6873 106.5L65.2559 107.5L65.8245 108.5L66.9618 109L68.0991 109.5L69.2364 110.5L70.3736 111.5L71.5109 112L72.6482 111.5L73.2168 110.5H74.9227L76.06 111L77.1973 111.5L78.3345 112.5L79.4718 111.5L80.6091 110.5H81.7464H82.8836L84.0209 111.5L85.7268 112L86.8641 113L87.4327 114L88.57 115.5V117L89.1386 118L89.7073 119.5L90.2759 121L90.8445 122.5L91.4132 124L91.9818 126L92.5505 127.5L93.1191 129L93.6877 130.5L94.825 132L95.3936 134L95.9623 136L96.5309 137.5L97.6682 139.5V141.5L98.8055 142.5L99.9427 144L101.08 144.5L102.217 143.5L103.355 142L103.923 143.5L105.347 144.5L106.198 145.5L106.766 147L107.904 145.5L108.472 144L109.61 143L111.315 143.5L112.453 144.5L113.59 145.5L114.727 147L115.865 145.5L117.002 144.5L118.139 145.5L119.276 146.5H120.414H121.551L122.688 145.5L124.394 145L126.1 144L127.806 143.5L129.278 144L130.649 145.5L132.04 146.5L133.492 147.5L135.198 148.5L136.335 149.5L137.473 151L138.61 152H140.316L141.453 151L142.59 152.5L143.159 154H144.865H146.571L147.708 153L148.845 151.5L149.983 150.5L151.12 149L152.826 148L155.1 147L156.806 145.5L158.512 144L160.218 143.5L162.493 144.5L164.767 145L166.473 146.5L167.61 148L168.748 150L169.316 151.5L170.454 152.5L171.591 154L172.728 153.5L173.865 151.5L175.003 150L176.709 148.5L177.846 146.5L179.552 144.5L180.689 143L181.258 141L181.826 139L182.395 137L183.532 136L185.238 135L185.807 133L186.375 131.5V129.5L186.944 127.5V126L187.513 124.5L188.081 123.5L189.787 124.5L190.925 125L192.63 126L193.768 124.5L196.042 123.5L197.18 122L199.454 121.5L200.591 123H202.866L204.003 124.5L204.572 126L205.14 127.5L205.709 128.5L206.278 129.5L207.415 130.5L208.552 129.5L209.121 127.5L209.69 125.5L210.258 123.5L210.827 121L211.395 119L212.533 117.5L213.101 116L213.67 114.5L214.239 113.5L215.945 113L217.65 113.5L219.356 114.5L221.062 115.5L222.768 116.5L223.905 118L225.043 119L226.18 120H227.317L228.757 119L230.16 118L231.298 119L232.435 118.5L233.004 116L233.572 114.5L234.71 113L235.847 113.5L236.415 114.5L237.553 115L238.69 114.5L239.827 113.5L240.965 112L242.102 111L243.808 111.5L244.376 113L244.945 114L245.514 115L246.082 113L246.651 111L247.22 109L247.788 107L248.357 105L249.494 103.5L251.2 103L252.337 102L252.906 100.5L254.043 99.5L255.18 98L256.886 98.5L258.024 99.5L259.161 101L260.298 102H262.004H263.141L264.279 103L265.416 104L266.553 105L267.69 106L268.828 107V108V109.5L269.396 111L269.965 112L270.534 113.5L271.102 115.5L271.671 117L272.808 118.5L273.377 119.5L274.514 120L275.651 119.5L276.789 118.5L278.495 118H279.632H280.2L281.906 117L283.044 116L284.181 115.5L285.887 115L286.455 115.5L287.024 117L287.593 118.5L288.161 119.5L288.73 121V122.5L289.299 124L290.436 125L291.573 126L292.71 127.5L293.848 128.5H294.985L295.554 127L296.122 125.5L296.691 124.5L297.828 123.5L299.534 123H300.671H301.809L302.946 122.5L304.083 121.5L305.789 121H307.495L309.201 121.5H310.338L311.475 121L312.613 120.5L313.75 119.5L314.319 118L314.887 117.5L316.025 118L316.593 119L317.162 120L317.73 121V122L318.868 121.5L319.436 119.5L320.574 119L321.142 118L322.28 117L322.848 116L323.985 115L324.809 113.5L325.691 112.5L326.829 111.5L327.397 110L327.966 109.5H329.103L330.24 110L331.378 111L332.515 111.5L333.652 112L334.221 113V114L334.79 115V116L335.358 117.5V118.5L335.927 119.5L336.495 120.5L337.633 119.5L338.201 118.5L338.77 119L339.907 120.5V121.5L340.476 123L340.758 124.5L341.045 126L342.182 127L343.888 128L345.594 128.5L346.731 128L347.3 129.5L347.868 130.5V132L348.437 133L349.574 134H351.28L352.417 133.5L353.555 134.5L354.692 136L355.26 137.5L356.398 139H357.535L358.672 137.5L359.241 136L360.378 135.5H362.653H363.79H365.496H366.633L368.339 135L368.908 134L370.614 133.5L372.32 133L374.025 133.5L375.731 134H378.006L379.143 135H380.28L381.418 136L383.124 136.5L384.83 137.5H385.967L387.104 136L387.673 135L388.81 134L389.688 133.5L391.085 132L392.222 131.5H393.928H395.065L396.771 132L397.908 133L399.614 133.5L401.32 134H402.751L403.595 133.5L405.3 134.5L405.869 135L406.438 136L407.575 136.5L408.712 135.5L409.85 135H410.987H412.124L413.261 135.5L413.83 136H414.967L416.105 135.5H417.242L418.379 136H419.516L420.654 135.5L421.222 135L422.36 134L423.497 133.5L424.634 133L425.771 133.5L426.34 134.5L428.046 135L429.183 135.5L430.32 136L432.026 135.5L432.595 135L433.732 134.5L435.438 134L436.575 133.5L438.281 133L438.85 132L439.419 131L439.987 130.5L441.125 131L442.262 131.5L442.83 129.5L443.399 128L443.968 127L444.536 126L445.105 125L445.674 123.5L446.242 122.5L446.811 121L447.38 120L447.948 118.5L448.517 118L450.223 118.5L451.36 118L452.497 116.5L453.635 115.5L454.772 114.5V113.5L455.909 112.5L457.046 113L458.184 113.5H459.89H461.027L462.164 113L463.87 112.5L465.007 113.5L466.145 114.5L467.282 115L468.988 114L469.556 112L470.125 111L470.694 109.5L471.831 108H472.968L474.674 109L475.243 110L476.949 111L478.655 112L479.223 113.5L479.792 114.5V116L480.36 117.5V119.5V120.5L480.929 122V123.5L481.498 125V126.5L482.066 127.5V129V130L482.635 131L483.204 132.5V134V136L484.341 138V139.5L485.478 138.5C485.478 138 485.478 136.9 485.478 136.5C485.478 136.1 485.857 135.333 486.047 135V133L486.615 132L487.753 131.5L489.459 132L490.596 132.5L491.165 133.5L492.302 134L493.439 135L494.008 136L494.576 136.5H495.714L496.282 135.5L496.851 135L497.42 134.5H497.988L499.125 134H500.263L500.831 135L501.969 135.5L502.537 136L504.243 136.5H505.38H506.518H507.655L508.224 136H509.361H509.93L511.067 136.5L511.635 137.5L512.204 138.5L512.773 140L513.341 140.5L513.91 141.5L515.047 142.5H516.185L517.322 141.5L518.459 141L519.028 140L519.596 139.5L520.734 138.5L521.302 138L522.44 137H523.577L524.714 136.5H525.851H527.557L528.695 137L529.832 137.5H531.538L532.675 138.5H533.812L534.95 136.5L535.518 135L536.087 133.5L536.655 132L537.224 131.5L538.93 131L540.067 130.5H541.205L542.342 131H543.479L544.616 131.5L545.754 132L546.322 133H546.891L548.028 132L549.165 131H549.734L550.303 131.5L551.44 132L552.577 132.5C552.767 132.5 553.26 132.5 553.715 132.5C554.169 132.5 555.041 132.5 555.42 132.5L555.989 133L557.126 133.5L558.832 133L559.401 132L561.107 131.5H562.813L564.519 132H567.362L569.068 131.5L570.774 130.5L571.342 129.5L572.48 128H574.185L575.891 129L576.46 130L577.597 131L578.735 132V133L579.303 134L579.872 135L580.44 136L581.009 137V137.5H583.284L584.99 137H586.127H587.264L587.833 137.5H588.97L590.107 136.5L591.245 135.5L592.382 135L593.519 134.5H594.656H596.362H598.068H599.205L601.48 134L603.186 133L604.323 133.5L605.46 134.5L606.598 135L608.304 136H609.441H612.284H613.421H614.559H616.833H617.402H619.108H620.814L621.951 135.5L624.225 134.5H625.011H626.5L627.637 134L628.775 133L629.912 132L631.049 131.5H632.755L633.892 132H635.598L636.167 131.5L637.304 131L639.579 130L640.147 129L641.853 128L642.99 127L644.128 126H645.834L646.402 124.5L647.54 123L648.108 121.5L649.245 121L650.951 120.5L652.089 119L652.657 117V116L653.226 114.5L653.795 113L654.932 112L657.775 111.5L659.481 110.5L661.187 109.5H662.893L664.03 110L665.167 111L666.305 111.5L667.442 112L668.579 110.5L669.148 109L669.716 108L670.854 106.5L671.422 105L671.991 103.5H673.128L674.265 104L675.971 104.5L677.677 104L678.815 103L680.52 103.5L680.792 105L681.658 106.5L682.226 107.5L683.364 106L683.932 104.5L685.07 104L686.207 104.5L687.344 105L688.481 104.5L689.619 104H690.756L691.893 104.5L692.462 105L693.599 104L694.168 103L694.736 102H695.874L696.701 103L697.58 104.5L698.148 105L699.097 106L700.423 104L701.56 102.5L702.129 101L702.697 99.5L703.266 99H704.403L705.54 100L707.246 99.5L708.384 99L709.521 98.5L710.658 99L711.478 99.5H712.364L713.501 100.5H714.639L715.207 101L716.345 100L716.913 99.5L718.05 98.5L718.619 97.5L720.325 98L721.462 99L722.031 100L722.6 101.5L723.168 103L723.737 104.5L724.305 105.5L725.443 106.5L726.58 107.5L727.717 107L728.855 106.5L729.423 105.5L731.129 106.5L732.835 107.5L733.972 108L735.11 106.5L736.247 105L736.815 103.5L737.384 102L737.953 101L738.521 99.5V98.5L739.09 97L739.659 96H740.796L741.933 97L743.07 96L744.208 94.5L745.345 93.5H747.051L748.188 94L749.325 94.5L750.818 94L751.6 92.5H752.737L753.306 93L754.443 94.5L755.58 95.5L756.718 96L757.855 96.5L759.205 96H760.13L761.267 96.5L761.835 97.5L762.404 98.5L763.541 99L764.11 97L764.679 96L765.247 95L766.385 94L766.953 92.5L768.09 91L768.659 90L769.796 88.5L770.934 88H772.64L773.208 88.5L773.777 87L774.914 86L775.483 84.5L776.62 84L778.326 85L778.895 85.5L780.032 87L780.6 88.5V89.5L781.169 90.5L782.875 91H784.012L785.718 90.5H787.993H789.699H790.836L791.973 91L793.11 91.5L793.679 92.5L794.248 93.5L794.816 94.5L795.385 96L795.954 97.5L796.522 99L797.091 100L798.228 99.5L799.365 99L800.503 98L801.406 97L801.64 96L802.209 95V94L802.777 92.5V90.5L803.346 89L803.915 87.5L804.483 86L805.052 85L805.62 84L806.189 82.5L806.758 81.5L807.895 80L808.464 79L809.601 78.5L810.738 79L811.307 80L811.875 81L813.013 81.5L814.15 80.5L815.287 79.5L815.856 78L816.425 76L816.993 74.5L818.13 73L818.699 72L819.268 71L820.405 70H821.542L822.68 70.5L824.385 71.5L824.954 72H826.091L827.229 71L827.797 70L828.366 69.5L829.503 70L830.072 71L830.64 72L831.209 72.5L832.346 72L832.915 71L834.052 70L835.19 69.5L835.758 70.5L836.895 71L837.464 71.5H838.601L839.17 71L840.307 70.5L841.445 70L842.582 70.5H843.719L844.856 70L845.994 69.5L847.131 69L848.268 68.5L849.405 68L851.111 66.5H852.249L853.955 66H855.092L856.798 66.5L857.935 67L859.072 67.5H860.21L861.347 66.5L862.484 65.5V64L863.053 62.5L863.621 61L864.19 59.5L864.759 59H866.465H868.17L869.876 60L871.014 61L872.151 61.5L874.425 62L876.131 61.5L877.837 61L878.975 59L880.112 57.5L881.818 58L883.524 58.5L885.23 57.5L885.798 55.5V53.5V52L886.367 50L886.935 47.5V46L887.504 44.5L888.073 42.5L888.641 41.5L890.916 41H892.622H894.328H896.602H897.74H899.445L900.014 40L901.151 39.5V40.5L901.72 41.5L902.289 43V44.5L902.857 46.5V48L903.426 49V50L903.995 51H905.7H906.838L907.406 53L907.975 54.5L908.544 56.5L909.112 58H910.25L911.387 57.5L912.524 57L913.661 56.5L914.799 57L915.936 57.5L917.642 57L918.21 55.5L919.348 54.5L919.916 53L921.054 52L922.191 51L923.897 51.5L925.034 52L926.171 52.5H927.877L929.015 51.5L930.152 51L931.289 52L932.426 52.5L932.995 53.5L934.132 54.5L935.27 55L936.407 54L937.544 53L938.681 51.5L939.25 50L940.387 49L942.093 50L943.23 51L943.799 49.5L944.368 48L944.936 46L945.505 44.5L946.074 42.5V41L947.211 43.5L947.78 45L948.348 46.5L949.485 47.5L951.191 49L952.897 50H954.035H955.74H957.446L958.584 51L959.721 51.5L960.858 52.5L961.995 51L963.133 49.5H965.407H966.545L968.25 49L969.388 48L971.094 46.5L972.231 45.5L973.937 45L974.505 46.5L975.074 48.5L975.643 50.5L976.211 52.5L977.349 54H979.055L980.76 53.5L982.466 52.5L984.172 51.5H985.878H987.015L988.153 51L989.29 49.5L989.859 48.5L990.427 47L990.996 46L992.133 45L993.27 46L993.839 47L994.408 48L994.976 49L996.114 48.5L996.682 47L997.82 46L998.388 45L999.525 43.5L1000.66 42.5L1001.8 41L1002.94 40V38.5L1003.51 37.5L1004.07 36V34.5L1005.21 33.5L1006.92 34.5H1008.62L1009.76 33H1010.9L1012.6 34H1014.31H1015.45L1016.58 32L1017.72 30.5L1018.86 29.5H1020.56L1022.27 30L1023.41 31.5L1024.55 33L1025.11 34.5L1025.68 36L1026.82 34.5V32L1027.96 30.5L1028.53 29.5L1029.66 31L1030.8 32L1031.94 32.5L1033.64 32H1035.35L1036.49 33L1037.06 34.5L1037.62 36L1038.76 38L1039.33 39.5L1040.47 40.5L1042.17 41H1043.31L1045.02 42L1046.72 43.5L1048.43 42L1049.57 41L1050.7 40.5H1052.41H1053.55L1055.25 41L1056.96 42H1058.66L1059.8 41L1060.94 40L1062.64 38L1063.78 36L1064.35 34L1064.92 32L1065.49 30L1066.06 28L1066.62 26V24L1067.19 21.5L1068.33 22L1069.47 23L1070.6 23.5L1071.74 23L1072.31 22L1073.45 22.5L1075.15 23L1076.29 22.5L1076.86 21.5L1078 20.5L1079.13 21.5L1080.27 22.5L1080.84 23.5L1081.98 22.5L1083.11 22L1083.68 23.5L1084.82 25L1085.39 26L1086.53 25.5L1087.66 24L1088.23 22.5L1088.8 21L1089.37 19.5L1089.94 17.5L1090.51 16L1091.08 14H1092.78H1094.49L1095.62 13L1096.76 12L1097.9 11L1099.04 10.5L1101.31 11.5L1102.45 12.5L1103.02 14L1104.15 15.5L1104.72 17L1105.29 18.5L1105.86 20H1107.57L1108.7 18.5L1110.41 17.5L1112.12 18H1113.82L1115.53 17.5L1117.23 16.5L1118.94 16H1120.64L1121.78 15.5L1122.92 13.5V11.5V9.5L1123.49 8L1124.06 6V4.5L1125.19 2L1126.33 4.5L1126.9 6L1127.47 7L1128.61 8H1130.31L1132.02 8.5H1133.72L1136 9.5H1137.7L1138.84 10.5L1140.55 11.5L1142.25 11H1143.96L1145.1 10L1146.23 11.5L1146.8 13L1147.94 13.5L1149.08 13L1149.65 12L1150.21 10.5L1151.35 11.5L1152.49 12.5L1153.06 13.5L1154.19 14L1155.33 13.5L1156.47 12.5L1158.17 12L1159.88 11H1161.02L1162.16 10.5L1163.29 9.5L1165 9L1167.27 8.5H1168.98L1170.12 9L1171.82 9.5H1173.53H1174.67L1175.8 10.5L1176.94 11.5L1178.08 12L1179.78 12.5L1183.19 12H1186.04H1188.31H1189.45L1191.16 10L1192.29 9L1194.57 8H1196.84H1199.12L1201.39 7L1204.23 8H1207.08H1209.35L1211.06 10L1212.76 12L1213.9 14V17L1215.04 19.5L1216.18 22L1216.74 24.5L1219.02 25.5L1220.72 24.5L1223.57 23.5L1225.84 24.5L1227.55 25.5L1229.25 26L1230.39 24.5L1231.53 23.5L1232.67 22.5L1233.8 23.5L1234.94 24L1236.08 24.5H1237.22H1238.35L1240.06 24L1240.63 22.5L1242.9 21.5L1245.18 20.5V18.5L1245.74 16.5L1246.31 14.5L1246.88 13L1247.45 11.5L1248.59 12.5L1249.73 13.5L1250.86 14H1252" stroke="white" stroke-linecap="round"/>
</svg>
