<svg width="1253" height="119" viewBox="0 0 1253 119" fill="none" xmlns="http://www.w3.org/2000/svg">
<path d="M1252 39.102L1250.86 39.8717H1249.73H1248.59L1247.45 40.6414L1246.31 41.4112L1245.18 42.1809L1244.04 42.9507L1242.9 42.1809H1241.76L1240.63 42.5658L1239.49 43.3355L1238.35 44.1053L1237.22 44.4901L1236.08 45.2599L1234.94 46.0296H1233.8L1233.24 46.7993L1232.67 47.5691H1231.53L1230.39 47.1842L1229.82 46.4145L1229.25 46.0296H1228.12L1226.98 46.7993L1225.84 46.4145V45.2599L1225.27 44.4901L1224.71 43.7204L1224.14 42.9507L1223.57 42.5658H1222.43L1221.29 42.9507L1220.16 42.5658L1219.02 41.7961L1217.88 41.4112L1216.74 42.1809L1215.61 42.9507L1215.04 43.7204L1213.9 44.4901H1212.76L1211.63 44.1053L1211.06 43.3355L1209.92 42.5658H1208.78L1207.65 42.1809L1206.51 41.4112L1205.37 40.6414L1204.8 39.8717L1204.23 38.7171V37.5625V36.4079L1203.67 35.2533L1203.1 34.0987L1202.53 32.9441L1201.39 32.1743H1199.69L1198.55 32.9441L1197.41 33.7138L1196.27 34.4836L1195.14 35.2533L1194.57 36.4079L1194 37.9474L1193.43 38.7171L1192.86 40.2566L1191.72 40.6414L1190.59 39.8717L1190.02 39.102L1189.45 38.3322L1188.31 37.5625L1187.74 36.7928L1187.18 36.023L1186.04 35.6382L1184.9 35.2533L1183.76 34.4836L1182.63 33.7138L1181.49 33.3289L1180.35 33.7138L1179.78 34.4836H1178.08L1176.94 34.0987L1175.8 33.7138L1174.67 32.9441L1173.53 33.7138L1172.39 34.4836H1171.25H1170.12L1168.98 33.7138L1167.27 33.3289L1166.14 32.5592L1165.57 31.7895L1164.43 30.6349V29.4803L1163.86 28.7105L1163.29 27.5559L1162.72 26.4013L1162.16 25.2467L1161.59 24.0921L1161.02 22.5526L1160.45 21.398L1159.88 20.2434L1159.31 19.0888L1158.18 17.9342L1157.61 16.3947L1157.04 14.8553L1156.47 13.7007L1155.33 12.1612V10.6217L1154.19 9.85198L1153.06 8.69737L1151.92 8.3125L1150.78 9.08224L1149.65 10.2368L1149.08 9.08224L1147.65 8.3125L1146.8 7.54277L1146.23 6.38816L1145.1 7.54277L1144.53 8.69737L1143.39 9.46711L1141.68 9.08224L1140.55 8.3125L1139.41 7.54277L1138.27 6.38816L1137.14 7.54277L1136 8.3125L1134.86 7.54277L1133.72 6.77303H1132.59H1131.45L1130.31 7.54277L1128.61 7.92763L1126.9 8.69737L1125.19 9.08224L1123.72 8.69737L1122.35 7.54277L1120.96 6.77303L1119.51 6.00329L1117.8 5.23355L1116.66 4.46382L1115.53 3.30921L1114.39 2.53948H1112.68L1111.55 3.30921L1110.41 2.15461L1109.84 1H1108.14H1106.43L1105.29 1.76974L1104.15 2.92434L1103.02 3.69408L1101.88 4.84869L1100.17 5.61842L1097.9 6.38816L1096.19 7.54277L1094.49 8.69737L1092.78 9.08224L1090.51 8.3125L1088.23 7.92763L1086.53 6.77303L1085.39 5.61842L1084.25 4.07895L1083.68 2.92434L1082.55 2.15461L1081.41 1L1080.27 1.38487L1079.13 2.92434L1078 4.07895L1076.29 5.23355L1075.15 6.77303L1073.45 8.3125L1072.31 9.46711L1071.74 11.0066L1071.17 12.5461L1070.61 14.0855L1069.47 14.8553L1067.76 15.625L1067.19 17.1645L1066.62 18.3191V19.8586L1066.06 21.398V22.5526L1065.49 23.7072L1064.92 24.477L1063.21 23.7072L1062.08 23.3224L1060.37 22.5526L1059.23 23.7072L1056.96 24.477L1055.82 25.6316L1053.55 26.0164L1052.41 24.8618H1050.13L1049 23.7072L1048.43 22.5526L1047.86 21.398L1047.29 20.6283L1046.72 19.8586L1045.59 19.0888L1044.45 19.8586L1043.88 21.398L1043.31 22.9375L1042.74 24.477L1042.17 26.4013L1041.6 27.9408L1040.47 29.0954L1039.9 30.25L1039.33 31.4046L1038.76 32.1743L1037.06 32.5592L1035.35 32.1743L1033.64 31.4046L1031.94 30.6349L1030.23 29.8651L1029.09 28.7105L1027.96 27.9408L1026.82 27.1711H1025.68L1024.24 27.9408L1022.84 28.7105L1021.7 27.9408L1020.57 28.3257L1020 30.25L1019.43 31.4046L1018.29 32.5592L1017.15 32.1743L1016.58 31.4046L1015.45 31.0197L1014.31 31.4046L1013.17 32.1743L1012.04 33.3289L1010.9 34.0987L1009.19 33.7138L1008.62 32.5592L1008.06 31.7895L1007.49 31.0197L1006.92 32.5592L1006.35 34.0987L1005.78 35.6382L1005.21 37.1776L1004.64 38.7171L1003.51 39.8717L1001.8 40.2566L1000.66 41.0263L1000.09 42.1809L998.957 42.9507L997.82 44.1053L996.114 43.7204L994.976 42.9507L993.839 41.7961L992.702 41.0263H990.996H989.859L988.721 40.2566L987.584 39.4868L986.447 38.7171L985.31 37.9474L984.172 37.1776V36.4079V35.2533L983.604 34.0987L983.035 33.3289L982.466 32.1743L981.898 30.6349L981.329 29.4803L980.192 28.3257L979.623 27.5559L978.486 27.1711L977.349 27.5559L976.211 28.3257L974.505 28.7105H973.368H972.8L971.094 29.4803L969.956 30.25L968.819 30.6349L967.113 31.0197L966.545 30.6349L965.976 29.4803L965.407 28.3257L964.839 27.5559L964.27 26.4013V25.2467L963.701 24.0921L962.564 23.3224L961.427 22.5526L960.29 21.398L959.152 20.6283H958.015L957.446 21.7829L956.878 22.9375L956.309 23.7072L955.172 24.477L953.466 24.8618H952.329H951.191L950.054 25.2467L948.917 26.0164L947.211 26.4013H945.505L943.799 26.0164H942.662L941.525 26.4013L940.387 26.7862L939.25 27.5559L938.681 28.7105L938.113 29.0954L936.975 28.7105L936.407 27.9408L935.838 27.1711L935.27 26.4013V25.6316L934.132 26.0164L933.564 27.5559L932.426 27.9408L931.858 28.7105L930.72 29.4803L930.152 30.25L929.015 31.0197L928.191 32.1743L927.309 32.9441L926.171 33.7138L925.603 34.8684L925.034 35.2533H923.897L922.76 34.8684L921.622 34.0987L920.485 33.7138L919.348 33.3289L918.779 32.5592V31.7895L918.21 31.0197V30.25L917.642 29.0954V28.3257L917.073 27.5559L916.505 26.7862L915.367 27.5559L914.799 28.3257L914.23 27.9408L913.093 26.7862V26.0164L912.524 24.8618L912.242 23.7072L911.955 22.5526L910.818 21.7829L909.112 21.0132L907.406 20.6283L906.269 21.0132L905.7 19.8586L905.132 19.0888V17.9342L904.563 17.1645L903.426 16.3947H901.72L900.583 16.7796L899.445 16.0099L898.308 14.8553L897.74 13.7007L896.602 12.5461H895.465L894.328 13.7007L893.759 14.8553L892.622 15.2401H890.347H889.21H887.504H886.367L884.661 15.625L884.092 16.3947L882.386 16.7796L880.68 17.1645L878.975 16.7796L877.269 16.3947H874.994L873.857 15.625H872.72L871.582 14.8553L869.876 14.4704L868.17 13.7007H867.033L865.896 14.8553L865.327 15.625L864.19 16.3947L863.312 16.7796L861.915 17.9342L860.778 18.3191H859.072H857.935L856.229 17.9342L855.092 17.1645L853.386 16.7796L851.68 16.3947H850.249L849.405 16.7796L847.7 16.0099L847.131 15.625L846.562 14.8553L845.425 14.4704L844.288 15.2401L843.15 15.625H842.013H840.876L839.739 15.2401L839.17 14.8553H838.033L836.895 15.2401H835.758L834.621 14.8553H833.484L832.346 15.2401L831.778 15.625L830.64 16.3947L829.503 16.7796L828.366 17.1645L827.229 16.7796L826.66 16.0099L824.954 15.625L823.817 15.2401L822.68 14.8553L820.974 15.2401L820.405 15.625L819.268 16.0099L817.562 16.3947L816.425 16.7796L814.719 17.1645L814.15 17.9342L813.581 18.7039L813.013 19.0888L811.875 18.7039L810.738 18.3191L810.17 19.8586L809.601 21.0132L809.032 21.7829L808.464 22.5526L807.895 23.3224L807.326 24.477L806.758 25.2467L806.189 26.4013L805.62 27.1711L805.052 28.3257L804.483 28.7105L802.777 28.3257L801.64 28.7105L800.503 29.8651L799.365 30.6349L798.228 31.4046V32.1743L797.091 32.9441L795.954 32.5592L794.816 32.1743H793.11H791.973L790.836 32.5592L789.13 32.9441L787.993 32.1743L786.855 31.4046L785.718 31.0197L784.012 31.7895L783.444 33.3289L782.875 34.0987L782.306 35.2533L781.169 36.4079H780.032L778.326 35.6382L777.757 34.8684L776.051 34.0987L774.345 33.3289L773.777 32.1743L773.208 31.4046V30.25L772.64 29.0954V27.5559V26.7862L772.071 25.6316V24.477L771.502 23.3224V22.1678L770.934 21.398V20.2434V19.4737L770.365 18.7039L769.796 17.5493V16.3947V14.8553L768.659 13.3158V12.1612L767.522 12.9309C767.522 13.3158 767.522 14.1625 767.522 14.4704C767.522 14.7783 767.143 15.3684 766.953 15.625V17.1645L766.385 17.9342L765.247 18.3191L763.541 17.9342L762.404 17.5493L761.835 16.7796L760.698 16.3947L759.561 15.625L758.992 14.8553L758.424 14.4704H757.286L756.718 15.2401L756.149 15.625L755.58 16.0099H755.012L753.875 16.3947H752.737L752.169 15.625L751.031 15.2401L750.463 14.8553L748.757 14.4704H747.62H746.482H745.345L744.776 14.8553H743.639H743.07L741.933 14.4704L741.365 13.7007L740.796 12.9309L740.227 11.7763L739.659 11.3914L739.09 10.6217L737.953 9.85198H736.815L735.678 10.6217L734.541 11.0066L733.972 11.7763L733.404 12.1612L732.266 12.9309L731.698 13.3158L730.56 14.0855H729.423L728.286 14.4704H727.149H725.443L724.305 14.0855L723.168 13.7007H721.462L720.325 12.9309H719.188L718.05 14.4704L717.482 15.625L716.913 16.7796L716.345 17.9342L715.776 18.3191L714.07 18.7039L712.933 19.0888H711.795L710.658 18.7039H709.521L708.384 18.3191L707.246 17.9342L706.678 17.1645H706.109L704.972 17.9342L703.835 18.7039H703.266L702.697 18.3191L701.56 17.9342L700.423 17.5493C700.233 17.5493 699.74 17.5493 699.285 17.5493C698.831 17.5493 697.959 17.5493 697.58 17.5493L697.011 17.1645L695.874 16.7796L694.168 17.1645L693.599 17.9342L691.893 18.3191H690.187L688.481 17.9342H685.638L683.932 18.3191L682.226 19.0888L681.658 19.8586L680.52 21.0132H678.815L677.109 20.2434L676.54 19.4737L675.403 18.7039L674.265 17.9342V17.1645L673.697 16.3947L673.128 15.625L672.56 14.8553L671.991 14.0855V13.7007H669.716L668.01 14.0855H666.873H665.736L665.167 13.7007H664.03L662.893 14.4704L661.755 15.2401L660.618 15.625L659.481 16.0099H658.344H656.638H654.932H653.795L651.52 16.3947L649.814 17.1645L648.677 16.7796L647.54 16.0099L646.402 15.625L644.696 14.8553H643.559H640.716H639.579H638.441H636.167H635.598H633.892H632.186L631.049 15.2401L628.775 16.0099H627.989H626.5L625.363 16.3947L624.225 17.1645L623.088 17.9342L621.951 18.3191H620.245L619.108 17.9342H617.402L616.833 18.3191L615.696 18.7039L613.421 19.4737L612.853 20.2434L611.147 21.0132L610.01 21.7829L608.872 22.5526H607.166L606.598 23.7072L605.46 24.8618L604.892 26.0164L603.755 26.4013L602.049 26.7862L600.911 27.9408L600.343 29.4803V30.25L599.774 31.4046L599.205 32.5592L598.068 33.3289L595.225 33.7138L593.519 34.4836L591.813 35.2533H590.107L588.97 34.8684L587.833 34.0987L586.695 33.7138L585.558 33.3289L584.421 34.4836L583.852 35.6382L583.284 36.4079L582.146 37.5625L581.578 38.7171L581.009 39.8717H579.872L578.735 39.4868L577.029 39.102L575.323 39.4868L574.185 40.2566L572.48 39.8717L572.208 38.7171L571.342 37.5625L570.774 36.7928L569.636 37.9474L569.068 39.102L567.93 39.4868L566.793 39.102L565.656 38.7171L564.519 39.102L563.381 39.4868H562.244L561.107 39.102L560.538 38.7171L559.401 39.4868L558.832 40.2566L558.264 41.0263H557.126L556.299 40.2566L555.42 39.102L554.852 38.7171L553.903 37.9474L552.577 39.4868L551.44 40.6414L550.871 41.7961L550.303 42.9507L549.734 43.3355H548.597L547.46 42.5658L545.754 42.9507L544.616 43.3355L543.479 43.7204L542.342 43.3355L541.522 42.9507H540.636L539.499 42.1809H538.361L537.793 41.7961L536.655 42.5658L536.087 42.9507L534.95 43.7204L534.381 44.4901L532.675 44.1053L531.538 43.3355L530.969 42.5658L530.4 41.4112L529.832 40.2566L529.263 39.102L528.695 38.3322L527.557 37.5625L526.42 36.7928L525.283 37.1776L524.145 37.5625L523.577 38.3322L521.871 37.5625L520.165 36.7928L519.028 36.4079L517.89 37.5625L516.753 38.7171L516.185 39.8717L515.616 41.0263L515.047 41.7961L514.479 42.9507V43.7204L513.91 44.875L513.341 45.6447H512.204L511.067 44.875L509.93 45.6447L508.792 46.7993L507.655 47.5691H505.949L504.812 47.1842L503.675 46.7993L502.182 47.1842L501.4 48.3388H500.263L499.694 47.9539L498.557 46.7993L497.42 46.0296L496.282 45.6447L495.145 45.2599L493.795 45.6447H492.87L491.733 45.2599L491.165 44.4901L490.596 43.7204L489.459 43.3355L488.89 44.875L488.321 45.6447L487.753 46.4145L486.615 47.1842L486.047 48.3388L484.91 49.4934L484.341 50.2632L483.204 51.4178L482.066 51.8026H480.36L479.792 51.4178L479.223 52.5724L478.086 53.3421L477.517 54.4967L476.38 54.8816L474.674 54.1118L474.105 53.727L472.968 52.5724L472.4 51.4178V50.648L471.831 49.8783L470.125 49.4934H468.988L467.282 49.8783H465.007H463.301H462.164L461.027 49.4934L459.89 49.1086L459.321 48.3388L458.752 47.5691L458.184 46.7993L457.615 45.6447L457.046 44.4901L456.478 43.3355L455.909 42.5658L454.772 42.9507L453.635 43.3355L452.497 44.1053L451.594 44.875L451.36 45.6447L450.791 46.4145V47.1842L450.223 48.3388V49.8783L449.654 51.0329L449.085 52.1875L448.517 53.3421L447.948 54.1118L447.38 54.8816L446.811 56.0362L446.242 56.8059L445.105 57.9605L444.536 58.7303L443.399 59.1151L442.262 58.7303L441.693 57.9605L441.125 57.1908L439.987 56.8059L438.85 57.5757L437.713 58.3454L437.144 59.5L436.575 61.0395L436.007 62.1941L434.87 63.3487L434.301 64.1184L433.732 64.8882L432.595 65.6579H431.458L430.32 65.273L428.615 64.5033L428.046 64.1184H426.909L425.771 64.8882L425.203 65.6579L424.634 66.0428L423.497 65.6579L422.928 64.8882L422.36 64.1184L421.791 63.7336L420.654 64.1184L420.085 64.8882L418.948 65.6579L417.81 66.0428L417.242 65.273L416.105 64.8882L415.536 64.5033H414.399L413.83 64.8882L412.693 65.273L411.555 65.6579L410.418 65.273H409.281L408.144 65.6579L407.006 66.0428L405.869 66.4276L404.732 66.8125L403.595 67.1974L401.889 68.352H400.751L399.045 68.7368H397.908L396.202 68.352L395.065 67.9671L393.928 67.5822H392.79L391.653 68.352L390.516 69.1217V70.2763L389.947 71.4309L389.379 72.5855L388.81 73.7401L388.241 74.125H386.535H384.83L383.124 73.3553L381.986 72.5855L380.849 72.2007L378.575 71.8158L376.869 72.2007L375.163 72.5855L374.025 74.125L372.888 75.2796L371.182 74.8947L369.476 74.5099L367.77 75.2796L367.202 76.8191V78.3586V79.5132L366.633 81.0526L366.065 82.977V84.1316L365.496 85.2862L364.927 86.8257L364.359 87.5954L362.084 87.9803H360.378H358.672H356.398H355.26H353.555L352.986 88.75L351.849 89.1349V88.3651L351.28 87.5954L350.711 86.4408V85.2862L350.143 83.7467V82.5921L349.574 81.8224V81.0526L349.005 80.2829H347.3H346.162L345.594 78.7434L345.025 77.5888L344.456 76.0493L343.888 74.8947H342.75L341.613 75.2796L340.476 75.6645L339.339 76.0493L338.201 75.6645L337.064 75.2796L335.358 75.6645L334.79 76.8191L333.652 77.5888L333.084 78.7434L331.946 79.5132L330.809 80.2829L329.103 79.898L327.966 79.5132L326.829 79.1283H325.123L323.985 79.898L322.848 80.2829L321.711 79.5132L320.574 79.1283L320.005 78.3586L318.868 77.5888L317.73 77.2039L316.593 77.9737L315.456 78.7434L314.319 79.898L313.75 81.0526L312.613 81.8224L310.907 81.0526L309.77 80.2829L309.201 81.4375L308.632 82.5921L308.064 84.1316L307.495 85.2862L306.926 86.8257V87.9803L305.789 86.0559L305.22 84.9013L304.652 83.7467L303.515 82.977L301.809 81.8224L300.103 81.0526H298.965H297.26H295.554L294.416 80.2829L293.279 79.898L292.142 79.1283L291.005 80.2829L289.867 81.4375H287.593H286.455L284.75 81.8224L283.612 82.5921L281.906 83.7467L280.769 84.5164L279.063 84.9013L278.495 83.7467L277.926 82.2072L277.357 80.6678L276.789 79.1283L275.651 77.9737H273.945L272.24 78.3586L270.534 79.1283L268.828 79.898H267.122H265.985L264.847 80.2829L263.71 81.4375L263.141 82.2072L262.573 83.3618L262.004 84.1316L260.867 84.9013L259.73 84.1316L259.161 83.3618L258.592 82.5921L258.024 81.8224L256.886 82.2072L256.318 83.3618L255.18 84.1316L254.612 84.9013L253.475 86.0559L252.337 86.8257L251.2 87.9803L250.063 88.75V89.9046L249.494 90.6743L248.925 91.8289V92.9836L247.788 93.7533L246.082 92.9836H244.376L243.239 94.1382H242.102L240.396 93.3684H238.69H237.553L236.415 94.9079L235.278 96.0625L234.141 96.8322H232.435L230.729 96.4474L229.592 95.2928L228.455 94.1382L227.886 92.9836L227.317 91.8289L226.18 92.9836V94.9079L225.043 96.0625L224.474 96.8322L223.337 95.6776L222.2 94.9079L221.062 94.523L219.356 94.9079H217.65L216.513 94.1382L215.945 92.9836L215.376 91.8289L214.239 90.2895L213.67 89.1349L212.533 88.3651L210.827 87.9803H209.69L207.984 87.2105L206.278 86.0559L204.572 87.2105L203.435 87.9803L202.297 88.3651H200.591H199.454L197.748 87.9803L196.042 87.2105H194.336L193.199 87.9803L192.062 88.75L190.356 90.2895L189.219 91.8289L188.65 93.3684L188.081 94.9079L187.513 96.4474L186.944 97.9868L186.375 99.5263V101.066L185.807 102.99L184.67 102.605L183.532 101.836L182.395 101.451L181.258 101.836L180.689 102.605L179.552 102.22L177.846 101.836L176.709 102.22L176.14 102.99L175.003 103.76L173.865 102.99L172.728 102.22L172.16 101.451L171.022 102.22L169.885 102.605L169.316 101.451L168.179 100.296L167.61 99.5263L166.473 99.9112L165.336 101.066L164.767 102.22L164.199 103.375L163.63 104.53L163.061 106.069L162.493 107.224L161.924 108.763H160.218H158.512L157.375 109.533L156.238 110.303L155.1 111.072L153.963 111.457L151.689 110.688L150.551 109.918L149.983 108.763L148.845 107.609L148.277 106.454L147.708 105.299L147.14 104.145H145.434L144.296 105.299L142.59 106.069L140.885 105.684H139.179L137.473 106.069L135.767 106.839L134.061 107.224H132.355L131.218 107.609L130.08 109.148V110.688V112.227L129.512 113.382L128.943 114.921V116.076L127.806 118L126.669 116.076L126.1 114.921L125.531 114.151L124.394 113.382H122.688L120.982 112.997H119.276L117.002 112.227H115.296L114.159 111.457L112.453 110.688L110.747 111.072H109.041L107.904 111.842L106.766 110.688L106.198 109.533L105.06 109.148L103.923 109.533L103.355 110.303L102.786 111.457L101.649 110.688L100.511 109.918L99.9427 109.148L98.8055 108.763L97.6682 109.148L96.5309 109.918L94.825 110.303L93.1191 111.072H91.9818L90.8446 111.457L89.7073 112.227L88.0014 112.612L85.7268 112.997H84.0209L82.8836 112.612L81.1777 112.227H79.4718H78.3346L77.1973 111.457L76.06 110.688L74.9227 110.303L73.2168 109.918L69.805 110.303H66.9618H64.6873H63.55L61.8441 111.842L60.7068 112.612L58.4323 113.382H56.1577H53.8832L51.6086 114.151L48.7655 113.382H45.9223H43.6477L41.9418 111.842L40.2359 110.303L39.0986 108.763V106.454L37.9614 104.53L36.8241 102.605L36.2555 100.681L33.9809 99.9112L32.275 100.681L29.4318 101.451L27.1573 100.681L25.4514 99.9112L23.7455 99.5263L22.6082 100.681L21.4709 101.451L20.3336 102.22L19.1964 101.451L18.0591 101.066L16.9218 100.681H15.7846H14.6473L12.9414 101.066L12.3727 102.22L10.0982 102.99L7.82365 103.76V105.299L7.25501 106.839L6.68638 108.378L6.11774 109.533L5.5491 110.688L4.41183 109.918L3.27456 109.148L2.13729 108.763H1.00001" stroke="#3399F6" stroke-linecap="round"/>
</svg>
